<svg xmlns="http://www.w3.org/2000/svg" width="316.223" height="210.604" viewBox="0 0 316.223 210.604">
  <g id="Grupo_7819" data-name="Grupo 7819" transform="translate(-561.576 -1786.175)">
    <path id="Trazado_1939" data-name="Trazado 1939" d="M675.69,7103.574l-7.829,1.107-2.778,16.443-7.227-3.32-6.411-5.217-3.283-16.127h-5.825l-.413-6.332-10.126-2.207-11.25,30.041-19.379-3.162-28.5,14.23v62.591H688.824Z" transform="translate(0 -5301.746)" fill="#82b071"/>
    <path id="Trazado_1940" data-name="Trazado 1940" d="M867.815,7245.829v-84.292l-15.156-17.625-5.06-39.231-9.329,4.111-1.423,12.649-5.376,6.008-3.162,41.109-12.649-1.9-6.682-35.417-8.8-3.479-1.581-19.605-11.183.949-9.352,84.063v52.658Z" transform="translate(0 -5301.746)" fill="#eecb74"/>
    <path id="Trazado_1941" data-name="Trazado 1941" d="M867.815,7245.829v-38.106l-26.77-31.463-20.217,6.263-22.181-38.61H785.173l-11.7-20.135H758.487l-55.432,80.315v41.737Z" transform="translate(0 -5301.746)" fill="#82b071"/>
    <path id="Trazado_1942" data-name="Trazado 1942" d="M572.666,7176.26v-27.466l13.783-17.426h10.819l15.451,15.451h15.748l20.844-20.844h12.24l92.621,92.621v19.8H572.666Z" transform="translate(0 -5301.746)" fill="#86c175"/>
    <path id="Trazado_1943" data-name="Trazado 1943" d="M867.815,7245.829v-20.368l-29.544-8.829-31.464,3.163-27.529-5.922-50.131-3.248-30.488,5.643v29.562Z" transform="translate(0 -5301.746)" fill="#86c175"/>
    <path id="Trazado_1944" data-name="Trazado 1944" d="M800.849,7236.342l50.07-3.942,16.9,5.868v7.561H800.849v-9.487" transform="translate(0 -5301.746)" fill="#eecb74"/>
    <g id="Grupo_2488" data-name="Grupo 2488" transform="translate(0 -5301.746)">
      <rect id="Rectángulo_1010" data-name="Rectángulo 1010" width="17.078" height="2.643" rx="0.872" transform="translate(747.968 7157.806)" fill="#f1f1f2"/>
      <path id="Trazado_1945" data-name="Trazado 1945" d="M808.093,7182.755H771.122a.885.885,0,0,1-.885-.885h0a.885.885,0,0,1,.885-.886h36.971a.886.886,0,0,1,.886.886h0A.886.886,0,0,1,808.093,7182.755Z" fill="#f1f1f2"/>
      <path id="Trazado_1946" data-name="Trazado 1946" d="M807.51,7202.185H847.7a1.246,1.246,0,0,0,1.247-1.246h0a1.247,1.247,0,0,0-1.247-1.247H807.51a1.247,1.247,0,0,0-1.247,1.247h0A1.246,1.246,0,0,0,807.51,7202.185Z" fill="#f1f1f2"/>
      <rect id="Rectángulo_1011" data-name="Rectángulo 1011" width="16.235" height="2.009" rx="0.663" transform="translate(586.449 7150.962)" fill="#f1f1f2"/>
      <path id="Trazado_1947" data-name="Trazado 1947" d="M651.756,7135.213h9.566a.593.593,0,0,0,.593-.593h0a.593.593,0,0,0-.593-.593h-9.566a.594.594,0,0,0-.593.593h0A.594.594,0,0,0,651.756,7135.213Z" fill="#f1f1f2"/>
      <path id="Trazado_1948" data-name="Trazado 1948" d="M634.41,7112.446h8.458a1.186,1.186,0,0,0,1.186-1.186h0a1.186,1.186,0,0,0-1.186-1.186H634.41a1.186,1.186,0,0,0-1.186,1.186h0A1.186,1.186,0,0,0,634.41,7112.446Z" fill="#f1f1f2"/>
      <path id="Trazado_1949" data-name="Trazado 1949" d="M846.5,7151.967h-7.208a1.025,1.025,0,0,1-1.025-1.025h0a1.025,1.025,0,0,1,1.025-1.026H846.5a1.025,1.025,0,0,1,1.025,1.026h0A1.025,1.025,0,0,1,846.5,7151.967Z" fill="#f1f1f2"/>
      <path id="Trazado_1950" data-name="Trazado 1950" d="M797.653,7134.027h-4.871a1.3,1.3,0,0,1-1.3-1.3h0a1.3,1.3,0,0,1,1.3-1.305h4.871a1.3,1.3,0,0,1,1.3,1.305h0A1.3,1.3,0,0,1,797.653,7134.027Z" fill="#f1f1f2"/>
      <path id="Trazado_1951" data-name="Trazado 1951" d="M862.706,7172.921H846.342a.948.948,0,0,1-.948-.949h0a.949.949,0,0,1,.948-.949h16.364a.949.949,0,0,1,.948.949h0A.948.948,0,0,1,862.706,7172.921Z" fill="#f1f1f2"/>
    </g>
    <g id="Grupo_2493" data-name="Grupo 2493" transform="translate(0 -5301.746)">
      <path id="Trazado_1952" data-name="Trazado 1952" d="M643.794,7176.26H572.666a11.09,11.09,0,0,0-11.09,11.09v93.263h82.218V7176.26Z" fill="#66c8cf" fill-rule="evenodd"/>
      <path id="Trazado_1953" data-name="Trazado 1953" d="M798.743,7245.829v34.784H877.8v-24.8a9.983,9.983,0,0,0-9.983-9.983Z" fill="#66c8cf" fill-rule="evenodd"/>
      <g id="Grupo_2492" data-name="Grupo 2492">
        <path id="Rectángulo_1012" data-name="Rectángulo 1012" d="M0,0H316.223a0,0,0,0,1,0,0V5.378A10.433,10.433,0,0,1,305.79,15.811H10.433A10.433,10.433,0,0,1,0,5.378V0A0,0,0,0,1,0,0Z" transform="translate(561.576 7282.714)" fill="#716558"/>
        <rect id="Rectángulo_1013" data-name="Rectángulo 1013" width="316.223" height="4.201" transform="translate(561.576 7280.613)" fill="#5a4a42"/>
        <g id="Grupo_2489" data-name="Grupo 2489">
          <rect id="Rectángulo_1014" data-name="Rectángulo 1014" width="9.329" height="3.162" rx="1.043" transform="translate(574.641 7271.725)" fill="#e6e7e8"/>
          <rect id="Rectángulo_1015" data-name="Rectángulo 1015" width="5.126" height="3.162" rx="1.043" transform="translate(576.742 7190.23)" fill="#e6e7e8"/>
          <rect id="Rectángulo_1016" data-name="Rectángulo 1016" width="9.329" height="3.162" rx="1.043" transform="translate(619.138 7189.856)" fill="#e6e7e8"/>
          <rect id="Rectángulo_1017" data-name="Rectángulo 1017" width="19.684" height="2.53" rx="0.835" transform="translate(610.744 7264.026)" fill="#d0d2d3"/>
          <path id="Trazado_1954" data-name="Trazado 1954" d="M606.517,7249.17H593.869a.924.924,0,0,0-.924.923h0a.925.925,0,0,0,.924.924h12.648a.924.924,0,0,0,.923-.924h0A.923.923,0,0,0,606.517,7249.17Z" fill="#e6e7e8"/>
          <rect id="Rectángulo_1018" data-name="Rectángulo 1018" width="9.422" height="2.214" rx="0.73" transform="translate(623.802 7224.636)" fill="#d0d2d3"/>
          <rect id="Rectángulo_1019" data-name="Rectángulo 1019" width="10.328" height="3.27" rx="1.079" transform="translate(576.122 7227.284)" fill="#d0d2d3"/>
          <rect id="Rectángulo_1020" data-name="Rectángulo 1020" width="15.267" height="2.742" rx="0.905" transform="translate(592.56 7202.721)" fill="#e6e7e8"/>
        </g>
        <g id="Grupo_2490" data-name="Grupo 2490">
          <rect id="Rectángulo_1021" data-name="Rectángulo 1021" width="9.329" height="3.162" rx="1.043" transform="translate(819.08 7270.783)" fill="#e6e7e8"/>
          <rect id="Rectángulo_1022" data-name="Rectángulo 1022" width="5.126" height="3.162" rx="1.043" transform="translate(864.117 7250.167)" fill="#e6e7e8"/>
          <rect id="Rectángulo_1023" data-name="Rectángulo 1023" width="9.329" height="3.162" rx="1.043" transform="translate(808.979 7255.178)" fill="#e6e7e8"/>
          <path id="Trazado_1955" data-name="Trazado 1955" d="M864.7,7270.8H852.055a.924.924,0,0,0-.924.923h0a.924.924,0,0,0,.924.924H864.7a.924.924,0,0,0,.924-.924h0A.924.924,0,0,0,864.7,7270.8Z" fill="#e6e7e8"/>
          <rect id="Rectángulo_1024" data-name="Rectángulo 1024" width="15.267" height="2.742" rx="0.905" transform="translate(834.717 7260.108)" fill="#e6e7e8"/>
        </g>
        <g id="Grupo_2491" data-name="Grupo 2491">
          <rect id="Rectángulo_1025" data-name="Rectángulo 1025" width="9.329" height="3.162" rx="1.043" transform="translate(862.451 7290.698) rotate(180)" fill="#d0d2d3"/>
          <rect id="Rectángulo_1026" data-name="Rectángulo 1026" width="19.684" height="2.53" rx="0.835" transform="translate(798.88 7290.382) rotate(-180)" fill="#e6e7e8"/>
          <path id="Trazado_1956" data-name="Trazado 1956" d="M723.267,7288.46h12.648a.924.924,0,0,0,.923-.924h0a.923.923,0,0,0-.923-.923H723.267a.924.924,0,0,0-.924.923h0A.924.924,0,0,0,723.267,7288.46Z" fill="#e6e7e8"/>
          <rect id="Rectángulo_1027" data-name="Rectángulo 1027" width="9.422" height="2.214" rx="0.73" transform="translate(696.25 7293.703) rotate(-180)" fill="#d0d2d3"/>
          <rect id="Rectángulo_1028" data-name="Rectángulo 1028" width="9.422" height="2.214" rx="0.73" transform="translate(834.552 7293.703) rotate(-180)" fill="#e6e7e8"/>
          <rect id="Rectángulo_1029" data-name="Rectángulo 1029" width="10.328" height="3.27" rx="1.079" transform="translate(662.661 7292.228) rotate(-180)" fill="#e6e7e8"/>
          <rect id="Rectángulo_1030" data-name="Rectángulo 1030" width="15.267" height="2.742" rx="0.905" transform="translate(607.826 7293.334) rotate(-180)" fill="#d0d2d3"/>
        </g>
      </g>
    </g>
    <g id="Grupo_2494" data-name="Grupo 2494" transform="translate(0 -5301.746)">
      <path id="Trazado_1957" data-name="Trazado 1957" d="M641.756,7174.079a10.508,10.508,0,0,0-4.429,1.659,3.444,3.444,0,0,1-2.037-1.659,10.508,10.508,0,0,0-4.429,1.659,3.449,3.449,0,0,1-2.038-1.659,10.507,10.507,0,0,0-4.428,1.659,3.449,3.449,0,0,1-2.038-1.659,10.507,10.507,0,0,0-4.428,1.659,3.444,3.444,0,0,1-2.038-1.659,10.507,10.507,0,0,0-4.428,1.659,3.444,3.444,0,0,1-2.038-1.659,10.5,10.5,0,0,0-4.428,1.659,3.444,3.444,0,0,1-2.038-1.659,10.5,10.5,0,0,0-4.428,1.659,3.444,3.444,0,0,1-2.038-1.659,10.508,10.508,0,0,0-4.429,1.659,3.444,3.444,0,0,1-2.037-1.659,10.508,10.508,0,0,0-4.429,1.659,3.449,3.449,0,0,1-2.038-1.659,10.507,10.507,0,0,0-4.428,1.659,3.449,3.449,0,0,1-2.038-1.659,10.507,10.507,0,0,0-4.428,1.659v.547h71.128v-.547A3.444,3.444,0,0,1,641.756,7174.079Z" fill="#fff" opacity="0.5"/>
      <path id="Trazado_1958" data-name="Trazado 1958" d="M641.756,7174.633a10.519,10.519,0,0,0-4.429,1.658,3.443,3.443,0,0,1-2.037-1.658,10.519,10.519,0,0,0-4.429,1.658,3.447,3.447,0,0,1-2.038-1.658,10.519,10.519,0,0,0-4.428,1.658,3.447,3.447,0,0,1-2.038-1.658,10.519,10.519,0,0,0-4.428,1.658,3.443,3.443,0,0,1-2.038-1.658,10.519,10.519,0,0,0-4.428,1.658,3.443,3.443,0,0,1-2.038-1.658,10.511,10.511,0,0,0-4.428,1.658,3.443,3.443,0,0,1-2.038-1.658,10.511,10.511,0,0,0-4.428,1.658,3.443,3.443,0,0,1-2.038-1.658,10.519,10.519,0,0,0-4.429,1.658,3.443,3.443,0,0,1-2.037-1.658,10.519,10.519,0,0,0-4.429,1.658,3.447,3.447,0,0,1-2.038-1.658,10.519,10.519,0,0,0-4.428,1.658,3.447,3.447,0,0,1-2.038-1.658,10.519,10.519,0,0,0-4.428,1.658v.548h71.128v-.548A3.443,3.443,0,0,1,641.756,7174.633Z" fill="#66c8cf"/>
    </g>
    <g id="Grupo_2495" data-name="Grupo 2495" transform="translate(0 -5301.746)">
      <path id="Trazado_1959" data-name="Trazado 1959" d="M865.9,7243.753a9.887,9.887,0,0,0-4.169,1.561,3.247,3.247,0,0,1-1.919-1.561,9.887,9.887,0,0,0-4.169,1.561,3.242,3.242,0,0,1-1.918-1.561,9.9,9.9,0,0,0-4.17,1.561,3.243,3.243,0,0,1-1.918-1.561,9.887,9.887,0,0,0-4.169,1.561,3.243,3.243,0,0,1-1.919-1.561,9.887,9.887,0,0,0-4.169,1.561,3.247,3.247,0,0,1-1.919-1.561,9.887,9.887,0,0,0-4.169,1.561,3.243,3.243,0,0,1-1.918-1.561,9.9,9.9,0,0,0-4.17,1.561,3.243,3.243,0,0,1-1.918-1.561,9.887,9.887,0,0,0-4.169,1.561,3.243,3.243,0,0,1-1.919-1.561,9.887,9.887,0,0,0-4.169,1.561,3.242,3.242,0,0,1-1.919-1.561,9.887,9.887,0,0,0-4.169,1.561,3.247,3.247,0,0,1-1.919-1.561,9.9,9.9,0,0,0-4.169,1.561v.516h66.966v-.516A3.243,3.243,0,0,1,865.9,7243.753Z" fill="#fff" opacity="0.5"/>
      <path id="Trazado_1960" data-name="Trazado 1960" d="M865.9,7244.274a9.887,9.887,0,0,0-4.169,1.561,3.247,3.247,0,0,1-1.919-1.561,9.887,9.887,0,0,0-4.169,1.561,3.242,3.242,0,0,1-1.918-1.561,9.9,9.9,0,0,0-4.17,1.561,3.243,3.243,0,0,1-1.918-1.561,9.887,9.887,0,0,0-4.169,1.561,3.243,3.243,0,0,1-1.919-1.561,9.887,9.887,0,0,0-4.169,1.561,3.247,3.247,0,0,1-1.919-1.561,9.887,9.887,0,0,0-4.169,1.561,3.243,3.243,0,0,1-1.918-1.561,9.9,9.9,0,0,0-4.17,1.561,3.243,3.243,0,0,1-1.918-1.561,9.887,9.887,0,0,0-4.169,1.561,3.243,3.243,0,0,1-1.919-1.561,9.887,9.887,0,0,0-4.169,1.561,3.242,3.242,0,0,1-1.919-1.561,9.887,9.887,0,0,0-4.169,1.561,3.247,3.247,0,0,1-1.919-1.561,9.9,9.9,0,0,0-4.169,1.561v.516h66.966v-.516A3.243,3.243,0,0,1,865.9,7244.274Z" fill="#66c8cf"/>
    </g>
    <g id="Grupo_2542" data-name="Grupo 2542" transform="translate(0 -5301.746)">
      <g id="Grupo_2499" data-name="Grupo 2499">
        <path id="Trazado_1961" data-name="Trazado 1961" d="M789.256,7206.505H741.727v29.837h47.529v-29.837Z" fill="#c5c7c9" fill-rule="evenodd"/>
        <path id="Trazado_1962" data-name="Trazado 1962" d="M787,7206.505H743.9v29.837H787v-29.837Z" fill="#f2f2f2" fill-rule="evenodd"/>
        <g id="Grupo_2498" data-name="Grupo 2498">
          <g id="Grupo_2496" data-name="Grupo 2496">
            <path id="Trazado_1963" data-name="Trazado 1963" d="M787,7210.675v-1.582H743.9v1.582Z" fill="#f2993d" fill-rule="evenodd"/>
            <path id="Trazado_1964" data-name="Trazado 1964" d="M787,7210.31v-.852H743.9v.852Z" fill="#ed7f2e" fill-rule="evenodd"/>
          </g>
          <g id="Grupo_2497" data-name="Grupo 2497">
            <path id="Trazado_1965" data-name="Trazado 1965" d="M774.479,7216.162a.487.487,0,1,1-.488-.487A.488.488,0,0,1,774.479,7216.162Z" fill="#faaf3a" fill-rule="evenodd"/>
            <path id="Trazado_1966" data-name="Trazado 1966" d="M773.992,7216.268h0a.112.112,0,0,1-.112-.112v-2.919h.224v2.919A.112.112,0,0,1,773.992,7216.268Z" fill="#666667" fill-rule="evenodd"/>
            <path id="Trazado_1967" data-name="Trazado 1967" d="M773.77,7211.886l-.448.963a.241.241,0,0,0-.023.1v.211a.244.244,0,0,0,.084.183l.312.273a.246.246,0,0,0,.16.06h.272a.246.246,0,0,0,.16-.06l.312-.273a.244.244,0,0,0,.084-.183v-.211a.241.241,0,0,0-.023-.1l-.448-.963A.244.244,0,0,0,773.77,7211.886Z" fill="#f2993d" fill-rule="evenodd"/>
            <path id="Trazado_1968" data-name="Trazado 1968" d="M772.41,7210.675l1.125,1.318a.6.6,0,0,0,.912,0l1.125-1.318Z" fill="#fdbf30" fill-rule="evenodd"/>
            <path id="Trazado_1969" data-name="Trazado 1969" d="M773.991,7211.359a.329.329,0,1,1-.329.329.329.329,0,0,1,.329-.329Z" fill="#231f20" fill-rule="evenodd"/>
          </g>
        </g>
      </g>
      <path id="Trazado_1970" data-name="Trazado 1970" d="M643.794,7160.449v120.165H800.849v-44.271H722.321l.039-12.14H707.673l-32.257-63.754Z" fill="gray" fill-rule="evenodd"/>
      <path id="Trazado_1971" data-name="Trazado 1971" d="M643.794,7192.071l26.223,11.655a10.694,10.694,0,0,1,3.818,2.862c5.85,6.914,26.217,30.985,31.786,37.566A10.68,10.68,0,0,0,709,7246.81l8.431,4.215a10.68,10.68,0,0,0,4.779,1.128h25.937l4.88-4.88a4.931,4.931,0,0,1,3.487-1.444H771.4a4.931,4.931,0,0,1,3.487,1.444l3.762,3.762a3.817,3.817,0,0,1,1.118,2.7h0a3.818,3.818,0,0,1-1.118,2.7l-4.484,4.484a2.468,2.468,0,0,1-1.744.722h-3.409a1.894,1.894,0,0,0-1.894,1.894h0a2.052,2.052,0,0,0,1.135,1.835l4.232,2.117a4.535,4.535,0,0,0,2.029.478h26.771v6.325H771.656a4.534,4.534,0,0,1-2.516-.762l-6.324-4.216a4.536,4.536,0,0,1-2.02-3.774v-1.43a2.465,2.465,0,0,0-2.467-2.467h-3.275a2.469,2.469,0,0,1-1.1-.26l-5.8-2.9h-29.1a10.692,10.692,0,0,1-4.779-1.128l-15.4-7.7a10.612,10.612,0,0,1-2.409-1.651l-30.637-27.851a10.687,10.687,0,0,0-7.189-2.779H643.794v-25.3Z" fill="#66c8cf" fill-rule="evenodd"/>
      <g id="Grupo_2500" data-name="Grupo 2500">
        <path id="Trazado_1972" data-name="Trazado 1972" d="M797.012,7236.342h-3.162v31.622h3.162v-31.622Z" fill="#6d6f71" fill-rule="evenodd"/>
        <path id="Trazado_1973" data-name="Trazado 1973" d="M794.64,7227.418v42.068h1.581v-42.068a.562.562,0,0,0-.562-.562H795.2A.562.562,0,0,0,794.64,7227.418Z" fill="#231f20" fill-rule="evenodd"/>
        <path id="Trazado_1974" data-name="Trazado 1974" d="M791.478,7221.387H789.9v14.956h1.581v-14.956Z" fill="#f2993d" fill-rule="evenodd"/>
        <path id="Trazado_1975" data-name="Trazado 1975" d="M791.113,7221.387h-.852v14.956h.852v-14.956Z" fill="#ed7f2e" fill-rule="evenodd"/>
        <path id="Trazado_1976" data-name="Trazado 1976" d="M800.174,7221.387h-1.581v14.956h1.581v-14.956Z" fill="#f2993d" fill-rule="evenodd"/>
        <path id="Trazado_1977" data-name="Trazado 1977" d="M799.809,7221.387h-.852v14.956h.852v-14.956Z" fill="#ed7f2e" fill-rule="evenodd"/>
        <path id="Trazado_1978" data-name="Trazado 1978" d="M800.849,7221.387v-1.581H789.256v1.581Z" fill="#f2993d" fill-rule="evenodd"/>
        <path id="Trazado_1979" data-name="Trazado 1979" d="M800.849,7221.022v-.852H789.256v.852Z" fill="#ed7f2e" fill-rule="evenodd"/>
        <path id="Trazado_1980" data-name="Trazado 1980" d="M793.849,7221.387l1.126,1.318a.6.6,0,0,0,.911,0l1.126-1.318Z" fill="#fdbf30" fill-rule="evenodd"/>
        <path id="Trazado_1981" data-name="Trazado 1981" d="M795.554,7222.519h-.246v4.337h.246v-4.337Z" fill="#927042" fill-rule="evenodd"/>
        <path id="Trazado_1982" data-name="Trazado 1982" d="M795.431,7222.071a.329.329,0,1,1-.33.329.329.329,0,0,1,.33-.329Z" fill="#231f20" fill-rule="evenodd"/>
      </g>
      <g id="Grupo_2501" data-name="Grupo 2501">
        <path id="Trazado_1983" data-name="Trazado 1983" d="M643.794,7220.791a3.423,3.423,0,0,1-3.423-3.42v-25.3a3.423,3.423,0,0,1,3.423-3.422h0a.259.259,0,0,1,.173.068l.016.016a.249.249,0,0,1,.048.075.268.268,0,0,1,.021.1h0v31.622h0a.273.273,0,0,1-.021.1.249.249,0,0,1-.048.075l-.016.016a.259.259,0,0,1-.173.068h0Zm-2.814-2.706a2.912,2.912,0,0,0,2.1,2.1Zm1.6.865.953.953V7218Zm-1.321-1.321.953.953.954-.953Zm0-.52h1.907l-.954-.954Zm1.321-1.321.953.953v-1.907Zm-1.689-.954v1.907l.954-.953Zm.108-.627,1.213,1.213,1.214-1.213-1.214-1.214Zm1.581-1.582.953.954v-1.907Zm-1.689-.953v1.907l.954-.954Zm.108-.628,1.213,1.214,1.214-1.214-1.214-1.213Zm1.581-1.581.953.954v-1.907Zm-1.689-.953v1.907l.954-.954Zm.108-.628,1.213,1.214,1.214-1.214-1.214-1.213Zm1.581-1.581.953.953v-1.906Zm-1.689-.953v1.906l.954-.953Zm.108-.628,1.213,1.213,1.214-1.213-1.214-1.213Zm1.581-1.581.953.953v-1.907Zm-1.689-.954v1.907l.954-.953Zm.108-.627,1.213,1.213,1.214-1.213-1.214-1.214Zm1.581-1.581.953.953v-1.907Zm-1.689-.954v1.907l.954-.953Zm.108-.628,1.213,1.214,1.214-1.214-1.214-1.213Zm1.581-1.581.953.954v-1.907Zm-1.689-.953v1.907l.954-.954Zm.108-.628,1.213,1.214,1.214-1.214-1.214-1.213Zm1.581-1.581.953.954V7192.7Zm-1.689-.953v1.907l.954-.954Zm.368-.368.953.953.954-.953Zm0-.52h1.913l-.95-.963Zm1.331-1.331.943.957v-1.9Zm.487-1.223a2.912,2.912,0,0,0-2.1,2.1l1-1a.27.27,0,0,1,.124-.124Z" fill="#58595b"/>
      </g>
      <g id="Grupo_2502" data-name="Grupo 2502">
        <path id="Trazado_1984" data-name="Trazado 1984" d="M648.172,7145.493h-1.581v14.956h1.581v-14.956Z" fill="#f2993d" fill-rule="evenodd"/>
        <path id="Trazado_1985" data-name="Trazado 1985" d="M647.807,7145.493h-.852v14.956h.852v-14.956Z" fill="#ed7f2e" fill-rule="evenodd"/>
        <path id="Trazado_1986" data-name="Trazado 1986" d="M663.132,7145.493h-1.581v14.956h1.581v-14.956Z" fill="#f2993d" fill-rule="evenodd"/>
        <path id="Trazado_1987" data-name="Trazado 1987" d="M662.767,7145.493h-.852v14.956h.852v-14.956Z" fill="#ed7f2e" fill-rule="evenodd"/>
        <path id="Trazado_1988" data-name="Trazado 1988" d="M656.442,7160.449H653.28V7198.4h3.162v-37.947Z" fill="#6d6f71" fill-rule="evenodd"/>
        <path id="Trazado_1989" data-name="Trazado 1989" d="M654.071,7151.536v50.022h1.581v-50.022a.574.574,0,0,0-.574-.574h-.434A.574.574,0,0,0,654.071,7151.536Z" fill="#231f20" fill-rule="evenodd"/>
        <path id="Trazado_1990" data-name="Trazado 1990" d="M663.929,7145.493v-1.581H645.793v1.581Z" fill="#f2993d" fill-rule="evenodd"/>
        <path id="Trazado_1991" data-name="Trazado 1991" d="M663.929,7145.128v-.852H645.793v.852Z" fill="#ed7f2e" fill-rule="evenodd"/>
        <path id="Trazado_1992" data-name="Trazado 1992" d="M653.28,7145.493l1.126,1.318a.6.6,0,0,0,.911,0l1.125-1.318Z" fill="#fdbf30" fill-rule="evenodd"/>
        <path id="Trazado_1993" data-name="Trazado 1993" d="M654.984,7146.625h-.246v4.337h.246v-4.337Z" fill="#927042" fill-rule="evenodd"/>
        <path id="Trazado_1994" data-name="Trazado 1994" d="M654.861,7146.177a.33.33,0,1,1-.329.329.33.33,0,0,1,.329-.329Z" fill="#231f20" fill-rule="evenodd"/>
      </g>
      <g id="Grupo_2508" data-name="Grupo 2508">
        <g id="Grupo_2503" data-name="Grupo 2503">
          <path id="Trazado_1995" data-name="Trazado 1995" d="M760.461,7242.381h-6.994l-1.821-.827a2.856,2.856,0,0,1-1.676-2.6v-11.726a1.954,1.954,0,0,1,1.955-1.954h24.067a1.954,1.954,0,0,1,1.954,1.955v11.725a2.856,2.856,0,0,1-1.676,2.6l-1.821.827Z" fill="#625841" fill-rule="evenodd"/>
          <path id="Trazado_1996" data-name="Trazado 1996" d="M760.8,7240.8h-6.085a1.222,1.222,0,0,1-.462-.091l-2.182-.892a1.221,1.221,0,0,1-.758-1.13v-10.61a1.219,1.219,0,0,1,1.22-1.219h22.858a1.22,1.22,0,0,1,1.22,1.219v10.61a1.221,1.221,0,0,1-.758,1.13l-2.182.892a1.222,1.222,0,0,1-.462.091Z" fill="#cacbcd" fill-rule="evenodd"/>
        </g>
        <g id="Grupo_2504" data-name="Grupo 2504">
          <path id="Trazado_1997" data-name="Trazado 1997" d="M756.053,7258.443a4.395,4.395,0,1,1,0-8.762h15.841a4.393,4.393,0,1,1-.03,8.761Z" fill="#fff" fill-rule="evenodd"/>
          <path id="Trazado_1998" data-name="Trazado 1998" d="M771.9,7249.4H756.053a4.68,4.68,0,1,0,0,9.334h2.05l.013,0a.312.312,0,0,0,.052,0,.334.334,0,0,0,.053-.009h9.054l.013,0a.322.322,0,0,0,.052,0,.334.334,0,0,0,.053-.009h2.175l.013,0a.323.323,0,0,0,.052,0,.332.332,0,0,0,.053-.009h2.175l.013,0a.322.322,0,0,0,.052,0,.252.252,0,0,0,.071-.013,4.673,4.673,0,1,0-.1-9.329Zm1.92.987a4.541,4.541,0,0,1,.79.457h-.882Zm-2.21-.416h.287a4.753,4.753,0,0,1,1.43.227l-.129.645h-1.763Zm-2.293,0h1.763l-.175.873h-1.763Zm-2.3,0h1.77l-.175.873h-1.77Zm-2.293,0h1.763l-.175.873h-1.763Zm-2.293,0h1.763l-.175.873h-1.763Zm-2.286,0H761.9l-.175.873h-1.756Zm-2.3,0h1.77l-.175.873h-1.77Zm-2.28.026c.161-.016.325-.026.492-.026h1.258l-.175.873h-1.745Zm-.548.088-.153.759h-1.553A4.61,4.61,0,0,1,755.013,7250.081Zm-3.418,3.981a3.848,3.848,0,0,1,.783-2.314l-.658,3.275A3.774,3.774,0,0,1,751.595,7254.062Zm1.94,3.377c-.058-.037-.115-.075-.171-.114h.194Zm-.766-.687h0a.273.273,0,0,0-.064.008,4.093,4.093,0,0,1-.63-.856l.9-4.492h1.769l-1.072,5.342Zm2.9,1.389a4.741,4.741,0,0,1-1.657-.44l.075-.374,1.745,0Zm.277-1.382-1.744,0,1.073-5.343h1.745Zm2.02,1.4H756.2l.166-.825,1.769,0Zm-1.489-1.4,1.073-5.348h1.77l-1.075,5.352Zm3.775,1.4H758.5l.165-.82,1.755,0Zm-1.476-1.392,1.074-5.353h1.756l-1.076,5.357Zm3.769,1.392h-1.763l.164-.815,1.762,0Zm-1.484-1.387,1.075-5.358H763.9l-1.077,5.362Zm3.777,1.387h-1.763l.163-.81,1.762,0Zm-1.485-1.382,1.076-5.363h1.763l-1.078,5.367Zm3.785,1.382h-1.77l.162-.806,1.769,0Zm-1.493-1.377,1.077-5.368h1.77l-1.079,5.372Zm3.786,1.377h-1.763l.161-.8,1.762,0Zm-1.487-1.372,1.078-5.373h1.763l-1.079,5.377Zm3.78,1.372h-1.763l.16-.8,1.762,0Zm-1.488-1.367,1.079-5.378h1.763L772,7256.793Zm3.9.794a4.7,4.7,0,0,1-1.874.556l.155-.774,1.762,0Zm-1.6-.789,1.081-5.383h1.367a.287.287,0,0,0,.2-.082c.063.064.123.131.182.2a.261.261,0,0,0-.025.067l-1.044,5.2Zm2.6.05a.28.28,0,0,0-.152-.045h-.157l.945-4.71a3.806,3.806,0,0,1,.555,1.972A3.908,3.908,0,0,1,775.13,7256.845Z" fill="#6d6e70"/>
        </g>
        <g id="Grupo_2507" data-name="Grupo 2507">
          <path id="Trazado_1999" data-name="Trazado 1999" d="M767.12,7239.5H760.8v6.325h6.324V7239.5Z" fill="#656668" fill-rule="evenodd"/>
          <path id="Trazado_2000" data-name="Trazado 2000" d="M765.527,7226.855h-3.31v22.826h3.31v-22.826Z" fill="#fff" fill-rule="evenodd"/>
          <g id="Grupo_2506" data-name="Grupo 2506">
            <g id="Grupo_2505" data-name="Grupo 2505">
              <path id="Trazado_2001" data-name="Trazado 2001" d="M759.1,7227.627h-1.647v10.767H759.1v-10.767Z" fill="#fbb216" fill-rule="evenodd"/>
              <path id="Trazado_2002" data-name="Trazado 2002" d="M763.646,7227.627H762v10.767h1.647v-10.767Z" fill="#fbb216" fill-rule="evenodd"/>
              <path id="Trazado_2003" data-name="Trazado 2003" d="M768.189,7227.627h-1.647v10.767h1.647v-10.767Z" fill="#fbb216" fill-rule="evenodd"/>
              <path id="Trazado_2004" data-name="Trazado 2004" d="M761.375,7227.627h-1.647v10.767h1.647v-10.767Z" fill="#f18f38" fill-rule="evenodd"/>
              <path id="Trazado_2005" data-name="Trazado 2005" d="M765.917,7227.627H764.27v10.767h1.647v-10.767Z" fill="#f18f38" fill-rule="evenodd"/>
              <path id="Trazado_2006" data-name="Trazado 2006" d="M770.46,7227.627h-1.647v10.767h1.647v-10.767Z" fill="#f18f38" fill-rule="evenodd"/>
            </g>
            <path id="Trazado_2007" data-name="Trazado 2007" d="M756.344,7227.4h-3.931v9.844a2.369,2.369,0,0,0,.611,1.6,2,2,0,0,0,1.475.663h1.187a.633.633,0,0,0,.466-.209.748.748,0,0,0,.192-.506V7227.4Z" fill="#ae8750" fill-rule="evenodd"/>
            <path id="Trazado_2008" data-name="Trazado 2008" d="M771.4,7227.4h3.932v9.844a2.369,2.369,0,0,1-.611,1.6,2,2,0,0,1-1.475.663h-1.187a.633.633,0,0,1-.466-.209.749.749,0,0,1-.193-.506V7227.4Z" fill="#ae8750" fill-rule="evenodd"/>
          </g>
        </g>
      </g>
      <g id="Grupo_2510" data-name="Grupo 2510">
        <path id="Rectángulo_1031" data-name="Rectángulo 1031" d="M2.832,0H44.7a2.832,2.832,0,0,1,2.832,2.832v1.46a0,0,0,0,1,0,0H0a0,0,0,0,1,0,0V2.832A2.832,2.832,0,0,1,2.832,0Z" transform="translate(741.727 7202.213)" fill="#808184"/>
        <g id="Grupo_2509" data-name="Grupo 2509">
          <rect id="Rectángulo_1032" data-name="Rectángulo 1032" width="0.813" height="2.561" rx="0.268" transform="translate(743.088 7203.362)" fill="#6d6e70"/>
          <rect id="Rectángulo_1033" data-name="Rectángulo 1033" width="0.813" height="2.561" rx="0.268" transform="translate(744.715 7203.362)" fill="#6d6e70"/>
          <rect id="Rectángulo_1034" data-name="Rectángulo 1034" width="0.813" height="2.561" rx="0.268" transform="translate(746.341 7203.362)" fill="#6d6e70"/>
          <rect id="Rectángulo_1035" data-name="Rectángulo 1035" width="0.813" height="2.561" rx="0.268" transform="translate(747.968 7203.362)" fill="#6d6e70"/>
          <rect id="Rectángulo_1036" data-name="Rectángulo 1036" width="0.813" height="2.561" rx="0.268" transform="translate(749.594 7203.362)" fill="#6d6e70"/>
          <rect id="Rectángulo_1037" data-name="Rectángulo 1037" width="0.813" height="2.561" rx="0.268" transform="translate(751.221 7203.362)" fill="#6d6e70"/>
          <rect id="Rectángulo_1038" data-name="Rectángulo 1038" width="0.813" height="2.561" rx="0.268" transform="translate(752.847 7203.362)" fill="#6d6e70"/>
          <rect id="Rectángulo_1039" data-name="Rectángulo 1039" width="0.813" height="2.561" rx="0.268" transform="translate(754.474 7203.362)" fill="#6d6e70"/>
          <rect id="Rectángulo_1040" data-name="Rectángulo 1040" width="0.813" height="2.561" rx="0.268" transform="translate(756.1 7203.362)" fill="#6d6e70"/>
          <rect id="Rectángulo_1041" data-name="Rectángulo 1041" width="0.813" height="2.561" rx="0.268" transform="translate(757.726 7203.362)" fill="#6d6e70"/>
          <rect id="Rectángulo_1042" data-name="Rectángulo 1042" width="0.813" height="2.561" rx="0.268" transform="translate(759.353 7203.362)" fill="#6d6e70"/>
          <rect id="Rectángulo_1043" data-name="Rectángulo 1043" width="0.813" height="2.561" rx="0.268" transform="translate(760.979 7203.362)" fill="#6d6e70"/>
          <rect id="Rectángulo_1044" data-name="Rectángulo 1044" width="0.813" height="2.561" rx="0.268" transform="translate(762.606 7203.362)" fill="#6d6e70"/>
          <rect id="Rectángulo_1045" data-name="Rectángulo 1045" width="0.813" height="2.561" rx="0.268" transform="translate(764.232 7203.362)" fill="#6d6e70"/>
          <rect id="Rectángulo_1046" data-name="Rectángulo 1046" width="0.813" height="2.561" rx="0.268" transform="translate(765.859 7203.362)" fill="#6d6e70"/>
          <rect id="Rectángulo_1047" data-name="Rectángulo 1047" width="0.813" height="2.561" rx="0.268" transform="translate(767.485 7203.362)" fill="#6d6e70"/>
          <rect id="Rectángulo_1048" data-name="Rectángulo 1048" width="0.813" height="2.561" rx="0.268" transform="translate(769.112 7203.362)" fill="#6d6e70"/>
          <rect id="Rectángulo_1049" data-name="Rectángulo 1049" width="0.813" height="2.561" rx="0.268" transform="translate(770.738 7203.362)" fill="#6d6e70"/>
          <rect id="Rectángulo_1050" data-name="Rectángulo 1050" width="0.813" height="2.561" rx="0.268" transform="translate(770.738 7203.362)" fill="#6d6e70"/>
          <rect id="Rectángulo_1051" data-name="Rectángulo 1051" width="0.813" height="2.561" rx="0.268" transform="translate(772.365 7203.362)" fill="#6d6e70"/>
          <rect id="Rectángulo_1052" data-name="Rectángulo 1052" width="0.813" height="2.561" rx="0.268" transform="translate(773.991 7203.362)" fill="#6d6e70"/>
          <rect id="Rectángulo_1053" data-name="Rectángulo 1053" width="0.813" height="2.561" rx="0.268" transform="translate(775.617 7203.362)" fill="#6d6e70"/>
          <rect id="Rectángulo_1054" data-name="Rectángulo 1054" width="0.813" height="2.561" rx="0.268" transform="translate(777.244 7203.362)" fill="#6d6e70"/>
          <rect id="Rectángulo_1055" data-name="Rectángulo 1055" width="0.813" height="2.561" rx="0.268" transform="translate(778.87 7203.362)" fill="#6d6e70"/>
          <rect id="Rectángulo_1056" data-name="Rectángulo 1056" width="0.813" height="2.561" rx="0.268" transform="translate(780.497 7203.362)" fill="#6d6e70"/>
          <rect id="Rectángulo_1057" data-name="Rectángulo 1057" width="0.813" height="2.561" rx="0.268" transform="translate(782.123 7203.362)" fill="#6d6e70"/>
          <rect id="Rectángulo_1058" data-name="Rectángulo 1058" width="0.813" height="2.561" rx="0.268" transform="translate(783.75 7203.362)" fill="#6d6e70"/>
          <rect id="Rectángulo_1059" data-name="Rectángulo 1059" width="0.813" height="2.561" rx="0.268" transform="translate(785.376 7203.362)" fill="#6d6e70"/>
          <rect id="Rectángulo_1060" data-name="Rectángulo 1060" width="0.813" height="2.561" rx="0.268" transform="translate(787.003 7203.362)" fill="#6d6e70"/>
        </g>
      </g>
      <path id="Trazado_2009" data-name="Trazado 2009" d="M751.79,7215.269h6.834a1.593,1.593,0,0,1,1.592,1.592v8.412h-.872v-8.412a.72.72,0,0,0-.72-.719h-2a1.566,1.566,0,0,1,.174.719v8.412h-.872v-8.412a.72.72,0,0,0-.72-.719h-2a1.579,1.579,0,0,1,.173.719v8.412h-.872v-8.412a.72.72,0,0,0-.72-.719H743.9v-.873Z" fill="#faaf3a"/>
      <g id="Grupo_2541" data-name="Grupo 2541">
        <g id="Grupo_2514" data-name="Grupo 2514">
          <g id="Grupo_2511" data-name="Grupo 2511">
            <path id="Trazado_2010" data-name="Trazado 2010" d="M721.592,7195.12c-.013,0-.022-.007-.022-.014s.011-.014.024-.015l.2-.009v-.123l-.205-.018c-.013,0-.022-.008-.022-.015s.011-.014.024-.015l.2-.009v-.156h-.035a.041.041,0,0,1-.042-.041v-.474h.561v.474a.041.041,0,0,1-.041.041h-.035v.156l.2.009c.013,0,.023.007.023.015s-.009.014-.021.015l-.2.018v.123l.2.009c.013,0,.023.007.023.015s-.009.013-.021.014l-.2.019v.122l.2.01c.013,0,.023.007.023.014s-.009.014-.021.015l-.2.018v.123l.2.009c.013,0,.023.007.023.015s-.009.013-.021.014l-.2.019v.122l.2.01c.013,0,.023.007.023.014s-.009.014-.021.015l-.2.018v.123l.2.009c.013,0,.023.007.023.015s-.009.013-.021.014l-.2.019v.086a.136.136,0,0,1-.136.135h-.137a.135.135,0,0,1-.135-.135v-.086l-.205-.019c-.013,0-.022-.007-.022-.014s.011-.014.024-.015l.2-.009v-.123l-.205-.018c-.013,0-.022-.008-.022-.015s.011-.014.024-.014l.2-.01v-.122l-.205-.019c-.013,0-.022-.007-.022-.014s.011-.014.024-.015l.2-.009v-.123l-.205-.018c-.013,0-.022-.008-.022-.015s.011-.014.024-.014l.2-.01v-.122Z" fill="#5a4a42"/>
            <path id="Trazado_2011" data-name="Trazado 2011" d="M718.675,7194.828c-.012,0-.021-.007-.021-.015s.01-.014.023-.014l.2-.01v-.122l-.205-.019c-.012,0-.021-.007-.021-.014s.01-.014.023-.015l.2-.009v-.156h-.035a.042.042,0,0,1-.042-.042v-.474h.562v.474a.042.042,0,0,1-.042.042h-.035v.156l.2.009c.013,0,.023.007.023.015s-.009.013-.021.014l-.2.019v.122l.2.01c.013,0,.023.007.023.014s-.009.014-.021.015l-.2.018v.123l.2.009c.013,0,.023.007.023.015s-.009.013-.021.014l-.2.019v.122l.2.01c.013,0,.023.007.023.014s-.009.014-.021.015l-.2.019v.122l.2.009c.013,0,.023.007.023.015s-.009.013-.021.014l-.2.019v.122l.2.01c.013,0,.023.007.023.014s-.009.014-.021.015l-.2.019v.085a.136.136,0,0,1-.135.136h-.138a.136.136,0,0,1-.135-.136v-.085l-.205-.019c-.012,0-.021-.007-.021-.015s.01-.014.023-.014l.2-.01v-.122l-.205-.019c-.012,0-.021-.007-.021-.014s.01-.014.023-.015l.2-.009v-.122l-.205-.019c-.012,0-.021-.007-.021-.015s.01-.014.023-.014l.2-.01v-.122l-.205-.019c-.012,0-.021-.007-.021-.014s.01-.014.023-.015l.2-.009v-.123Z" fill="#5a4a42"/>
            <path id="Trazado_2012" data-name="Trazado 2012" d="M716.684,7193.485l-.036.512,5.446.38.337.024.957.012h.018a.257.257,0,0,0,.231-.368L722.3,7192.9a.254.254,0,0,0-.18-.14l-5.572-1.141-.1.5,1.792.367v1.1Zm4.264-.439.943.193.3.63-1.245-.087Zm-2.2-.449,1.684.344v.806l-1.684-.118Z" fill="#6d6e70"/>
          </g>
          <g id="Grupo_2512" data-name="Grupo 2512">
            <path id="Trazado_2013" data-name="Trazado 2013" d="M708.162,7195.12c.013,0,.022-.007.022-.014s-.011-.014-.024-.015l-.2-.009v-.123l.205-.018c.013,0,.022-.008.022-.015s-.011-.014-.024-.015l-.2-.009v-.156h.036a.041.041,0,0,0,.041-.041v-.474h-.561v.474a.041.041,0,0,0,.041.041h.035v.156l-.2.009c-.013,0-.023.007-.023.015s.009.014.022.015l.2.018v.123l-.2.009c-.013,0-.023.007-.023.015s.009.013.022.014l.2.019v.122l-.2.01c-.013,0-.023.007-.023.014s.009.014.022.015l.2.018v.123l-.2.009c-.013,0-.023.007-.023.015s.009.013.022.014l.2.019v.122l-.2.01c-.013,0-.023.007-.023.014s.009.014.022.015l.2.018v.123l-.2.009c-.013,0-.023.007-.023.015s.009.013.022.014l.2.019v.086a.136.136,0,0,0,.136.135h.137a.135.135,0,0,0,.135-.135v-.086l.205-.019c.013,0,.022-.007.022-.014s-.011-.014-.024-.015l-.2-.009v-.123l.205-.018c.013,0,.022-.008.022-.015s-.011-.014-.024-.014l-.2-.01v-.122l.205-.019c.013,0,.022-.007.022-.014s-.011-.014-.024-.015l-.2-.009v-.123l.205-.018c.013,0,.022-.008.022-.015s-.011-.014-.024-.014l-.2-.01v-.122Z" fill="#5a4a42"/>
            <path id="Trazado_2014" data-name="Trazado 2014" d="M711.079,7194.828c.012,0,.022-.007.022-.015s-.011-.014-.024-.014l-.2-.01v-.122l.2-.019c.012,0,.022-.007.022-.014s-.011-.014-.024-.015l-.2-.009v-.156h.035a.042.042,0,0,0,.042-.042v-.474h-.562v.474a.042.042,0,0,0,.042.042h.035v.156l-.2.009c-.013,0-.023.007-.023.015s.009.013.021.014l.205.019v.122l-.2.01c-.013,0-.023.007-.023.014s.009.014.021.015l.205.018v.123l-.2.009c-.013,0-.023.007-.023.015s.009.013.021.014l.205.019v.122l-.2.01c-.013,0-.023.007-.023.014s.009.014.021.015l.205.019v.122l-.2.009c-.013,0-.023.007-.023.015s.009.013.021.014l.205.019v.122l-.2.01c-.013,0-.023.007-.023.014s.009.014.021.015l.205.019v.085a.136.136,0,0,0,.135.136h.138a.135.135,0,0,0,.135-.136v-.085l.2-.019c.012,0,.022-.007.022-.015s-.011-.014-.024-.014l-.2-.01v-.122l.2-.019c.012,0,.022-.007.022-.014s-.011-.014-.024-.015l-.2-.009v-.122l.2-.019c.012,0,.022-.007.022-.015s-.011-.014-.024-.014l-.2-.01v-.122l.2-.019c.012,0,.022-.007.022-.014s-.011-.014-.024-.015l-.2-.009v-.123Z" fill="#5a4a42"/>
            <path id="Trazado_2015" data-name="Trazado 2015" d="M711.518,7193.593v-1.1l1.793-.367-.1-.5-5.572,1.141a.256.256,0,0,0-.18.14l-.548,1.143a.257.257,0,0,0,.232.368h.018l.166-.012.338-.024,5.445-.38-.036-.512Zm-2.712.189-1.245.087.3-.63.943-.193Zm2.2-.153-1.684.118v-.806L711,7192.6Z" fill="#6d6e70"/>
          </g>
          <path id="Trazado_2016" data-name="Trazado 2016" d="M710.451,7219.633v4.57h1.285v-4.431l3.172-4.369,3.11,4.367v4.433H719.3v-4.6l-2.965-33.114h-.16l-1.043-1.579v-2.131a.257.257,0,0,0-.257-.257h0a.257.257,0,0,0-.257.257v2.13l-1.067,1.58h-.136Zm2.436-16.4,1.526,2.533-1.928,3.2Zm.382-5.442,1.147,1.371-1.357,1.622Zm2.806-.612-1.212,1.449-1.213-1.449Zm-2.514-.771,1.3-1.671,1.3,1.671Zm.036-3.3.886,1.137-1.061,1.362Zm.35-4.992.622,1.116-.8,1.437Zm.673-1.627h-.447l.447-.662Zm.941,0h-.427v-.646Zm.058.856-.756,1.359-.757-1.359h1.513Zm.371,3.383-.833-1.5.647-1.161Zm.1,1.451-1.229,1.578-1.2-1.544.024-.336,1.179-2.117,1.212,2.176Zm.243,3.469-1.093-1.4.912-1.171Zm.363,5.169-1.389-1.659,1.174-1.4Zm.029,1.1-1.864,3.1-1.865-3.1,1.865-2.228Zm.546,7.1-1.96-3.255,1.551-2.575Zm.059,1.592-.011.015h-4.937l2.479-4.115Zm-1.893,4.063,2.034-2.8.44,6.274Zm-2.273-3.191H716.7l-1.784,2.456Zm-1.327,6.691.452-6.443,2.093,2.939Z" fill="#6d6e70"/>
          <g id="Grupo_2513" data-name="Grupo 2513">
            <rect id="Rectángulo_1061" data-name="Rectángulo 1061" width="11.691" height="0.309" transform="translate(718.509 7207.141) rotate(-73.382)" fill="#58595b"/>
            <rect id="Rectángulo_1062" data-name="Rectángulo 1062" width="12.065" height="0.309" transform="translate(714.731 7206.752) rotate(-69.586)" fill="#58595b"/>
            <rect id="Rectángulo_1063" data-name="Rectángulo 1063" width="0.309" height="11.244" transform="translate(710.542 7195.574) rotate(-2.071)" fill="#58595b"/>
            <path id="Trazado_2017" data-name="Trazado 2017" d="M707.908,7195.781l.43,14.321v14.1h-.309v-14.1l-.431-14.316Z" fill="#58595b"/>
          </g>
        </g>
        <path id="Trazado_2018" data-name="Trazado 2018" d="M729.471,7213.884H719.128v-2.856H718.2v2.856h-2.86v-2.856h-.928v2.856H711.92a.367.367,0,0,1-.367-.366v-2.49h-.927v2.49a1.3,1.3,0,0,0,1.294,1.293h17.551a.415.415,0,0,1,.415.415v1.491h.927v-1.491A1.344,1.344,0,0,0,729.471,7213.884Z" fill="#58595b"/>
        <path id="Trazado_2019" data-name="Trazado 2019" d="M738.147,7215.326h3.58v.773h-3.58a.637.637,0,0,0-.637.637v1.748h-.773v-1.748A1.411,1.411,0,0,1,738.147,7215.326Z" fill="#fff"/>
        <g id="Grupo_2527" data-name="Grupo 2527">
          <rect id="Rectángulo_1064" data-name="Rectángulo 1064" width="8.654" height="14.316" transform="translate(737.799 7236.342) rotate(180)" fill="#a6a8ab"/>
          <path id="Trazado_2020" data-name="Trazado 2020" d="M737.8,7236.342h2.37v-11.319l-2.37-.85Z" fill="#929497"/>
          <path id="Trazado_2021" data-name="Trazado 2021" d="M728.373,7236.342h.773V7223.8l-.773.541Z" fill="#929497"/>
          <rect id="Rectángulo_1065" data-name="Rectángulo 1065" width="4.069" height="5.537" transform="translate(738.572 7234.603) rotate(180)" fill="#d0d2d3"/>
          <rect id="Rectángulo_1066" data-name="Rectángulo 1066" width="2.988" height="5.537" transform="translate(733.318 7234.603) rotate(180)" fill="#d0d2d3"/>
          <g id="Grupo_2515" data-name="Grupo 2515">
            <rect id="Rectángulo_1067" data-name="Rectángulo 1067" width="4.52" height="0.483" transform="translate(728.373 7226.918) rotate(180)" fill="#e6e7e8"/>
            <rect id="Rectángulo_1068" data-name="Rectángulo 1068" width="4.52" height="0.483" transform="translate(728.373 7228.638) rotate(180)" fill="#e6e7e8"/>
            <rect id="Rectángulo_1069" data-name="Rectángulo 1069" width="4.52" height="0.483" transform="translate(728.373 7230.356) rotate(180)" fill="#e6e7e8"/>
            <rect id="Rectángulo_1070" data-name="Rectángulo 1070" width="4.52" height="0.483" transform="translate(728.373 7232.076) rotate(180)" fill="#e6e7e8"/>
          </g>
          <g id="Grupo_2516" data-name="Grupo 2516">
            <rect id="Rectángulo_1071" data-name="Rectángulo 1071" width="0.386" height="8.555" transform="translate(728.373 7233.533) rotate(180)" fill="#929497"/>
            <rect id="Rectángulo_1072" data-name="Rectángulo 1072" width="0.386" height="8.555" transform="translate(727.755 7233.533) rotate(180)" fill="#929497"/>
            <rect id="Rectángulo_1073" data-name="Rectángulo 1073" width="0.386" height="8.555" transform="translate(727.137 7233.533) rotate(180)" fill="#929497"/>
            <rect id="Rectángulo_1074" data-name="Rectángulo 1074" width="0.386" height="8.555" transform="translate(726.519 7233.533) rotate(180)" fill="#929497"/>
            <rect id="Rectángulo_1075" data-name="Rectángulo 1075" width="0.386" height="8.555" transform="translate(725.901 7233.533) rotate(180)" fill="#929497"/>
            <rect id="Rectángulo_1076" data-name="Rectángulo 1076" width="0.386" height="8.555" transform="translate(725.283 7233.533) rotate(180)" fill="#929497"/>
            <rect id="Rectángulo_1077" data-name="Rectángulo 1077" width="0.386" height="8.555" transform="translate(724.664 7233.533) rotate(180)" fill="#929497"/>
            <rect id="Rectángulo_1078" data-name="Rectángulo 1078" width="0.386" height="8.555" transform="translate(724.046 7233.533) rotate(180)" fill="#929497"/>
          </g>
          <g id="Grupo_2519" data-name="Grupo 2519">
            <g id="Grupo_2517" data-name="Grupo 2517">
              <path id="Trazado_2022" data-name="Trazado 2022" d="M725.575,7225.735a.265.265,0,0,1,.316.072.589.589,0,0,1,.134.375v1.03l.034.135a.254.254,0,0,0,.043.091l.147.2a.249.249,0,0,1,.042.09l.176.688a.265.265,0,0,1-.461.234.589.589,0,0,1-.134-.375v-1.03l-.034-.135a.287.287,0,0,0-.043-.092l-.147-.2a.273.273,0,0,1-.043-.09l-.176-.688A.266.266,0,0,1,725.575,7225.735Z" fill="#6d6e70"/>
              <path id="Trazado_2023" data-name="Trazado 2023" d="M727.431,7227.655a.265.265,0,0,1-.221.237.583.583,0,0,1-.392-.071l-.892-.515-.134-.038a.279.279,0,0,0-.1-.009l-.25.026a.25.25,0,0,1-.1-.008l-.684-.192a.265.265,0,0,1,.028-.517.594.594,0,0,1,.392.071l.892.515.134.039a.277.277,0,0,0,.1.009l.25-.026a.251.251,0,0,1,.1.008l.684.192A.266.266,0,0,1,727.431,7227.655Z" fill="#6d6e70"/>
              <path id="Trazado_2024" data-name="Trazado 2024" d="M724.84,7228.3a.265.265,0,0,1-.1-.31.589.589,0,0,1,.258-.3l.892-.515.1-.1a.268.268,0,0,0,.058-.082l.1-.23a.267.267,0,0,1,.057-.081l.508-.5a.266.266,0,0,1,.434.283.6.6,0,0,1-.258.3l-.892.515-.1.1a.258.258,0,0,0-.058.082l-.1.23a.247.247,0,0,1-.056.081l-.508.5A.266.266,0,0,1,724.84,7228.3Z" fill="#6d6e70"/>
              <path id="Trazado_2025" data-name="Trazado 2025" d="M725.688,7227.23a.26.26,0,1,0,.26-.26A.261.261,0,0,0,725.688,7227.23Z" fill="#bbbdbf"/>
            </g>
            <g id="Grupo_2518" data-name="Grupo 2518">
              <path id="Trazado_2026" data-name="Trazado 2026" d="M724.041,7227.23a1.908,1.908,0,1,1,1.907,1.908A1.91,1.91,0,0,1,724.041,7227.23Zm.138,0a1.77,1.77,0,1,0,1.769-1.769A1.772,1.772,0,0,0,724.179,7227.23Z" fill="#6d6e70"/>
            </g>
          </g>
          <g id="Grupo_2522" data-name="Grupo 2522">
            <g id="Grupo_2520" data-name="Grupo 2520">
              <path id="Trazado_2027" data-name="Trazado 2027" d="M725.575,7229.785a.265.265,0,0,1,.316.072.59.59,0,0,1,.134.375v1.03l.034.135a.263.263,0,0,0,.043.092l.147.2a.259.259,0,0,1,.042.09l.176.688a.265.265,0,0,1-.461.234.59.59,0,0,1-.134-.375v-1.03l-.034-.135a.29.29,0,0,0-.043-.092l-.147-.2a.28.28,0,0,1-.043-.09l-.176-.688A.265.265,0,0,1,725.575,7229.785Z" fill="#6d6e70"/>
              <path id="Trazado_2028" data-name="Trazado 2028" d="M727.431,7231.705a.266.266,0,0,1-.221.238.591.591,0,0,1-.392-.072l-.892-.515-.134-.038a.29.29,0,0,0-.1-.009l-.25.026a.259.259,0,0,1-.1-.008l-.684-.192a.265.265,0,0,1,.028-.517.591.591,0,0,1,.392.072l.892.514.134.039a.288.288,0,0,0,.1.009l.25-.026a.261.261,0,0,1,.1.008l.684.192A.266.266,0,0,1,727.431,7231.705Z" fill="#6d6e70"/>
              <path id="Trazado_2029" data-name="Trazado 2029" d="M724.84,7232.352a.266.266,0,0,1-.1-.31.593.593,0,0,1,.258-.3l.892-.515.1-.1a.262.262,0,0,0,.058-.082l.1-.23a.273.273,0,0,1,.057-.081l.508-.5a.266.266,0,0,1,.434.283.6.6,0,0,1-.258.3l-.892.515-.1.1a.247.247,0,0,0-.058.082l-.1.23a.252.252,0,0,1-.056.081l-.508.5A.267.267,0,0,1,724.84,7232.352Z" fill="#6d6e70"/>
              <path id="Trazado_2030" data-name="Trazado 2030" d="M725.688,7231.28a.26.26,0,1,0,.26-.26A.261.261,0,0,0,725.688,7231.28Z" fill="#bbbdbf"/>
            </g>
            <g id="Grupo_2521" data-name="Grupo 2521">
              <path id="Trazado_2031" data-name="Trazado 2031" d="M724.041,7231.28a1.908,1.908,0,1,1,1.907,1.908A1.91,1.91,0,0,1,724.041,7231.28Zm.138,0a1.77,1.77,0,1,0,1.769-1.769A1.772,1.772,0,0,0,724.179,7231.28Z" fill="#6d6e70"/>
            </g>
          </g>
          <g id="Grupo_2524" data-name="Grupo 2524">
            <path id="Rectángulo_1079" data-name="Rectángulo 1079" d="M0,0H.879a0,0,0,0,1,0,0V2.578a.29.29,0,0,1-.29.29H.29A.29.29,0,0,1,0,2.578V0A0,0,0,0,1,0,0Z" transform="translate(737.563 7220.915) rotate(180)" fill="#929497"/>
            <path id="Rectángulo_1080" data-name="Rectángulo 1080" d="M0,0H1.209a0,0,0,0,1,0,0V.712a.4.4,0,0,1-.4.4H.4a.4.4,0,0,1-.4-.4V0A0,0,0,0,1,0,0Z" transform="translate(737.728 7222.026) rotate(180)" fill="#f1f1f2"/>
            <g id="Grupo_2523" data-name="Grupo 2523">
              <path id="Trazado_2032" data-name="Trazado 2032" d="M736.247,7218.626l.872.04h.009l.872-.04c.028,0,.05-.015.05-.031h0c0-.016-.019-.029-.046-.031l-.872-.08h-.017l-.872.08c-.027,0-.047.015-.047.031h0C736.2,7218.611,736.218,7218.625,736.247,7218.626Z" fill="#bbbdbf"/>
              <path id="Trazado_2033" data-name="Trazado 2033" d="M736.247,7219.013l.872.04h.009l.872-.04c.028,0,.05-.015.05-.032h0c0-.015-.019-.028-.046-.031l-.872-.079h-.017l-.872.079c-.027,0-.047.016-.047.031h0C736.2,7219,736.218,7219.012,736.247,7219.013Z" fill="#bbbdbf"/>
              <path id="Trazado_2034" data-name="Trazado 2034" d="M736.247,7219.4l.872.039h.009l.872-.039c.028,0,.05-.015.05-.032h0c0-.015-.019-.029-.046-.031l-.872-.08h-.017l-.872.08c-.027,0-.047.016-.047.031h0C736.2,7219.385,736.218,7219.4,736.247,7219.4Z" fill="#bbbdbf"/>
              <path id="Trazado_2035" data-name="Trazado 2035" d="M736.247,7219.786l.872.04h.009l.872-.04c.028,0,.05-.015.05-.031h0c0-.016-.019-.029-.046-.032l-.872-.079h-.017l-.872.079c-.027,0-.047.016-.047.032h0C736.2,7219.771,736.218,7219.785,736.247,7219.786Z" fill="#bbbdbf"/>
              <path id="Trazado_2036" data-name="Trazado 2036" d="M736.247,7220.173l.872.04h.009l.872-.04c.028,0,.05-.015.05-.032h0c0-.015-.019-.028-.046-.031l-.872-.079h-.017l-.872.079c-.027,0-.047.016-.047.031h0C736.2,7220.158,736.218,7220.172,736.247,7220.173Z" fill="#bbbdbf"/>
              <path id="Trazado_2037" data-name="Trazado 2037" d="M736.247,7220.56l.872.039h.009l.872-.039c.028,0,.05-.015.05-.032h0c0-.016-.019-.029-.046-.031l-.872-.08h-.017l-.872.08c-.027,0-.047.015-.047.031h0C736.2,7220.545,736.218,7220.558,736.247,7220.56Z" fill="#bbbdbf"/>
            </g>
          </g>
          <g id="Grupo_2526" data-name="Grupo 2526">
            <path id="Rectángulo_1081" data-name="Rectángulo 1081" d="M0,0H1.236a0,0,0,0,1,0,0V3.625a.408.408,0,0,1-.408.408H.408A.408.408,0,0,1,0,3.625V0A0,0,0,0,1,0,0Z" transform="translate(730.968 7220.464) rotate(180)" fill="#929497"/>
            <path id="Rectángulo_1082" data-name="Rectángulo 1082" d="M0,0H1.7a0,0,0,0,1,0,0V1a.561.561,0,0,1-.561.561H.561A.561.561,0,0,1,0,1V0A0,0,0,0,1,0,0Z" transform="translate(731.2 7222.026) rotate(180)" fill="#f1f1f2"/>
            <g id="Grupo_2525" data-name="Grupo 2525">
              <path id="Trazado_2038" data-name="Trazado 2038" d="M729.212,7217.186l1.132.039h.011l1.133-.039c.037,0,.066-.015.066-.031h0c0-.016-.026-.029-.061-.031l-1.132-.078h-.023l-1.132.078c-.035,0-.06.015-.06.031h0C729.146,7217.171,729.175,7217.184,729.212,7217.186Z" fill="#bbbdbf"/>
              <path id="Trazado_2039" data-name="Trazado 2039" d="M729.212,7217.566l1.132.039h.011l1.133-.039c.037,0,.066-.015.066-.031h0c0-.016-.026-.029-.061-.031l-1.132-.078h-.023l-1.132.078c-.035,0-.06.015-.06.031h0C729.146,7217.551,729.175,7217.564,729.212,7217.566Z" fill="#bbbdbf"/>
              <path id="Trazado_2040" data-name="Trazado 2040" d="M729.212,7217.946l1.132.039h.011l1.133-.039c.037,0,.066-.015.066-.031h0c0-.016-.026-.029-.061-.031l-1.132-.078h-.023l-1.132.078c-.035,0-.06.015-.06.031h0C729.146,7217.931,729.175,7217.944,729.212,7217.946Z" fill="#bbbdbf"/>
              <path id="Trazado_2041" data-name="Trazado 2041" d="M729.212,7218.326l1.132.039h.011l1.133-.039c.037,0,.066-.015.066-.031h0c0-.016-.026-.029-.061-.031l-1.132-.078h-.023l-1.132.078c-.035,0-.06.015-.06.031h0C729.146,7218.311,729.175,7218.324,729.212,7218.326Z" fill="#bbbdbf"/>
              <path id="Trazado_2042" data-name="Trazado 2042" d="M729.212,7218.706l1.132.039h.011l1.133-.039c.037,0,.066-.015.066-.031h0c0-.016-.026-.029-.061-.031l-1.132-.078h-.023l-1.132.078c-.035,0-.06.015-.06.031h0C729.146,7218.691,729.175,7218.7,729.212,7218.706Z" fill="#bbbdbf"/>
              <path id="Trazado_2043" data-name="Trazado 2043" d="M729.212,7219.086l1.132.039h.011l1.133-.039c.037,0,.066-.015.066-.031h0c0-.016-.026-.029-.061-.031l-1.132-.078h-.023l-1.132.078c-.035,0-.06.015-.06.031h0C729.146,7219.071,729.175,7219.084,729.212,7219.086Z" fill="#bbbdbf"/>
              <path id="Trazado_2044" data-name="Trazado 2044" d="M729.212,7219.466l1.132.039h.011l1.133-.039c.037,0,.066-.015.066-.031h0c0-.016-.026-.029-.061-.031l-1.132-.078h-.023l-1.132.078c-.035,0-.06.015-.06.031h0C729.146,7219.451,729.175,7219.464,729.212,7219.466Z" fill="#bbbdbf"/>
              <path id="Trazado_2045" data-name="Trazado 2045" d="M729.212,7219.846l1.132.039h.011l1.133-.039c.037,0,.066-.015.066-.031h0c0-.016-.026-.029-.061-.031l-1.132-.078h-.023l-1.132.078c-.035,0-.06.015-.06.031h0C729.146,7219.831,729.175,7219.844,729.212,7219.846Z" fill="#bbbdbf"/>
            </g>
          </g>
        </g>
        <g id="Grupo_2540" data-name="Grupo 2540">
          <g id="Grupo_2534" data-name="Grupo 2534">
            <g id="Grupo_2529" data-name="Grupo 2529">
              <path id="Rectángulo_1083" data-name="Rectángulo 1083" d="M0,0H.784a0,0,0,0,1,0,0V2.3a.259.259,0,0,1-.259.259H.259A.259.259,0,0,1,0,2.3V0A0,0,0,0,1,0,0Z" transform="translate(719.056 7209.111) rotate(180)" fill="#929497"/>
              <path id="Rectángulo_1084" data-name="Rectángulo 1084" d="M0,0H1.078a0,0,0,0,1,0,0V.635A.356.356,0,0,1,.722.99H.356A.356.356,0,0,1,0,.635V0A0,0,0,0,1,0,0Z" transform="translate(719.203 7210.102) rotate(180)" fill="#f1f1f2"/>
              <g id="Grupo_2528" data-name="Grupo 2528">
                <path id="Trazado_2046" data-name="Trazado 2046" d="M717.943,7207.033l.718.024h.007l.718-.024c.023,0,.042-.01.042-.02h0c0-.01-.017-.018-.039-.02l-.718-.049h-.014l-.718.049c-.022,0-.038.01-.038.02h0C717.9,7207.023,717.919,7207.032,717.943,7207.033Z" fill="#bbbdbf"/>
                <path id="Trazado_2047" data-name="Trazado 2047" d="M717.943,7207.273l.718.025h.007l.718-.025c.023,0,.042-.009.042-.019h0c0-.01-.017-.018-.039-.02l-.718-.049h-.014l-.718.049c-.022,0-.038.01-.038.02h0C717.9,7207.264,717.919,7207.273,717.943,7207.273Z" fill="#bbbdbf"/>
                <path id="Trazado_2048" data-name="Trazado 2048" d="M717.943,7207.514l.718.025h.007l.718-.025c.023,0,.042-.009.042-.019h0c0-.01-.017-.018-.039-.02l-.718-.049h-.014l-.718.049c-.022,0-.038.01-.038.02h0C717.9,7207.5,717.919,7207.514,717.943,7207.514Z" fill="#bbbdbf"/>
                <path id="Trazado_2049" data-name="Trazado 2049" d="M717.943,7207.755l.718.025h.007l.718-.025c.023,0,.042-.009.042-.019h0c0-.01-.017-.018-.039-.02l-.718-.049h-.014l-.718.049c-.022,0-.038.01-.038.02h0C717.9,7207.746,717.919,7207.755,717.943,7207.755Z" fill="#bbbdbf"/>
                <path id="Trazado_2050" data-name="Trazado 2050" d="M717.943,7208l.718.025h.007l.718-.025c.023,0,.042-.009.042-.019h0c0-.01-.017-.018-.039-.02l-.718-.049h-.014l-.718.049c-.022,0-.038.01-.038.02h0C717.9,7207.987,717.919,7208,717.943,7208Z" fill="#bbbdbf"/>
                <path id="Trazado_2051" data-name="Trazado 2051" d="M717.943,7208.237l.718.025h.007l.718-.025c.023,0,.042-.009.042-.019h0c0-.01-.017-.018-.039-.02l-.718-.049h-.014l-.718.049c-.022,0-.038.01-.038.02h0C717.9,7208.228,717.919,7208.236,717.943,7208.237Z" fill="#bbbdbf"/>
                <path id="Trazado_2052" data-name="Trazado 2052" d="M717.943,7208.478l.718.025h.007l.718-.025c.023,0,.042-.009.042-.019h0c0-.01-.017-.018-.039-.02l-.718-.05h-.014l-.718.05c-.022,0-.038.01-.038.02h0C717.9,7208.469,717.919,7208.477,717.943,7208.478Z" fill="#bbbdbf"/>
                <path id="Trazado_2053" data-name="Trazado 2053" d="M717.943,7208.719l.718.025h.007l.718-.025c.023,0,.042-.009.042-.02h0c0-.009-.017-.018-.039-.019l-.718-.05h-.014l-.718.05c-.022,0-.038.01-.038.019h0C717.9,7208.71,717.919,7208.718,717.943,7208.719Z" fill="#bbbdbf"/>
              </g>
            </g>
            <g id="Grupo_2531" data-name="Grupo 2531">
              <path id="Rectángulo_1085" data-name="Rectángulo 1085" d="M0,0H.784a0,0,0,0,1,0,0V2.3a.259.259,0,0,1-.259.259H.259A.259.259,0,0,1,0,2.3V0A0,0,0,0,1,0,0Z" transform="translate(715.269 7209.111) rotate(180)" fill="#929497"/>
              <path id="Rectángulo_1086" data-name="Rectángulo 1086" d="M0,0H1.078a0,0,0,0,1,0,0V.635A.356.356,0,0,1,.722.99H.356A.356.356,0,0,1,0,.635V0A0,0,0,0,1,0,0Z" transform="translate(715.416 7210.102) rotate(180)" fill="#f1f1f2"/>
              <g id="Grupo_2530" data-name="Grupo 2530">
                <path id="Trazado_2054" data-name="Trazado 2054" d="M714.156,7207.033l.717.024h.008l.717-.024c.024,0,.042-.01.042-.02h0c0-.01-.016-.018-.038-.02l-.718-.049h-.014l-.718.049c-.022,0-.038.01-.038.02h0C714.114,7207.023,714.132,7207.032,714.156,7207.033Z" fill="#bbbdbf"/>
                <path id="Trazado_2055" data-name="Trazado 2055" d="M714.156,7207.273l.717.025h.008l.717-.025c.024,0,.042-.009.042-.019h0c0-.01-.016-.018-.038-.02l-.718-.049h-.014l-.718.049c-.022,0-.038.01-.038.02h0C714.114,7207.264,714.132,7207.273,714.156,7207.273Z" fill="#bbbdbf"/>
                <path id="Trazado_2056" data-name="Trazado 2056" d="M714.156,7207.514l.717.025h.008l.717-.025c.024,0,.042-.009.042-.019h0c0-.01-.016-.018-.038-.02l-.718-.049h-.014l-.718.049c-.022,0-.038.01-.038.02h0C714.114,7207.5,714.132,7207.514,714.156,7207.514Z" fill="#bbbdbf"/>
                <path id="Trazado_2057" data-name="Trazado 2057" d="M714.156,7207.755l.717.025h.008l.717-.025c.024,0,.042-.009.042-.019h0c0-.01-.016-.018-.038-.02l-.718-.049h-.014l-.718.049c-.022,0-.038.01-.038.02h0C714.114,7207.746,714.132,7207.755,714.156,7207.755Z" fill="#bbbdbf"/>
                <path id="Trazado_2058" data-name="Trazado 2058" d="M714.156,7208l.717.025h.008l.717-.025c.024,0,.042-.009.042-.019h0c0-.01-.016-.018-.038-.02l-.718-.049h-.014l-.718.049c-.022,0-.038.01-.038.02h0C714.114,7207.987,714.132,7208,714.156,7208Z" fill="#bbbdbf"/>
                <path id="Trazado_2059" data-name="Trazado 2059" d="M714.156,7208.237l.717.025h.008l.717-.025c.024,0,.042-.009.042-.019h0c0-.01-.016-.018-.038-.02l-.718-.049h-.014l-.718.049c-.022,0-.038.01-.038.02h0C714.114,7208.228,714.132,7208.236,714.156,7208.237Z" fill="#bbbdbf"/>
                <path id="Trazado_2060" data-name="Trazado 2060" d="M714.156,7208.478l.717.025h.008l.717-.025c.024,0,.042-.009.042-.019h0c0-.01-.016-.018-.038-.02l-.718-.05h-.014l-.718.05c-.022,0-.038.01-.038.02h0C714.114,7208.469,714.132,7208.477,714.156,7208.478Z" fill="#bbbdbf"/>
                <path id="Trazado_2061" data-name="Trazado 2061" d="M714.156,7208.719l.717.025h.008l.717-.025c.024,0,.042-.009.042-.02h0c0-.009-.016-.018-.038-.019l-.718-.05h-.014l-.718.05c-.022,0-.038.01-.038.019h0C714.114,7208.71,714.132,7208.718,714.156,7208.719Z" fill="#bbbdbf"/>
              </g>
            </g>
            <g id="Grupo_2533" data-name="Grupo 2533">
              <path id="Rectángulo_1087" data-name="Rectángulo 1087" d="M0,0H.784a0,0,0,0,1,0,0V2.3a.259.259,0,0,1-.259.259H.259A.259.259,0,0,1,0,2.3V0A0,0,0,0,1,0,0Z" transform="translate(711.482 7209.111) rotate(180)" fill="#929497"/>
              <path id="Rectángulo_1088" data-name="Rectángulo 1088" d="M0,0H1.078a0,0,0,0,1,0,0V.635A.356.356,0,0,1,.722.99H.356A.356.356,0,0,1,0,.635V0A0,0,0,0,1,0,0Z" transform="translate(711.629 7210.102) rotate(180)" fill="#f1f1f2"/>
              <g id="Grupo_2532" data-name="Grupo 2532">
                <path id="Trazado_2062" data-name="Trazado 2062" d="M710.368,7207.033l.718.024h.007l.718-.024c.024,0,.042-.01.042-.02h0c0-.01-.016-.018-.038-.02l-.718-.049h-.014l-.718.049c-.022,0-.039.01-.039.02h0C710.326,7207.023,710.345,7207.032,710.368,7207.033Z" fill="#bbbdbf"/>
                <path id="Trazado_2063" data-name="Trazado 2063" d="M710.368,7207.273l.718.025h.007l.718-.025c.024,0,.042-.009.042-.019h0c0-.01-.016-.018-.038-.02l-.718-.049h-.014l-.718.049c-.022,0-.039.01-.039.02h0C710.326,7207.264,710.345,7207.273,710.368,7207.273Z" fill="#bbbdbf"/>
                <path id="Trazado_2064" data-name="Trazado 2064" d="M710.368,7207.514l.718.025h.007l.718-.025c.024,0,.042-.009.042-.019h0c0-.01-.016-.018-.038-.02l-.718-.049h-.014l-.718.049c-.022,0-.039.01-.039.02h0C710.326,7207.5,710.345,7207.514,710.368,7207.514Z" fill="#bbbdbf"/>
                <path id="Trazado_2065" data-name="Trazado 2065" d="M710.368,7207.755l.718.025h.007l.718-.025c.024,0,.042-.009.042-.019h0c0-.01-.016-.018-.038-.02l-.718-.049h-.014l-.718.049c-.022,0-.039.01-.039.02h0C710.326,7207.746,710.345,7207.755,710.368,7207.755Z" fill="#bbbdbf"/>
                <path id="Trazado_2066" data-name="Trazado 2066" d="M710.368,7208l.718.025h.007l.718-.025c.024,0,.042-.009.042-.019h0c0-.01-.016-.018-.038-.02l-.718-.049h-.014l-.718.049c-.022,0-.039.01-.039.02h0C710.326,7207.987,710.345,7208,710.368,7208Z" fill="#bbbdbf"/>
                <path id="Trazado_2067" data-name="Trazado 2067" d="M710.368,7208.237l.718.025h.007l.718-.025c.024,0,.042-.009.042-.019h0c0-.01-.016-.018-.038-.02l-.718-.049h-.014l-.718.049c-.022,0-.039.01-.039.02h0C710.326,7208.228,710.345,7208.236,710.368,7208.237Z" fill="#bbbdbf"/>
                <path id="Trazado_2068" data-name="Trazado 2068" d="M710.368,7208.478l.718.025h.007l.718-.025c.024,0,.042-.009.042-.019h0c0-.01-.016-.018-.038-.02l-.718-.05h-.014l-.718.05c-.022,0-.039.01-.039.02h0C710.326,7208.469,710.345,7208.477,710.368,7208.478Z" fill="#bbbdbf"/>
                <path id="Trazado_2069" data-name="Trazado 2069" d="M710.368,7208.719l.718.025h.007l.718-.025c.024,0,.042-.009.042-.02h0c0-.009-.016-.018-.038-.019l-.718-.05h-.014l-.718.05c-.022,0-.039.01-.039.019h0C710.326,7208.71,710.345,7208.718,710.368,7208.719Z" fill="#bbbdbf"/>
              </g>
            </g>
          </g>
          <g id="Grupo_2537" data-name="Grupo 2537">
            <g id="Grupo_2535" data-name="Grupo 2535">
              <rect id="Rectángulo_1089" data-name="Rectángulo 1089" width="1.352" height="13.135" transform="translate(721.255 7224.203) rotate(180)" fill="#a6a8ab"/>
              <rect id="Rectángulo_1090" data-name="Rectángulo 1090" width="0.579" height="13.135" transform="translate(720.869 7224.203) rotate(180)" fill="#bbbdbf"/>
            </g>
            <g id="Grupo_2536" data-name="Grupo 2536">
              <rect id="Rectángulo_1091" data-name="Rectángulo 1091" width="1.352" height="13.135" transform="translate(709.851 7224.203) rotate(180)" fill="#a6a8ab"/>
              <rect id="Rectángulo_1092" data-name="Rectángulo 1092" width="0.579" height="13.135" transform="translate(709.465 7224.203) rotate(180)" fill="#bbbdbf"/>
            </g>
          </g>
          <g id="Grupo_2538" data-name="Grupo 2538">
            <rect id="Rectángulo_1093" data-name="Rectángulo 1093" width="0.966" height="14.995" transform="translate(722.374 7210.102) rotate(90)" fill="#9c9ea1"/>
            <rect id="Rectángulo_1094" data-name="Rectángulo 1094" width="0.414" height="14.995" transform="translate(722.374 7210.378) rotate(90)" fill="#bbbdbf"/>
          </g>
          <g id="Grupo_2539" data-name="Grupo 2539">
            <rect id="Rectángulo_1095" data-name="Rectángulo 1095" width="0.966" height="10.052" transform="translate(719.903 7216.75) rotate(90)" fill="#9c9ea1"/>
            <rect id="Rectángulo_1096" data-name="Rectángulo 1096" width="0.414" height="10.052" transform="translate(719.903 7217.026) rotate(90)" fill="#bbbdbf"/>
          </g>
        </g>
      </g>
    </g>
  </g>
</svg>
