<svg xmlns="http://www.w3.org/2000/svg" width="49.947" height="49.946" viewBox="0 0 49.947 49.946">
  <g id="Grupo_5544" data-name="Grupo 5544" transform="translate(-348.535 -12599.323)">
    <path id="Trazado_3677" data-name="Trazado 3677" d="M369.423,12609.217a15.7,15.7,0,0,0-9.9,8.13h7.522A25.117,25.117,0,0,1,369.423,12609.217Z" fill="#dd474d"/>
    <path id="Trazado_3678" data-name="Trazado 3678" d="M376.258,12612.739c-.936-2.809-2.055-4.065-2.75-4.065s-1.814,1.257-2.75,4.065a28.565,28.565,0,0,0-1.077,4.607h7.654A28.644,28.644,0,0,0,376.258,12612.739Z" fill="#dd474d"/>
    <path id="Trazado_3679" data-name="Trazado 3679" d="M387.5,12617.347a15.7,15.7,0,0,0-9.9-8.13,25.117,25.117,0,0,1,2.382,8.13Z" fill="#dd474d"/>
    <path id="Trazado_3680" data-name="Trazado 3680" d="M366.558,12624.3c0-1.457.061-2.914.184-4.337H358.5a15.666,15.666,0,0,0,0,8.672h8.244C366.619,12627.21,366.558,12625.753,366.558,12624.3Z" fill="#dd474d"/>
    <path id="Trazado_3681" data-name="Trazado 3681" d="M369.172,12624.3c0,1.488.066,2.941.192,4.335h8.288c.126-1.394.192-2.847.192-4.335s-.066-2.942-.192-4.337h-8.288C369.238,12621.355,369.172,12622.809,369.172,12624.3Z" fill="#dd474d"/>
    <path id="Trazado_3682" data-name="Trazado 3682" d="M373.508,12599.323a24.973,24.973,0,1,0,24.974,24.974A24.973,24.973,0,0,0,373.508,12599.323Zm17.222,30.974a1.281,1.281,0,0,1-.058.164,18.237,18.237,0,0,1-34.328,0,1.281,1.281,0,0,1-.058-.164,18.241,18.241,0,0,1,0-12,1.336,1.336,0,0,1,.058-.164,18.237,18.237,0,0,1,34.328,0,1.336,1.336,0,0,1,.058.164,18.242,18.242,0,0,1,0,12Z" fill="#dd474d"/>
    <path id="Trazado_3683" data-name="Trazado 3683" d="M380.274,12619.961c.123,1.423.185,2.88.185,4.337s-.062,2.912-.185,4.335h8.244a15.666,15.666,0,0,0,0-8.672Z" fill="#dd474d"/>
    <path id="Trazado_3684" data-name="Trazado 3684" d="M377.593,12639.377a15.69,15.69,0,0,0,9.9-8.13h-7.522A25.11,25.11,0,0,1,377.593,12639.377Z" fill="#dd474d"/>
    <path id="Trazado_3685" data-name="Trazado 3685" d="M359.519,12631.247a15.69,15.69,0,0,0,9.9,8.13,25.11,25.11,0,0,1-2.382-8.13Z" fill="#dd474d"/>
    <path id="Trazado_3686" data-name="Trazado 3686" d="M370.758,12635.855c.936,2.808,2.056,4.064,2.75,4.064s1.814-1.257,2.75-4.064a28.529,28.529,0,0,0,1.077-4.608h-7.654A28.553,28.553,0,0,0,370.758,12635.855Z" fill="#dd474d"/>
  </g>
</svg>
