<svg xmlns="http://www.w3.org/2000/svg" width="246.061" height="240.846" viewBox="0 0 246.061 240.846">
  <g id="Grupo_2428" data-name="Grupo 2428" transform="translate(-2652.486 -5880.189)">
    <g id="Grupo_2414" data-name="Grupo 2414">
      <path id="Trazado_1680" data-name="Trazado 1680" d="M2891.269,5973.616c-27.317-46.779-101.406-30.118-116.539-52.874-7.749-11.651-16.418-25.156-28.991-32.179a69.064,69.064,0,0,0-38-8.2c-43.268,3.167-61.614,41.88-53.3,84.392,11.092,56.709,61.362,114.636,121.084,115.042,31.234.212,61.055-10.954,84.447-26.738l.523-.354C2883.861,6036.8,2912.125,6009.331,2891.269,5973.616Z" fill="#00c2db"/>
      <path id="Trazado_1681" data-name="Trazado 1681" d="M2891.269,5973.616c-27.317-46.779-101.406-30.118-116.539-52.874-7.749-11.651-16.418-25.156-28.991-32.179a69.064,69.064,0,0,0-38-8.2c-43.268,3.167-61.614,41.88-53.3,84.392,11.092,56.709,61.362,114.636,121.084,115.042,31.234.212,61.055-10.954,84.447-26.738l.523-.354C2883.861,6036.8,2912.125,6009.331,2891.269,5973.616Z" fill="#fff" opacity="0.7"/>
    </g>
    <g id="Grupo_2415" data-name="Grupo 2415">
      <path id="Trazado_1682" data-name="Trazado 1682" d="M2679.233,5977.02H2676.2a12.29,12.29,0,0,0-12.291,12.29v67.441a12.29,12.29,0,0,0,12.291,12.29h41.672a12.29,12.29,0,0,0,12.291-12.29h0" fill="none" stroke="#1a2e35" stroke-linecap="round" stroke-linejoin="round" stroke-width="1.103" stroke-dasharray="4.412"/>
      <path id="Trazado_1683" data-name="Trazado 1683" d="M2726.741,5913.385v-13.321a7.528,7.528,0,0,1,7.528-7.528h54.192a7.527,7.527,0,0,1,7.527,7.528h0" fill="none" stroke="#1a2e35" stroke-linecap="round" stroke-linejoin="round" stroke-width="1.103" stroke-dasharray="4.412"/>
    </g>
    <g id="Grupo_2416" data-name="Grupo 2416">
      <ellipse id="Elipse_122" data-name="Elipse 122" cx="107.33" cy="14.999" rx="107.33" ry="14.999" transform="translate(2668.187 6091.038)" fill="#00c2db"/>
      <ellipse id="Elipse_123" data-name="Elipse 123" cx="107.33" cy="14.999" rx="107.33" ry="14.999" transform="translate(2668.187 6091.038)" fill="#fff" opacity="0.5"/>
    </g>
    <g id="Grupo_2417" data-name="Grupo 2417">
      <path id="Trazado_1684" data-name="Trazado 1684" d="M2876.693,5931.26v100.906a12.44,12.44,0,0,1-12.438,12.438H2686.779a12.439,12.439,0,0,1-12.438-12.438V5931.26c0-.3.013-.588.037-.878a12.436,12.436,0,0,1,12.4-11.566h177.476a12.435,12.435,0,0,1,12.4,11.566C2876.68,5930.672,2876.693,5930.963,2876.693,5931.26Z" fill="#fff" stroke="#1a2e35" stroke-linecap="round" stroke-linejoin="round" stroke-width="1.103"/>
      <path id="Rectángulo_896" data-name="Rectángulo 896" d="M0,0H190.881a0,0,0,0,1,0,0V84.069a20.8,20.8,0,0,1-20.8,20.8H20.8A20.8,20.8,0,0,1,0,84.069V0A0,0,0,0,1,0,0Z" transform="translate(2680.394 5935.043)" fill="#1a2e35"/>
      <path id="Trazado_1685" data-name="Trazado 1685" d="M2871.277,5935.043v93.216a11.593,11.593,0,0,1-11.527,11.653H2691.92a11.592,11.592,0,0,1-11.526-11.653v-93.216Z" fill="#fff" opacity="0.2"/>
      <path id="Trazado_1686" data-name="Trazado 1686" d="M2876.655,5930.382H2674.378a12.436,12.436,0,0,1,12.4-11.566h177.476A12.435,12.435,0,0,1,2876.655,5930.382Z" fill="#00c2db" stroke="#1a2e35" stroke-miterlimit="10" stroke-width="1.103"/>
      <path id="Trazado_1687" data-name="Trazado 1687" d="M2699.235,5924.6a2.2,2.2,0,1,1-2.2-2.2A2.2,2.2,0,0,1,2699.235,5924.6Z" fill="#1a2e35"/>
      <path id="Trazado_1688" data-name="Trazado 1688" d="M2708.55,5924.6a2.2,2.2,0,1,1-2.2-2.2A2.2,2.2,0,0,1,2708.55,5924.6Z" fill="#1a2e35"/>
      <circle id="Elipse_124" data-name="Elipse 124" cx="2.203" cy="2.203" r="2.203" transform="translate(2713.459 5922.396)" fill="#1a2e35"/>
      <path id="Trazado_1689" data-name="Trazado 1689" d="M2871.274,5935.047v93.21a11.66,11.66,0,0,1-11.659,11.659H2692.049a11.656,11.656,0,0,1-11.43-9.4l-.006-.006v-.024a11.589,11.589,0,0,1-.217-2.232v-93.21Z" fill="none" stroke="#1a2e35" stroke-miterlimit="10" stroke-width="1.103"/>
      <path id="Trazado_1690" data-name="Trazado 1690" d="M2871.093,5949.464a11.857,11.857,0,0,0-2.59-1.07l-1.045-4.679h-4.451l-1.038,4.679a11.5,11.5,0,0,0-2.6,1.07l-4.018-2.572-3.146,3.147,2.528,4.018a11.454,11.454,0,0,0-1.07,2.6l-4.679,1.039v4.451l4.679,1.045a11.345,11.345,0,0,0,1.07,2.614l-2.572,4.043,3.147,3.147,4.043-2.572a11.464,11.464,0,0,0,2.6,1.076l1.039,4.674h4.451l1.044-4.674a11.79,11.79,0,0,0,2.59-1.076l.205.13v-21.2Zm-5.848,16.227a5.749,5.749,0,1,1,5.749-5.749A5.746,5.746,0,0,1,2865.245,5965.691Z" fill="#1a2e35"/>
      <path id="Trazado_1691" data-name="Trazado 1691" d="M2790.9,5953.972v-9.384l-9.866-2.189a25.525,25.525,0,0,0-2.256-5.477l1.193-1.879H2733.4l1.15,1.83a24.3,24.3,0,0,0-2.251,5.471l-9.866,2.194v9.384l9.866,2.2a24.613,24.613,0,0,0,2.251,5.514l-5.422,8.525,6.64,6.633,8.518-5.421a25.131,25.131,0,0,0,5.477,2.269l2.189,9.854h9.384l2.207-9.854a25.277,25.277,0,0,0,5.458-2.269l8.525,5.421,6.633-6.633-5.384-8.525a25.694,25.694,0,0,0,2.256-5.464Zm-34.185,7.431a12.123,12.123,0,1,1,12.122-12.123A12.123,12.123,0,0,1,2756.715,5961.4Z" fill="#1a2e35"/>
      <path id="Trazado_1692" data-name="Trazado 1692" d="M2728.658,6018.409l.4-7.443-7.715-2.176a20.881,20.881,0,0,0-1.583-4.426l4.662-6.547-4.995-5.545-6.986,3.95a20.71,20.71,0,0,0-4.253-2.033l-1.335-7.913-7.443-.4-2.152,7.74a19.5,19.5,0,0,0-4.426,1.57l-6.54-4.661-5.552,5,3.957,6.992a19.324,19.324,0,0,0-2.04,4.247l-2.257.37v10.083l1.639.464a19.471,19.471,0,0,0,1.582,4.438l-3.221,4.507.217,3.864v.024l.006.006,3.32,3.685,7-3.95a19.417,19.417,0,0,0,4.266,2.058l1.273,7.6v.006l.062.315,7.443.4.2-.711v-.006l1.954-7.023a19.912,19.912,0,0,0,4.45-1.57l6.529,4.655,5.551-4.989-3.944-7a19.281,19.281,0,0,0,2.015-4.241Zm-19.769-11.628a9.639,9.639,0,1,0-.717,13.606A9.641,9.641,0,0,0,2708.889,6006.781Z" fill="#1a2e35"/>
      <path id="Trazado_1693" data-name="Trazado 1693" d="M2788.182,6007.287a15.114,15.114,0,0,0,.452-3.525l5.351-2.813-1.478-5.429-6.04.282a15.068,15.068,0,0,0-2.17-2.8l1.789-5.778-4.877-2.794-4.081,4.453a15.794,15.794,0,0,0-3.513-.448l-2.825-5.355-5.421,1.475.286,6.048a15.355,15.355,0,0,0-2.81,2.167l-5.78-1.784-2.8,4.87,4.477,4.07a14.643,14.643,0,0,0-.442,3.515l-5.361,2.823,1.478,5.429,6.048-.286a14.405,14.405,0,0,0,2.162,2.808l-1.8,5.748,4.877,2.794,4.06-4.414a14.813,14.813,0,0,0,3.521.444l2.817,5.359,5.422-1.475-.238-5.166-.041-.886a14.891,14.891,0,0,0,2.838-2.171l5.776,1.8,2.386-4.172.408-.706Zm-12.818,3.3a7.262,7.262,0,1,1,5.1-8.915A7.26,7.26,0,0,1,2775.364,6010.585Z" fill="#1a2e35"/>
      <path id="Trazado_1694" data-name="Trazado 1694" d="M2850.228,6016.835l1.236-7.449-7.542-3.035a20.008,20.008,0,0,0-1.081-4.649l5.427-6.046-4.4-6.144-7.486,3.177a19.93,19.93,0,0,0-4.043-2.51l-.439-8.123-7.456-1.23-3.053,7.511a20.845,20.845,0,0,0-4.631,1.088L2810.7,5984l-6.139,4.4,3.184,7.48a20.375,20.375,0,0,0-2.269,3.523c-.086.173-.173.346-.253.52l-8.117.451-1.236,7.443,1.224.494,6.318,2.547a19.625,19.625,0,0,0,1.081,4.631l-5.427,6.064,4.4,6.139,7.486-3.19a19.463,19.463,0,0,0,4.037,2.528l.42,8.086,7.45,1.23,3.047-7.455a19.573,19.573,0,0,0,4.643-1.088l6.052,5.434,6.145-4.4-3.184-7.486a19.52,19.52,0,0,0,2.553-4.062Zm-20.9-.333a9.756,9.756,0,1,1,2.25-13.613A9.757,9.757,0,0,1,2829.327,6016.5Z" fill="#1a2e35"/>
    </g>
    <g id="Grupo_2425" data-name="Grupo 2425">
      <g id="Grupo_2422" data-name="Grupo 2422">
        <rect id="Rectángulo_897" data-name="Rectángulo 897" width="73.299" height="95.837" rx="13.11" transform="translate(2683.268 5961.66)" fill="#00c2db" stroke="#1a2e35" stroke-miterlimit="10" stroke-width="1.103"/>
        <rect id="Rectángulo_898" data-name="Rectángulo 898" width="73.299" height="95.837" rx="13.11" transform="translate(2683.268 5961.66)" opacity="0.2"/>
        <g id="Grupo_2421" data-name="Grupo 2421">
          <path id="Trazado_1695" data-name="Trazado 1695" d="M2763.391,5976.245v81.143a7.347,7.347,0,0,1-7.351,7.35h-58.6a7.346,7.346,0,0,1-7.344-7.35v-81.143a7.345,7.345,0,0,1,7.344-7.344h58.6A7.347,7.347,0,0,1,2763.391,5976.245Z" fill="#fff" stroke="#1a2e35" stroke-linecap="round" stroke-linejoin="round" stroke-width="1.103"/>
          <path id="Trazado_1696" data-name="Trazado 1696" d="M2763.391,5976.245v4.346h-73.3v-4.346a7.345,7.345,0,0,1,7.344-7.344h58.6A7.347,7.347,0,0,1,2763.391,5976.245Z" fill="#00c2db" stroke="#1a2e35" stroke-miterlimit="10" stroke-width="1.103"/>
          <rect id="Rectángulo_899" data-name="Rectángulo 899" width="18.033" height="3.025" transform="translate(2696.985 5985.625)" fill="#00c2db"/>
          <rect id="Rectángulo_900" data-name="Rectángulo 900" width="18.033" height="3.025" transform="translate(2696.985 6012.742)" fill="#00c2db"/>
          <rect id="Rectángulo_901" data-name="Rectángulo 901" width="18.033" height="3.025" transform="translate(2696.985 6037.332)" fill="#00c2db"/>
          <g id="Grupo_2418" data-name="Grupo 2418">
            <rect id="Rectángulo_902" data-name="Rectángulo 902" width="51.217" height="2.218" transform="translate(2696.985 5993.113)" fill="#1a2e35"/>
            <rect id="Rectángulo_903" data-name="Rectángulo 903" width="41.981" height="2.162" transform="translate(2696.985 5997.359)" fill="#1a2e35"/>
            <rect id="Rectángulo_904" data-name="Rectángulo 904" width="47.479" height="2.162" transform="translate(2696.985 6001.533)" fill="#1a2e35"/>
            <rect id="Rectángulo_905" data-name="Rectángulo 905" width="47.479" height="2.162" transform="translate(2696.985 6005.704)" fill="#1a2e35"/>
          </g>
          <g id="Grupo_2419" data-name="Grupo 2419">
            <rect id="Rectángulo_906" data-name="Rectángulo 906" width="51.217" height="2.218" transform="translate(2696.985 6017.704)" fill="#1a2e35"/>
            <rect id="Rectángulo_907" data-name="Rectángulo 907" width="41.981" height="2.162" transform="translate(2696.985 6021.95)" fill="#1a2e35"/>
            <rect id="Rectángulo_908" data-name="Rectángulo 908" width="47.479" height="2.162" transform="translate(2696.985 6026.124)" fill="#1a2e35"/>
          </g>
          <g id="Grupo_2420" data-name="Grupo 2420">
            <rect id="Rectángulo_909" data-name="Rectángulo 909" width="51.217" height="2.218" transform="translate(2696.985 6044.707)" fill="#1a2e35"/>
            <rect id="Rectángulo_910" data-name="Rectángulo 910" width="41.981" height="2.162" transform="translate(2696.985 6048.954)" fill="#1a2e35"/>
            <rect id="Rectángulo_911" data-name="Rectángulo 911" width="47.479" height="2.162" transform="translate(2696.985 6053.127)" fill="#1a2e35"/>
          </g>
        </g>
      </g>
      <g id="Grupo_2424" data-name="Grupo 2424">
        <path id="Trazado_1697" data-name="Trazado 1697" d="M2846,5912.637v32.795a8.756,8.756,0,0,1-8.759,8.76H2761.7a8.76,8.76,0,0,1-8.759-8.76v-32.795a8.765,8.765,0,0,1,8.759-8.766h75.537A8.762,8.762,0,0,1,2846,5912.637Z" fill="#fff" stroke="#1c1c1b" stroke-miterlimit="10" stroke-width="1.103"/>
        <path id="Trazado_1698" data-name="Trazado 1698" d="M2846,5912.637v.748h-93.055v-.748a8.765,8.765,0,0,1,8.759-8.766h75.537A8.762,8.762,0,0,1,2846,5912.637Z" fill="#00c2db" stroke="#1a2e35" stroke-miterlimit="10" stroke-width="1.103"/>
        <path id="Trazado_1699" data-name="Trazado 1699" d="M2766.611,5910.195a1.341,1.341,0,1,1,0-1.9A1.34,1.34,0,0,1,2766.611,5910.195Z" fill="#1a2e35"/>
        <path id="Trazado_1700" data-name="Trazado 1700" d="M2772.843,5910.195a1.341,1.341,0,1,1,0-1.9A1.34,1.34,0,0,1,2772.843,5910.195Z" fill="#1a2e35"/>
        <path id="Trazado_1701" data-name="Trazado 1701" d="M2779.075,5910.195a1.342,1.342,0,1,1,0-1.9A1.341,1.341,0,0,1,2779.075,5910.195Z" fill="#1a2e35"/>
        <rect id="Rectángulo_912" data-name="Rectángulo 912" width="30.418" height="26.293" transform="translate(2758.874 5919.416)" fill="none" stroke="#1a2e35" stroke-linecap="round" stroke-linejoin="round" stroke-width="1.103" stroke-dasharray="4.412"/>
        <g id="Grupo_2423" data-name="Grupo 2423">
          <rect id="Rectángulo_913" data-name="Rectángulo 913" width="35.007" height="1.847" transform="translate(2793.985 5919.416)" fill="#1a2e35"/>
          <rect id="Rectángulo_914" data-name="Rectángulo 914" width="26.853" height="1.846" transform="translate(2793.985 5923.245)" fill="#1a2e35"/>
          <rect id="Rectángulo_915" data-name="Rectángulo 915" width="39.987" height="1.868" transform="translate(2793.985 5927.053)" fill="#1a2e35"/>
          <rect id="Rectángulo_916" data-name="Rectángulo 916" width="34.049" height="1.868" transform="translate(2793.985 5930.772)" fill="#1a2e35"/>
        </g>
      </g>
    </g>
    <g id="Grupo_2427" data-name="Grupo 2427">
      <path id="Trazado_1702" data-name="Trazado 1702" d="M2801.779,6103.271s-16.252,4.662-18.521,5.465c-2.064.73-7.659,2.689-11.856,2.083a9.108,9.108,0,0,1-1.2-.259c-4.253-1.268-6.163-2.448-6.719-5.125s1.557-4.643,3.6-5.9,13.106-2.578,13.106-2.578l2.671.786h.006Z" fill="#00c2db"/>
      <path id="Trazado_1703" data-name="Trazado 1703" d="M2771.4,6110.819a9.108,9.108,0,0,1-1.2-.259c-4.253-1.268-6.163-2.448-6.719-5.125s1.557-4.643,3.6-5.9,13.106-2.578,13.106-2.578l2.671.786c-2.418,1.112-11.431,1.731-13.4,2.862s-2.917,3.264-1.755,6.145A11.181,11.181,0,0,0,2771.4,6110.819Z" fill="#fff"/>
      <path id="Trazado_1704" data-name="Trazado 1704" d="M2799.334,6103.934s-12.205,3.163-17.045,5.187-14.074,2.909-17.363-1.265-.38-7.766,2.909-8.564,9.94-2.062,13.572-1.557" fill="none" stroke="#1a2e35" stroke-linecap="round" stroke-linejoin="round" stroke-width="1.103"/>
      <path id="Trazado_1705" data-name="Trazado 1705" d="M2771.646,6110.6s-6.21-3.405-4.147-8.178c1.521-3.522,9.806-2.758,13.908-4.684" fill="none" stroke="#1a2e35" stroke-linecap="round" stroke-linejoin="round" stroke-width="1.103"/>
      <path id="Trazado_1706" data-name="Trazado 1706" d="M2851.278,6111.574a5.154,5.154,0,0,1-2.436,4.247,9.533,9.533,0,0,1-5,1.032c-5.7-.074-16.413-4.148-16.413-4.148l-10.033-5.545,5.217-8.259,1.428-2.263,3.691.829s3.054,1.731,6.126,3.109,10.528,1.669,13.155,3.8S2851.562,6108.8,2851.278,6111.574Z" fill="#00c2db"/>
      <path id="Trazado_1707" data-name="Trazado 1707" d="M2851.278,6111.574a5.154,5.154,0,0,1-2.436,4.247,7.519,7.519,0,0,0-.284-5.008c-1.113-2.516-4.767-4.735-9.564-5.106s-8.469-2.615-10.392-3.616c-1.5-.779-4.667-2.479-5.984-3.19l1.428-2.263,3.691.829s3.054,1.731,6.126,3.109,10.528,1.669,13.155,3.8S2851.562,6108.8,2851.278,6111.574Z" fill="#fff"/>
      <path id="Trazado_1708" data-name="Trazado 1708" d="M2819.624,6108.714a63.307,63.307,0,0,0,23.484,8.022c1.824.22,3.948.251,5.171-1.121a3.828,3.828,0,0,0,.842-2.867c-.221-2.575-2.386-4.618-4.761-5.638s-5-1.265-7.521-1.831a29.668,29.668,0,0,1-7.231-2.645,22.64,22.64,0,0,0-5.57-2.519c-2-.424-4.385.09-5.452,1.835" fill="none" stroke="#1a2e35" stroke-linecap="round" stroke-linejoin="round" stroke-width="1.103"/>
      <path id="Trazado_1709" data-name="Trazado 1709" d="M2847.609,6116.314a6.68,6.68,0,0,0,3.67-4.741,7.058,7.058,0,0,0-2.967-6.361,16.459,16.459,0,0,0-6.786-2.694,44.126,44.126,0,0,1-7.148-1.729c-3.515-1.373-6.983-4.087-10.631-3.119" fill="none" stroke="#1a2e35" stroke-linecap="round" stroke-linejoin="round" stroke-width="1.103"/>
      <path id="Trazado_1710" data-name="Trazado 1710" d="M2830.945,6021.9l-16.975-6.46-.21-.08s.062-.451.111-1.107c.1-1.353.161-3.56-.476-4.308-.946-1.107-3.629-.18-6.244-1.379s-7.455.946-7.455.946-3.493-.643-5.032,1.879a13.677,13.677,0,0,0-.513,5.063s-.111.043-.322.118c-2.021.754-13.025,4.9-15.355,6.559-2.572,1.823-5.416,20.523-6.331,26.013s-2.54,10.441-1.712,12.333,12.648,10.991,19.448,13.34,30.928,1.663,30.928,1.663.4-.1,1.094-.328c4.08-1.31,18.558-6.707,26.236-19.435C2848.137,6056.716,2840.7,6032.322,2830.945,6021.9Zm-45.863,31.454c-1.249.884-.581,4.315-.581,4.315l-2.127-1.873,5.335-13.118,2.275,10.07S2786.331,6052.475,2785.082,6053.353Zm42.68,8.333c-.588.3,1.687-6,.606-7.431s-4.322-1.292-4.322-1.292l.279-1.725,1.922-9.86.637-.76s6.6,11.319,7.783,15.306C2834.667,6055.924,2827.471,6061.686,2827.762,6061.686Z" fill="#00c2db"/>
      <path id="Trazado_1711" data-name="Trazado 1711" d="M2798.894,5980.984l-8.761,9.3s-1.208,1.068-.728,3.767,1.6,5.016,2.443,5.2a12.011,12.011,0,0,0,2.029.182,36.279,36.279,0,0,0,3.207,5.668,71.14,71.14,0,0,1,.217,8.023s3.147,2.75,6.112,3.1,7.546-4.193,7.546-4.193l1.135-5.561s2.688-4.08,2.871-5.166,1.412-.808,2.016-1.344a10.226,10.226,0,0,0,2.232-5.2c.231-2.264.247-4.865-2.383-4.1-2.279-.612-.853-5.43-.853-5.43l-4-3.534Z" fill="#fff"/>
      <path id="Trazado_1712" data-name="Trazado 1712" d="M2813.97,6015.439a8.9,8.9,0,0,1-.451,1.014c-1.447,2.726-7.746,7.919-7.746,7.919l-1.9-5.854-1.045,5.854c-2.1-.915-8.512-6.472-8.512-6.472s-.217-.52-.483-1.329c.211-.075.322-.118.322-.118a13.677,13.677,0,0,1,.513-5.063c1.539-2.522,5.032-1.879,5.032-1.879s4.84-2.145,7.455-.946,5.3.272,6.244,1.379.365,5.415.365,5.415Z" fill="#fff" opacity="0.5"/>
      <path id="Trazado_1713" data-name="Trazado 1713" d="M2830.945,6021.9l-16.975-6.46-.21-.08s.062-.451.111-1.107l-.352,2.2-2.51,3.412a68.8,68.8,0,0,1,7.833,3.453,6.881,6.881,0,0,1,3.6,6.862l-3.129,26.758-1.28,15.195,3.87,4.018c4.08-1.31,18.558-6.707,26.236-19.435C2848.137,6056.716,2840.7,6032.322,2830.945,6021.9Zm-3.183,39.787c-.588.3,1.687-6,.606-7.431s-4.322-1.292-4.322-1.292l.279-1.725,1.922-9.86.637-.76s6.6,11.319,7.783,15.306C2834.667,6055.924,2827.471,6061.686,2827.762,6061.686Z" opacity="0.2"/>
      <path id="Trazado_1714" data-name="Trazado 1714" d="M2791.134,6054.255l-2.64-8.821s-4.732-16.142-7.978-20.123l.853,11.352s-2.784,13.562-5.362,17.592-3.134,5.032,0,5.032,10.757,6.077,10.757,6.077l-.588-5.069Zm-6.633,3.413-2.127-1.873,5.335-13.118,2.275,10.07s-3.653-.272-4.9.606S2784.5,6057.668,2784.5,6057.668Z" opacity="0.2"/>
      <path id="Trazado_1715" data-name="Trazado 1715" d="M2797.084,6005.1s.487,4.756,0,6.93" fill="none" stroke="#1a2e35" stroke-linecap="round" stroke-linejoin="round" stroke-width="1.103"/>
      <path id="Trazado_1716" data-name="Trazado 1716" d="M2811.443,6011.391a20.411,20.411,0,0,1,.53-4.544" fill="none" stroke="#1a2e35" stroke-linecap="round" stroke-linejoin="round" stroke-width="1.103"/>
      <path id="Trazado_1717" data-name="Trazado 1717" d="M2812.718,5984.531s2.878,3.616,2.73,6.346-.369,5.977-.295,9.15-5.092,9.814-7.748,10.405-4.944.738-6.642-.96a64.128,64.128,0,0,1-5.608-7.084c-2.213-3.025-1.7-9.666-1.7-9.666" fill="none" stroke="#1a2e35" stroke-linecap="round" stroke-linejoin="round" stroke-width="1.103"/>
      <path id="Trazado_1718" data-name="Trazado 1718" d="M2805.791,5995.252a14.947,14.947,0,0,0-.225,3.008,3.43,3.43,0,0,0,.738,2.356c.318.324.781.584.841,1.034a1.092,1.092,0,0,1-.591.979,8.443,8.443,0,0,0-1.038.617" fill="none" stroke="#1a2e35" stroke-linecap="round" stroke-linejoin="round" stroke-width="1.103"/>
      <path id="Trazado_1719" data-name="Trazado 1719" d="M2801.221,6003.6s.332,2.144,3.209,2.593" fill="none" stroke="#1a2e35" stroke-linecap="round" stroke-linejoin="round" stroke-width="1.103"/>
      <path id="Trazado_1720" data-name="Trazado 1720" d="M2801.52,5996.888c0,.62-.268,1.122-.6,1.122s-.6-.5-.6-1.122.268-1.123.6-1.123S2801.52,5996.268,2801.52,5996.888Z" fill="#1a2e35"/>
      <path id="Trazado_1721" data-name="Trazado 1721" d="M2810.1,5997.157c0,.62-.268,1.123-.6,1.123s-.6-.5-.6-1.123.268-1.122.6-1.122S2810.1,5996.538,2810.1,5997.157Z" fill="#1a2e35"/>
      <path id="Trazado_1722" data-name="Trazado 1722" d="M2808.368,5994.44s2.79-2.789,5.15.322" fill="none" stroke="#1a2e35" stroke-linecap="round" stroke-linejoin="round" stroke-width="2.206"/>
      <path id="Trazado_1723" data-name="Trazado 1723" d="M2802.467,5994.494s-1.77-1.985-4.559,0" fill="none" stroke="#1a2e35" stroke-linecap="round" stroke-linejoin="round" stroke-width="2.206"/>
      <path id="Trazado_1724" data-name="Trazado 1724" d="M2797.3,6007.712s1.708,4.71,5.524,6.046,8.883-5.6,8.883-5.6l-.265-.9s-3.32,4.314-7.013,3.578-7.346-5.739-7.346-5.739Z" fill="#1a2e35"/>
      <path id="Trazado_1725" data-name="Trazado 1725" d="M2793.877,5999.249s-2.275.8-2.88-.969-2.678-6.438-.864-7.994,3.273,2.054,3.273,2.054" fill="none" stroke="#1a2e35" stroke-linecap="round" stroke-linejoin="round" stroke-width="1.103"/>
      <path id="Trazado_1726" data-name="Trazado 1726" d="M2815.149,6000.215s2.114.426,2.719-1.347,2.678-6.438.864-7.993-3.273,2.053-3.273,2.053" fill="none" stroke="#1a2e35" stroke-linecap="round" stroke-linejoin="round" stroke-width="1.103"/>
      <path id="Trazado_1727" data-name="Trazado 1727" d="M2793.406,5996.888a3.155,3.155,0,0,0,2-1.18,4.969,4.969,0,0,0,.58-1.788,21.593,21.593,0,0,0,.316-3.606,4.853,4.853,0,0,1,.127-1.4,3.6,3.6,0,0,1,.761-1.251c.794-.93,1.749-1.716,2.5-2.679a4.47,4.47,0,0,0,1.106-3.387,15.384,15.384,0,0,0,12.594,3.258c4-.785,7.846-4.3,7.378-8.714a3.573,3.573,0,0,0-2.821-3.074c-1.979-.492-3.757.563-5.55,1.239-3.268,1.232-6.467-.884-9.769-1.24-2.824-.3-6.291.047-7.761,2.855,0,0-5.074.6-7.3,4.763s2,9.934,2,9.934,1.7-2.058,3.885,2.109Z" fill="#1a2e35"/>
      <path id="Trazado_1728" data-name="Trazado 1728" d="M2813.037,5983.465s-1.311,6.836,2.112,10.147a7.132,7.132,0,0,1,1.508-2.557,7.927,7.927,0,0,0-.6-7.59C2813.553,5979.487,2813.037,5983.465,2813.037,5983.465Z" fill="#1a2e35"/>
      <path id="Trazado_1729" data-name="Trazado 1729" d="M2819.308,5975.686a6.458,6.458,0,0,1-3.906,4.077c-4.752,1.936-9.368-.211-14.126-.631-3.889-.344-8.176,3.159-8.447,7.151" fill="none" stroke="#fff" stroke-linecap="round" stroke-linejoin="round" stroke-width="1.103" opacity="0.2"/>
      <path id="Trazado_1730" data-name="Trazado 1730" d="M2789.878,5985.231a8.306,8.306,0,0,1,5.061-7.331" fill="none" stroke="#fff" stroke-linecap="round" stroke-linejoin="round" stroke-width="1.103" opacity="0.2"/>
      <path id="Trazado_1731" data-name="Trazado 1731" d="M2795.988,6011.391a21.679,21.679,0,0,0,7.4,5.063s5.688-1.65,8.584-5.616" fill="none" stroke="#1a2e35" stroke-linecap="round" stroke-linejoin="round" stroke-width="1.103"/>
      <circle id="Elipse_125" data-name="Elipse 125" cx="5.034" cy="5.034" r="5.034" transform="matrix(0.909, -0.417, 0.417, 0.909, 2793.022, 5994.41)" fill="none" stroke="#1a2e35" stroke-linecap="round" stroke-linejoin="round" stroke-width="1.103"/>
      <circle id="Elipse_126" data-name="Elipse 126" cx="5.034" cy="5.034" r="5.034" transform="translate(2805.333 5992.505) rotate(-7.003)" fill="none" stroke="#1a2e35" stroke-linecap="round" stroke-linejoin="round" stroke-width="1.103"/>
      <path id="Trazado_1732" data-name="Trazado 1732" d="M2797.084,6009.514a3.942,3.942,0,0,0-2.421,1.877c-.891,1.568-.354,6.506-.354,6.506s4.6,4.552,8.516,6.472l1.156-6.5,1.793,6.5s6.065-4.289,7.744-7.915c0,0,.548-4.227,0-5.616a1.935,1.935,0,0,0-1.81-1.324" fill="none" stroke="#1a2e35" stroke-linecap="round" stroke-linejoin="round" stroke-width="1.103"/>
      <path id="Trazado_1733" data-name="Trazado 1733" d="M2789.878,6052.965s-1.8-12.046-4.189-16.961" fill="none" stroke="#1a2e35" stroke-linecap="round" stroke-linejoin="round" stroke-width="1.103"/>
      <path id="Trazado_1734" data-name="Trazado 1734" d="M2780.516,6025.311a48.808,48.808,0,0,1,3.721,6.226" fill="none" stroke="#1a2e35" stroke-linecap="round" stroke-linejoin="round" stroke-width="1.103"/>
      <path id="Trazado_1735" data-name="Trazado 1735" d="M2827.762,6034.3a34.762,34.762,0,0,1,1.978-5.88" fill="none" stroke="#1a2e35" stroke-linecap="round" stroke-linejoin="round" stroke-width="1.103"/>
      <path id="Trazado_1736" data-name="Trazado 1736" d="M2824.046,6052.965s1.3-8.258,2.84-15.064" fill="none" stroke="#1a2e35" stroke-linecap="round" stroke-linejoin="round" stroke-width="1.103"/>
      <path id="Trazado_1737" data-name="Trazado 1737" d="M2826.245,6041.376a9.5,9.5,0,0,1,5.012-3.427" fill="none" stroke="#1a2e35" stroke-linecap="round" stroke-linejoin="round" stroke-width="1.103"/>
      <path id="Trazado_1738" data-name="Trazado 1738" d="M2813.762,6015.358s10.445,4.173,17.186,6.542c0,0,8.294,7.8,17.187,34.816,0,0-8.152,13.708-23.65,18.1" fill="none" stroke="#1a2e35" stroke-linecap="round" stroke-linejoin="round" stroke-width="1.103"/>
      <path id="Trazado_1739" data-name="Trazado 1739" d="M2827.177,6062.176l7.489-6.252s3.961-3.011,8.081-.951" fill="none" stroke="#1a2e35" stroke-linecap="round" stroke-linejoin="round" stroke-width="1.103"/>
      <path id="Trazado_1740" data-name="Trazado 1740" d="M2826.886,6040.62s6.2,9.124,7.78,15.3" fill="none" stroke="#1a2e35" stroke-linecap="round" stroke-linejoin="round" stroke-width="1.103"/>
      <path id="Trazado_1741" data-name="Trazado 1741" d="M2784.568,6058.014l-2.191-2.09a10.274,10.274,0,0,0-6.937,1.9" fill="none" stroke="#1a2e35" stroke-linecap="round" stroke-linejoin="round" stroke-width="1.103"/>
      <path id="Trazado_1742" data-name="Trazado 1742" d="M2782.377,6055.924s2.722-8.941,5.406-13.557" fill="none" stroke="#1a2e35" stroke-linecap="round" stroke-linejoin="round" stroke-width="1.103"/>
      <path id="Trazado_1743" data-name="Trazado 1743" d="M2794.148,6016.454s-15.025,5.638-16.5,7.28-7.072,33.174-7.219,36.782c-.132,3.226,11.571,10.474,17.352,13.529" fill="none" stroke="#1a2e35" stroke-linecap="round" stroke-linejoin="round" stroke-width="1.103"/>
      <rect id="Rectángulo_917" data-name="Rectángulo 917" width="24.442" height="17.365" rx="6.532" transform="translate(2827.762 5994.026)" fill="#fff" stroke="#1a2e35" stroke-linecap="round" stroke-linejoin="round" stroke-width="1.103"/>
      <path id="Trazado_1744" data-name="Trazado 1744" d="M2835.648,5999.249l-4.7,2.951,4.362,3.868" fill="none" stroke="#1a2e35" stroke-linecap="round" stroke-linejoin="round" stroke-width="1.103"/>
      <path id="Trazado_1745" data-name="Trazado 1745" d="M2844.213,6006.349l4.224-3.6-4.875-3.2" fill="none" stroke="#1a2e35" stroke-linecap="round" stroke-linejoin="round" stroke-width="1.103"/>
      <line id="Línea_23" data-name="Línea 23" y1="10.879" x2="3.47" transform="translate(2837.933 5997.685)" fill="none" stroke="#1a2e35" stroke-linecap="round" stroke-linejoin="round" stroke-width="1.103"/>
      <path id="Trazado_1746" data-name="Trazado 1746" d="M2805.384,6027.107a.988.988,0,1,1-.988-.988A.988.988,0,0,1,2805.384,6027.107Z" fill="#1a2e35"/>
      <g id="Grupo_2426" data-name="Grupo 2426">
        <path id="Trazado_1747" data-name="Trazado 1747" d="M2822.77,6079.908h-34.194a.8.8,0,0,1-.8-.8h0a.8.8,0,0,1,.8-.8h34.194a.8.8,0,0,1,.8.8h0A.8.8,0,0,1,2822.77,6079.908Z" fill="#1a2e35"/>
        <path id="Trazado_1748" data-name="Trazado 1748" d="M2823.967,6077.251l4.583-21.519a2.291,2.291,0,0,0-2.24-2.767h-39.952a2.291,2.291,0,0,0-2.247,2.734l4.108,20.8a2.29,2.29,0,0,0,2.2,1.845l31.261.716A2.29,2.29,0,0,0,2823.967,6077.251Z" fill="#fff" stroke="#1a2e35" stroke-linecap="round" stroke-linejoin="round" stroke-width="1.103"/>
        <path id="Trazado_1749" data-name="Trazado 1749" d="M2809.387,6065.366a3.189,3.189,0,1,1-3.189-3.19A3.19,3.19,0,0,1,2809.387,6065.366Z" fill="#1a2e35"/>
        <line id="Línea_24" data-name="Línea 24" x2="4.747" transform="translate(2815.656 6055.007)" fill="none" stroke="#1a2e35" stroke-linecap="round" stroke-linejoin="round" stroke-width="1.103"/>
        <line id="Línea_25" data-name="Línea 25" x2="18.018" transform="translate(2792.988 6055.007)" fill="none" stroke="#1a2e35" stroke-linecap="round" stroke-linejoin="round" stroke-width="1.103"/>
      </g>
      <path id="Trazado_1750" data-name="Trazado 1750" d="M2824.046,6100.08l-3.643,9.559s-9.287-2.341-21.188-4.779c-12.443-2.55-25.439-5.851-32.181-17.678a6.7,6.7,0,0,1-.984-4.76c.973-4.086,6.288-5.194,9.791-5.6a65.075,65.075,0,0,1,6.63-.373c1.127-.016,4.848-.607,5.748.056a26.422,26.422,0,0,0,4.325,2.562c1.989.844,31.028-.759,31.028-.759a10.375,10.375,0,0,0,.913-3.486c4.565-2.32,15.135-4.286,19.6-3.417,7.023,1.365,11.12,5.462,10.34,9.754S2838.146,6096.959,2824.046,6100.08Z" fill="#1a2e35"/>
      <path id="Trazado_1751" data-name="Trazado 1751" d="M2824.046,6100.08a60.5,60.5,0,0,1-16.052-7.218c-7.218-4.878-12.858-10.535-22.914-9.365" fill="none" stroke="#fff" stroke-linecap="round" stroke-linejoin="round" stroke-width="1.103"/>
      <path id="Trazado_1752" data-name="Trazado 1752" d="M2806.334,6091.711c4.559-1.312,7.906-4.261,11.564-7.093a78.3,78.3,0,0,1,12.381-8.136" fill="none" stroke="#fff" stroke-linecap="round" stroke-linejoin="round" stroke-width="1.103"/>
      <line id="Línea_26" data-name="Línea 26" x2="1.338" transform="translate(2804.731 5997.685)" fill="none" stroke="#1a2e35" stroke-linecap="round" stroke-linejoin="round" stroke-width="1.103"/>
    </g>
  </g>
</svg>
