<svg xmlns="http://www.w3.org/2000/svg" xmlns:xlink="http://www.w3.org/1999/xlink" width="152.444" height="152.443" viewBox="0 0 152.444 152.443">
  <defs>
    <clipPath id="clip-path">
      <circle id="Elipse_61" data-name="Elipse 61" cx="62.992" cy="62.992" r="62.992" transform="translate(4152.653 918.796)" fill="none"/>
    </clipPath>
  </defs>
  <g id="Grupo_7830" data-name="Grupo 7830" transform="translate(-850.635 -897.337)">
    <path id="Trazado_1441" data-name="Trazado 1441" d="M4215.186,902.228q3.744,0,7.471.367t7.4,1.1q3.673.729,7.256,1.817t7.043,2.52q3.459,1.432,6.762,3.2t6.415,3.845q3.114,2.081,6.008,4.456t5.543,5.024q2.648,2.648,5.023,5.542t4.456,6.008q2.081,3.112,3.845,6.416t3.2,6.762q1.433,3.459,2.519,7.042t1.818,7.256q.731,3.674,1.1,7.4t.367,7.471q0,3.746-.367,7.471t-1.1,7.4q-.73,3.672-1.818,7.255t-2.519,7.043q-1.434,3.459-3.2,6.762t-3.845,6.416q-2.081,3.112-4.456,6.008t-5.023,5.542q-2.648,2.649-5.543,5.023t-6.008,4.456q-3.113,2.081-6.415,3.846t-6.762,3.2q-3.461,1.432-7.043,2.52t-7.256,1.817q-3.672.73-7.4,1.1t-7.471.367q-3.744,0-7.471-.367t-7.4-1.1q-3.673-.731-7.256-1.817t-7.043-2.52q-3.459-1.434-6.762-3.2t-6.415-3.846q-3.114-2.079-6.008-4.456t-5.543-5.023q-2.648-2.647-5.023-5.542t-4.456-6.008q-2.081-3.114-3.845-6.416t-3.2-6.762q-1.434-3.459-2.52-7.043t-1.818-7.255q-.731-3.674-1.1-7.4t-.368-7.471q0-3.744.368-7.471t1.1-7.4q.73-3.672,1.818-7.256t2.52-7.042q1.433-3.461,3.2-6.762t3.845-6.416q2.08-3.114,4.456-6.008t5.023-5.542q2.648-2.649,5.543-5.024t6.008-4.456q3.113-2.079,6.415-3.845t6.762-3.2q3.461-1.434,7.043-2.52t7.256-1.817q3.672-.732,7.4-1.1T4215.186,902.228Z" transform="translate(-3288.329 -4.891)" fill="#db9600"/>
    <circle id="Elipse_56" data-name="Elipse 56" cx="71.597" cy="71.597" r="71.597" transform="translate(855.26 901.962)" fill="#fff"/>
    <circle id="Elipse_57" data-name="Elipse 57" cx="65.13" cy="65.13" r="65.13" transform="translate(861.727 908.428)" fill="#f2f2f2"/>
    <circle id="Elipse_60" data-name="Elipse 60" cx="65.478" cy="65.478" r="65.478" transform="translate(861.446 909.152)" fill="#00c2db"/>
    <path id="Trazado_1452" data-name="Trazado 1452" d="M4239.484,953.85l-30.541,10.41,1.383,26.293,2.094,22.033,28.57,25.29c20.843-7.03,36.337-28.723,38.773-51.29Z" transform="translate(-3288.329 -4.891)" fill="#0097a3"/>
    <g id="Grupo_2272" data-name="Grupo 2272" transform="translate(-3288.329 -4.891)">
      <g id="Grupo_2271" data-name="Grupo 2271" clip-path="url(#clip-path)">
        <g id="Grupo_2270" data-name="Grupo 2270">
          <path id="Trazado_1453" data-name="Trazado 1453" d="M4172.644,1024.344c4.261-4.031,16.1-8.664,23.992-11.451,7.99-2.816,9.134-15.083,8.5-22.419l17.835-1.26c-.637,7.335-.171,20.42,7.82,23.679s18.211,7.983,23.051,11.885c-8.317,8.72-19.67,15.482-32.583,16.939h-12.33C4196.415,1040.3,4181.1,1033.117,4172.644,1024.344Z" fill="#36474f" fill-rule="evenodd"/>
          <path id="Trazado_1454" data-name="Trazado 1454" d="M4214.174,1027.155c-7.237-2.883-16.18-3.645-17.391-14.262,4.124-1.452,6.423-5.423,7.6-9.934a88.474,88.474,0,0,1,19.592,0c1.172,4.511,3.471,8.482,7.6,9.934C4230.357,1023.51,4221.412,1024.272,4214.174,1027.155Z" fill="#fff" fill-rule="evenodd"/>
          <path id="Trazado_1455" data-name="Trazado 1455" d="M4223.738,1023.644c-7.237-2.883-20.532-16.174-19.359-20.685a88.474,88.474,0,0,1,19.592,0c1.172,4.511,3.471,8.482,7.6,9.934C4230.816,1017.281,4230.975,1020.761,4223.738,1023.644Z" fill="#dad4c6" fill-rule="evenodd"/>
          <path id="Trazado_1456" data-name="Trazado 1456" d="M4236.037,972.448c5.085,4.1,3.3,16.817-2.941,17.837-3.559,7.932-10.1,13.879-19.069,13.879s-15.508-5.947-19.067-13.879c-6.238-1.02-8.027-13.733-2.941-17.837,1.04-11.625,7.949-22,22.008-22S4235,960.822,4236.037,972.448Z" fill="#fcd7a8" fill-rule="evenodd"/>
          <path id="Trazado_1457" data-name="Trazado 1457" d="M4196.375,974.8c.25,5.7-.329,4.218-1.36,1.193-.548-1.608-1.389-3.2-2.657-3.2-.9,0-2.6,3.337-2.879,3.936a45.8,45.8,0,0,1,2.482-14.8c5.975-18.976,37.977-19.7,44.38-.708,2.324,6.886,1.836,10.358,1.988,14.683-.459-1.1-1.713-3.116-2.607-3.113-1.27,0-2.109,1.591-2.659,3.2-1.031,3.025-1.516,4.509-1.265-1.193C4233.2,943.088,4194.966,942.955,4196.375,974.8Z" fill="#54351f" fill-rule="evenodd"/>
          <path id="Trazado_1458" data-name="Trazado 1458" d="M4196.288,973.977c-.066-4.064.511-7.582,2.188-10.149,1.624-2.485,3.294-3.721,8.01-2.481a34.308,34.308,0,0,0,16.1-.008c4.11-1.088,5.172-.038,6.831,2.191,1.976,2.653,2.762,6.281,2.607,10.4,9.431-11.445-.471-26.588-17.953-26.594S4192.592,962.089,4196.288,973.977Z" fill="#54351f" fill-rule="evenodd"/>
          <path id="Trazado_1459" data-name="Trazado 1459" d="M4214.209,988.691c5.11-.793,8.548-1.651,10.53-.129a3.878,3.878,0,0,1,.407.36c5.661,3.247,7.366-9.048,8.091.894s-11.743,19.353-18.6,19.353c-.147,0-.291,0-.432-.008v-8.013c1.333.113,2.26,1.717,3.691,1.344,4.805-1.255,7.073-5.825,7.084-8.236.012-3.213-5.419-2.554-10.775-2.471Zm-10.936.231a3.848,3.848,0,0,1,.405-.36c2-1.536,5.234-.651,10.41.147l.121-.018v3.094l-.318,0c-5.187.058-10.192-.73-10.442,2.1a8.965,8.965,0,0,0,6.764,8.6c1.485.387,2.427-1.348,3.847-1.348.051,0,.1,0,.149.007v8.013l-.149-.009c-.189.011-.382.017-.582.017-6.854,0-19.321-9.411-18.6-19.353S4197.61,992.169,4203.273,988.922Z" fill="#54351f"/>
          <g id="Grupo_2269" data-name="Grupo 2269">
            <path id="Trazado_1460" data-name="Trazado 1460" d="M4240.226,1012.811h-10.585l-3.585,24.349c-3.9.6-20.46.571-24.506-.077l-3.2-24.272h-12.1a14.273,14.273,0,0,0-14.231,14.231v11.726c9.786,4.084,24.516,6.684,41,6.684,16.73,0,31.654-2.681,41.436-6.872v-11.538A14.273,14.273,0,0,0,4240.226,1012.811Z" fill="#36474f" fill-rule="evenodd"/>
          </g>
        </g>
      </g>
    </g>
  </g>
</svg>
