<svg xmlns="http://www.w3.org/2000/svg" xmlns:xlink="http://www.w3.org/1999/xlink" width="152.443" height="152.443" viewBox="0 0 152.443 152.443">
  <defs>
    <clipPath id="clip-path">
      <circle id="Elipse_59" data-name="Elipse 59" cx="62.992" cy="62.992" r="62.992" transform="translate(3742.025 917.275)" fill="none"/>
    </clipPath>
  </defs>
  <g id="Grupo_7829" data-name="Grupo 7829" transform="translate(-439.375 -897.337)">
    <path id="Trazado_1439" data-name="Trazado 1439" d="M3803.925,902.228q3.746,0,7.471.367t7.4,1.1q3.673.729,7.256,1.817t7.043,2.52q3.459,1.432,6.762,3.2t6.416,3.845q3.112,2.081,6.008,4.456t5.542,5.024q2.647,2.648,5.023,5.542t4.456,6.008q2.08,3.112,3.846,6.416t3.2,6.762q1.433,3.459,2.52,7.042t1.817,7.256q.731,3.674,1.1,7.4t.367,7.471q0,3.746-.367,7.471t-1.1,7.4q-.73,3.672-1.817,7.255t-2.52,7.043q-1.434,3.459-3.2,6.762t-3.846,6.416q-2.08,3.112-4.456,6.008t-5.023,5.542q-2.648,2.649-5.542,5.023t-6.008,4.456q-3.114,2.081-6.416,3.846t-6.762,3.2q-3.459,1.432-7.043,2.52t-7.256,1.817q-3.672.73-7.4,1.1t-7.471.367q-3.744,0-7.471-.367t-7.4-1.1q-3.672-.731-7.256-1.817t-7.043-2.52q-3.459-1.434-6.761-3.2t-6.416-3.846q-3.114-2.079-6.008-4.456t-5.543-5.023q-2.648-2.647-5.023-5.542t-4.456-6.008q-2.08-3.114-3.845-6.416t-3.2-6.762q-1.434-3.459-2.52-7.043t-1.818-7.255q-.731-3.674-1.1-7.4t-.367-7.471q0-3.744.367-7.471t1.1-7.4q.731-3.672,1.818-7.256t2.52-7.042q1.432-3.461,3.2-6.762t3.845-6.416q2.08-3.114,4.456-6.008t5.023-5.542q2.649-2.649,5.543-5.024t6.008-4.456q3.112-2.079,6.416-3.845t6.761-3.2q3.46-1.434,7.043-2.52t7.256-1.817q3.673-.732,7.4-1.1T3803.925,902.228Z" transform="translate(-3288.329 -4.891)" fill="#db9600"/>
    <circle id="Elipse_54" data-name="Elipse 54" cx="71.597" cy="71.597" r="71.597" transform="translate(444 901.962)" fill="#fff"/>
    <circle id="Elipse_55" data-name="Elipse 55" cx="65.13" cy="65.13" r="65.13" transform="translate(450.466 908.428)" fill="#f2f2f2"/>
    <circle id="Elipse_58" data-name="Elipse 58" cx="65.478" cy="65.478" r="65.478" transform="translate(450.466 909.152)" fill="#00c2db"/>
    <path id="Trazado_1442" data-name="Trazado 1442" d="M3828.539,954.512,3798,964.922l1.383,26.293-7.175,14.19,37.839,33.133c20.843-7.03,36.337-28.723,38.773-51.29Z" transform="translate(-3288.329 -4.891)" fill="#0097a3"/>
    <g id="Grupo_2268" data-name="Grupo 2268" transform="translate(-3288.329 -4.891)">
      <g id="Grupo_2267" data-name="Grupo 2267" clip-path="url(#clip-path)">
        <g id="Grupo_2266" data-name="Grupo 2266">
          <path id="Trazado_1443" data-name="Trazado 1443" d="M3803.637,1036.921c-7.284-3.136-16.286-8.544-17.5-20.094,4.15-1.58,6.465-5.9,7.646-10.808a82.393,82.393,0,0,1,19.718,0c1.18,4.908,3.494,9.228,7.646,10.808C3819.924,1028.377,3810.921,1033.785,3803.637,1036.921Z" fill="#e7bb89" fill-rule="evenodd"/>
          <path id="Trazado_1444" data-name="Trazado 1444" d="M3825.587,978.342c5.055,4.081,3.279,16.721-2.925,17.735-3.538,7.887-10.041,13.8-18.959,13.8s-15.42-5.913-18.959-13.8c-6.2-1.014-7.982-13.654-2.924-17.735,1.034-11.559,7.9-21.871,21.883-21.871S3824.552,966.782,3825.587,978.342Z" fill="#fcd7a8" fill-rule="evenodd"/>
          <path id="Trazado_1445" data-name="Trazado 1445" d="M3786.15,979.913c.25,6.807-.326,5.035-1.351,1.424-.545-1.921-1.381-3.815-2.643-3.82-.89,0-2.583,3.985-2.862,4.7a64.748,64.748,0,0,1,2.468-17.669c5.94-22.657,37.76-23.518,44.128-.846,2.309,8.223,1.825,12.368,1.976,17.533-.457-1.318-1.7-3.722-2.592-3.718-1.263,0-2.1,1.9-2.644,3.82-1.025,3.611-1.508,5.383-1.258-1.424C3822.766,942.043,3784.75,941.883,3786.15,979.913Z" fill="#3f2b1d" fill-rule="evenodd"/>
          <path id="Trazado_1446" data-name="Trazado 1446" d="M3786.065,978.923c-.067-4.852.508-9.052,2.175-12.117,1.614-2.967,3.275-4.443,7.964-2.962a28.58,28.58,0,0,0,16.01-.01c4.087-1.3,5.143-.045,6.793,2.616,1.964,3.167,2.746,7.5,2.592,12.413,9.377-13.666-.468-31.746-17.851-31.753S3782.39,964.729,3786.065,978.923Z" fill="#3f2b1d" fill-rule="evenodd"/>
          <path id="Trazado_1447" data-name="Trazado 1447" d="M3838.595,1014.58l-34.76-2.092-34.884,2.092a3.41,3.41,0,0,0-3.4,3.4v18.061c9.843,9.181,23.049,7.535,37.571,7.535,15.17,0,28.909,1.941,38.873-7.979V1017.98A3.41,3.41,0,0,0,3838.595,1014.58Z" fill="#8ac440"/>
          <path id="Trazado_1448" data-name="Trazado 1448" d="M3789.408,1013.054l13.554,6.792,13.873-6.8-13.633-.821Z" fill="#e7bb89"/>
          <path id="Trazado_1449" data-name="Trazado 1449" d="M3802.962,1019.847l-13-6.517-.557.033,3.312,30.034c3.371.645,6.849.179,10.408.179,3.417,0,6.761.493,10.007-.1l3.712-30.118-.566-.034Z" fill="#006839"/>
          <path id="Trazado_1450" data-name="Trazado 1450" d="M3802.962,1019.846l-12.308-6.168-1.246.121,13.554,11.009,13.873-11.02-1.262-.123Z" fill="#cde5f6"/>
          <path id="Trazado_1451" data-name="Trazado 1451" d="M3799.731,966.567c-1.483-.9-3.186-.4-4.769-3.43-1.793-3.432-6.186,3.189-7.574,8.022-1.22-2.206-3.973-5.09-3.973-8.257,0-6.919,4.035-12.528,8.394-12.528a3.346,3.346,0,0,1,1.3.267c1.835-3.1,6.223-5.276,11.346-5.276,6.774,0,10.2,7.269,18.571,7.154,7.82-.108,11.033.134,11.033.134s-2.879,9.089-10.844,13.607c-2.546,1.444-11.983,2.612-15.952,2.383A20.325,20.325,0,0,1,3799.731,966.567Z" fill="#3f2b1d"/>
        </g>
      </g>
    </g>
  </g>
</svg>
