<svg xmlns="http://www.w3.org/2000/svg" width="134.504" height="134.504" viewBox="0 0 134.504 134.504">
  <g id="Grupo_7817" data-name="Grupo 7817" transform="translate(-284.456 -3516.95)">
    <g id="Grupo_2285" data-name="Grupo 2285" transform="translate(-3324.329 -4.891)">
      <path id="Trazado_1467" data-name="Trazado 1467" d="M3676.037,3521.841q3.3,0,6.592.323t6.528.969q3.242.645,6.4,1.6t6.215,2.224q3.051,1.265,5.966,2.822t5.661,3.393q2.747,1.834,5.3,3.931t4.89,4.432q2.335,2.337,4.432,4.89t3.931,5.3q1.836,2.748,3.393,5.661t2.822,5.966q1.265,3.053,2.223,6.214t1.6,6.4q.645,3.24.969,6.528t.323,6.592q0,3.3-.323,6.592t-.969,6.528q-.645,3.24-1.6,6.4t-2.223,6.214q-1.265,3.052-2.822,5.966t-3.393,5.661q-1.835,2.747-3.931,5.3t-4.432,4.89q-2.337,2.337-4.89,4.432t-5.3,3.932q-2.748,1.836-5.661,3.393t-5.966,2.821q-3.052,1.265-6.215,2.224t-6.4,1.6q-3.24.643-6.528.968t-6.592.324q-3.3,0-6.592-.324t-6.528-.968q-3.24-.645-6.4-1.6t-6.214-2.224q-3.052-1.263-5.966-2.821t-5.661-3.393q-2.747-1.836-5.3-3.932t-4.89-4.432q-2.337-2.335-4.432-4.89t-3.932-5.3q-1.836-2.747-3.393-5.661t-2.822-5.966q-1.265-3.053-2.223-6.214t-1.6-6.4q-.643-3.24-.968-6.528t-.324-6.592q0-3.3.324-6.592t.968-6.528q.645-3.241,1.6-6.4t2.223-6.214q1.265-3.051,2.822-5.966t3.393-5.661q1.836-2.747,3.932-5.3t4.432-4.89q2.336-2.336,4.89-4.432t5.3-3.931q2.746-1.836,5.661-3.393t5.966-2.822q3.052-1.265,6.214-2.224t6.4-1.6q3.24-.645,6.528-.969T3676.037,3521.841Z" fill="#6595bf"/>
    </g>
    <circle id="Elipse_74" data-name="Elipse 74" cx="63.171" cy="63.171" r="63.171" transform="translate(288.537 3521.03)" fill="#fff"/>
    <g id="Grupo_2286" data-name="Grupo 2286" transform="translate(-3324.329 -4.891)">
      <circle id="Elipse_75" data-name="Elipse 75" cx="57.466" cy="57.466" r="57.466" transform="translate(3618.022 3531.627)" fill="#aed3f2"/>
    </g>
    <g id="Grupo_2335" data-name="Grupo 2335" transform="translate(-3324.329 -4.891)">
      <g id="Grupo_2334" data-name="Grupo 2334">
        <g id="Grupo_2332" data-name="Grupo 2332">
          <path id="Trazado_1571" data-name="Trazado 1571" d="M3705.14,3556.329l-14.417,7.613-14.756-7.613v-3.044h29.173Z" fill="#b2b2b2"/>
          <circle id="Elipse_89" data-name="Elipse 89" cx="5.525" cy="5.525" r="5.525" transform="translate(3671.892 3549.071)" fill="#dadada"/>
          <circle id="Elipse_90" data-name="Elipse 90" cx="5.525" cy="5.525" r="5.525" transform="translate(3698.254 3549.071)" fill="#dadada"/>
          <rect id="Rect치ngulo_860" data-name="Rect치ngulo 860" width="6.596" height="6.934" transform="translate(3687.425 3561.318)" fill="#706f6f"/>
          <path id="Trazado_1572" data-name="Trazado 1572" d="M3700.7,3621.948h-20.126v-51.2a4.524,4.524,0,0,1,4.524-4.524h11.078a4.524,4.524,0,0,1,4.524,4.524Z" fill="#c6c6c6"/>
          <rect id="Rect치ngulo_861" data-name="Rect치ngulo 861" width="16.997" height="5.074" transform="translate(3638.232 3590.872)" fill="#dadada"/>
          <path id="Trazado_1573" data-name="Trazado 1573" d="M3678.8,3596.834l-40.57-5.962v-.634a13.066,13.066,0,0,1,13.065-13.065l27.5-.887Z" fill="#c6c6c6"/>
          <ellipse id="Elipse_91" data-name="Elipse 91" cx="17.187" cy="17.954" rx="17.187" ry="17.954" transform="translate(3673.411 3568.606)" fill="#ededed"/>
          <ellipse id="Elipse_92" data-name="Elipse 92" cx="8.579" cy="5.752" rx="8.579" ry="5.752" transform="translate(3682.019 3553.517)" fill="#9d9d9c"/>
          <path id="Trazado_1574" data-name="Trazado 1574" d="M3704.083,3627.952H3677.2v-2.537a3.467,3.467,0,0,1,3.466-3.467h19.953a3.467,3.467,0,0,1,3.467,3.467Z" fill="#706f6f"/>
          <circle id="Elipse_93" data-name="Elipse 93" cx="5.525" cy="5.525" r="5.525" transform="translate(3685.073 3549.071)" fill="#dadada"/>
          <g id="Grupo_2328" data-name="Grupo 2328">
            <path id="Trazado_1575" data-name="Trazado 1575" d="M3706.21,3549.653a5.281,5.281,0,1,1-7.44,7.235,5.514,5.514,0,1,0,7.44-7.235Z" opacity="0.1"/>
          </g>
          <g id="Grupo_2329" data-name="Grupo 2329">
            <path id="Trazado_1576" data-name="Trazado 1576" d="M3693.029,3549.653a5.281,5.281,0,1,1-7.44,7.235,5.514,5.514,0,1,0,7.44-7.235Z" opacity="0.1"/>
          </g>
          <g id="Grupo_2330" data-name="Grupo 2330">
            <path id="Trazado_1577" data-name="Trazado 1577" d="M3679.848,3549.653a5.281,5.281,0,1,1-7.44,7.235,5.514,5.514,0,1,0,7.44-7.235Z" opacity="0.1"/>
          </g>
          <g id="Grupo_2331" data-name="Grupo 2331" opacity="0.1">
            <path id="Trazado_1578" data-name="Trazado 1578" d="M3700.7,3600.992a28.64,28.64,0,0,0,1.46-25.971c.044.827.072,1.658.072,2.5a44.336,44.336,0,0,1-21.657,38.44v5.991h.086a3.467,3.467,0,0,0-3.467,3.467v2.537h26.887v-2.537a3.467,3.467,0,0,0-3.467-3.467h.086Z"/>
          </g>
        </g>
        <path id="Trazado_1579" data-name="Trazado 1579" d="M3654.139,3627.952h-14.72c-2.061-10.669,2.061-21.338,0-32.006h14.72C3656.2,3606.614,3652.078,3617.283,3654.139,3627.952Z" fill="#8fdaff"/>
        <g id="Grupo_2333" data-name="Grupo 2333">
          <path id="Trazado_1580" data-name="Trazado 1580" d="M3642,3595.946h-2.586c2.061,10.668-2.061,21.337,0,32.006H3642C3639.945,3617.283,3644.066,3606.614,3642,3595.946Z" fill="#34b1ed"/>
          <path id="Trazado_1581" data-name="Trazado 1581" d="M3646.05,3595.946h-2.586c2.06,10.668-2.061,21.337,0,32.006h2.586C3643.989,3617.283,3648.111,3606.614,3646.05,3595.946Z" fill="#34b1ed"/>
          <path id="Trazado_1582" data-name="Trazado 1582" d="M3650.094,3595.946h-2.586c2.061,10.668-2.06,21.337,0,32.006h2.586C3648.034,3617.283,3652.155,3606.614,3650.094,3595.946Z" fill="#34b1ed"/>
          <path id="Trazado_1583" data-name="Trazado 1583" d="M3654.139,3595.946h-2.586c2.061,10.668-2.061,21.337,0,32.006h2.586C3652.078,3617.283,3656.2,3606.614,3654.139,3595.946Z" fill="#34b1ed"/>
        </g>
      </g>
      <path id="Trazado_1584" data-name="Trazado 1584" d="M3649.763,3580.521c.86,1.3-.089,3.438-2.12,4.787s-4.374,1.391-5.234.1.089-3.438,2.12-4.787S3648.9,3579.226,3649.763,3580.521Z" fill="#fff"/>
    </g>
  </g>
</svg>
