<svg xmlns="http://www.w3.org/2000/svg" width="134.504" height="134.504" viewBox="0 0 134.504 134.504">
  <g id="Grupo_7816" data-name="Grupo 7816" transform="translate(-284.456 -3355.583)">
    <g id="Grupo_2283" data-name="Grupo 2283" transform="translate(-3324.329 -4.891)">
      <path id="Trazado_1466" data-name="Trazado 1466" d="M3676.037,3360.474q3.3,0,6.592.324t6.528.968q3.242.645,6.4,1.6t6.215,2.223q3.051,1.265,5.966,2.822t5.661,3.393q2.747,1.836,5.3,3.932t4.89,4.432q2.335,2.335,4.432,4.89t3.931,5.3q1.836,2.747,3.393,5.661t2.822,5.966q1.265,3.052,2.223,6.214t1.6,6.4q.645,3.24.969,6.528t.323,6.592q0,3.3-.323,6.592t-.969,6.528q-.645,3.242-1.6,6.4t-2.223,6.213q-1.265,3.053-2.822,5.967t-3.393,5.66q-1.835,2.748-3.931,5.3t-4.432,4.889q-2.337,2.337-4.89,4.433t-5.3,3.931q-2.748,1.836-5.661,3.393t-5.966,2.822q-3.052,1.265-6.215,2.223t-6.4,1.6q-3.24.645-6.528.968t-6.592.324q-3.3,0-6.592-.324t-6.528-.968q-3.24-.645-6.4-1.6t-6.214-2.223q-3.052-1.264-5.966-2.822t-5.661-3.393q-2.747-1.835-5.3-3.931t-4.89-4.433q-2.337-2.336-4.432-4.889t-3.932-5.3q-1.836-2.747-3.393-5.66t-2.822-5.967q-1.265-3.051-2.223-6.213t-1.6-6.4q-.643-3.24-.968-6.528t-.324-6.592q0-3.3.324-6.592t.968-6.528q.645-3.24,1.6-6.4t2.223-6.214q1.265-3.052,2.822-5.966t3.393-5.661q1.836-2.747,3.932-5.3t4.432-4.89q2.336-2.337,4.89-4.432t5.3-3.932q2.746-1.836,5.661-3.393t5.966-2.822q3.052-1.265,6.214-2.223t6.4-1.6q3.24-.644,6.528-.968T3676.037,3360.474Z" fill="#6595bf"/>
    </g>
    <circle id="Elipse_72" data-name="Elipse 72" cx="63.171" cy="63.171" r="63.171" transform="translate(288.537 3359.664)" fill="#fff"/>
    <g id="Grupo_2284" data-name="Grupo 2284" transform="translate(-3324.329 -4.891)">
      <circle id="Elipse_73" data-name="Elipse 73" cx="57.466" cy="57.466" r="57.466" transform="translate(3618.022 3370.26)" fill="#aed3f2"/>
    </g>
    <path id="Trazado_1570" data-name="Trazado 1570" d="M3699.109,3419.226a14.605,14.605,0,1,0-11.117-5.172l-20.429,20.43-2.4-2.4-2.8,1.73a19.325,19.325,0,0,0-4.046-1.678l-.754-3.2h-3.39v-9.777a14.571,14.571,0,1,0-2.429,0v9.777h-3.39l-.753,3.2a19.316,19.316,0,0,0-4.1,1.705l-2.389-1.261h-2.729v32.787h32.786v-2.73l-1.262-2.39a19.261,19.261,0,0,0,1.705-4.1l3.2-.751v-3.391h9.776a14.572,14.572,0,1,0,0-2.428h-9.776v-3.391l-3.2-.752a19.263,19.263,0,0,0-1.677-4.046l1.731-2.8-2.4-2.4,20.43-20.431a14.5,14.5,0,0,0,9.4,3.455Zm-49.787-18.215a3.643,3.643,0,1,1,3.643,3.643A3.648,3.648,0,0,1,3649.322,3401.011Zm3.643,15.786a12.063,12.063,0,0,1-7.284-2.45,7.285,7.285,0,0,1,14.569,0A12.065,12.065,0,0,1,3652.965,3416.8Zm-12.143-12.143a12.143,12.143,0,1,1,21.614,7.581,9.743,9.743,0,0,0-5.459-6.7,6.071,6.071,0,1,0-8.025,0,9.741,9.741,0,0,0-5.458,6.7A12.079,12.079,0,0,1,3640.822,3404.654Zm51,55.837a7.285,7.285,0,0,1,14.569,0,12.055,12.055,0,0,1-14.569,0Zm3.641-13.336a3.643,3.643,0,1,1,3.643,3.643A3.648,3.648,0,0,1,3695.466,3447.155Zm3.643-8.5a12.129,12.129,0,0,1,9.471,19.724,9.742,9.742,0,0,0-5.459-6.7,6.071,6.071,0,1,0-8.025,0,9.741,9.741,0,0,0-5.458,6.7,12.129,12.129,0,0,1,9.471-19.724Zm-58.287,24.286V3450.8a12.143,12.143,0,1,1,12.143,12.143Zm28.813-15.474,2.759.65v5.362l-2.759.65-.177.723a16.861,16.861,0,0,1-1.966,4.74l-.357.588,1.457,2.76H3661a14.564,14.564,0,1,0-20.181-20.179v-7.59l2.76,1.457.588-.357a16.908,16.908,0,0,1,4.741-1.966l.722-.177.651-2.759h5.363l.649,2.759.723.177a16.885,16.885,0,0,1,4.74,1.966l.637.386,2.411-1.492,3.793,3.792-1.493,2.412.386.636a16.875,16.875,0,0,1,1.966,4.741Zm22.19-33.12a7.285,7.285,0,0,1,14.569,0,12.054,12.054,0,0,1-14.569,0Zm3.641-13.336a3.643,3.643,0,1,1,3.643,3.643A3.648,3.648,0,0,1,3695.466,3401.011Zm3.643-8.5a12.13,12.13,0,0,1,9.471,19.724,9.743,9.743,0,0,0-5.459-6.7,6.071,6.071,0,1,0-8.025,0,9.741,9.741,0,0,0-5.458,6.7,12.13,12.13,0,0,1,9.471-19.724Zm-52.215,64.359h2.428v2.428h-2.428Zm4.857,0h2.429v2.428h-2.429Zm4.857,0h2.429v2.428h-2.429Zm-9.714-4.858h12.143v2.429h-12.143Zm0-4.857h12.143v2.429h-12.143Zm0-4.857h12.143v2.429h-12.143Z" transform="translate(-3324.329 -4.891)" fill="#023"/>
  </g>
</svg>
