<svg xmlns="http://www.w3.org/2000/svg" width="134.504" height="134.504" viewBox="0 0 134.504 134.504">
  <g id="Grupo_7814" data-name="Grupo 7814" transform="translate(-284.456 -3032.85)">
    <g id="Grupo_2279" data-name="Grupo 2279" transform="translate(-3324.329 -4.891)">
      <path id="Trazado_1464" data-name="Trazado 1464" d="M3676.037,3037.741q3.3,0,6.592.324t6.528.968q3.242.645,6.4,1.6t6.215,2.223q3.051,1.264,5.966,2.822t5.661,3.393q2.747,1.836,5.3,3.932t4.89,4.432q2.335,2.336,4.432,4.89t3.931,5.3q1.836,2.747,3.393,5.661t2.822,5.966q1.265,3.052,2.223,6.214t1.6,6.4q.645,3.24.969,6.528t.323,6.592q0,3.3-.323,6.592t-.969,6.528q-.645,3.241-1.6,6.4t-2.223,6.214q-1.265,3.052-2.822,5.967t-3.393,5.66q-1.835,2.748-3.931,5.3t-4.432,4.89q-2.337,2.337-4.89,4.433t-5.3,3.931q-2.748,1.836-5.661,3.393t-5.966,2.822q-3.052,1.265-6.215,2.223t-6.4,1.6q-3.24.645-6.528.968t-6.592.324q-3.3,0-6.592-.324t-6.528-.968q-3.24-.645-6.4-1.6t-6.214-2.223q-3.052-1.265-5.966-2.822t-5.661-3.393q-2.747-1.834-5.3-3.931t-4.89-4.433q-2.337-2.336-4.432-4.89t-3.932-5.3q-1.836-2.747-3.393-5.66t-2.822-5.967q-1.265-3.051-2.223-6.214t-1.6-6.4q-.643-3.24-.968-6.528t-.324-6.592q0-3.3.324-6.592t.968-6.528q.645-3.24,1.6-6.4t2.223-6.214q1.265-3.053,2.822-5.966t3.393-5.661q1.836-2.748,3.932-5.3t4.432-4.89q2.336-2.337,4.89-4.432t5.3-3.932q2.746-1.836,5.661-3.393t5.966-2.822q3.052-1.265,6.214-2.223t6.4-1.6q3.24-.645,6.528-.968T3676.037,3037.741Z" fill="#6595bf"/>
    </g>
    <circle id="Elipse_68" data-name="Elipse 68" cx="63.171" cy="63.171" r="63.171" transform="translate(288.537 3036.931)" fill="#fff"/>
    <g id="Grupo_2280" data-name="Grupo 2280" transform="translate(-3324.329 -4.891)">
      <circle id="Elipse_69" data-name="Elipse 69" cx="57.466" cy="57.466" r="57.466" transform="translate(3618.022 3047.527)" fill="#aed3f2"/>
    </g>
    <g id="Grupo_2311" data-name="Grupo 2311" transform="translate(-3324.329 -4.891)">
      <g id="Grupo_2308" data-name="Grupo 2308">
        <g id="Grupo_2307" data-name="Grupo 2307">
          <g id="Grupo_2306" data-name="Grupo 2306">
            <path id="Trazado_1531" data-name="Trazado 1531" d="M3670.117,3062.915a2.758,2.758,0,1,1-2.757-2.761A2.76,2.76,0,0,1,3670.117,3062.915Z" fill="#fff"/>
            <path id="Trazado_1532" data-name="Trazado 1532" d="M3675.638,3062.915a2.76,2.76,0,1,1-2.761-2.761A2.761,2.761,0,0,1,3675.638,3062.915Z" fill="#fff"/>
            <circle id="Elipse_87" data-name="Elipse 87" cx="2.761" cy="2.761" r="2.761" transform="translate(3675.638 3060.154)" fill="#fff"/>
            <path id="Trazado_1533" data-name="Trazado 1533" d="M3686.676,3062.915a2.759,2.759,0,1,1-2.76-2.761A2.761,2.761,0,0,1,3686.676,3062.915Z" fill="#fff"/>
          </g>
          <path id="Trazado_1534" data-name="Trazado 1534" d="M3664.6,3062.915c0,9.858,4.94,17.851,11.038,17.851s11.038-7.993,11.038-17.851Z" fill="#fff"/>
        </g>
        <path id="Trazado_1535" data-name="Trazado 1535" d="M3708.73,3134.812a3.462,3.462,0,0,0-2.453-1.019h-1.734v-25.437a28.905,28.905,0,1,0-57.81,0v25.437H3645a3.47,3.47,0,1,0,0,6.94h61.278a3.466,3.466,0,0,0,2.453-5.921Z" fill="#fff"/>
        <path id="Trazado_1536" data-name="Trazado 1536" d="M3683.439,3078.6a1.534,1.534,0,0,1-1.53,1.53h-12.542a1.534,1.534,0,0,1-1.53-1.53h0a1.534,1.534,0,0,1,1.53-1.53h12.542a1.534,1.534,0,0,1,1.53,1.53Z" fill="#343b43"/>
      </g>
      <g id="Grupo_2310" data-name="Grupo 2310">
        <path id="Trazado_1537" data-name="Trazado 1537" d="M3687.2,3110.094a11.561,11.561,0,1,1-11.561-11.569A11.555,11.555,0,0,1,3687.2,3110.094Z" fill="#ea6552"/>
        <g id="Grupo_2309" data-name="Grupo 2309">
          <path id="Trazado_1538" data-name="Trazado 1538" d="M3676.857,3111.109h-2.441a3.858,3.858,0,1,1,0-7.716h5.282v2.03h-5.282a1.83,1.83,0,0,0-1.293.538,1.809,1.809,0,0,0-.53,1.291,1.816,1.816,0,0,0,1.823,1.823h2.441Z" fill="#fff"/>
          <path id="Trazado_1539" data-name="Trazado 1539" d="M3676.857,3116.795h-5.279v-2.037h5.279a1.822,1.822,0,0,0,1.288-3.115,1.826,1.826,0,0,0-1.288-.534h-2.441v-2.034h2.441a3.86,3.86,0,0,1,0,7.72Z" fill="#fff"/>
          <rect id="Rectángulo_856" data-name="Rectángulo 856" width="2.034" height="14.614" transform="translate(3674.619 3102.785)" fill="#fff"/>
        </g>
      </g>
    </g>
  </g>
</svg>
