<svg xmlns="http://www.w3.org/2000/svg" xmlns:xlink="http://www.w3.org/1999/xlink" width="134.504" height="134.505" viewBox="0 0 134.504 134.505">
  <defs>
    <clipPath id="clip-path">
      <circle id="Elipse_83" data-name="Elipse 83" cx="57.466" cy="57.466" r="57.466" transform="translate(3618.022 2563.427)" fill="none"/>
    </clipPath>
  </defs>
  <g id="Grupo_7811" data-name="Grupo 7811" transform="translate(-284.456 -2548.75)">
    <g id="Grupo_2273" data-name="Grupo 2273" transform="translate(-3324.329 -4.891)">
      <path id="Trazado_1461" data-name="Trazado 1461" d="M3676.037,2553.641q3.3,0,6.592.324t6.528.969q3.242.643,6.4,1.6t6.215,2.223q3.051,1.265,5.966,2.822t5.661,3.393q2.747,1.836,5.3,3.932t4.89,4.432q2.335,2.335,4.432,4.89t3.931,5.3q1.836,2.747,3.393,5.661t2.822,5.966q1.265,3.052,2.223,6.214t1.6,6.4q.645,3.24.969,6.528t.323,6.592q0,3.3-.323,6.592t-.969,6.529q-.645,3.24-1.6,6.4t-2.223,6.214q-1.265,3.053-2.822,5.966t-3.393,5.661q-1.835,2.746-3.931,5.3t-4.432,4.89q-2.337,2.335-4.89,4.432t-5.3,3.931q-2.748,1.836-5.661,3.393t-5.966,2.822q-3.052,1.265-6.215,2.224t-6.4,1.6q-3.24.645-6.528.969t-6.592.324q-3.3,0-6.592-.324t-6.528-.969q-3.24-.643-6.4-1.6t-6.214-2.224q-3.052-1.264-5.966-2.822t-5.661-3.393q-2.747-1.835-5.3-3.931t-4.89-4.432q-2.337-2.337-4.432-4.89t-3.932-5.3q-1.836-2.748-3.393-5.661t-2.822-5.966q-1.265-3.052-2.223-6.214t-1.6-6.4q-.643-3.241-.968-6.529t-.324-6.592q0-3.3.324-6.592t.968-6.528q.645-3.24,1.6-6.4t2.223-6.214q1.265-3.052,2.822-5.966t3.393-5.661q1.836-2.747,3.932-5.3t4.432-4.89q2.336-2.337,4.89-4.432t5.3-3.932q2.746-1.835,5.661-3.393t5.966-2.822q3.052-1.263,6.214-2.223t6.4-1.6q3.24-.645,6.528-.969T3676.037,2553.641Z" fill="#6595bf"/>
    </g>
    <circle id="Elipse_62" data-name="Elipse 62" cx="63.171" cy="63.171" r="63.171" transform="translate(288.537 2552.831)" fill="#fff"/>
    <g id="Grupo_2274" data-name="Grupo 2274" transform="translate(-3324.329 -4.891)">
      <circle id="Elipse_63" data-name="Elipse 63" cx="57.466" cy="57.466" r="57.466" transform="translate(3618.022 2563.427)" fill="#aed3f2"/>
    </g>
    <g id="Grupo_2291" data-name="Grupo 2291" transform="translate(-3324.329 -4.891)">
      <g id="Grupo_2290" data-name="Grupo 2290" clip-path="url(#clip-path)">
        <g id="Grupo_2289" data-name="Grupo 2289">
          <path id="Trazado_1468" data-name="Trazado 1468" d="M3751.548,2652.966a5.222,5.222,0,0,1-5.223-5.222v-20.836a13.927,13.927,0,0,0-13.926-13.927H3618.533a13.927,13.927,0,0,0-13.927,13.927v20.836a5.222,5.222,0,0,1-5.222,5.222h-10.958v13.9h16.149a13.926,13.926,0,0,0,13.927-13.926V2632.1a5.222,5.222,0,0,1,5.222-5.222h103.484a5.222,5.222,0,0,1,5.222,5.222v20.836a13.926,13.926,0,0,0,13.926,13.926h16.15v-13.9Z" fill="#f6ae32"/>
          <path id="Trazado_1469" data-name="Trazado 1469" d="M3751.548,2652.966a5.222,5.222,0,0,1-5.223-5.222v-20.836a13.927,13.927,0,0,0-13.926-13.927H3618.533a13.927,13.927,0,0,0-13.927,13.927v20.836a5.222,5.222,0,0,1-5.222,5.222h-10.958v7.067h13.539a9.574,9.574,0,0,0,9.574-9.575V2629.5a9.575,9.575,0,0,1,9.575-9.575h108.7a9.574,9.574,0,0,1,9.574,9.575v20.958a9.575,9.575,0,0,0,9.575,9.575h13.539v-7.067Z" fill="#b98326" opacity="0.3"/>
          <rect id="Rectángulo_820" data-name="Rectángulo 820" width="93.865" height="23.523" rx="4.29" transform="translate(3628.533 2608.167)" fill="#30777a"/>
          <path id="Trazado_1470" data-name="Trazado 1470" d="M3718.108,2608.167h-85.284a4.291,4.291,0,0,0-4.291,4.291v7.471H3722.4v-7.471A4.29,4.29,0,0,0,3718.108,2608.167Z" fill="#183c3d" opacity="0.3"/>
          <circle id="Elipse_76" data-name="Elipse 76" cx="38.466" cy="38.466" r="38.466" transform="translate(3637 2581.463)" fill="#44a6b4"/>
          <circle id="Elipse_77" data-name="Elipse 77" cx="37.059" cy="37.059" r="37.059" transform="translate(3638.407 2582.87)" fill="#30777a"/>
          <circle id="Elipse_78" data-name="Elipse 78" cx="31.591" cy="31.591" r="31.591" transform="matrix(0.229, -0.974, 0.974, 0.229, 3637.488, 2643.459)" fill="#fef7d6"/>
          <rect id="Rectángulo_821" data-name="Rectángulo 821" width="5.41" height="7.436" rx="0.203" transform="translate(3650.932 2605.748)" fill="#ededed" stroke="#634e42" stroke-miterlimit="10" stroke-width="4"/>
          <rect id="Rectángulo_822" data-name="Rectángulo 822" width="5.41" height="7.436" rx="0.203" transform="translate(3656.948 2605.748)" fill="#ededed" stroke="#634e42" stroke-miterlimit="10" stroke-width="4"/>
          <rect id="Rectángulo_823" data-name="Rectángulo 823" width="5.41" height="7.436" rx="0.203" transform="translate(3662.965 2605.748)" fill="#ededed" stroke="#634e42" stroke-miterlimit="10" stroke-width="4"/>
          <rect id="Rectángulo_824" data-name="Rectángulo 824" width="5.41" height="7.436" rx="0.203" transform="translate(3668.981 2605.748)" fill="#ededed" stroke="#634e42" stroke-miterlimit="10" stroke-width="4"/>
          <rect id="Rectángulo_825" data-name="Rectángulo 825" width="5.41" height="7.436" rx="0.203" transform="translate(3674.998 2605.748)" fill="#ededed" stroke="#634e42" stroke-miterlimit="10" stroke-width="4"/>
          <rect id="Rectángulo_826" data-name="Rectángulo 826" width="5.41" height="7.436" rx="0.203" transform="translate(3681.014 2605.748)" fill="#ededed" stroke="#ed462f" stroke-miterlimit="10" stroke-width="4"/>
          <rect id="Rectángulo_827" data-name="Rectángulo 827" width="5.41" height="7.436" rx="0.203" transform="translate(3687.031 2605.748)" fill="#ededed" stroke="#ed462f" stroke-miterlimit="10" stroke-width="4"/>
          <rect id="Rectángulo_828" data-name="Rectángulo 828" width="5.41" height="7.436" rx="0.203" transform="translate(3693.047 2605.748)" fill="#ededed" stroke="#ed462f" stroke-miterlimit="10" stroke-width="4"/>
          <circle id="Elipse_79" data-name="Elipse 79" cx="7.823" cy="7.823" r="7.823" transform="translate(3678.173 2640.191) rotate(-75.818)" fill="#44a6b4"/>
          <circle id="Elipse_80" data-name="Elipse 80" cx="6.668" cy="6.668" r="6.668" transform="translate(3679.646 2639.471) rotate(-76.643)" fill="#ededed"/>
          <g id="Grupo_2288" data-name="Grupo 2288">
            <g id="Grupo_2287" data-name="Grupo 2287">
              <rect id="Rectángulo_829" data-name="Rectángulo 829" width="0.302" height="1.089" rx="0.043" transform="translate(3687.523 2627.992)" fill="#30777a"/>
              <path id="Trazado_1471" data-name="Trazado 1471" d="M3686.238,2628.924l-.12.032a.043.043,0,0,1-.052-.03l-.172-.643a.042.042,0,0,1,.03-.052l.119-.032a.042.042,0,0,1,.053.03l.172.642A.043.043,0,0,1,3686.238,2628.924Z" fill="#30777a"/>
              <rect id="Rectángulo_830" data-name="Rectángulo 830" width="0.302" height="1.089" rx="0.043" transform="translate(3687.523 2639.966)" fill="#30777a"/>
              <path id="Trazado_1472" data-name="Trazado 1472" d="M3685.046,2629.756l-.187.108a.042.042,0,0,1-.058-.016l-.5-.868a.043.043,0,0,1,.016-.059l.187-.108a.043.043,0,0,1,.059.016l.5.868A.043.043,0,0,1,3685.046,2629.756Z" fill="#30777a"/>
              <path id="Trazado_1473" data-name="Trazado 1473" d="M3691.033,2640.126l-.187.108a.042.042,0,0,1-.058-.016l-.5-.868a.043.043,0,0,1,.016-.059l.187-.108a.043.043,0,0,1,.059.016l.5.868A.043.043,0,0,1,3691.033,2640.126Z" fill="#30777a"/>
              <rect id="Rectángulo_831" data-name="Rectángulo 831" width="0.302" height="1.089" rx="0.043" transform="matrix(0.5, -0.866, 0.866, 0.5, 3681.942, 2631.388)" fill="#30777a"/>
              <path id="Trazado_1474" data-name="Trazado 1474" d="M3693.385,2637.7l-.109.188a.043.043,0,0,1-.058.016l-.869-.5a.042.042,0,0,1-.015-.058l.108-.188a.044.044,0,0,1,.058-.016l.869.5A.044.044,0,0,1,3693.385,2637.7Z" fill="#30777a"/>
              <rect id="Rectángulo_832" data-name="Rectángulo 832" width="1.089" height="0.302" rx="0.043" transform="translate(3681.143 2634.373)" fill="#30777a"/>
              <rect id="Rectángulo_833" data-name="Rectángulo 833" width="1.089" height="0.302" rx="0.043" transform="translate(3693.117 2634.373)" fill="#30777a"/>
              <path id="Trazado_1475" data-name="Trazado 1475" d="M3682.906,2637.151l.109.188a.044.044,0,0,1-.016.058l-.869.5a.044.044,0,0,1-.058-.016l-.108-.188a.042.042,0,0,1,.015-.058l.869-.5A.044.044,0,0,1,3682.906,2637.151Z" fill="#30777a"/>
              <path id="Trazado_1476" data-name="Trazado 1476" d="M3693.276,2631.164l.109.187a.044.044,0,0,1-.016.059l-.869.5a.042.042,0,0,1-.058-.015l-.108-.188a.043.043,0,0,1,.015-.058l.869-.5A.043.043,0,0,1,3693.276,2631.164Z" fill="#30777a"/>
              <path id="Trazado_1477" data-name="Trazado 1477" d="M3684.859,2639.183l.187.108a.043.043,0,0,1,.016.059l-.5.868a.043.043,0,0,1-.059.016l-.187-.108a.043.043,0,0,1-.016-.059l.5-.868A.041.041,0,0,1,3684.859,2639.183Z" fill="#30777a"/>
              <path id="Trazado_1478" data-name="Trazado 1478" d="M3690.846,2628.813l.187.108a.043.043,0,0,1,.016.059l-.5.868a.043.043,0,0,1-.059.016l-.187-.108a.043.043,0,0,1-.016-.059l.5-.868A.042.042,0,0,1,3690.846,2628.813Z" fill="#30777a"/>
              <rect id="Rectángulo_834" data-name="Rectángulo 834" width="0.209" height="0.751" rx="0.043" transform="matrix(0.966, -0.259, 0.259, 0.966, 3689.069, 2640.134)" fill="#30777a"/>
              <path id="Trazado_1479" data-name="Trazado 1479" d="M3683.63,2630.392l-.087.088a.045.045,0,0,1-.061,0l-.47-.471a.042.042,0,0,1,0-.06l.087-.088a.044.044,0,0,1,.061,0l.47.471A.042.042,0,0,1,3683.63,2630.392Z" fill="#30777a"/>
              <rect id="Rectángulo_835" data-name="Rectángulo 835" width="0.209" height="0.751" rx="0.043" transform="translate(3691.688 2638.685) rotate(-45.011)" fill="#30777a"/>
              <path id="Trazado_1480" data-name="Trazado 1480" d="M3682.106,2632.968l-.032.119a.042.042,0,0,1-.052.03l-.643-.172a.043.043,0,0,1-.03-.052l.032-.12a.043.043,0,0,1,.053-.03l.642.172A.042.042,0,0,1,3682.106,2632.968Z" fill="#30777a"/>
              <rect id="Rectángulo_836" data-name="Rectángulo 836" width="0.209" height="0.751" rx="0.043" transform="translate(3693.231 2636.121) rotate(-75.002)" fill="#30777a"/>
              <rect id="Rectángulo_837" data-name="Rectángulo 837" width="0.751" height="0.209" rx="0.043" transform="matrix(0.966, -0.259, 0.259, 0.966, 3681.338, 2636.113)" fill="#30777a"/>
              <path id="Trazado_1481" data-name="Trazado 1481" d="M3693.967,2632.773l.032.12a.042.042,0,0,1-.03.052l-.643.172a.042.042,0,0,1-.052-.03l-.032-.119a.043.043,0,0,1,.03-.053l.643-.172A.043.043,0,0,1,3693.967,2632.773Z" fill="#30777a"/>
              <path id="Trazado_1482" data-name="Trazado 1482" d="M3683.543,2638.567l.087.088a.042.042,0,0,1,0,.06l-.47.471a.045.045,0,0,1-.061,0l-.087-.088a.042.042,0,0,1,0-.06l.47-.471A.045.045,0,0,1,3683.543,2638.567Z" fill="#30777a"/>
              <rect id="Rectángulo_838" data-name="Rectángulo 838" width="0.751" height="0.209" rx="0.043" transform="matrix(0.707, -0.707, 0.707, 0.707, 3691.688, 2630.362)" fill="#30777a"/>
              <path id="Trazado_1483" data-name="Trazado 1483" d="M3686.118,2640.091l.12.032a.043.043,0,0,1,.03.053l-.172.642a.043.043,0,0,1-.053.03l-.119-.032a.042.042,0,0,1-.03-.052l.172-.643A.043.043,0,0,1,3686.118,2640.091Z" fill="#30777a"/>
              <path id="Trazado_1484" data-name="Trazado 1484" d="M3689.3,2628.2l.119.032a.043.043,0,0,1,.031.052l-.173.642a.043.043,0,0,1-.052.031l-.119-.032a.044.044,0,0,1-.031-.053l.172-.642A.043.043,0,0,1,3689.3,2628.2Z" fill="#30777a"/>
            </g>
          </g>
          <path id="Trazado_1485" data-name="Trazado 1485" d="M3691.234,2630.963l-3.37,4.33-.96-.96Z" fill="#ed462f"/>
          <path id="Trazado_1486" data-name="Trazado 1486" d="M3688.675,2634.523a1,1,0,1,1-1-1A1,1,0,0,1,3688.675,2634.523Z" fill="#30777a"/>
          <path id="Trazado_1487" data-name="Trazado 1487" d="M3655.052,2611.822a.463.463,0,0,1-.52.527h-1.8a.46.46,0,0,1-.512-.527v-4.708a.466.466,0,0,1,.523-.531h1.787a.465.465,0,0,1,.52.531Zm-.844-.214v-4.284h-1.138v4.284Z"/>
          <path id="Trazado_1488" data-name="Trazado 1488" d="M3684.309,2612.349h-.847v-4.067h-.332v-.115l.446-1.584h.733Z" fill="#ed462f"/>
          <path id="Trazado_1489" data-name="Trazado 1489" d="M3673.086,2611.822a.462.462,0,0,1-.519.527H3670.8a.459.459,0,0,1-.512-.527v-1.33h.847v1.116h1.109v-1.448l-1.058-.725v-.181l1.058-.715v-1.215h-1.109v1.05h-.847v-1.26a.466.466,0,0,1,.523-.531h1.757a.464.464,0,0,1,.519.531v1.355a.6.6,0,0,1-.287.531l-.534.346.541.339a.572.572,0,0,1,.28.52Z"/>
          <path id="Trazado_1490" data-name="Trazado 1490" d="M3691.117,2611.822a.464.464,0,0,1-.523.527h-1.727a.459.459,0,0,1-.512-.527v-1.33h.847v1.116h1.068v-2.218h-1.915l.092-2.807h2.63v.755h-1.831l-.055,1.312h1.4a.462.462,0,0,1,.523.523Z" fill="#ed462f"/>
          <path id="Trazado_1491" data-name="Trazado 1491" d="M3679.131,2607.136l-1.33,5.213h-.885l1.294-5.025h-1.1v.843h-.833v-1.584h2.856Z"/>
          <path id="Trazado_1492" data-name="Trazado 1492" d="M3697.178,2611.822a.463.463,0,0,1-.519.527h-1.82a.46.46,0,0,1-.512-.527v-1.676a.586.586,0,0,1,.214-.49c.169-.1.34-.2.512-.295l-.494-.287a.574.574,0,0,1-.225-.476v-1.484a.466.466,0,0,1,.523-.531h1.794q.513,0,.512.531v1.484a.57.57,0,0,1-.221.476l-.493.287.512.295a.583.583,0,0,1,.217.49Zm-.858-.2v-1.6l-.567-.324-.571.324v1.6Zm-.008-2.933v-1.381H3695.2v1.381l.557.332Z" fill="#ed462f"/>
          <path id="Trazado_1493" data-name="Trazado 1493" d="M3661.068,2611.822a.463.463,0,0,1-.519.527h-1.8a.46.46,0,0,1-.512-.527v-4.708a.466.466,0,0,1,.523-.531h1.787a.464.464,0,0,1,.519.531Zm-.844-.214v-4.284h-1.138v4.284Z"/>
          <path id="Trazado_1494" data-name="Trazado 1494" d="M3667.085,2611.822a.463.463,0,0,1-.52.527h-1.8a.46.46,0,0,1-.512-.527v-4.708a.466.466,0,0,1,.523-.531h1.787a.465.465,0,0,1,.52.531Zm-.844-.214v-4.284H3665.1v4.284Z"/>
          <circle id="Elipse_81" data-name="Elipse 81" cx="6.297" cy="6.297" r="6.297" transform="translate(3651.029 2630.321) rotate(-80.938)" fill="none" stroke="#1d1d1b" stroke-miterlimit="10" stroke-width="2"/>
          <rect id="Rectángulo_839" data-name="Rectángulo 839" width="0.76" height="11.74" rx="0.376" transform="translate(3657.859 2619.224)" fill="#1d1d1b"/>
          <path id="Rectángulo_840" data-name="Rectángulo 840" d="M.376,0H.384A.376.376,0,0,1,.76.376V11.365a.376.376,0,0,1-.376.376H.377A.377.377,0,0,1,0,11.364V.376A.376.376,0,0,1,.376,0Z" transform="matrix(0.5, -0.866, 0.866, 0.5, 3652.964, 2622.491)" fill="#1d1d1b"/>
          <path id="Rectángulo_841" data-name="Rectángulo 841" d="M.376,0H11.364a.376.376,0,0,1,.376.376V.383a.377.377,0,0,1-.377.377H.376A.376.376,0,0,1,0,.385V.376A.376.376,0,0,1,.376,0Z" transform="matrix(0.866, -0.5, 0.5, 0.866, 3652.964, 2627.698)" fill="#1d1d1b"/>
          <circle id="Elipse_82" data-name="Elipse 82" cx="2.708" cy="2.708" r="2.708" transform="translate(3655.531 2622.386)" fill="#1d1d1b"/>
          <rect id="Rectángulo_842" data-name="Rectángulo 842" width="28.539" height="4.546" rx="1.169" transform="translate(3660.728 2597.306)" fill="#c6c6c6"/>
          <rect id="Rectángulo_843" data-name="Rectángulo 843" width="18.162" height="2.893" rx="0.744" transform="translate(3658.53 2634.038)" fill="#c6c6c6"/>
          <rect id="Rectángulo_844" data-name="Rectángulo 844" width="18.162" height="2.893" rx="0.744" transform="translate(3658.53 2637.509)" fill="#c6c6c6"/>
          <rect id="Rectángulo_845" data-name="Rectángulo 845" width="18.162" height="2.893" rx="0.744" transform="translate(3658.53 2640.98)" fill="#c6c6c6"/>
        </g>
      </g>
    </g>
  </g>
</svg>
