<svg xmlns="http://www.w3.org/2000/svg" width="152.443" height="152.443" viewBox="0 0 152.443 152.443">
  <g id="Grupo_7815" data-name="Grupo 7815" transform="translate(-646.533 -2813.143)">
    <path id="Trazado_5142" data-name="Trazado 5142" d="M722.755,2813.143q3.744,0,7.471.367t7.4,1.1q3.672.731,7.255,1.817t7.043,2.52q3.461,1.432,6.762,3.2t6.416,3.846q3.114,2.079,6.008,4.456t5.542,5.023q2.649,2.647,5.024,5.542t4.455,6.008q2.081,3.114,3.846,6.416t3.2,6.762q1.433,3.459,2.52,7.043t1.818,7.255q.73,3.674,1.1,7.4t.367,7.472q0,3.744-.367,7.47t-1.1,7.4q-.73,3.672-1.818,7.256t-2.52,7.042q-1.433,3.461-3.2,6.762t-3.846,6.416q-2.079,3.112-4.455,6.008t-5.024,5.542q-2.648,2.649-5.542,5.024t-6.008,4.455q-3.114,2.08-6.416,3.846t-6.762,3.2q-3.459,1.433-7.043,2.52t-7.255,1.817q-3.673.732-7.4,1.1t-7.471.367q-3.746,0-7.471-.367t-7.4-1.1q-3.674-.729-7.256-1.817t-7.043-2.52q-3.461-1.432-6.762-3.2t-6.416-3.846q-3.113-2.079-6.008-4.455t-5.542-5.024q-2.647-2.647-5.024-5.542t-4.455-6.008q-2.081-3.114-3.846-6.416t-3.2-6.762q-1.433-3.459-2.52-7.042T648,2904.235q-.73-3.674-1.1-7.4t-.367-7.47q0-3.746.367-7.472t1.1-7.4q.73-3.672,1.817-7.255t2.52-7.043q1.432-3.459,3.2-6.762t3.846-6.416q2.08-3.114,4.455-6.008t5.024-5.542q2.648-2.649,5.542-5.023t6.008-4.456q3.114-2.08,6.416-3.846t6.762-3.2q3.459-1.433,7.043-2.52t7.256-1.817q3.672-.732,7.4-1.1T722.755,2813.143Z" fill="#db9600"/>
    <circle id="Elipse_384" data-name="Elipse 384" cx="71.597" cy="71.597" r="71.597" transform="translate(651.158 2817.768)" fill="#fff"/>
    <circle id="Elipse_385" data-name="Elipse 385" cx="65.13" cy="65.13" r="65.13" transform="translate(657.624 2824.234)" fill="#f2f2f2"/>
    <g id="Grupo_7776" data-name="Grupo 7776">
      <g id="Grupo_7774" data-name="Grupo 7774">
        <path id="Trazado_5152" data-name="Trazado 5152" d="M723.867,2921.652a5.968,5.968,0,0,1-5.968-5.968v-40.937a5.967,5.967,0,1,1,11.935,0v40.937A5.967,5.967,0,0,1,723.867,2921.652Z" fill="#00c2db"/>
        <path id="Trazado_5153" data-name="Trazado 5153" d="M744.929,2933.654a15.1,15.1,0,0,1-15.1-15.095v-15.094h15.1a15.094,15.094,0,0,1,0,30.189Z" fill="#dd474d"/>
        <path id="Trazado_5154" data-name="Trazado 5154" d="M744.929,2924.176a5.617,5.617,0,0,1-5.617-5.617v-5.616h5.617a5.616,5.616,0,0,1,0,11.233Z" fill="#00c2db"/>
        <path id="Trazado_5155" data-name="Trazado 5155" d="M702.8,2933.654a15.094,15.094,0,0,0,15.094-15.095v-15.094H702.8a15.094,15.094,0,1,0,0,30.189Z" fill="#dd474d"/>
        <path id="Trazado_5156" data-name="Trazado 5156" d="M767.044,2859.059H749.229a19.4,19.4,0,0,0-19.4,19.4v25.011h17.815a19.4,19.4,0,0,0,19.4-19.4Z" fill="#db9600"/>
        <circle id="Elipse_388" data-name="Elipse 388" cx="5.617" cy="5.617" r="5.617" transform="translate(745.982 2868.888)" fill="#fff"/>
        <circle id="Elipse_389" data-name="Elipse 389" cx="3.861" cy="3.861" r="3.861" transform="translate(739.663 2885.913)" fill="#fff"/>
        <path id="Trazado_5157" data-name="Trazado 5157" d="M680.689,2859.059H698.5a19.394,19.394,0,0,1,19.395,19.4v25.011H700.084a19.4,19.4,0,0,1-19.395-19.4Z" fill="#db9600"/>
        <circle id="Elipse_390" data-name="Elipse 390" cx="5.617" cy="5.617" r="5.617" transform="translate(690.518 2868.888)" fill="#fff"/>
        <circle id="Elipse_391" data-name="Elipse 391" cx="3.861" cy="3.861" r="3.861" transform="translate(700.347 2885.913)" fill="#fff"/>
        <path id="Trazado_5158" data-name="Trazado 5158" d="M702.8,2924.176a5.616,5.616,0,0,0,5.616-5.617v-5.616H702.8a5.616,5.616,0,1,0,0,11.233Z" fill="#00c2db"/>
      </g>
      <g id="Grupo_7775" data-name="Grupo 7775">
        <path id="Trazado_5159" data-name="Trazado 5159" d="M767.044,2857.3H749.229a21.179,21.179,0,0,0-19.346,12.608,7.735,7.735,0,0,0-4.2-2.671,19.75,19.75,0,0,1,19.665-18.186,1.755,1.755,0,0,0,0-3.511,23.27,23.27,0,0,0-21.48,14.38,23.27,23.27,0,0,0-21.48-14.38,1.755,1.755,0,0,0,0,3.511,19.75,19.75,0,0,1,19.665,18.186,7.735,7.735,0,0,0-4.2,2.671A21.18,21.18,0,0,0,698.5,2857.3H680.689a1.755,1.755,0,0,0-1.755,1.755v25.011a21.186,21.186,0,0,0,14.928,20.215,16.848,16.848,0,1,0,25.455,17.635,7.7,7.7,0,0,0,9.1,0,16.85,16.85,0,1,0,25.454-17.636,21.153,21.153,0,0,0,13.179-11.778,1.755,1.755,0,1,0-3.218-1.4,17.646,17.646,0,0,1-16.182,10.6h-16.06v-23.256a17.66,17.66,0,0,1,17.64-17.64h16.06v15.358a1.755,1.755,0,0,0,3.51,0v-17.113A1.755,1.755,0,0,0,767.044,2857.3Zm-38.965,23.519v7.255h-8.425v-7.255Zm-8.425,10.765h8.425v7.255h-8.425Zm0,10.765h8.425v7.255h-8.425Zm4.213-31.819a4.218,4.218,0,0,1,4.212,4.213v2.566h-8.425v-2.566A4.218,4.218,0,0,1,723.867,2870.534Zm-23.783,31.176a17.659,17.659,0,0,1-17.639-17.64v-23.256H698.5a17.66,17.66,0,0,1,17.64,17.64v23.256Zm16.06,16.849A13.339,13.339,0,1,1,702.8,2905.22h13.339Zm7.723,1.338a4.218,4.218,0,0,1-4.213-4.213v-2.566h8.425v2.566A4.218,4.218,0,0,1,723.867,2919.9Zm21.062-14.677a13.339,13.339,0,1,1-13.34,13.339V2905.22Z" fill="#023b5e"/>
        <path id="Trazado_5160" data-name="Trazado 5160" d="M744.929,2925.931a7.371,7.371,0,1,0,0-14.743h-5.617a1.755,1.755,0,0,0-1.755,1.755v5.616A7.38,7.38,0,0,0,744.929,2925.931Zm-3.862-11.233h3.862a3.861,3.861,0,1,1-3.862,3.861Z" fill="#023b5e"/>
        <path id="Trazado_5161" data-name="Trazado 5161" d="M758.97,2874.5a7.371,7.371,0,1,0-7.372,7.371A7.38,7.38,0,0,0,758.97,2874.5Zm-11.233,0a3.862,3.862,0,1,1,3.861,3.861A3.865,3.865,0,0,1,747.737,2874.5Z" fill="#023b5e"/>
        <path id="Trazado_5162" data-name="Trazado 5162" d="M737.908,2889.775a5.616,5.616,0,1,0,5.617-5.617A5.623,5.623,0,0,0,737.908,2889.775Zm7.723,0a2.106,2.106,0,1,1-2.106-2.107A2.109,2.109,0,0,1,745.631,2889.775Z" fill="#023b5e"/>
        <path id="Trazado_5163" data-name="Trazado 5163" d="M708.421,2911.188H702.8a7.371,7.371,0,1,0,7.371,7.371v-5.616A1.754,1.754,0,0,0,708.421,2911.188Zm-1.755,7.371a3.862,3.862,0,1,1-3.861-3.861h3.861Z" fill="#023b5e"/>
        <path id="Trazado_5164" data-name="Trazado 5164" d="M703.507,2874.5a7.372,7.372,0,1,0-7.372,7.371A7.38,7.38,0,0,0,703.507,2874.5Zm-7.372,3.861A3.861,3.861,0,1,1,700,2874.5,3.865,3.865,0,0,1,696.135,2878.366Z" fill="#023b5e"/>
        <path id="Trazado_5165" data-name="Trazado 5165" d="M704.209,2884.158a5.617,5.617,0,1,0,5.616,5.617A5.624,5.624,0,0,0,704.209,2884.158Zm0,7.723a2.107,2.107,0,1,1,2.106-2.106A2.108,2.108,0,0,1,704.209,2891.881Z" fill="#023b5e"/>
        <path id="Trazado_5166" data-name="Trazado 5166" d="M767.044,2882.315a1.755,1.755,0,1,0,1.241.514A1.77,1.77,0,0,0,767.044,2882.315Z" fill="#023b5e"/>
      </g>
    </g>
  </g>
</svg>
