<svg xmlns="http://www.w3.org/2000/svg" width="414.873" height="198.519" viewBox="0 0 414.873 198.519">
  <g id="Grupo_2487" data-name="Grupo 2487" transform="translate(-512.805 -6457.028)">
    <g id="Grupo_2441" data-name="Grupo 2441">
      <path id="Trazado_1755" data-name="Trazado 1755" d="M664.545,6517.715a16.61,16.61,0,0,1-8.262-2.147.165.165,0,1,1,.178-.278A16.542,16.542,0,0,0,668.9,6516.8c6.833-1.869,12.865-7.962,17.927-18.1a.168.168,0,0,1,.211-.078,21.245,21.245,0,0,0,11.463.478c11.1-2.4,18.765-12.122,23.239-19.853a.165.165,0,0,1,.286.166c-4.512,7.8-12.248,17.6-23.475,20.014a21.926,21.926,0,0,1-11.495-.448c-5.093,10.155-11.175,16.261-18.076,18.147A16.872,16.872,0,0,1,664.545,6517.715Z" fill="#595a59"/>
      <g id="Grupo_2432" data-name="Grupo 2432">
        <g id="Grupo_2431" data-name="Grupo 2431">
          <g id="Grupo_2430" data-name="Grupo 2430">
            <g id="Grupo_2429" data-name="Grupo 2429">
              <path id="Trazado_1756" data-name="Trazado 1756" d="M658.592,6547.4l-.057-.058.01-.126,4.56-5.478L667.49,6547l.027.4h.764l-2.35-31.732a.168.168,0,0,0-.005-.067l-.716-9.663a.379.379,0,0,0-.378-.353h-3.615a.378.378,0,0,0-.378.353l-3.072,41.462Zm1.434-9.87h6.156l-3.077,3.7Zm6.761,0,.66,8.915-4.131-4.959,3.292-3.955h.179Zm-.8-10.755.646,8.726-3.335-4.85,2.662-3.876Zm-2.886,3.586-2.465-3.586h4.929Zm2.741-5.534-2.554-4.491,1.965-3.458Zm-.8-10.848-1.855-4.058,1.336-2.956Zm-3.47-7.632h2.872l-1.438,3.181-1.438-3.146Zm-.053.71,1.309,2.864-1.821,4.029Zm-.581,7.84,2.07-4.581,2.1,4.6.02.287h-4.216Zm-.079,1.067h4.331l.024.331L663.1,6520l-2.252-3.961Zm-.049.664,2.106,3.708-2.738,4.816Zm-.686,9.283,2.981-5.246,2.8,4.922.031.427h-5.817v0Zm-.067.864h.187l2.662,3.876-3.513,5.111Zm-.713,9.634,3.761-5.47,3.579,5.207.045.626h-7.337l-.069-.083Zm-.083,1.122h.34l3.291,3.955-4.305,5.171Z" fill="#8096a3"/>
              <path id="Trazado_1757" data-name="Trazado 1757" d="M660.766,6515.592a.163.163,0,1,1-.163-.164A.164.164,0,0,1,660.766,6515.592Z" fill="#434343"/>
              <path id="Trazado_1758" data-name="Trazado 1758" d="M665.58,6515.592a.164.164,0,1,1-.164-.164A.164.164,0,0,1,665.58,6515.592Z" fill="#434343"/>
              <path id="Trazado_1759" data-name="Trazado 1759" d="M659.868,6526.333a.163.163,0,1,1-.162-.162A.161.161,0,0,1,659.868,6526.333Z" fill="#434343"/>
              <path id="Trazado_1760" data-name="Trazado 1760" d="M666.4,6526.333a.164.164,0,1,1-.164-.162A.163.163,0,0,1,666.4,6526.333Z" fill="#434343"/>
              <path id="Trazado_1761" data-name="Trazado 1761" d="M659.161,6537.156a.162.162,0,0,1-.162.164.164.164,0,1,1,0-.328A.162.162,0,0,1,659.161,6537.156Z" fill="#8096a3"/>
              <path id="Trazado_1762" data-name="Trazado 1762" d="M667.184,6537.156a.164.164,0,1,1-.164-.164A.165.165,0,0,1,667.184,6537.156Z" fill="#8096a3"/>
            </g>
            <rect id="Rectángulo_933" data-name="Rectángulo 933" width="6.09" height="1.088" transform="translate(659.949 6504.986)" fill="#434343"/>
            <path id="Trazado_1763" data-name="Trazado 1763" d="M664.681,6505.259h-3.371l1.578-2.829Z" fill="#272727"/>
          </g>
          <rect id="Rectángulo_934" data-name="Rectángulo 934" width="13.305" height="21.119" transform="translate(656.372 6546.737)" fill="#999998"/>
        </g>
        <rect id="Rectángulo_935" data-name="Rectángulo 935" width="13.305" height="9.081" transform="translate(656.372 6558.776)" fill="#595a59"/>
        <path id="Trazado_1764" data-name="Trazado 1764" d="M663.187,6537.156a.164.164,0,1,1-.163-.164A.164.164,0,0,1,663.187,6537.156Z" fill="#434343"/>
        <path id="Trazado_1765" data-name="Trazado 1765" d="M663.187,6537.156a.164.164,0,1,1-.163-.164A.164.164,0,0,1,663.187,6537.156Z" fill="#434343"/>
        <rect id="Rectángulo_936" data-name="Rectángulo 936" width="14.331" height="1.648" transform="translate(655.858 6514.604)" fill="#979696"/>
      </g>
      <g id="Grupo_2436" data-name="Grupo 2436">
        <g id="Grupo_2435" data-name="Grupo 2435">
          <g id="Grupo_2434" data-name="Grupo 2434">
            <g id="Grupo_2433" data-name="Grupo 2433">
              <path id="Trazado_1766" data-name="Trazado 1766" d="M689.729,6540.9l-.075-.076.013-.168,6.009-7.217,5.777,6.938.038.523h1l-3.095-41.818a.221.221,0,0,0-.007-.089l-.943-12.735a.5.5,0,0,0-.5-.463H693.19a.5.5,0,0,0-.5.463l-4.047,54.642Zm1.89-13.007h8.114l-4.057,4.874Zm8.909,0,.87,11.749-5.442-6.538,4.338-5.209h.2Zm-1.051-14.173.852,11.5-4.392-6.392,3.508-5.107Zm-3.8,4.725-3.248-4.725h6.5Zm3.611-7.292-3.365-5.92,2.589-4.557Zm-1.058-14.3-2.444-5.347,1.76-3.9Zm-4.574-10.058h3.785l-1.893,4.191-1.9-4.144Zm-.069.937,1.726,3.774-2.4,5.309Zm-.765,10.332,2.727-6.038,2.773,6.061.028.378H692.79Zm-.1,1.4h5.705l.034.437-2.78,4.889-2.967-5.219Zm-.064.877,2.776,4.884-3.609,6.348Zm-.907,12.232,3.93-6.913,3.685,6.486.042.563h-7.664l0,0Zm-.084,1.139h.244l3.507,5.107-4.628,6.736Zm-.94,12.7,4.954-7.21,4.717,6.864.061.825h-9.671l-.089-.109Zm-.109,1.48h.446l4.336,5.209-5.673,6.818Z" fill="#8096a3"/>
              <path id="Trazado_1767" data-name="Trazado 1767" d="M692.593,6498.981a.215.215,0,1,1-.213-.216A.213.213,0,0,1,692.593,6498.981Z" fill="#434343"/>
              <path id="Trazado_1768" data-name="Trazado 1768" d="M698.938,6498.981a.215.215,0,1,1-.216-.216A.215.215,0,0,1,698.938,6498.981Z" fill="#434343"/>
              <path id="Trazado_1769" data-name="Trazado 1769" d="M691.411,6513.135a.215.215,0,1,1-.43,0,.215.215,0,1,1,.43,0Z" fill="#434343"/>
              <path id="Trazado_1770" data-name="Trazado 1770" d="M700.012,6513.135a.215.215,0,1,1-.215-.216A.215.215,0,0,1,700.012,6513.135Z" fill="#434343"/>
              <path id="Trazado_1771" data-name="Trazado 1771" d="M690.481,6527.4a.216.216,0,1,1-.215-.216A.216.216,0,0,1,690.481,6527.4Z" fill="#8096a3"/>
              <path id="Trazado_1772" data-name="Trazado 1772" d="M701.052,6527.4a.216.216,0,1,1-.216-.216A.217.217,0,0,1,701.052,6527.4Z" fill="#8096a3"/>
            </g>
            <rect id="Rectángulo_937" data-name="Rectángulo 937" width="8.027" height="1.433" transform="translate(691.518 6485.004)" fill="#434343"/>
            <path id="Trazado_1773" data-name="Trazado 1773" d="M697.754,6485.362h-4.442l2.077-3.725Z" fill="#272727"/>
          </g>
          <rect id="Rectángulo_938" data-name="Rectángulo 938" width="17.533" height="27.83" transform="translate(686.802 6540.027)" fill="#999998"/>
        </g>
        <rect id="Rectángulo_939" data-name="Rectángulo 939" width="17.533" height="11.967" transform="translate(686.802 6555.89)" fill="#595a59"/>
        <path id="Trazado_1774" data-name="Trazado 1774" d="M695.786,6527.4a.216.216,0,1,1-.215-.216A.215.215,0,0,1,695.786,6527.4Z" fill="#434343"/>
        <path id="Trazado_1775" data-name="Trazado 1775" d="M695.786,6527.4a.216.216,0,1,1-.215-.216A.215.215,0,0,1,695.786,6527.4Z" fill="#434343"/>
        <rect id="Rectángulo_940" data-name="Rectángulo 940" width="18.883" height="2.172" transform="translate(686.128 6497.68)" fill="#979696"/>
      </g>
      <g id="Grupo_2440" data-name="Grupo 2440">
        <g id="Grupo_2439" data-name="Grupo 2439">
          <g id="Grupo_2438" data-name="Grupo 2438">
            <g id="Grupo_2437" data-name="Grupo 2437">
              <path id="Trazado_1776" data-name="Trazado 1776" d="M725.579,6533.205l-.095-.1.016-.215,7.724-9.278,7.425,8.919.05.672h1.293l-3.98-53.753a.3.3,0,0,0-.009-.114l-1.211-16.369a.647.647,0,0,0-.644-.6h-6.119a.646.646,0,0,0-.644.6l-5.2,70.236Zm2.43-16.72h10.429l-5.214,6.265Zm11.45,0,1.12,15.1-6.995-8.4,5.574-6.7h.255C739.429,6516.485,739.444,6516.483,739.459,6516.482Zm-1.349-18.217,1.1,14.78-5.646-8.215,4.509-6.565Zm-4.886,6.075-4.176-6.075H737.4Zm4.643-9.373-4.324-7.612,3.328-5.855Zm-1.36-18.378-3.145-6.873,2.264-5.008Zm-5.881-12.93h4.867l-2.435,5.388-2.435-5.327Zm-.088,1.207,2.218,4.85-3.083,6.823Zm-.984,13.279,3.507-7.762,3.563,7.793.034.485h-7.143Zm-.134,1.806h7.335l.042.56-3.573,6.286-3.814-6.71Zm-.083,1.128,3.568,6.276-4.638,8.161Zm-1.165,15.722,5.052-8.885,4.738,8.335.054.724h-9.853l0,0Zm-.108,1.464h.315l4.509,6.565-5.952,8.657Zm-1.208,16.319,6.368-9.268,6.063,8.823.079,1.059h-12.43l-.116-.138Zm-.141,1.9h.575l5.574,6.7-7.293,8.761Z" fill="#8096a3"/>
              <path id="Trazado_1777" data-name="Trazado 1777" d="M729.261,6479.322a.275.275,0,1,1-.274-.275A.275.275,0,0,1,729.261,6479.322Z" fill="#434343"/>
              <path id="Trazado_1778" data-name="Trazado 1778" d="M737.416,6479.322a.277.277,0,1,1-.277-.275A.277.277,0,0,1,737.416,6479.322Z" fill="#434343"/>
              <path id="Trazado_1779" data-name="Trazado 1779" d="M727.743,6497.517a.276.276,0,1,1-.277-.275A.276.276,0,0,1,727.743,6497.517Z" fill="#434343"/>
              <path id="Trazado_1780" data-name="Trazado 1780" d="M738.8,6497.517a.277.277,0,1,1-.277-.275A.276.276,0,0,1,738.8,6497.517Z" fill="#434343"/>
              <path id="Trazado_1781" data-name="Trazado 1781" d="M726.545,6515.852a.276.276,0,1,1-.277-.277A.277.277,0,0,1,726.545,6515.852Z" fill="#8096a3"/>
              <path id="Trazado_1782" data-name="Trazado 1782" d="M740.132,6515.852a.276.276,0,1,1-.276-.277A.276.276,0,0,1,740.132,6515.852Z" fill="#8096a3"/>
            </g>
            <rect id="Rectángulo_941" data-name="Rectángulo 941" width="10.319" height="1.842" transform="translate(727.879 6461.358)" fill="#434343"/>
            <path id="Trazado_1783" data-name="Trazado 1783" d="M735.9,6461.819h-5.712l2.671-4.791Z" fill="#272727"/>
          </g>
          <rect id="Rectángulo_942" data-name="Rectángulo 942" width="22.538" height="35.774" transform="translate(721.819 6532.083)" fill="#999998"/>
        </g>
        <rect id="Rectángulo_943" data-name="Rectángulo 943" width="22.538" height="15.383" transform="translate(721.819 6552.474)" fill="#595a59"/>
        <path id="Trazado_1784" data-name="Trazado 1784" d="M733.364,6515.852a.276.276,0,1,1-.277-.277A.276.276,0,0,1,733.364,6515.852Z" fill="#434343"/>
        <path id="Trazado_1785" data-name="Trazado 1785" d="M733.365,6515.852a.276.276,0,1,1-.278-.277A.277.277,0,0,1,733.365,6515.852Z" fill="#434343"/>
        <rect id="Rectángulo_944" data-name="Rectángulo 944" width="24.273" height="2.79" transform="translate(720.951 6477.651)" fill="#979696"/>
      </g>
      <path id="Trazado_1786" data-name="Trazado 1786" d="M679.141,6517.16a28.5,28.5,0,0,1-9.527-1.579.164.164,0,1,1,.124-.3,28.745,28.745,0,0,0,12.943,1.328c6.6-.856,15.8-4.659,22.183-17.911a.165.165,0,0,1,.2-.087,32.325,32.325,0,0,0,14.13.485c7.334-1.323,17.78-5.845,25.891-19.853a.162.162,0,0,1,.224-.059.164.164,0,0,1,.06.225c-8.177,14.125-18.724,18.681-26.132,20.016a33.1,33.1,0,0,1-14.134-.458c-3.576,7.369-10.352,16.414-22.393,17.972A27.98,27.98,0,0,1,679.141,6517.16Z" fill="#595a59"/>
      <rect id="Rectángulo_945" data-name="Rectángulo 945" width="6.653" height="21.119" transform="translate(663.024 6546.737)" fill="#797a79" opacity="0.4"/>
      <rect id="Rectángulo_946" data-name="Rectángulo 946" width="8.765" height="27.83" transform="translate(695.571 6540.027)" fill="#797a79" opacity="0.4"/>
      <rect id="Rectángulo_947" data-name="Rectángulo 947" width="11.27" height="35.774" transform="translate(733.088 6532.083)" fill="#797a79" opacity="0.4"/>
    </g>
    <g id="Grupo_2447" data-name="Grupo 2447">
      <g id="Grupo_2446" data-name="Grupo 2446">
        <g id="Grupo_2442" data-name="Grupo 2442">
          <path id="Trazado_1787" data-name="Trazado 1787" d="M855.591,6595.6h-270.7l-72.086,50.033H927.678Z" fill="#7ab929"/>
          <path id="Trazado_1788" data-name="Trazado 1788" d="M881.611,6613.661l-26.02-18.059h-270.7l-26.02,18.059Z" fill="#7ab929"/>
          <path id="Trazado_1789" data-name="Trazado 1789" d="M554.041,6617.015l-41.236,28.621H927.678l-41.236-28.621Z" fill="#00b8ea"/>
          <rect id="Rectángulo_948" data-name="Rectángulo 948" width="414.873" height="9.912" transform="translate(512.805 6645.636)" fill="#007bb7"/>
        </g>
        <g id="Grupo_2445" data-name="Grupo 2445">
          <g id="Grupo_2443" data-name="Grupo 2443">
            <path id="Trazado_1790" data-name="Trazado 1790" d="M705.465,6532.319a11.536,11.536,0,0,0-2.754,1.735,49.015,49.015,0,0,0-8.973,12.647c-1.437,2.793-2.71,5.664-3.995,8.53q-2.309,5.158-4.761,10.245c-3.283,6.8-6.868,13.43-10.264,20.164-1.623,3.219-3.161,6.477-4.852,9.657-.045.083-.089.169-.134.255H855.769c-2.658-8.96-5.565-17.664-8.754-26.03a184.532,184.532,0,0,0-10.3-23.044,92.527,92.527,0,0,0-5.825-9.588c-.675-.934-1.358-1.862-2.028-2.813a17.137,17.137,0,0,0-1.867-2c-3.379-2.967-8.02,10.735-11.593,8.773-3.42-1.879-17.308-26.909-20.386-30.877-3.143-4.054-6.643-7.839-10.472-9.09-3.966-1.3-7.669.383-11.039,4.38-5.687,6.752-31.222,37.509-37.166,42.17C730.632,6551.914,710.482,6530.167,705.465,6532.319Z" fill="#00a240"/>
            <path id="Trazado_1791" data-name="Trazado 1791" d="M766.587,6576.7c-5.5-14.606-10.944-29.305-16.051-44.39-6.2,7.1-11.793,13.24-14.194,15.124-4.231,3.318-16.388-7.762-24.444-12.848a59.663,59.663,0,0,0,7,6.808c3.484,2.907,7.12,5.545,10.888,6.876.206.073.2.568.054.752a11.588,11.588,0,0,1-2.98,2.48c5.292,2.866,10.385,6.805,15.632,9.927a.6.6,0,0,1,.054.752,20.947,20.947,0,0,1-11.366,6.666,57.5,57.5,0,0,1-10.62,1.541c1.751,1.048,3.644,1.269,5.268,3.008a.646.646,0,0,1,0,.713c-3.553,3.788-7.886,4.229-11.8,5.946-2.907,1.275-5.707,3.164-8.577,4.489a52.361,52.361,0,0,0,5.621,8.318q1.017,1.339,2.024,2.686h60.6Q770.133,6586.134,766.587,6576.7Z" fill="#078036"/>
            <path id="Trazado_1792" data-name="Trazado 1792" d="M812.992,6573.7c-2.436,2.489-4.241,6.445-6.3,9.806-2.149,3.491-4.659,5.833-7.143,8.393q-1.782,1.833-3.565,3.654h32.394c-3.41-18.549-6.146-37.558-9.912-55.876-1.065,1.1-2.1,1.707-3.059,1.179-3.42-1.879-17.308-26.909-20.386-30.877a38.179,38.179,0,0,0-6.608-6.964c.126.157.25.317.374.484a59.977,59.977,0,0,1,5.635,10.145c4.012,8.611,8.283,16.8,12.375,25.276.127.266.045.7-.157.705a20.126,20.126,0,0,0-4.362.636c2.294,2.069,4.467,4.553,6.706,6.82.21.216.092.692-.1.738,0,.04-.009.077-.011.117a4.4,4.4,0,0,1,1.444,1.2.653.653,0,0,1,.048.645c-2.516,4.554-.213,13.132-3.567,16.717-2.609,2.788-5.8,2.393-8.669,3.669,2.184,1.833,4.866,2.007,7.194,2.255,2.518.263,5.041.263,7.557.509C813.094,6572.955,813.2,6573.493,812.992,6573.7Z" fill="#078036"/>
            <path id="Trazado_1793" data-name="Trazado 1793" d="M847.015,6569.522c-2.294-6.025-4.684-11.815-7.323-17.263.349.777.692,1.566,1.023,2.371a.568.568,0,0,1-.134.6c-2.417,1.676-5.144,1.677-7.723,1.664,2.568,2.691,5.634,4.263,7.186,9.247a.565.565,0,0,1-.133.6c-.7.4-1.333,1.043-2.023,1.409a25.532,25.532,0,0,1,3.6,4.943,77.325,77.325,0,0,1,3.819,7.1,78.284,78.284,0,0,0,4.2,7.939,48.567,48.567,0,0,0,3.65,4.737c.69.836,1.435,1.725,2.2,2.668h.414C853.111,6586.592,850.2,6577.888,847.015,6569.522Z" fill="#078036"/>
            <path id="Trazado_1794" data-name="Trazado 1794" d="M704.758,6535.54c.3-1.168.682-2.255,1.064-3.343a1.7,1.7,0,0,0-.357.122,13.062,13.062,0,0,0-3.06,2.045,49.407,49.407,0,0,0-8.667,12.337c-1.437,2.793-2.71,5.664-3.995,8.53q-2.309,5.158-4.761,10.245c-3.283,6.8-6.868,13.43-10.264,20.164-1.623,3.219-3.161,6.477-4.852,9.657-.045.083-.089.169-.134.255h19.052c.254-.444.5-.893.741-1.367a87.4,87.4,0,0,0,4.41-11.415c1.257-3.753,2.495-7.565,4-11,.4-.9.8-1.795,1.23-2.64.583-1.131-.158-1.54-.722-2.071-.954-.9-1.971-1.548-2.938-2.407a.622.622,0,0,1-.08-.561,18.8,18.8,0,0,1,1.759-3.558c1.056-1.828,2.156-3.577,3.28-5.259.574-.858,1.152-1.71,1.739-2.535a10.057,10.057,0,0,1-3.376-1.341c-.184-.132-.238-.708,0-.793,2.322-.829,4.49-2.821,6.81-3.593-.044-.259-.093-.525-.147-.787a15.27,15.27,0,0,0-4.73-4.424c-.154-.074-.226-.482-.1-.686A62.274,62.274,0,0,1,704.758,6535.54Z" fill="#6ab137"/>
            <path id="Trazado_1795" data-name="Trazado 1795" d="M787.116,6584.262c-.145-.337-.284-.682-.432-1.018a37.925,37.925,0,0,0-3.121-6.255c-.147-.207-.147-.639.054-.751,1.3-.726,2.6-1.775,3.956-1.824,0-.09,0-.175.006-.266-4.381-6.358-7.238-18.268-13.49-18.076-.219.006-.306-.568-.11-.767.717-.729,1.348-1.7,2.025-2.544-3.091-.062-6.179-.374-9.269-.39-.228,0-.3-.55-.113-.766,4.1-4.809,7.995-10.3,12.411-14.128a2.083,2.083,0,0,0-.766-.745c-.189-.084-.217-.585-.054-.754a32.486,32.486,0,0,1,4.551-3.86c-.063-.259-.127-.513-.2-.768-1.669-3.756-3.648-7.715-4.372-12.386a20.614,20.614,0,0,1-.083-5.744c.374-4.424,1.914-8.544,3.247-12.736-2.775.2-5.4,1.876-7.852,4.784-2.646,3.142-8.493,10.263-14.546,17.163a268.37,268.37,0,0,1-22.409,25.114c3.7,7.6,9.574,9.846,14.242,14.751.2.216.1.736-.112.767-.566.08-2.9,1.31-2.9,2.68,0,.787,1.486,1.693,1.8,1.988.506.472,1.014.948,1.519,1.433,2.279,2.184,4.529,4.469,6.782,6.739a83.686,83.686,0,0,1,6.521,6.611,35.426,35.426,0,0,1,4.341,7.21c.879,1.9,1.717,3.859,2.547,5.828h15.968C787.128,6591.768,787.046,6588.027,787.116,6584.262Z" fill="#6ab137"/>
            <path id="Trazado_1796" data-name="Trazado 1796" d="M830.992,6578.574c-.328-1.032-.642-2.07-.921-3.124-.379-1.425-.77-2.963-1.037-4.552a68.971,68.971,0,0,0-2.229-6.531.647.647,0,0,1,.08-.563c.884-.932,1.762-1.879,2.621-2.887l0-.013c-1.046-.921-2.168-1.51-3.216-2.42a.594.594,0,0,1,.052-.751,10.434,10.434,0,0,0,2.643-2.13,9.661,9.661,0,0,0-6.208-4.206c-.22-.056-.184-.57-.055-.752a52.738,52.738,0,0,0,3.061-5.122,3.59,3.59,0,0,0-.569-.143c-.134-.018-.27-.253-.217-.521.328-1.58.751-3.083,1.123-4.629.38-1.594,1.165-4.263.683-6.02a.63.63,0,0,1,.1-.563q-.06-.869-.141-1.736c-3.358-2.158-7.865,10.861-11.355,8.944a10.916,10.916,0,0,1-2.456-2.631c.405,1.668.842,3.318,1.274,4.964.9,3.436,1.573,6.894,2.314,10.437,1.325,6.325,4.779,10,6.143,16.32a.586.586,0,0,1-.1.465c-2,1.875.621,4.78,1.611,5.995,1.311,1.6,2.533,3.408,3.8,5.128a54.35,54.35,0,0,1,5.454,8.418C832.617,6586.167,831.846,6582.332,830.992,6578.574Z" fill="#6ab137"/>
          </g>
          <g id="Grupo_2444" data-name="Grupo 2444">
            <path id="Trazado_1797" data-name="Trazado 1797" d="M610.564,6548.4a8.372,8.372,0,0,0-1.993,1.295,36.64,36.64,0,0,0-6.493,9.431c-1.038,2.082-1.96,4.221-2.889,6.362q-1.668,3.847-3.442,7.639c-2.375,5.065-4.969,10.01-7.426,15.032-1.173,2.4-2.284,4.831-3.511,7.2-.031.061-.064.124-.1.189h134.57c-1.925-6.679-4.029-13.17-6.334-19.411a140.073,140.073,0,0,0-7.448-17.181,69.875,69.875,0,0,0-4.214-7.148c-.489-.7-.981-1.389-1.466-2.1a12.746,12.746,0,0,0-1.352-1.487c-2.442-2.212-5.8,8-8.384,6.543-2.475-1.4-12.521-20.065-14.747-23.024-2.273-3.021-4.8-5.846-7.573-6.779-2.873-.968-5.55.287-7.986,3.266-4.114,5.033-22.584,27.968-26.885,31.444C628.766,6563.013,614.191,6546.8,610.564,6548.4Z" fill="#00a240"/>
            <path id="Trazado_1798" data-name="Trazado 1798" d="M654.772,6581.5c-3.976-10.894-7.915-21.85-11.609-33.1-4.481,5.29-8.531,9.873-10.268,11.276-3.06,2.473-11.851-5.786-17.68-9.58a44.078,44.078,0,0,0,5.065,5.077,26.976,26.976,0,0,0,7.874,5.126c.15.053.142.425.039.558a8.47,8.47,0,0,1-2.154,1.852c3.827,2.138,7.512,5.076,11.306,7.4a.456.456,0,0,1,.04.559,15.076,15.076,0,0,1-8.223,4.971,40.554,40.554,0,0,1-7.682,1.151c1.267.779,2.637.945,3.809,2.241a.479.479,0,0,1,0,.531c-2.566,2.827-5.7,3.153-8.535,4.436-2.1.95-4.128,2.357-6.205,3.345a39.176,39.176,0,0,0,4.065,6.2q.738,1,1.466,2h43.834Q657.339,6588.531,654.772,6581.5Z" fill="#078036"/>
            <path id="Trazado_1799" data-name="Trazado 1799" d="M688.34,6579.258c-1.762,1.857-3.068,4.805-4.559,7.31a34.931,34.931,0,0,1-5.167,6.26q-1.29,1.365-2.579,2.724h23.434c-2.47-13.833-4.448-28-7.17-41.665-.772.821-1.519,1.275-2.213.882-2.475-1.4-12.521-20.065-14.747-23.024a28.089,28.089,0,0,0-4.78-5.194c.092.118.183.238.271.363a45.2,45.2,0,0,1,4.076,7.564c2.9,6.421,5.992,12.526,8.952,18.849.092.195.032.519-.115.523a14,14,0,0,0-3.155.474c1.66,1.54,3.232,3.4,4.85,5.085.153.162.066.516-.07.551a.819.819,0,0,0-.009.085,3.234,3.234,0,0,1,1.046.9.5.5,0,0,1,.032.481c-1.818,3.4-.153,9.792-2.579,12.467-1.885,2.079-4.195,1.782-6.271,2.735,1.582,1.367,3.521,1.5,5.2,1.68,1.822.2,3.647.2,5.468.379C688.412,6578.7,688.487,6579.1,688.34,6579.258Z" fill="#078036"/>
            <path id="Trazado_1800" data-name="Trazado 1800" d="M712.95,6576.141c-1.659-4.491-3.389-8.808-5.3-12.871q.379.867.74,1.77a.434.434,0,0,1-.1.45c-1.747,1.251-3.72,1.251-5.585,1.241,1.858,2,4.075,3.176,5.2,6.894a.431.431,0,0,1-.1.45c-.508.3-.965.78-1.466,1.052a18.835,18.835,0,0,1,2.609,3.685,58.881,58.881,0,0,1,2.762,5.3,58.577,58.577,0,0,0,3.033,5.921,36.64,36.64,0,0,0,2.64,3.532c.5.622,1.04,1.284,1.593,1.989h.3C717.359,6588.873,715.255,6582.382,712.95,6576.141Z" fill="#078036"/>
            <path id="Trazado_1801" data-name="Trazado 1801" d="M610.051,6550.8c.213-.87.494-1.682.769-2.491a1.28,1.28,0,0,0-.256.089,9.441,9.441,0,0,0-2.215,1.526,36.822,36.822,0,0,0-6.271,9.2c-1.038,2.082-1.96,4.221-2.889,6.362q-1.668,3.847-3.442,7.639c-2.375,5.065-4.969,10.01-7.426,15.032-1.173,2.4-2.284,4.831-3.511,7.2-.031.061-.064.124-.1.189h13.781c.185-.33.365-.669.536-1.021a66.673,66.673,0,0,0,3.191-8.509c.909-2.8,1.8-5.642,2.894-8.2.287-.673.578-1.339.892-1.967.42-.845-.116-1.149-.523-1.547-.69-.671-1.425-1.155-2.127-1.793a.5.5,0,0,1-.058-.419,14.23,14.23,0,0,1,1.273-2.654q1.146-2.044,2.372-3.92c.416-.64.835-1.276,1.26-1.893a7.079,7.079,0,0,1-2.442-1c-.134-.1-.171-.527,0-.59,1.679-.617,3.247-2.1,4.926-2.679-.033-.193-.069-.391-.106-.587a11.169,11.169,0,0,0-3.422-3.3c-.112-.053-.163-.359-.072-.51A45.964,45.964,0,0,1,610.051,6550.8Z" fill="#6ab137"/>
            <path id="Trazado_1802" data-name="Trazado 1802" d="M669.622,6587.133c-.1-.252-.205-.507-.31-.758a28.893,28.893,0,0,0-2.257-4.665c-.11-.157-.11-.477.036-.559.944-.541,1.882-1.323,2.862-1.36,0-.066,0-.132,0-.2-3.167-4.743-5.235-13.623-9.756-13.48-.161.006-.223-.423-.083-.57.522-.545.977-1.268,1.467-1.9-2.236-.045-4.469-.278-6.705-.289-.164,0-.215-.412-.081-.572,2.966-3.585,5.784-7.681,8.978-10.532a1.531,1.531,0,0,0-.556-.56c-.136-.061-.158-.432-.038-.56a23.524,23.524,0,0,1,3.294-2.879c-.047-.191-.095-.38-.145-.572a36.669,36.669,0,0,1-3.161-9.236,15.875,15.875,0,0,1-.061-4.283,44.733,44.733,0,0,1,2.35-9.5c-2.008.15-3.908,1.4-5.68,3.566-1.913,2.344-6.144,7.652-10.521,12.8a198.052,198.052,0,0,1-16.21,18.725c2.677,5.666,6.925,7.343,10.3,11,.148.158.071.547-.081.57-.412.061-2.1.978-2.1,2,0,.586,1.074,1.26,1.3,1.48.367.353.734.706,1.1,1.066,1.646,1.633,3.275,3.332,4.907,5.027a62.575,62.575,0,0,1,4.717,4.929,26.631,26.631,0,0,1,3.138,5.377c.637,1.416,1.243,2.878,1.843,4.346h11.551C669.632,6592.731,669.572,6589.94,669.622,6587.133Z" fill="#6ab137"/>
            <path id="Trazado_1803" data-name="Trazado 1803" d="M701.359,6582.892c-.236-.77-.463-1.545-.664-2.329-.275-1.063-.558-2.209-.75-3.393-.476-1.683-1-3.316-1.613-4.871a.483.483,0,0,1,.058-.419c.638-.7,1.274-1.4,1.895-2.154l0-.009c-.757-.685-1.568-1.126-2.327-1.8a.458.458,0,0,1,.037-.562,7.555,7.555,0,0,0,1.913-1.589,7,7,0,0,0-4.491-3.136c-.158-.042-.133-.422-.04-.559a39.123,39.123,0,0,0,2.215-3.819,2.541,2.541,0,0,0-.413-.107c-.1-.014-.2-.187-.155-.387.236-1.18.542-2.3.81-3.453.276-1.189.843-3.179.5-4.489a.483.483,0,0,1,.069-.42c-.029-.43-.063-.863-.1-1.3-2.427-1.607-5.688,8.1-8.212,6.673a8,8,0,0,1-1.777-1.962c.292,1.243.609,2.472.923,3.7.653,2.559,1.135,5.138,1.672,7.78.957,4.716,3.456,7.46,4.444,12.17a.451.451,0,0,1-.074.345c-1.45,1.4.449,3.567,1.166,4.469.947,1.2,1.832,2.544,2.748,3.825a40.705,40.705,0,0,1,3.946,6.277C702.535,6588.553,701.977,6585.695,701.359,6582.892Z" fill="#6ab137"/>
          </g>
        </g>
      </g>
      <path id="Trazado_1804" data-name="Trazado 1804" d="M886.421,6617.066l-332.566.166c-2.76,1.774-4.756,3.251-7.807,5.347-.882.609-1.808,1.249-2.7,1.859a25.076,25.076,0,0,1,9.117-2.186c1.81.011,5.136.121,5.244,2.16.1,1.849-1.547,3.555-2.337,5.207-.415.866-.99,2.1-.255,2.963,1.008,1.178,3.4,1.47,5.012,1.515,3.4.091,6.912-1.138,10.021-2.129,4.254-1.356,8.431-2.868,12.706-4.179,4.928-1.513,14.531-4.914,18.863-.706a4.611,4.611,0,0,1,1.438,3.55c-.212,1.829-1.711,3.579-1.694,5.393.047,5.165,9.867,2.439,13.023,1.525,4.669-1.352,9.139-3.075,13.633-4.764a114.381,114.381,0,0,1,17.521-4.767,121.475,121.475,0,0,1,42.212-1.233c16.083,2.428,31.492,8.93,48.153,5.865,13.359-2.457,26.441-8.24,40.455-7.411,11.955.707,23.251,4.343,34.887,6.4,5.848,1.033,11.948,1.834,17.945,1.282.153-.015.294-.041.444-.057a38.858,38.858,0,0,0,14.139-6.089c3.024-2.06,6.635-4.187,10.82-3.6a26.792,26.792,0,0,1,7.2,2.427,45.665,45.665,0,0,1,4.382,1.686c.206.058.408.116.614.167,2.29.572,5.663.952,7.077-1.08a6.419,6.419,0,0,0,.484-.826,2.852,2.852,0,0,1,.665-1.572c.154-.4.312-.8.5-1.189,1.079-2.242,3.018-3.456,6.069-3.319,5.555.246,9.63,3.62,14.559,5.548,1.146.445,2.293.872,3.442,1.3Z" fill="#0d76b7" opacity="0.3"/>
      <path id="Trazado_1805" data-name="Trazado 1805" d="M553.584,6618.175c2.461.175,5.214.8,6.839,2.44,1.111,1.124,2.03,2.372,3.94,2.68a16.273,16.273,0,0,0,5.719-.242c6.891-1.353,13.626-3.035,20.716-3.636a54.846,54.846,0,0,1,11.22.037c3.766.46,7.319,1.488,11.009,2.21a64.074,64.074,0,0,0,22.468.67c7.678-1.214,15.187-2.97,22.978-3.744,16.059-1.593,31.484,3.311,47.069,5.589,8.24,1.206,16.845,2.065,25.219,1.322,7.909-.7,15.313-3.029,22.882-4.869,6.908-1.677,13.952-2.874,21.193-2.345a134.011,134.011,0,0,1,19.763,3.427c6.921,1.558,14.023,3.142,21.263,3.133a34.476,34.476,0,0,0,11.265-1.834c3.026-1.026,5.978-2.273,9.108-3.077,6.47-1.662,12.753-1.263,19.225.129,3.5.756,7.217,1.956,10.9,1.733a25.974,25.974,0,0,0,8.633-2.394,44.319,44.319,0,0,1,6.918-2.266H553.921l-1.733.994C552.651,6618.131,553.118,6618.142,553.584,6618.175Z" fill="#0d76b7" opacity="0.3"/>
    </g>
    <g id="Grupo_2474" data-name="Grupo 2474">
      <path id="Trazado_1806" data-name="Trazado 1806" d="M767.673,6617.761l-5.64-60.4-85.809.209-4.775,60.187Z" fill="#00b8ea"/>
      <path id="Trazado_1807" data-name="Trazado 1807" d="M675.112,6588.65c.658-.42,1.273-.695,1.526.2.229.808,1.026,1.583,1.863.986a4.7,4.7,0,0,0,1.315-1.862c.41-.846.758-1.717,1.143-2.572.53-1.175,1.274-3.054,2.746-3.274,2.769-.416,3.035,3.872,4.07,5.522a1.591,1.591,0,0,0,1.309.9,3.575,3.575,0,0,0,2.158-1.125c1.473-1.406,2.34-3.495,4.121-4.578a3.049,3.049,0,0,1,2.579-.359,3.793,3.793,0,0,1,1.791,1.6c.514.728,1.1,1.8,2.043,2.021a3.146,3.146,0,0,0,2.9-1.344c1.378-1.622,2.325-4.166,4.561-4.809,2.285-.656,3.056,2.161,3.713,3.772a10.344,10.344,0,0,0,1.557,3.092,2.067,2.067,0,0,0,3.039-.018c1.648-1.394,2.348-3.638,3.968-5.067.449-.4,1.182-.894,1.777-.474.645.457.817,1.356,1.1,2.043.405.976,1.2,1.89,2.373,1.512a4.271,4.271,0,0,0,1.98-1.849c.749-1.09,1.827-3.14,3.45-2.882a3.083,3.083,0,0,1,1.75,1.223,16.831,16.831,0,0,1,1.7,2.608c.537.97,1.035,1.964,1.568,2.937a7.751,7.751,0,0,0,1.561,2.172c1.309,1.171,3,2.055,4.71,1.177a13.584,13.584,0,0,0,3.55-3.257,11.994,11.994,0,0,1,3.8-3.194,4.323,4.323,0,0,1,4.725.55c1.437,1.326,1.915,3.327,3.221,4.747.78.849,2.179,1.676,3.231.778a11.814,11.814,0,0,0,2.456-2.984c.093-.154.184-.311.275-.468l-1.222-13.082c-.069.01-.138.021-.208.037-1.779.4-3.022,2.141-4.08,3.5-1,1.282-2.076,3-3.633,3.668-1.765.763-3.264-.585-4.113-2.054a13.27,13.27,0,0,1-1.339-3.016,11.132,11.132,0,0,0-1.125-3.065.892.892,0,0,0-1.452-.232c-.25.207-.564.5-.917.481-1.126-.075-1.026-1.068-1.437-1.856a1.92,1.92,0,0,0-2.664-.747,8.519,8.519,0,0,0-2.106,2.086c-1.021,1.261-2.163,2.86-4.01,2.593-1.75-.255-3.067-1.822-4.212-3.031-1.263-1.337-2.812-3.19-4.8-3.3a6.359,6.359,0,0,0-4.195,1.759,13.967,13.967,0,0,0-2.749,2.955c-1.062,1.561-2.415,4.345-4.66,4.288-1.566-.041-2.056-1.776-2.415-3.017-.415-1.427-1.322-4.766-3.5-3.256a12.247,12.247,0,0,0-2.333,2.678c-.716.9-1.467,2.152-2.589,2.585s-1.97-.416-2.56-1.3a9.8,9.8,0,0,0-.915-1.564c-.438-.436-1.226.082-1.577.433-1.327,1.319-1.551,3.427-2.741,4.862a1.928,1.928,0,0,1-1.745.848,2.388,2.388,0,0,1-1.785-1.52,12.731,12.731,0,0,1-.834-2.917,14.1,14.1,0,0,0-1.077-3.321c-.446-.942-1.2-2.214-2.443-1.958-1.445.3-2.243,1.669-3.543,2.242a1.422,1.422,0,0,1-1.782-.3,19.548,19.548,0,0,1-1.747-2.773c-.753.409-1.115,1.391-1.569,2.071-.318.478-.754,1.076-1.407.986-1.568-.213-1.049-2.9-2.638-2.95a1.7,1.7,0,0,0-1.388.9l-1.663,20.968A4.531,4.531,0,0,1,675.112,6588.65Z" fill="#fff" opacity="0.4"/>
      <path id="Trazado_1808" data-name="Trazado 1808" d="M678.06,6560.479c1.209.483,1.439,2.025,1.859,3.1.239.611.616,1.39,1.4,1.306,1.271-.138,1.8-1.186,2.253-2.235.4-.919.833-1.858,1.92-2.058a.7.7,0,0,1,.773.237,2.425,2.425,0,0,0,1.379,1.114c1.888.441,2.985-2.2,4.893-1.414,1.085.445,1.505,2.124,1.824,3.114a24.487,24.487,0,0,0,1.693,4.732,2.164,2.164,0,0,0,1.313,1.2,2.2,2.2,0,0,0,1.875-.871c1.194-1.452,1.292-3.6,1.924-5.309a3.462,3.462,0,0,1,1.091-1.728,1.684,1.684,0,0,1,1.8-.042,1.911,1.911,0,0,1,.477.6c.232.37,1.055-.464,1.223-.637.454-.468,1.037-1.68,1.856-1.274a4.863,4.863,0,0,1,2.045,2.3c.54,1.023,1.17,2.017,2.461,2.044a3.273,3.273,0,0,0,2.852-1.649,4.3,4.3,0,0,1,1.989-1.791,2.138,2.138,0,0,1,2.139.747,2.886,2.886,0,0,0,1.312.851,1.922,1.922,0,0,0,1.74-.574c.695-.681,1.259-1.705,2.3-1.848a2.024,2.024,0,0,1,2.014,1.183c.548.979.812,2.085,1.341,3.074a8.467,8.467,0,0,0,1.66,2.383c.976.874,1.868.4,2.564-.538.8-1.084,1.361-2.324,2.088-3.457.576-.9,1.356-2.029,2.488-2.241a2,2,0,0,1,1.711.434c.416.386.692.92,1.14,1.27a1.361,1.361,0,0,0,1.806-.081c.7-.609,1.086-1.55,1.868-2.061a1.7,1.7,0,0,1,2.129.158c.681.617,1.216,1.765,2.274,1.744,1.022-.02,1.547-.981,2.215-1.6,1.68-1.558,3.184,1.106,3.642,2.5a65.93,65.93,0,0,1,1.495,6.446,11.363,11.363,0,0,0,1.094,3.266c.335.58.9,1.361,1.664,1.327,1.064-.053,1.907-1.279,2.453-2.06a47.031,47.031,0,0,0,2.85-4.9l-.923-9.879-85.809.209-.355,4.464C676.3,6561.205,677.048,6560.074,678.06,6560.479Z" fill="#0d76b7" opacity="0.3"/>
      <path id="Trazado_1809" data-name="Trazado 1809" d="M767.673,6617.761l-2.222-23.784a12.058,12.058,0,0,0-1.407,2.392c-.844,1.788-1.459,3.672-2.144,5.524a11.53,11.53,0,0,1-1.944,3.892.116.116,0,0,1-.14.018c-1.9-.856-2.45-2.954-3.16-4.724-.312-.78-.735-2.6-1.67-2.855-1.737-.468-2.235,2.823-3,3.729a.115.115,0,0,1-.163,0c-1.559-1.8-3.243-9.851-6.451-5.334-.973,1.37-1.35,3.142-2.071,4.647-.566,1.18-1.473,2.843-3.027,2.64a3.668,3.668,0,0,1-2.138-1.35,8.339,8.339,0,0,1-1.412-2.991c-.582-2.017-1.008-4.207-2.209-5.967-2.06-3.017-3.63-.147-4.66,2.224-.665,1.531-1.218,3.107-1.808,4.667a17.208,17.208,0,0,1-1.585,3.527,1.629,1.629,0,0,1-2.078.761c-1.126-.581-1.628-2.14-2-3.253a68.421,68.421,0,0,1-1.847-6.915c-.2-.9-.268-2.959-1.654-2.6-1.664.433-1.481,3.868-1.655,5.085a6.541,6.541,0,0,1-.886,2.861c-.356.506-1.133,1.348-1.85,1.18-.631-.149-.873-.923-1.046-1.466a12.29,12.29,0,0,0-.986-2.706c-2.331,1.118-2.117,5.051-4.828,5.633a.118.118,0,0,1-.129-.052,14.184,14.184,0,0,1-1.3-4.4,6.868,6.868,0,0,0-.789-2.189,2.417,2.417,0,0,0-.736-.773c-.193-.118-.3.075-.435.249a11.178,11.178,0,0,0-1.563,3.345c-.415,1.191-.786,2.4-1.3,3.556-.441.974-1.276,2.623-2.625,2.183a1.634,1.634,0,0,1-.765-.543,5.014,5.014,0,0,1-1.154-2.068c-.3-1.012-.477-2.061-.709-3.088a18.629,18.629,0,0,0-1.423-4.639c-.15-.282-.522-.985-.949-.745a3.089,3.089,0,0,0-1.025,1.877c-.092.523-.178,1.048-.283,1.57-.007.033-.013.067-.019.1-.233,2-.139,4.072-.915,5.942a6.448,6.448,0,0,1-.425.843,3.088,3.088,0,0,1-.9,1.374,1.93,1.93,0,0,1-1.82.417,1.265,1.265,0,0,1-.33-.2,2.857,2.857,0,0,1-.953-.994c-.354-.584-.612-1.213-.922-1.818-.2-.384-.312-.515-.672-.206a5.729,5.729,0,0,1-2.394,1.629c-1.6.3-2.178-2.072-2.422-3.181-.195-.884-.318-1.778-.449-2.673a11.172,11.172,0,0,0-.427-2.642c-.221-.532-.794-.955-1.363-.576l-.006,0q-.075.272-.152.541c-.352,1.231-.7,2.466-1.13,3.671a10.877,10.877,0,0,1-1.194,2.608c-.5.722-1.3,1.2-1.99.4a4.312,4.312,0,0,1-.825-1.959c-.083-.4-.144-.8-.2-1.207l-1.491,18.808Z" fill="#0d76b7" opacity="0.3"/>
      <rect id="Rectángulo_949" data-name="Rectángulo 949" width="84.727" height="1.916" transform="translate(677.215 6555.658)" fill="#21220b"/>
      <g id="Grupo_2454" data-name="Grupo 2454">
        <g id="Grupo_2453" data-name="Grupo 2453">
          <g id="Grupo_2448" data-name="Grupo 2448">
            <rect id="Rectángulo_950" data-name="Rectángulo 950" width="5.921" height="3.738" transform="translate(686.903 6553.835)" fill="#919390"/>
            <rect id="Rectángulo_951" data-name="Rectángulo 951" width="3.067" height="1.467" transform="translate(688.331 6579.692)" fill="#484a48"/>
          </g>
          <g id="Grupo_2449" data-name="Grupo 2449">
            <rect id="Rectángulo_952" data-name="Rectángulo 952" width="5.922" height="3.738" transform="translate(701.831 6553.835)" fill="#919390"/>
            <rect id="Rectángulo_953" data-name="Rectángulo 953" width="3.066" height="1.467" transform="translate(703.26 6579.692)" fill="#484a48"/>
          </g>
          <g id="Grupo_2450" data-name="Grupo 2450">
            <rect id="Rectángulo_954" data-name="Rectángulo 954" width="5.92" height="3.738" transform="translate(716.761 6553.835)" fill="#919390"/>
            <rect id="Rectángulo_955" data-name="Rectángulo 955" width="3.066" height="1.467" transform="translate(718.188 6579.692)" fill="#484a48"/>
          </g>
          <g id="Grupo_2451" data-name="Grupo 2451">
            <rect id="Rectángulo_956" data-name="Rectángulo 956" width="5.92" height="3.738" transform="translate(731.69 6553.835)" fill="#919390"/>
            <rect id="Rectángulo_957" data-name="Rectángulo 957" width="3.066" height="1.467" transform="translate(733.117 6579.692)" fill="#484a48"/>
          </g>
          <g id="Grupo_2452" data-name="Grupo 2452">
            <rect id="Rectángulo_958" data-name="Rectángulo 958" width="5.92" height="3.738" transform="translate(746.618 6553.835)" fill="#919390"/>
            <rect id="Rectángulo_959" data-name="Rectángulo 959" width="3.066" height="30.199" transform="translate(748.046 6550.959)" fill="#606260"/>
            <rect id="Rectángulo_960" data-name="Rectángulo 960" width="3.067" height="30.199" transform="translate(688.331 6550.959)" fill="#606260"/>
            <rect id="Rectángulo_961" data-name="Rectángulo 961" width="3.066" height="30.199" transform="translate(703.26 6550.959)" fill="#606260"/>
            <rect id="Rectángulo_962" data-name="Rectángulo 962" width="3.066" height="30.199" transform="translate(718.188 6550.959)" fill="#606260"/>
            <rect id="Rectángulo_963" data-name="Rectángulo 963" width="3.066" height="30.199" transform="translate(733.117 6550.959)" fill="#606260"/>
            <rect id="Rectángulo_964" data-name="Rectángulo 964" width="3.066" height="30.199" transform="translate(748.046 6550.959)" fill="#606260"/>
            <rect id="Rectángulo_965" data-name="Rectángulo 965" width="3.067" height="1.467" transform="translate(688.331 6579.692)" fill="#484a48"/>
            <rect id="Rectángulo_966" data-name="Rectángulo 966" width="3.066" height="1.467" transform="translate(703.26 6579.692)" fill="#484a48"/>
            <rect id="Rectángulo_967" data-name="Rectángulo 967" width="3.066" height="1.467" transform="translate(718.188 6579.692)" fill="#484a48"/>
            <rect id="Rectángulo_968" data-name="Rectángulo 968" width="3.066" height="1.467" transform="translate(733.117 6579.692)" fill="#484a48"/>
            <rect id="Rectángulo_969" data-name="Rectángulo 969" width="3.067" height="1.467" transform="translate(688.331 6579.692)" fill="#484a48"/>
            <rect id="Rectángulo_970" data-name="Rectángulo 970" width="3.066" height="1.467" transform="translate(703.26 6579.692)" fill="#484a48"/>
            <rect id="Rectángulo_971" data-name="Rectángulo 971" width="3.066" height="1.467" transform="translate(718.188 6579.692)" fill="#484a48"/>
            <rect id="Rectángulo_972" data-name="Rectángulo 972" width="3.066" height="1.467" transform="translate(733.117 6579.692)" fill="#484a48"/>
            <rect id="Rectángulo_973" data-name="Rectángulo 973" width="3.066" height="1.467" transform="translate(748.046 6579.692)" fill="#484a48"/>
          </g>
        </g>
        <rect id="Rectángulo_974" data-name="Rectángulo 974" width="87.482" height="1.664" transform="translate(675.981 6550.128)" fill="#4e504e"/>
      </g>
      <path id="Trazado_1810" data-name="Trazado 1810" d="M764.216,6615.476a3,3,0,0,0-.658-2.342,1.752,1.752,0,0,0-.245-.207.3.3,0,0,0-.143-.083.855.855,0,0,0-.172-.065,1.717,1.717,0,0,0,.023-.928c-.015-.049-.03-.1-.046-.142a.337.337,0,0,0-.01-.19.162.162,0,0,0-.1-.1h-.012a1.322,1.322,0,0,0-1.012-.75,1.214,1.214,0,0,0-.487.047.294.294,0,0,0-.193-.089h-.007a1.685,1.685,0,0,0-.554-.691.931.931,0,0,0-1.332.176,2.773,2.773,0,0,0-1.376-1.7,1.921,1.921,0,0,0-2.287.863,2.715,2.715,0,0,0-.352,1.33,2.223,2.223,0,0,0-1.407-.218,2.712,2.712,0,0,0-1.257.6,2.5,2.5,0,0,0-1.464-.912,1.481,1.481,0,0,0-1,.14,2.668,2.668,0,0,0-1.768-1.4,1.675,1.675,0,0,0-1.707.775,1.417,1.417,0,0,0-.7-1.158,1.475,1.475,0,0,0-1.553.057,2.484,2.484,0,0,0-.05-.931,1.926,1.926,0,0,0-2.029-1.173,2.162,2.162,0,0,0-1.664,2.724c.011.058.025.115.041.17a2.7,2.7,0,0,0-.934.476c-.065-1.106-.626-2.322-1.58-2.4-1.275-.1-1.968,1.034-2.067,2.5-.007.086-.009.174-.009.264a1.553,1.553,0,0,0-1.544-.86,3.133,3.133,0,0,0-1.218.6,1.965,1.965,0,0,0-1.325-1.341,1.086,1.086,0,0,0-.407.028,3.184,3.184,0,0,0-2.2-2.26,2.524,2.524,0,0,0-1.7.17c-.033.014-.078.036-.129.063a1.883,1.883,0,0,0-.227-.156,2.336,2.336,0,0,0-1.223-.345,2.974,2.974,0,0,0-.822-.353,2.578,2.578,0,0,0-1.96.452c-.036.01-.074.023-.109.035a2.978,2.978,0,0,0-2.513.054,3.845,3.845,0,0,0-2.048,2.049c-.036.085-.076.19-.116.3a1.038,1.038,0,0,0-.443-.039,1.8,1.8,0,0,0-1.194,1.041,2.849,2.849,0,0,0-2.314-.535,2.654,2.654,0,0,0-.648.32c-.214-1.21-.885-2.081-2.006-1.99-.855.068-1.392,1.052-1.542,2.051a1.9,1.9,0,0,0-.94-.266c0-.012.007-.02.009-.032a2.163,2.163,0,0,0-1.666-2.724,1.925,1.925,0,0,0-2.028,1.173,2.464,2.464,0,0,0-.05.931,1.472,1.472,0,0,0-1.551-.057,1.411,1.411,0,0,0-.7,1.158,1.963,1.963,0,0,0-.975-.744,2.556,2.556,0,0,0-1.959-.3,4.378,4.378,0,0,0-2,1.42,2.489,2.489,0,0,0-2.428-.222,3.869,3.869,0,0,0-1.24.824,2.724,2.724,0,0,0-.355-1.294,1.92,1.92,0,0,0-2.286-.863,2.785,2.785,0,0,0-1.377,1.7.93.93,0,0,0-1.332-.176,1.676,1.676,0,0,0-.551.692h-.008a.293.293,0,0,0-.2.089,1.211,1.211,0,0,0-.487-.047,1.323,1.323,0,0,0-1.012.75h-.011a.165.165,0,0,0-.1.1.328.328,0,0,0-.01.19c-.016.046-.032.093-.044.142a1.709,1.709,0,0,0,.02.928.9.9,0,0,0-.171.065.3.3,0,0,0-.144.083,1.755,1.755,0,0,0-.244.207,3,3,0,0,0-.659,2.342Z" fill="#bce4fa"/>
      <g id="Grupo_2455" data-name="Grupo 2455">
        <path id="Trazado_1811" data-name="Trazado 1811" d="M679.252,6560.413s-2.016,37.126-1.95,37.24S679.434,6571.681,679.252,6560.413Z" fill="#dff2fd"/>
        <path id="Trazado_1812" data-name="Trazado 1812" d="M681.459,6558.211s-1.019,34.22-.952,34.326S681.94,6568.574,681.459,6558.211Z" fill="#dff2fd"/>
        <path id="Trazado_1813" data-name="Trazado 1813" d="M683.246,6566.3s-.722,25.824-.641,25.894S683.723,6574.536,683.246,6566.3Z" fill="#dff2fd"/>
        <path id="Trazado_1814" data-name="Trazado 1814" d="M685.514,6564.353s-.981,29.825-.9,29.914S686.129,6573.368,685.514,6564.353Z" fill="#dff2fd"/>
      </g>
      <g id="Grupo_2456" data-name="Grupo 2456">
        <path id="Trazado_1815" data-name="Trazado 1815" d="M694.7,6562.813s-.483,37.177-.413,37.288S695.342,6574.064,694.7,6562.813Z" fill="#dff2fd"/>
        <path id="Trazado_1816" data-name="Trazado 1816" d="M696.811,6560.52s.392,34.237.466,34.337S697.717,6570.855,696.811,6560.52Z" fill="#dff2fd"/>
        <path id="Trazado_1817" data-name="Trazado 1817" d="M698.929,6568.532s.346,25.831.428,25.9S699.747,6576.741,698.929,6568.532Z" fill="#dff2fd"/>
        <path id="Trazado_1818" data-name="Trazado 1818" d="M701.115,6566.492s.251,29.838.334,29.925S702.1,6575.472,701.115,6566.492Z" fill="#dff2fd"/>
      </g>
      <g id="Grupo_2457" data-name="Grupo 2457">
        <path id="Trazado_1819" data-name="Trazado 1819" d="M708.908,6566.2s-.483,24.408-.411,24.481S709.554,6573.587,708.908,6566.2Z" fill="#dff2fd"/>
        <path id="Trazado_1820" data-name="Trazado 1820" d="M711.023,6564.7s.394,22.476.466,22.543S711.93,6571.481,711.023,6564.7Z" fill="#dff2fd"/>
        <path id="Trazado_1821" data-name="Trazado 1821" d="M713.142,6569.954s.345,16.96.427,17S713.959,6575.344,713.142,6569.954Z" fill="#dff2fd"/>
        <path id="Trazado_1822" data-name="Trazado 1822" d="M715.329,6568.616s.249,19.59.332,19.647S716.316,6574.511,715.329,6568.616Z" fill="#dff2fd"/>
      </g>
      <g id="Grupo_2458" data-name="Grupo 2458">
        <path id="Trazado_1823" data-name="Trazado 1823" d="M723.45,6566.515s-.138,31.148-.054,31.242S724.32,6575.928,723.45,6566.515Z" fill="#dff2fd"/>
        <path id="Trazado_1824" data-name="Trazado 1824" d="M725.855,6564.559s.838,28.67.921,28.753S727.014,6573.2,725.855,6564.559Z" fill="#dff2fd"/>
        <path id="Trazado_1825" data-name="Trazado 1825" d="M728.381,6571.232s.687,21.632.784,21.685S729.412,6578.094,728.381,6571.232Z" fill="#dff2fd"/>
        <path id="Trazado_1826" data-name="Trazado 1826" d="M730.872,6569.486s.623,24.989.72,25.06S732.106,6576.992,730.872,6569.486Z" fill="#dff2fd"/>
      </g>
      <g id="Grupo_2459" data-name="Grupo 2459">
        <path id="Trazado_1827" data-name="Trazado 1827" d="M739.091,6571.743s-.478,29.237-.408,29.325S739.732,6580.59,739.091,6571.743Z" fill="#dff2fd"/>
        <path id="Trazado_1828" data-name="Trazado 1828" d="M741.186,6569.94s.389,26.924.462,27S742.086,6578.069,741.186,6569.94Z" fill="#dff2fd"/>
        <path id="Trazado_1829" data-name="Trazado 1829" d="M743.287,6576.24s.34,20.316.423,20.368S744.095,6582.695,743.287,6576.24Z" fill="#dff2fd"/>
        <path id="Trazado_1830" data-name="Trazado 1830" d="M745.453,6574.636s.248,23.466.33,23.534S746.43,6581.7,745.453,6574.636Z" fill="#dff2fd"/>
      </g>
      <g id="Grupo_2460" data-name="Grupo 2460">
        <path id="Trazado_1831" data-name="Trazado 1831" d="M752.808,6562.606s-.116,22.445-.037,22.511S753.657,6569.382,752.808,6562.606Z" fill="#dff2fd"/>
        <path id="Trazado_1832" data-name="Trazado 1832" d="M755.14,6561.177s.826,20.653.908,20.712S756.268,6567.4,755.14,6561.177Z" fill="#dff2fd"/>
        <path id="Trazado_1833" data-name="Trazado 1833" d="M757.593,6565.968s.676,15.582.77,15.621S758.595,6570.9,757.593,6565.968Z" fill="#dff2fd"/>
        <path id="Trazado_1834" data-name="Trazado 1834" d="M760.007,6564.691s.617,18,.71,18.052S761.208,6570.09,760.007,6564.691Z" fill="#dff2fd"/>
      </g>
      <path id="Trazado_1835" data-name="Trazado 1835" d="M674.631,6616.165c-.881-.689-.126-3.423.39-3.946a1.6,1.6,0,0,1,.232-.2.3.3,0,0,1,.137-.079.777.777,0,0,1,.164-.061,1.615,1.615,0,0,1-.023-.881c.014-.047.03-.091.045-.134a.307.307,0,0,1,.008-.181.159.159,0,0,1,.092-.1.038.038,0,0,1,.011,0,1.253,1.253,0,0,1,.961-.71,1.1,1.1,0,0,1,.462.043.282.282,0,0,1,.184-.085h.009a1.6,1.6,0,0,1,.523-.656.882.882,0,0,1,1.264.168,2.645,2.645,0,0,1,1.307-1.615,1.827,1.827,0,0,1,2.173.818,2.623,2.623,0,0,1,.334,1.266,2.1,2.1,0,0,1,1.334-.209,2.574,2.574,0,0,1,1.194.571,2.4,2.4,0,0,1,1.389-.865,1.41,1.41,0,0,1,.953.135,2.545,2.545,0,0,1,1.679-1.335,1.6,1.6,0,0,1,1.621.738,1.339,1.339,0,0,1,.662-1.1,1.4,1.4,0,0,1,1.474.055,2.408,2.408,0,0,1,.047-.885,1.831,1.831,0,0,1,1.927-1.113,2.054,2.054,0,0,1,1.58,2.588c-.011.054-.024.106-.039.161a2.573,2.573,0,0,1,.888.451c.061-1.051.6-2.206,1.5-2.278,1.209-.1,1.868.982,1.962,2.373.006.08.008.163.009.25a1.469,1.469,0,0,1,1.465-.816,2.979,2.979,0,0,1,1.157.573,1.865,1.865,0,0,1,1.259-1.274,1.019,1.019,0,0,1,.386.026,3.021,3.021,0,0,1,2.088-2.144,2.414,2.414,0,0,1,1.62.16c.031.014.075.035.121.06a2.2,2.2,0,0,1,.216-.149,2.25,2.25,0,0,1,1.161-.327,2.758,2.758,0,0,1,.781-.333,2.43,2.43,0,0,1,1.86.428c.035.01.07.02.1.033a2.836,2.836,0,0,1,2.387.05,3.656,3.656,0,0,1,1.943,1.946c.036.081.074.179.11.286a.989.989,0,0,1,.422-.036,1.712,1.712,0,0,1,1.133.988,2.706,2.706,0,0,1,2.2-.507,2.457,2.457,0,0,1,.616.3c.2-1.147.84-1.974,1.905-1.889.811.065,1.32,1,1.463,1.948a1.837,1.837,0,0,1,.892-.255.182.182,0,0,1-.008-.027,2.054,2.054,0,0,1,1.582-2.588,1.829,1.829,0,0,1,1.924,1.113,2.324,2.324,0,0,1,.047.885,1.4,1.4,0,0,1,1.476-.055,1.344,1.344,0,0,1,.662,1.1,1.847,1.847,0,0,1,.925-.705,2.421,2.421,0,0,1,1.859-.285,4.154,4.154,0,0,1,1.9,1.348,2.358,2.358,0,0,1,2.3-.21,3.642,3.642,0,0,1,1.178.781,2.627,2.627,0,0,1,.336-1.23,1.822,1.822,0,0,1,2.17-.818,2.636,2.636,0,0,1,1.308,1.615.882.882,0,0,1,1.264-.168,1.6,1.6,0,0,1,.523.656h.007a.281.281,0,0,1,.186.085,1.105,1.105,0,0,1,.463-.043,1.248,1.248,0,0,1,.96.71h.011a.156.156,0,0,1,.092.1.307.307,0,0,1,.009.181c.015.043.031.087.043.134a1.626,1.626,0,0,1-.02.881.813.813,0,0,1,.163.061.293.293,0,0,1,.136.079,1.6,1.6,0,0,1,.232.2,2.844,2.844,0,0,1,.626,2.223Z" fill="#fff"/>
      <path id="Trazado_1836" data-name="Trazado 1836" d="M765.44,6617.761a2.465,2.465,0,0,0-.795-1.826,1.891,1.891,0,0,0-.288-.2.4.4,0,0,0-.169-.081,1.265,1.265,0,0,0-.2-.063,1.361,1.361,0,0,0,.025-.9,1.422,1.422,0,0,0-.052-.139.268.268,0,0,0-.012-.184.174.174,0,0,0-.113-.1h-.015a1.554,1.554,0,0,0-1.19-.725,1.676,1.676,0,0,0-.572.043.383.383,0,0,0-.227-.086h-.01a1.746,1.746,0,0,0-.65-.671,1.252,1.252,0,0,0-1.565.172,2.878,2.878,0,0,0-1.619-1.649,2.5,2.5,0,0,0-2.689.837,2.3,2.3,0,0,0-.415,1.291,3.069,3.069,0,0,0-1.653-.213,3.479,3.479,0,0,0-1.479.584,3.079,3.079,0,0,0-1.719-.883,2.057,2.057,0,0,0-1.181.135,3.1,3.1,0,0,0-2.078-1.36,2.153,2.153,0,0,0-2.007.751,1.359,1.359,0,0,0-.822-1.122,1.033,1.033,0,0,1-1.883-.848,2.377,2.377,0,0,0-2.385-1.138,2.131,2.131,0,0,0-1.959,2.642,1.524,1.524,0,0,0,.049.165,3.475,3.475,0,0,0-1.1.461,2.322,2.322,0,0,0-1.857-2.327c-1.5-.1-2.314,1-2.432,2.422-.006.084-.01.17-.011.256a1.929,1.929,0,0,0-1.812-.832,4.1,4.1,0,0,0-1.435.584,2.157,2.157,0,0,0-1.557-1.3,1.523,1.523,0,0,0-.478.028,3.457,3.457,0,0,0-2.59-2.191,3.557,3.557,0,0,0-2,.165c-.038.013-.091.033-.15.06a2.761,2.761,0,0,0-.267-.151,3.188,3.188,0,0,0-1.438-.334,3.828,3.828,0,0,0-.969-.342,3.546,3.546,0,0,0-2.3.437c-.042.011-.086.022-.127.034a4.6,4.6,0,0,0-5.362,2.039c-.045.084-.091.184-.137.293a1.5,1.5,0,0,0-.522-.038,2.054,2.054,0,0,0-1.4,1.01,3.909,3.909,0,0,0-2.722-.518,3.319,3.319,0,0,0-.762.31,2.089,2.089,0,0,0-4.171.059,2.581,2.581,0,0,0-1.1-.258c0-.011.007-.021.009-.031a2.129,2.129,0,0,0-1.957-2.642,2.376,2.376,0,0,0-2.385,1.138,1.987,1.987,0,0,0-.058.9,2.053,2.053,0,0,0-1.827-.055,1.355,1.355,0,0,0-.82,1.122,2.316,2.316,0,0,0-1.147-.721,3.564,3.564,0,0,0-2.3-.29,5.28,5.28,0,0,0-2.356,1.378,3.454,3.454,0,0,0-2.853-.216,4.741,4.741,0,0,0-1.459.8,2.309,2.309,0,0,0-.416-1.255,2.5,2.5,0,0,0-2.688-.837,2.877,2.877,0,0,0-1.62,1.649,1.255,1.255,0,0,0-1.567-.172,1.739,1.739,0,0,0-.647.671h-.01a.379.379,0,0,0-.228.086,1.685,1.685,0,0,0-.574-.043,1.55,1.55,0,0,0-1.188.725.078.078,0,0,0-.015,0,.18.18,0,0,0-.114.1.263.263,0,0,0-.011.184c-.018.045-.038.09-.053.139a1.367,1.367,0,0,0,.026.9,1.244,1.244,0,0,0-.2.063.417.417,0,0,0-.17.081,1.923,1.923,0,0,0-.285.2,2.467,2.467,0,0,0-.8,1.826Z" fill="#ddf1fd"/>
      <g id="Grupo_2464" data-name="Grupo 2464">
        <rect id="Rectángulo_975" data-name="Rectángulo 975" width="49.412" height="0.972" transform="translate(767.429 6550.959)" fill="#4e504e"/>
        <g id="Grupo_2461" data-name="Grupo 2461">
          <rect id="Rectángulo_976" data-name="Rectángulo 976" width="0.955" height="5.838" transform="translate(812.875 6550.959)" fill="#4e504e"/>
          <rect id="Rectángulo_977" data-name="Rectángulo 977" width="0.956" height="5.838" transform="translate(809.843 6550.959)" fill="#4e504e"/>
          <rect id="Rectángulo_978" data-name="Rectángulo 978" width="0.956" height="5.838" transform="translate(806.812 6550.959)" fill="#4e504e"/>
          <rect id="Rectángulo_979" data-name="Rectángulo 979" width="0.956" height="5.838" transform="translate(803.781 6550.959)" fill="#4e504e"/>
          <rect id="Rectángulo_980" data-name="Rectángulo 980" width="0.956" height="5.838" transform="translate(800.75 6550.959)" fill="#4e504e"/>
          <rect id="Rectángulo_981" data-name="Rectángulo 981" width="0.955" height="5.838" transform="translate(797.718 6550.959)" fill="#4e504e"/>
          <rect id="Rectángulo_982" data-name="Rectángulo 982" width="0.956" height="5.838" transform="translate(794.687 6550.959)" fill="#4e504e"/>
          <rect id="Rectángulo_983" data-name="Rectángulo 983" width="0.956" height="5.838" transform="translate(791.656 6550.959)" fill="#4e504e"/>
          <rect id="Rectángulo_984" data-name="Rectángulo 984" width="0.956" height="5.838" transform="translate(788.625 6550.959)" fill="#4e504e"/>
          <rect id="Rectángulo_985" data-name="Rectángulo 985" width="0.956" height="5.838" transform="translate(785.594 6550.959)" fill="#4e504e"/>
          <rect id="Rectángulo_986" data-name="Rectángulo 986" width="0.955" height="5.838" transform="translate(782.564 6550.959)" fill="#4e504e"/>
          <rect id="Rectángulo_987" data-name="Rectángulo 987" width="0.956" height="5.838" transform="translate(779.531 6550.959)" fill="#4e504e"/>
          <rect id="Rectángulo_988" data-name="Rectángulo 988" width="0.955" height="5.838" transform="translate(776.501 6550.959)" fill="#4e504e"/>
          <rect id="Rectángulo_989" data-name="Rectángulo 989" width="0.956" height="5.838" transform="translate(773.47 6550.959)" fill="#4e504e"/>
          <rect id="Rectángulo_990" data-name="Rectángulo 990" width="0.957" height="5.838" transform="translate(770.438 6550.959)" fill="#4e504e"/>
        </g>
        <rect id="Rectángulo_991" data-name="Rectángulo 991" width="49.412" height="0.973" transform="translate(767.429 6550.473)" fill="#1f211e"/>
        <path id="Trazado_1837" data-name="Trazado 1837" d="M770.035,6557.365,767.9,6545.3h-5.869v12.068Z" fill="#4e504e"/>
        <path id="Trazado_1838" data-name="Trazado 1838" d="M815.116,6557.365V6545.3H820.5l1.957,12.068Z" fill="#4e504e"/>
        <g id="Grupo_2462" data-name="Grupo 2462">
          <path id="Trazado_1839" data-name="Trazado 1839" d="M839.534,6617.761l-16.344-62.327H760.756l5.621,62.327Z" fill="#919390"/>
          <path id="Trazado_1840" data-name="Trazado 1840" d="M839.534,6617.761,828.2,6574.543a198.955,198.955,0,0,1-17.759,10.641,182.7,182.7,0,0,1-44.694,16.6c-.265.06-.53.114-.8.173l1.426,15.8Z" fill="#919390" opacity="0.4"/>
          <path id="Trazado_1841" data-name="Trazado 1841" d="M761.947,6567.808h64.487l.18.682H762.033Q761.99,6568.148,761.947,6567.808Z" fill="#4e504e"/>
          <path id="Trazado_1842" data-name="Trazado 1842" d="M763.659,6591.873h69.085l.14.531h-69.2C763.675,6592.228,763.667,6592.05,763.659,6591.873Z" fill="#4e504e"/>
        </g>
        <g id="Grupo_2463" data-name="Grupo 2463">
          <path id="Trazado_1843" data-name="Trazado 1843" d="M777.59,6617.761l-12.648-64.785H762.7v2.458l4.54,62.327Z" fill="#606260"/>
          <path id="Trazado_1844" data-name="Trazado 1844" d="M772.1,6617.761l-9.1-64.785h-2.245v2.458l3.626,62.327Z" fill="#919390"/>
        </g>
        <path id="Trazado_1845" data-name="Trazado 1845" d="M765.3,6617.761l-3.806-49.611,2.887,49.611Z" fill="#919390"/>
      </g>
      <g id="Grupo_2468" data-name="Grupo 2468">
        <rect id="Rectángulo_992" data-name="Rectángulo 992" width="49.415" height="0.972" transform="translate(622.035 6550.959)" fill="#4e504e"/>
        <g id="Grupo_2465" data-name="Grupo 2465">
          <rect id="Rectángulo_993" data-name="Rectángulo 993" width="0.956" height="5.838" transform="translate(625.046 6550.959)" fill="#4e504e"/>
          <rect id="Rectángulo_994" data-name="Rectángulo 994" width="0.955" height="5.838" transform="translate(628.077 6550.959)" fill="#4e504e"/>
          <rect id="Rectángulo_995" data-name="Rectángulo 995" width="0.955" height="5.838" transform="translate(631.108 6550.959)" fill="#4e504e"/>
          <rect id="Rectángulo_996" data-name="Rectángulo 996" width="0.956" height="5.838" transform="translate(634.14 6550.959)" fill="#4e504e"/>
          <rect id="Rectángulo_997" data-name="Rectángulo 997" width="0.956" height="5.838" transform="translate(637.171 6550.959)" fill="#4e504e"/>
          <rect id="Rectángulo_998" data-name="Rectángulo 998" width="0.955" height="5.838" transform="translate(640.202 6550.959)" fill="#4e504e"/>
          <rect id="Rectángulo_999" data-name="Rectángulo 999" width="0.954" height="5.838" transform="translate(643.234 6550.959)" fill="#4e504e"/>
          <rect id="Rectángulo_1000" data-name="Rectángulo 1000" width="0.955" height="5.838" transform="translate(646.264 6550.959)" fill="#4e504e"/>
          <rect id="Rectángulo_1001" data-name="Rectángulo 1001" width="0.955" height="5.838" transform="translate(649.296 6550.959)" fill="#4e504e"/>
          <rect id="Rectángulo_1002" data-name="Rectángulo 1002" width="0.956" height="5.838" transform="translate(652.327 6550.959)" fill="#4e504e"/>
          <rect id="Rectángulo_1003" data-name="Rectángulo 1003" width="0.956" height="5.838" transform="translate(655.358 6550.959)" fill="#4e504e"/>
          <rect id="Rectángulo_1004" data-name="Rectángulo 1004" width="0.956" height="5.838" transform="translate(658.389 6550.959)" fill="#4e504e"/>
          <rect id="Rectángulo_1005" data-name="Rectángulo 1005" width="0.956" height="5.838" transform="translate(661.42 6550.959)" fill="#4e504e"/>
          <rect id="Rectángulo_1006" data-name="Rectángulo 1006" width="0.955" height="5.838" transform="translate(664.452 6550.959)" fill="#4e504e"/>
          <rect id="Rectángulo_1007" data-name="Rectángulo 1007" width="0.956" height="5.838" transform="translate(667.482 6550.959)" fill="#4e504e"/>
        </g>
        <rect id="Rectángulo_1008" data-name="Rectángulo 1008" width="49.415" height="0.973" transform="translate(622.035 6550.473)" fill="#1f211e"/>
        <path id="Trazado_1846" data-name="Trazado 1846" d="M668.842,6557.365l2.133-12.068h5.869v12.068Z" fill="#4e504e"/>
        <path id="Trazado_1847" data-name="Trazado 1847" d="M623.76,6557.365V6545.3h-5.385l-1.958,12.068Z" fill="#4e504e"/>
        <g id="Grupo_2466" data-name="Grupo 2466">
          <path id="Trazado_1848" data-name="Trazado 1848" d="M672.5,6617.761l5.62-62.327H615.688l-16.346,62.327Z" fill="#919390"/>
          <path id="Trazado_1849" data-name="Trazado 1849" d="M672.5,6617.761l1.485-16.472a138.651,138.651,0,0,1-33.418-12.329c-10.323-5.492-19.971-12.52-27.633-21.41-.11-.128-.214-.259-.323-.388l-13.27,50.6Z" fill="#919390" opacity="0.4"/>
          <path id="Trazado_1850" data-name="Trazado 1850" d="M676.931,6567.808H612.442l-.178.682h64.579Q676.887,6568.148,676.931,6567.808Z" fill="#4e504e"/>
          <path id="Trazado_1851" data-name="Trazado 1851" d="M675.215,6591.873H606.131l-.138.531h69.2C675.2,6592.228,675.21,6592.05,675.215,6591.873Z" fill="#4e504e"/>
        </g>
        <g id="Grupo_2467" data-name="Grupo 2467">
          <path id="Trazado_1852" data-name="Trazado 1852" d="M671.638,6617.761l4.54-62.327v-2.458h-2.245l-12.647,64.785Z" fill="#606260"/>
          <path id="Trazado_1853" data-name="Trazado 1853" d="M674.495,6617.761l3.626-62.327v-2.458h-2.244l-9.1,64.785Z" fill="#919390"/>
        </g>
        <path id="Trazado_1854" data-name="Trazado 1854" d="M674.495,6617.761l2.887-49.611-3.806,49.611Z" fill="#919390"/>
      </g>
      <g id="Grupo_2469" data-name="Grupo 2469">
        <path id="Trazado_1855" data-name="Trazado 1855" d="M676.965,6607.136a.526.526,0,0,0-.333-.316.92.92,0,0,0-.874.282,1.712,1.712,0,0,0-.347.526.945.945,0,0,0-.032.7.565.565,0,0,0,.509.349,1,1,0,0,0,.7-.365h0A1.054,1.054,0,0,0,676.965,6607.136Z" fill="#fff"/>
        <path id="Trazado_1856" data-name="Trazado 1856" d="M675.687,6604.864c-.543,0-1.066,1.067-.388,1.067C675.84,6605.931,676.367,6604.864,675.687,6604.864Z" fill="#fff"/>
        <path id="Trazado_1857" data-name="Trazado 1857" d="M672.527,6607.812a.362.362,0,0,0-.138-.09.518.518,0,0,0-.543.18c-.119.129-.247.381-.139.555a.316.316,0,0,0,.1.132C672.224,6608.9,672.854,6608.208,672.527,6607.812Z" fill="#fff"/>
        <path id="Trazado_1858" data-name="Trazado 1858" d="M674.047,6610.013c-.151.026-.206.315-.027.274a.255.255,0,0,0,.206-.264C674.218,6609.918,674.108,6609.955,674.047,6610.013Z" fill="#fff"/>
        <path id="Trazado_1859" data-name="Trazado 1859" d="M680.453,6604.758a.6.6,0,0,0-.755-.166.888.888,0,0,0-.487.5.909.909,0,0,0-.1.631c.118.437.582.437.907.222a1.334,1.334,0,0,0,.439-.559A.7.7,0,0,0,680.453,6604.758Z" fill="#fff"/>
        <path id="Trazado_1860" data-name="Trazado 1860" d="M676.064,6602.892a.744.744,0,0,0-.527.24.562.562,0,0,0-.153.575l0,.014a.311.311,0,0,0,.263.167.547.547,0,0,0,.416-.137.728.728,0,0,0,.293-.466C676.382,6603.111,676.274,6602.877,676.064,6602.892Z" fill="#fff"/>
        <path id="Trazado_1861" data-name="Trazado 1861" d="M673.859,6603.407a.4.4,0,0,0-.178-.037.675.675,0,0,0-.478.22.607.607,0,0,0-.182.492l.008.034a.332.332,0,0,0,.412.266.613.613,0,0,0,.211-.089C673.952,6604.178,674.265,6603.581,673.859,6603.407Z" fill="#fff"/>
        <path id="Trazado_1862" data-name="Trazado 1862" d="M673.208,6611.455a1.1,1.1,0,0,0-1.294-.281,1.76,1.76,0,0,0-.924,1.026,1.655,1.655,0,0,0-.018,1.25.917.917,0,0,0,1.238.446,1.62,1.62,0,0,0,1.338-1.288A1.43,1.43,0,0,0,673.208,6611.455Z" fill="#fff"/>
      </g>
      <g id="Grupo_2470" data-name="Grupo 2470">
        <path id="Trazado_1863" data-name="Trazado 1863" d="M693.488,6604.209a.465.465,0,0,0-.1-.4.826.826,0,0,0-.8-.2,1.519,1.519,0,0,0-.517.237.857.857,0,0,0-.358.519.51.51,0,0,0,.223.51.9.9,0,0,0,.711.056h0A.949.949,0,0,0,693.488,6604.209Z" fill="#fff"/>
        <path id="Trazado_1864" data-name="Trazado 1864" d="M693.6,6601.859c-.416-.259-1.328.308-.808.631C693.2,6602.751,694.117,6602.183,693.6,6601.859Z" fill="#fff"/>
        <path id="Trazado_1865" data-name="Trazado 1865" d="M689.766,6602.606a.363.363,0,0,0-.062-.136.47.47,0,0,0-.5-.12c-.154.042-.37.175-.372.359a.305.305,0,0,0,.014.148C689.015,6603.294,689.827,6603.065,689.766,6602.606Z" fill="#fff"/>
        <path id="Trazado_1866" data-name="Trazado 1866" d="M689.878,6605.019c-.127-.053-.307.142-.15.2a.233.233,0,0,0,.286-.1C690.056,6605.028,689.954,6605,689.878,6605.019Z" fill="#fff"/>
        <path id="Trazado_1867" data-name="Trazado 1867" d="M697.3,6604.054c-.02-.3-.228-.422-.5-.488a.8.8,0,0,0-.611.149.831.831,0,0,0-.382.433c-.117.391.238.613.589.6a1.2,1.2,0,0,0,.6-.219A.631.631,0,0,0,697.3,6604.054Z" fill="#fff"/>
        <path id="Trazado_1868" data-name="Trazado 1868" d="M694.826,6600.528a.681.681,0,0,0-.518-.069.513.513,0,0,0-.393.369l0,.011a.281.281,0,0,0,.122.255.494.494,0,0,0,.385.093.653.653,0,0,0,.446-.217A.294.294,0,0,0,694.826,6600.528Z" fill="#fff"/>
        <path id="Trazado_1869" data-name="Trazado 1869" d="M692.891,6599.868a.369.369,0,0,0-.119-.112.606.606,0,0,0-.471-.06.547.547,0,0,0-.375.29l-.01.03a.3.3,0,0,0,.19.4.559.559,0,0,0,.2.035C692.594,6600.5,693.118,6600.2,692.891,6599.868Z" fill="#fff"/>
        <path id="Trazado_1870" data-name="Trazado 1870" d="M688.547,6605.723a1,1,0,0,0-.856-.834,1.588,1.588,0,0,0-1.2.344,1.5,1.5,0,0,0-.612.949.83.83,0,0,0,.738.933,1.462,1.462,0,0,0,1.639-.347A1.293,1.293,0,0,0,688.547,6605.723Z" fill="#fff"/>
      </g>
      <g id="Grupo_2471" data-name="Grupo 2471">
        <path id="Trazado_1871" data-name="Trazado 1871" d="M762.734,6607.136a.513.513,0,0,1,.332-.316.918.918,0,0,1,.873.282,1.7,1.7,0,0,1,.347.526.95.95,0,0,1,.031.7.562.562,0,0,1-.508.349,1,1,0,0,1-.7-.365h0A1.049,1.049,0,0,1,762.734,6607.136Z" fill="#fff"/>
        <path id="Trazado_1872" data-name="Trazado 1872" d="M764.01,6604.864c.543,0,1.068,1.067.39,1.067C763.856,6605.931,763.331,6604.864,764.01,6604.864Z" fill="#fff"/>
        <path id="Trazado_1873" data-name="Trazado 1873" d="M767.171,6607.812a.359.359,0,0,1,.137-.09.517.517,0,0,1,.543.18c.119.129.245.381.14.555a.333.333,0,0,1-.1.132C767.473,6608.9,766.845,6608.208,767.171,6607.812Z" fill="#fff"/>
        <path id="Trazado_1874" data-name="Trazado 1874" d="M765.47,6610.023a.258.258,0,0,0,.208.264c.178.041.124-.248-.028-.274C765.589,6609.955,765.478,6609.918,765.47,6610.023Z" fill="#fff"/>
        <path id="Trazado_1875" data-name="Trazado 1875" d="M759.246,6605.384a1.316,1.316,0,0,0,.438.559c.324.215.788.215.906-.222a.919.919,0,0,0-.1-.631.889.889,0,0,0-.486-.5.6.6,0,0,0-.755.166A.685.685,0,0,0,759.246,6605.384Z" fill="#fff"/>
        <path id="Trazado_1876" data-name="Trazado 1876" d="M763.633,6602.892a.747.747,0,0,1,.529.24.566.566,0,0,1,.152.575l-.006.014a.305.305,0,0,1-.262.167.553.553,0,0,1-.418-.137.724.724,0,0,1-.29-.466C763.315,6603.111,763.424,6602.877,763.633,6602.892Z" fill="#fff"/>
        <path id="Trazado_1877" data-name="Trazado 1877" d="M765.838,6603.407a.406.406,0,0,1,.179-.037.677.677,0,0,1,.478.22.6.6,0,0,1,.182.492l-.009.034a.33.33,0,0,1-.411.266.619.619,0,0,1-.212-.089C765.745,6604.178,765.434,6603.581,765.838,6603.407Z" fill="#fff"/>
        <path id="Trazado_1878" data-name="Trazado 1878" d="M766.49,6611.455a1.1,1.1,0,0,1,1.294-.281,1.765,1.765,0,0,1,.923,1.026,1.659,1.659,0,0,1,.018,1.25.918.918,0,0,1-1.239.446,1.619,1.619,0,0,1-1.336-1.288A1.429,1.429,0,0,1,766.49,6611.455Z" fill="#fff"/>
      </g>
      <g id="Grupo_2472" data-name="Grupo 2472">
        <path id="Trazado_1879" data-name="Trazado 1879" d="M714.4,6611.752a.523.523,0,0,1-.042-.456.921.921,0,0,1,.762-.514,1.673,1.673,0,0,1,.626.053.955.955,0,0,1,.57.4.569.569,0,0,1-.041.617,1,1,0,0,1-.719.326l-.005,0A1.049,1.049,0,0,1,714.4,6611.752Z" fill="#fff"/>
        <path id="Trazado_1880" data-name="Trazado 1880" d="M713.405,6609.344c.335-.425,1.5-.18,1.078.355C714.15,6610.125,712.986,6609.879,713.405,6609.344Z" fill="#fff"/>
        <path id="Trazado_1881" data-name="Trazado 1881" d="M717.676,6608.679a.363.363,0,0,1,.013-.164c.047-.2.3-.3.478-.316s.451.042.522.232a.346.346,0,0,1,.042.162C718.717,6609.112,717.785,6609.18,717.676,6608.679Z" fill="#fff"/>
        <path id="Trazado_1882" data-name="Trazado 1882" d="M718.364,6611.379a.256.256,0,0,0,.336,0c.145-.116-.118-.252-.231-.148C718.385,6611.246,718.286,6611.31,718.364,6611.379Z" fill="#fff"/>
        <path id="Trazado_1883" data-name="Trazado 1883" d="M710.872,6613.414a1.308,1.308,0,0,0,.71,0c.37-.122.655-.487.386-.85a.912.912,0,0,0-.561-.307.889.889,0,0,0-.693.074.6.6,0,0,0-.334.7A.692.692,0,0,0,710.872,6613.414Z" fill="#fff"/>
        <path id="Trazado_1884" data-name="Trazado 1884" d="M711.621,6608.424a.745.745,0,0,1,.514-.267.561.561,0,0,1,.547.236l.008.011a.311.311,0,0,1-.03.311.551.551,0,0,1-.365.242.72.72,0,0,1-.547-.057A.326.326,0,0,1,711.621,6608.424Z" fill="#fff"/>
        <path id="Trazado_1885" data-name="Trazado 1885" d="M713.388,6607.008a.362.362,0,0,1,.081-.163.66.66,0,0,1,.467-.24.6.6,0,0,1,.5.161l.021.027a.329.329,0,0,1-.047.487.6.6,0,0,1-.2.111C713.936,6607.556,713.275,6607.433,713.388,6607.008Z" fill="#fff"/>
        <path id="Trazado_1886" data-name="Trazado 1886" d="M720.12,6611.464a1.1,1.1,0,0,1,.578-1.191,1.756,1.756,0,0,1,1.378-.093,1.654,1.654,0,0,1,.994.757.918.918,0,0,1-.415,1.249,1.614,1.614,0,0,1-1.838.256A1.43,1.43,0,0,1,720.12,6611.464Z" fill="#fff"/>
      </g>
      <g id="Grupo_2473" data-name="Grupo 2473">
        <path id="Trazado_1887" data-name="Trazado 1887" d="M739.913,6605.587a.474.474,0,0,1,.012-.414.831.831,0,0,1,.736-.378,1.514,1.514,0,0,1,.557.115.855.855,0,0,1,.467.424.511.511,0,0,1-.1.548.9.9,0,0,1-.679.214l0,0A.951.951,0,0,1,739.913,6605.587Z" fill="#fff"/>
        <path id="Trazado_1888" data-name="Trazado 1888" d="M739.278,6603.322c.346-.346,1.363,0,.93.434C739.861,6604.1,738.843,6603.756,739.278,6603.322Z" fill="#fff"/>
        <path id="Trazado_1889" data-name="Trazado 1889" d="M743.178,6603.185a.325.325,0,0,1,.029-.147.471.471,0,0,1,.461-.23c.16.006.4.086.444.265a.316.316,0,0,1,.021.149C744.064,6603.685,743.221,6603.646,743.178,6603.185Z" fill="#fff"/>
        <path id="Trazado_1890" data-name="Trazado 1890" d="M743.5,6605.679a.23.23,0,0,0,.3.039c.142-.087-.078-.238-.19-.159C743.537,6605.563,743.441,6605.609,743.5,6605.679Z" fill="#fff"/>
        <path id="Trazado_1891" data-name="Trazado 1891" d="M736.569,6606.7a1.208,1.208,0,0,0,.637.077c.344-.072.64-.367.437-.721a.824.824,0,0,0-.469-.336.8.8,0,0,0-.629-.008c-.249.126-.422.3-.375.589A.626.626,0,0,0,736.569,6606.7Z" fill="#fff"/>
        <path id="Trazado_1892" data-name="Trazado 1892" d="M737.779,6602.305a.671.671,0,0,1,.489-.185.509.509,0,0,1,.464.27l.006.012a.278.278,0,0,1-.06.275.5.5,0,0,1-.354.179.655.655,0,0,1-.484-.112A.293.293,0,0,1,737.779,6602.305Z" fill="#fff"/>
        <path id="Trazado_1893" data-name="Trazado 1893" d="M739.514,6601.225a.37.37,0,0,1,.09-.138.609.609,0,0,1,.446-.163.542.542,0,0,1,.43.2l.016.027a.3.3,0,0,1-.094.432.521.521,0,0,1-.19.077C739.946,6601.776,739.367,6601.594,739.514,6601.225Z" fill="#fff"/>
        <path id="Trazado_1894" data-name="Trazado 1894" d="M745.069,6605.945a1,1,0,0,1,.646-1.006,1.589,1.589,0,0,1,1.244.065,1.494,1.494,0,0,1,.81.787.827.827,0,0,1-.506,1.074,1.463,1.463,0,0,1-1.675.032A1.29,1.29,0,0,1,745.069,6605.945Z" fill="#fff"/>
      </g>
    </g>
    <g id="Grupo_2477" data-name="Grupo 2477">
      <g id="Grupo_2475" data-name="Grupo 2475">
        <path id="Trazado_1895" data-name="Trazado 1895" d="M579.028,6608.1l-1.63-18.185-.5-.053v-.007l-.035,0-.037,0v.007l-.5.053-1.63,18.185s-.15,1.152,2.085,1.321l.12,0C579.177,6609.264,579.028,6608.1,579.028,6608.1Z" fill="#a54f14"/>
        <path id="Trazado_1896" data-name="Trazado 1896" d="M579.028,6608.1l-1.63-18.185-.5-.053v-.007l-.035,0-.02,0v19.565l.055,0C579.177,6609.264,579.028,6608.1,579.028,6608.1Z" fill="#813f0e"/>
      </g>
      <g id="Grupo_2476" data-name="Grupo 2476">
        <path id="Trazado_1897" data-name="Trazado 1897" d="M585.909,6570.676a.67.67,0,0,1,.073.089v-.016Z" fill="#73b634"/>
        <path id="Trazado_1898" data-name="Trazado 1898" d="M585.982,6570.749l.032.029c-.02-.022-.033-.034-.033-.034Z" fill="#73b634"/>
        <path id="Trazado_1899" data-name="Trazado 1899" d="M584.41,6566.3s.105.11.256.242A1.519,1.519,0,0,0,584.41,6566.3Z" fill="#73b634"/>
        <path id="Trazado_1900" data-name="Trazado 1900" d="M569.483,6571.519c.752.207,1.859-1.172,1.859-1.172s.218,2.462,1.25,2.017a3.821,3.821,0,0,0,1.573-2.017s.653,1.619,1.345,1.379.619-1.206.619-1.206.482,1.723,1.344,1.481.895-1.481.895-1.481.62,1.686,1.652,1.549.891-1.515.891-1.515.591,1.481,1.349,1.172a2.687,2.687,0,0,0,1.183-1.189s.894,2.118,1.848,1.669c.7-.326.7-1.3.691-1.441a.67.67,0,0,0-.073-.089l.073.073v0s.013.012.033.034c.255.245.911.812,1.185.483.311-.374-1.621-3.7-2.533-4.718-.151-.132-.256-.242-.256-.242a1.519,1.519,0,0,1,.256.242c.285.248.737.569.983.377.369-.283-1.693-4.4-2.589-5.594a8.174,8.174,0,0,1-.587-.742.6.6,0,0,1-.282.705c-.432.2-1.493-.952-1.493-.952s.234.823-.219.976-.9-.873-.9-.873-.138.735-.756.8-.678-.8-.678-.8-.186.777-.7.9-.666-.9-.666-.9a1.279,1.279,0,0,1-.652.633c-.412.119-.8-.676-.8-.676a1.393,1.393,0,0,1-.8.863c-.618.219-.884-.863-.884-.863a2.811,2.811,0,0,1-1.112.576c-.455.033-.145-.627-.145-.627a6.918,6.918,0,0,1-.924.575c-.733,1.008-2.186,3.093-2.235,3.864-.071,1.033,1.1-.258,1.1-.258s-2.738,4.287-2.738,5.527,1.12,0,1.12,0-.007.015-.023.041l.019-.023S568.747,6571.316,569.483,6571.519Z" fill="#51ae3b"/>
        <path id="Trazado_1901" data-name="Trazado 1901" d="M575,6551.968a.035.035,0,0,0,.011-.013A.035.035,0,0,1,575,6551.968Z" fill="#73b634"/>
        <path id="Trazado_1902" data-name="Trazado 1902" d="M587.782,6583.023a1.65,1.65,0,0,1-.62,1.239c-.621.447-1.274-1.411-1.274-1.411a2.1,2.1,0,0,1-.828,1.479c-.723.416-2.445-1.583-2.445-1.583a.976.976,0,0,1-.584,1.1c-.759.31-1.621-1.136-1.621-1.136s.415,1.343-.619,1.482-1.653-1.551-1.653-1.551-.035,1.24-.9,1.48-1.343-1.48-1.343-1.48.069.965-.619,1.205-1.345-1.378-1.345-1.378a2.762,2.762,0,0,1-1.343,1.756c-1.032.448-1.481-1.756-1.481-1.756s-1.1,1.1-1.859,1.171-.24-1.273-.24-1.273-1.757,1.618-2.962,1.755-.359-1.635-.359-1.635-2.151,3.633-2.05,4.684,1.482-.757,1.482-.757a13.441,13.441,0,0,0-1.826,3.771c-.207,1.378.447,1.119.742.931a7.738,7.738,0,0,0,.947-.984s-1.154,2.43-.6,3.239,2.463-.844,2.463-.844-1.344,1.722-.845,2.134,3.788-1.619,3.788-1.619-1.189,1.241-.566,1.655,3.839-.931,3.839-.931-.965.793-.379,1.085,3.358-1.188,3.358-1.188-.035,1.551.518,1.585,1.394-1.585,1.394-1.585,1.583,2.119,2.134,1.705.189-1.377.189-1.377,1.568,1.7,2.446,1.531.5-1.446.5-1.446,2.255,1.344,2.84.88-.258-1.464-.258-1.464,1.343,1.1,2.119,1,.481-1.1.481-1.1.638.723,1.276.584-.982-1.774-.982-1.774,1.084.861,1.636.551-.844-3.479-1.723-4.374c0,0,1.153.983,1.531.482s-1.255-4.8-1.909-5.3c0,0,.031.025.088.067Z" fill="#1f8a34"/>
        <path id="Trazado_1903" data-name="Trazado 1903" d="M566.05,6584.123c1.205-.137,2.962-1.755,2.962-1.755s-.517,1.343.24,1.273,1.859-1.171,1.859-1.171.449,2.2,1.481,1.756a2.762,2.762,0,0,0,1.343-1.756s.654,1.621,1.345,1.378.619-1.205.619-1.205.483,1.721,1.343,1.48.9-1.48.9-1.48.619,1.687,1.653,1.551.619-1.482.619-1.482.862,1.446,1.621,1.136a.976.976,0,0,0,.584-1.1s1.722,2,2.445,1.583a2.1,2.1,0,0,0,.828-1.479s.653,1.858,1.274,1.411a1.65,1.65,0,0,0,.62-1.239l.54.6c.235.172.887.613,1.278.548.481-.079.31-1.711-.287-3.226s-2.458-5.034-2.458-5.034.931,1.136,1.276.775-1.354-4.886-2.149-5.92c.005.144.005,1.115-.691,1.441-.954.449-1.848-1.669-1.848-1.669a2.687,2.687,0,0,1-1.183,1.189c-.758.309-1.349-1.172-1.349-1.172s.143,1.378-.891,1.515-1.652-1.549-1.652-1.549-.035,1.239-.895,1.481-1.344-1.481-1.344-1.481.068.964-.619,1.206-1.345-1.379-1.345-1.379a3.821,3.821,0,0,1-1.573,2.017c-1.032.445-1.25-2.017-1.25-2.017s-1.107,1.379-1.859,1.172c-.736-.2-.782-1.447-.782-1.447l-.019.023c-.275.553-3.15,6.324-3.214,7.882-.069,1.636,1.531.189,1.531.189s-2.288,3.289-2.444,4.477,1.136-.155,1.136-.155S564.844,6584.262,566.05,6584.123Z" fill="#1da63f"/>
        <path id="Trazado_1904" data-name="Trazado 1904" d="M572.527,6560.973a2.811,2.811,0,0,0,1.112-.576s.266,1.082.884.863a1.393,1.393,0,0,0,.8-.863s.391.795.8.676a1.279,1.279,0,0,0,.652-.633s.151,1.013.666.9.7-.9.7-.9.06.871.678.8.756-.8.756-.8.443,1.025.9.873.219-.976.219-.976,1.061,1.156,1.493.952a.6.6,0,0,0,.282-.705,8.174,8.174,0,0,0,.587.742c-.029-.037-.058-.073-.082-.106,0,0,.774.638,1.084.138s-1.443-3.909-2.3-4.994c0,0,.792.808,1.137.517s-1.724-4-2.533-4.753c0,0,.914.723,1.188.379s-3.392-4.822-3.392-4.822-.309-.4-.465-.379a24.315,24.315,0,0,0-3.169,3.41c-.7,1.033-.689,1.721-.206,1.619a1.2,1.2,0,0,0,.677-.367.035.035,0,0,0,.011-.013.035.035,0,0,1-.011.013c-.166.205-2.484,3.039-2.434,3.587.052.569.913-.155.913-.155s-2.842,3.443-2.687,5.1c0,0-.016.4.363.276a2.438,2.438,0,0,0,.722-.414s-.166.219-.415.562a6.918,6.918,0,0,0,.924-.575S572.072,6561.006,572.527,6560.973Z" fill="#73b634"/>
      </g>
      <path id="Trazado_1905" data-name="Trazado 1905" d="M588.612,6588.377s1.153.983,1.531.482-1.255-4.8-1.909-5.3c0,0,.031.025.088.067.235.172.887.613,1.278.548.481-.079.31-1.711-.287-3.226s-2.458-5.034-2.458-5.034.931,1.136,1.276.775-1.354-4.886-2.149-5.92v-.016l.032.029c.255.245.911.812,1.185.483.311-.374-1.621-3.7-2.533-4.718.285.248.737.569.983.377.369-.283-1.693-4.4-2.589-5.594-.029-.037-.058-.073-.082-.106,0,0,.774.638,1.084.138s-1.443-3.909-2.3-4.994c0,0,.792.808,1.137.517s-1.724-4-2.533-4.753c0,0,.914.723,1.188.379s-3.392-4.822-3.392-4.822a2.239,2.239,0,0,0-.273-.285v46.386l.067-.122s1.583,2.119,2.134,1.705.189-1.377.189-1.377,1.568,1.7,2.446,1.531.5-1.446.5-1.446,2.255,1.344,2.84.88-.258-1.464-.258-1.464,1.343,1.1,2.119,1,.481-1.1.481-1.1.638.723,1.276.584-.982-1.774-.982-1.774,1.084.861,1.636.551S589.491,6589.272,588.612,6588.377Z" fill="#73b634" opacity="0.4"/>
    </g>
    <g id="Grupo_2480" data-name="Grupo 2480">
      <g id="Grupo_2478" data-name="Grupo 2478">
        <path id="Trazado_1906" data-name="Trazado 1906" d="M592.759,6614.2l-1.283-14.314-.4-.041v0l-.027,0-.029,0v0l-.4.041-1.284,14.314s-.116.909,1.643,1.041c.013,0,.093,0,.093,0C592.878,6615.119,592.759,6614.2,592.759,6614.2Z" fill="#a54f14"/>
        <path id="Trazado_1907" data-name="Trazado 1907" d="M592.759,6614.2l-1.283-14.314-.4-.041v0l-.027,0-.014,0v15.4h.041C592.878,6615.119,592.759,6614.2,592.759,6614.2Z" fill="#813f0e"/>
      </g>
      <g id="Grupo_2479" data-name="Grupo 2479">
        <path id="Trazado_1908" data-name="Trazado 1908" d="M598.176,6584.741a.752.752,0,0,1,.058.071v-.012C598.2,6584.763,598.176,6584.741,598.176,6584.741Z" fill="#73b634"/>
        <path id="Trazado_1909" data-name="Trazado 1909" d="M598.234,6584.8c.007.008.016.014.025.023a.346.346,0,0,1-.025-.027Z" fill="#73b634"/>
        <path id="Trazado_1910" data-name="Trazado 1910" d="M597,6581.3s.082.087.2.192A1.333,1.333,0,0,0,597,6581.3Z" fill="#73b634"/>
        <path id="Trazado_1911" data-name="Trazado 1911" d="M585.244,6585.406c.592.162,1.466-.923,1.466-.923s.171,1.938.985,1.587a3.017,3.017,0,0,0,1.238-1.587s.514,1.276,1.057,1.085.487-.949.487-.949.38,1.356,1.058,1.166.7-1.166.7-1.166.491,1.329,1.3,1.221.7-1.193.7-1.193.465,1.165,1.062.921a2.114,2.114,0,0,0,.93-.936s.706,1.668,1.455,1.316c.55-.257.55-1.021.545-1.136a.752.752,0,0,0-.058-.071s.023.022.058.059v0a.346.346,0,0,0,.025.027c.2.193.718.638.934.379.244-.293-1.277-2.916-1.995-3.712-.119-.105-.2-.192-.2-.192a1.333,1.333,0,0,1,.2.192c.224.193.579.447.774.3.289-.224-1.332-3.462-2.037-4.4a6.7,6.7,0,0,1-.463-.586.47.47,0,0,1-.222.556c-.341.16-1.176-.749-1.176-.749s.186.647-.172.767-.7-.686-.7-.686-.11.578-.595.633-.534-.633-.534-.633-.146.612-.553.7-.523-.7-.523-.7a1.009,1.009,0,0,1-.514.5c-.324.092-.632-.534-.632-.534a1.1,1.1,0,0,1-.633.681c-.487.171-.7-.681-.7-.681a2.191,2.191,0,0,1-.874.454c-.358.027-.114-.494-.114-.494a5.472,5.472,0,0,1-.727.454,11.059,11.059,0,0,0-1.761,3.041c-.055.813.868-.2.868-.2s-2.155,3.376-2.155,4.352.881,0,.881,0l-.017.032.013-.019S584.667,6585.247,585.244,6585.406Z" fill="#51ae3b"/>
        <path id="Trazado_1912" data-name="Trazado 1912" d="M589.587,6570.016l.008-.011Z" fill="#73b634"/>
        <path id="Trazado_1913" data-name="Trazado 1913" d="M599.651,6594.46a1.3,1.3,0,0,1-.49.977c-.487.353-1-1.112-1-1.112a1.651,1.651,0,0,1-.65,1.165c-.569.327-1.926-1.245-1.926-1.245a.766.766,0,0,1-.46.867c-.6.243-1.276-.9-1.276-.9s.326,1.058-.488,1.166-1.3-1.22-1.3-1.22-.026.976-.7,1.165-1.057-1.165-1.057-1.165.053.759-.487.949-1.059-1.085-1.059-1.085a2.179,2.179,0,0,1-1.056,1.383c-.814.352-1.168-1.383-1.168-1.383s-.866.868-1.463.922-.189-1-.189-1a5.984,5.984,0,0,1-2.331,1.382c-.949.109-.282-1.287-.282-1.287s-1.7,2.859-1.614,3.686,1.165-.6,1.165-.6a10.529,10.529,0,0,0-1.436,2.969c-.163,1.085.351.881.583.733a6.06,6.06,0,0,0,.746-.773s-.909,1.911-.475,2.548,1.938-.664,1.938-.664-1.058,1.356-.665,1.682,2.984-1.275,2.984-1.275-.936.974-.448,1.3,3.023-.734,3.023-.734-.759.625-.3.858,2.644-.938,2.644-.938-.027,1.221.407,1.248,1.1-1.248,1.1-1.248,1.246,1.667,1.679,1.342.151-1.084.151-1.084,1.232,1.342,1.924,1.207.393-1.139.393-1.139,1.775,1.057,2.238.691-.205-1.151-.205-1.151,1.057.867,1.667.785.381-.867.381-.867.5.569,1,.461-.773-1.4-.773-1.4.854.678,1.288.435-.665-2.74-1.355-3.445c0,0,.907.773,1.205.379s-.99-3.78-1.505-4.174l.071.053Z" fill="#1f8a34"/>
        <path id="Trazado_1914" data-name="Trazado 1914" d="M582.544,6595.328a5.984,5.984,0,0,0,2.331-1.382s-.408,1.057.189,1,1.463-.922,1.463-.922.354,1.735,1.168,1.383a2.179,2.179,0,0,0,1.056-1.383s.516,1.276,1.059,1.085.487-.949.487-.949.38,1.354,1.057,1.165.7-1.165.7-1.165.49,1.327,1.3,1.22.488-1.166.488-1.166.68,1.138,1.276.9a.766.766,0,0,0,.46-.867s1.357,1.572,1.926,1.245a1.651,1.651,0,0,0,.65-1.165s.515,1.465,1,1.112a1.3,1.3,0,0,0,.49-.977l.425.474c.185.134.7.482,1.006.431.378-.062.243-1.347-.227-2.54s-1.934-3.963-1.934-3.963.733.894,1,.61-1.066-3.845-1.691-4.66c.005.115.005.879-.545,1.136-.749.352-1.455-1.316-1.455-1.316a2.114,2.114,0,0,1-.93.936c-.6.244-1.062-.921-1.062-.921s.114,1.084-.7,1.193-1.3-1.221-1.3-1.221-.026.976-.7,1.166-1.058-1.166-1.058-1.166.056.759-.487.949-1.057-1.085-1.057-1.085a3.017,3.017,0,0,1-1.238,1.587c-.814.351-.985-1.587-.985-1.587s-.874,1.085-1.466.923-.614-1.139-.614-1.139l-.013.019c-.217.435-2.481,4.977-2.533,6.2-.053,1.286,1.208.149,1.208.149s-1.8,2.59-1.925,3.525.9-.122.9-.122S581.595,6595.437,582.544,6595.328Z" fill="#1da63f"/>
        <path id="Trazado_1915" data-name="Trazado 1915" d="M587.642,6577.1a2.191,2.191,0,0,0,.874-.454s.211.852.7.681a1.1,1.1,0,0,0,.633-.681s.308.626.632.534a1.009,1.009,0,0,0,.514-.5s.118.8.523.7.553-.7.553-.7.047.685.534.633.595-.633.595-.633.348.806.7.686.172-.767.172-.767.835.909,1.176.749a.47.47,0,0,0,.222-.556,6.7,6.7,0,0,0,.463.586l-.067-.084s.609.5.855.108-1.136-3.076-1.814-3.93c0,0,.623.636.894.406s-1.356-3.145-1.992-3.742c0,0,.718.569.935.3s-2.67-3.795-2.67-3.795-.245-.314-.366-.3a19.285,19.285,0,0,0-2.495,2.684c-.555.814-.543,1.357-.162,1.276a.972.972,0,0,0,.534-.289l.008-.011-.008.011c-.133.161-1.957,2.391-1.917,2.823.041.448.719-.122.719-.122s-2.238,2.711-2.115,4.014c0,0-.014.311.285.215a1.9,1.9,0,0,0,.569-.324s-.131.171-.327.442a5.472,5.472,0,0,0,.727-.454S587.284,6577.131,587.642,6577.1Z" fill="#73b634"/>
      </g>
      <path id="Trazado_1916" data-name="Trazado 1916" d="M600.3,6598.676s.907.773,1.205.379-.99-3.78-1.505-4.174l.071.053c.185.134.7.482,1.006.431.378-.062.243-1.347-.227-2.54s-1.934-3.963-1.934-3.963.733.894,1,.61-1.066-3.845-1.691-4.66v-.012c.007.008.016.014.025.023.2.193.718.638.934.379.244-.293-1.277-2.916-1.995-3.712.224.193.579.447.774.3.289-.224-1.332-3.462-2.037-4.4l-.067-.084s.609.5.855.108-1.136-3.076-1.814-3.93c0,0,.623.636.894.406s-1.356-3.145-1.992-3.742c0,0,.718.569.935.3s-2.67-3.795-2.67-3.795a1.685,1.685,0,0,0-.216-.225v36.514c.034-.058.054-.1.054-.1s1.246,1.667,1.679,1.342.151-1.084.151-1.084,1.232,1.342,1.924,1.207.393-1.139.393-1.139,1.775,1.057,2.238.691-.205-1.151-.205-1.151,1.057.867,1.667.785.381-.867.381-.867.5.569,1,.461-.773-1.4-.773-1.4.854.678,1.288.435S600.995,6599.381,600.3,6598.676Z" fill="#73b634" opacity="0.4"/>
    </g>
    <g id="Grupo_2483" data-name="Grupo 2483">
      <g id="Grupo_2481" data-name="Grupo 2481">
        <path id="Trazado_1917" data-name="Trazado 1917" d="M850.015,6607.93l-1.63-18.185-.5-.052v-.008l-.036,0-.037,0v.008l-.5.052-1.629,18.185s-.151,1.152,2.084,1.321l.121,0C850.164,6609.1,850.015,6607.93,850.015,6607.93Z" fill="#a54f14"/>
        <path id="Trazado_1918" data-name="Trazado 1918" d="M850.015,6607.93l-1.63-18.185-.5-.052v-.008l-.036,0-.02,0v19.565l.056,0C850.164,6609.1,850.015,6607.93,850.015,6607.93Z" fill="#813f0e"/>
      </g>
      <g id="Grupo_2482" data-name="Grupo 2482">
        <path id="Trazado_1919" data-name="Trazado 1919" d="M856.9,6570.51a.957.957,0,0,1,.074.089v-.015Z" fill="#73b634"/>
        <path id="Trazado_1920" data-name="Trazado 1920" d="M856.97,6570.584c.008.008.02.017.031.029a.438.438,0,0,0-.033-.035Z" fill="#73b634"/>
        <path id="Trazado_1921" data-name="Trazado 1921" d="M855.4,6566.136s.105.11.256.241A1.442,1.442,0,0,0,855.4,6566.136Z" fill="#73b634"/>
        <path id="Trazado_1922" data-name="Trazado 1922" d="M840.47,6571.353c.752.207,1.859-1.172,1.859-1.172s.218,2.462,1.25,2.017a3.824,3.824,0,0,0,1.573-2.017s.653,1.619,1.345,1.379.619-1.205.619-1.205.482,1.722,1.344,1.481.895-1.481.895-1.481.62,1.685,1.652,1.549.891-1.516.891-1.516.591,1.481,1.349,1.172a2.683,2.683,0,0,0,1.183-1.189s.894,2.118,1.848,1.669c.7-.326.7-1.3.692-1.441a.957.957,0,0,0-.074-.089l.074.074,0-.006a.438.438,0,0,1,.033.035c.255.244.912.811,1.185.482.311-.374-1.621-3.7-2.533-4.718-.151-.131-.256-.241-.256-.241a1.442,1.442,0,0,1,.256.241c.285.248.737.569.983.377.369-.283-1.692-4.4-2.589-5.593a8.265,8.265,0,0,1-.587-.743.6.6,0,0,1-.282.705c-.432.205-1.493-.952-1.493-.952s.234.823-.219.976-.9-.872-.9-.872-.138.735-.756.8-.678-.8-.678-.8-.186.777-.7.9-.666-.9-.666-.9a1.279,1.279,0,0,1-.652.632c-.412.119-.8-.676-.8-.676a1.4,1.4,0,0,1-.8.863c-.618.219-.884-.863-.884-.863a2.8,2.8,0,0,1-1.112.576c-.455.033-.145-.627-.145-.627a6.805,6.805,0,0,1-.924.575c-.733,1.008-2.186,3.093-2.235,3.864-.071,1.033,1.1-.258,1.1-.258s-2.738,4.288-2.738,5.528,1.12,0,1.12,0l-.022.041a.207.207,0,0,1,.019-.024S839.734,6571.151,840.47,6571.353Z" fill="#51ae3b"/>
        <path id="Trazado_1923" data-name="Trazado 1923" d="M845.983,6551.8a.035.035,0,0,0,.011-.013A.035.035,0,0,1,845.983,6551.8Z" fill="#73b634"/>
        <path id="Trazado_1924" data-name="Trazado 1924" d="M858.769,6582.857a1.65,1.65,0,0,1-.62,1.239c-.621.447-1.274-1.411-1.274-1.411a2.1,2.1,0,0,1-.828,1.479c-.723.416-2.445-1.582-2.445-1.582a.976.976,0,0,1-.584,1.1c-.759.31-1.621-1.137-1.621-1.137s.415,1.343-.619,1.482-1.653-1.551-1.653-1.551-.035,1.24-.9,1.48-1.344-1.48-1.344-1.48.069.965-.619,1.206-1.344-1.378-1.344-1.378a2.765,2.765,0,0,1-1.344,1.756c-1.032.448-1.481-1.756-1.481-1.756s-1.1,1.1-1.859,1.171-.24-1.273-.24-1.273-1.757,1.617-2.961,1.754-.36-1.634-.36-1.634-2.151,3.632-2.05,4.683,1.482-.757,1.482-.757a13.437,13.437,0,0,0-1.826,3.772c-.206,1.377.447,1.118.742.93a7.738,7.738,0,0,0,.947-.984s-1.154,2.43-.6,3.239,2.463-.844,2.463-.844-1.344,1.722-.845,2.134,3.788-1.619,3.788-1.619-1.189,1.241-.566,1.655,3.839-.931,3.839-.931-.965.793-.379,1.085,3.359-1.188,3.359-1.188-.036,1.551.517,1.586,1.394-1.586,1.394-1.586,1.583,2.119,2.134,1.706.189-1.378.189-1.378,1.568,1.7,2.446,1.531.5-1.445.5-1.445,2.255,1.344,2.84.879-.258-1.463-.258-1.463,1.343,1.1,2.119,1,.482-1.1.482-1.1.637.723,1.275.584-.982-1.774-.982-1.774,1.084.861,1.636.551-.844-3.478-1.723-4.373c0,0,1.153.983,1.532.481s-1.256-4.8-1.91-5.3c0,0,.031.026.088.068Z" fill="#1f8a34"/>
        <path id="Trazado_1925" data-name="Trazado 1925" d="M837.038,6583.957c1.2-.137,2.961-1.754,2.961-1.754s-.517,1.343.24,1.273,1.859-1.171,1.859-1.171.449,2.2,1.481,1.756a2.765,2.765,0,0,0,1.344-1.756s.653,1.62,1.344,1.378.619-1.206.619-1.206.483,1.721,1.344,1.48.9-1.48.9-1.48.619,1.687,1.653,1.551.619-1.482.619-1.482.862,1.447,1.621,1.137a.976.976,0,0,0,.584-1.1s1.722,2,2.445,1.582a2.1,2.1,0,0,0,.828-1.479s.653,1.858,1.274,1.411a1.65,1.65,0,0,0,.62-1.239l.54.6c.235.171.887.612,1.278.547.481-.079.31-1.71-.287-3.226s-2.458-5.034-2.458-5.034.931,1.137,1.276.775-1.353-4.886-2.148-5.92c0,.145,0,1.115-.692,1.441-.954.449-1.848-1.669-1.848-1.669a2.683,2.683,0,0,1-1.183,1.189c-.758.309-1.349-1.172-1.349-1.172s.143,1.379-.891,1.516-1.652-1.549-1.652-1.549-.035,1.238-.895,1.481-1.344-1.481-1.344-1.481.068.964-.619,1.205-1.345-1.379-1.345-1.379a3.824,3.824,0,0,1-1.573,2.017c-1.032.445-1.25-2.017-1.25-2.017s-1.107,1.379-1.859,1.172c-.736-.2-.781-1.447-.781-1.447a.207.207,0,0,0-.019.024c-.276.552-3.151,6.324-3.215,7.881-.069,1.636,1.531.189,1.531.189s-2.288,3.29-2.444,4.477,1.136-.154,1.136-.154S835.831,6584.1,837.038,6583.957Z" fill="#1da63f"/>
        <path id="Trazado_1926" data-name="Trazado 1926" d="M843.514,6560.807a2.8,2.8,0,0,0,1.112-.576s.266,1.082.884.863a1.4,1.4,0,0,0,.8-.863s.391.795.8.676a1.279,1.279,0,0,0,.652-.632s.152,1.013.666.9.7-.9.7-.9.06.87.678.8.756-.8.756-.8.443,1.025.9.872.219-.976.219-.976,1.061,1.157,1.493.952a.6.6,0,0,0,.282-.705,8.265,8.265,0,0,0,.587.743l-.082-.107s.774.638,1.084.138-1.443-3.909-2.3-4.994c0,0,.792.808,1.137.517s-1.724-4-2.533-4.752c0,0,.914.722,1.188.379s-3.392-4.823-3.392-4.823-.309-.4-.465-.379a24.459,24.459,0,0,0-3.169,3.41c-.7,1.033-.688,1.722-.206,1.619a1.2,1.2,0,0,0,.677-.367.035.035,0,0,0,.011-.013.035.035,0,0,1-.011.013c-.166.205-2.484,3.04-2.434,3.588.052.568.913-.156.913-.156s-2.842,3.444-2.687,5.1c0,0-.016.4.363.276a2.438,2.438,0,0,0,.722-.414s-.166.219-.415.562a6.805,6.805,0,0,0,.924-.575S843.059,6560.84,843.514,6560.807Z" fill="#73b634"/>
      </g>
      <path id="Trazado_1927" data-name="Trazado 1927" d="M859.6,6588.212s1.153.983,1.532.481-1.256-4.8-1.91-5.3c0,0,.031.026.088.068.235.171.887.612,1.278.547.481-.079.31-1.71-.287-3.226s-2.458-5.034-2.458-5.034.931,1.137,1.276.775-1.353-4.886-2.148-5.92v-.015c.008.008.02.017.031.029.255.244.912.811,1.185.482.311-.374-1.621-3.7-2.533-4.718.285.248.737.569.983.377.369-.283-1.692-4.4-2.589-5.593l-.082-.107s.774.638,1.084.138-1.443-3.909-2.3-4.994c0,0,.792.808,1.137.517s-1.724-4-2.533-4.752c0,0,.914.722,1.188.379s-3.392-4.823-3.392-4.823a2.193,2.193,0,0,0-.273-.284v46.385c.041-.073.067-.122.067-.122s1.583,2.119,2.134,1.706.189-1.378.189-1.378,1.568,1.7,2.446,1.531.5-1.445.5-1.445,2.255,1.344,2.84.879-.258-1.463-.258-1.463,1.343,1.1,2.119,1,.482-1.1.482-1.1.637.723,1.275.584-.982-1.774-.982-1.774,1.084.861,1.636.551S860.478,6589.107,859.6,6588.212Z" fill="#73b634" opacity="0.4"/>
    </g>
    <g id="Grupo_2486" data-name="Grupo 2486">
      <g id="Grupo_2484" data-name="Grupo 2484">
        <path id="Trazado_1928" data-name="Trazado 1928" d="M863.746,6614.031l-1.283-14.314-.4-.041v0l-.027,0-.029,0v0l-.4.041-1.284,14.314s-.116.909,1.644,1.041a.762.762,0,0,0,.092.005C863.865,6614.953,863.746,6614.031,863.746,6614.031Z" fill="#a54f14"/>
        <path id="Trazado_1929" data-name="Trazado 1929" d="M863.746,6614.031l-1.283-14.314-.4-.041v0l-.027,0-.014,0v15.4h.041C863.865,6614.953,863.746,6614.031,863.746,6614.031Z" fill="#813f0e"/>
      </g>
      <g id="Grupo_2485" data-name="Grupo 2485">
        <path id="Trazado_1930" data-name="Trazado 1930" d="M869.163,6584.575a.77.77,0,0,1,.058.072v-.013Z" fill="#73b634"/>
        <path id="Trazado_1931" data-name="Trazado 1931" d="M869.221,6584.634c.007.008.016.015.025.024-.017-.018-.025-.028-.025-.028Z" fill="#73b634"/>
        <path id="Trazado_1932" data-name="Trazado 1932" d="M867.984,6581.133s.082.087.2.191A1.317,1.317,0,0,0,867.984,6581.133Z" fill="#73b634"/>
        <path id="Trazado_1933" data-name="Trazado 1933" d="M856.231,6585.24c.592.163,1.466-.923,1.466-.923s.171,1.939.985,1.587a3.013,3.013,0,0,0,1.238-1.587s.514,1.276,1.057,1.086.487-.95.487-.95.38,1.357,1.058,1.167.7-1.167.7-1.167.491,1.329,1.3,1.221.7-1.193.7-1.193.465,1.165,1.062.922a2.119,2.119,0,0,0,.93-.936s.706,1.667,1.455,1.315c.55-.257.55-1.021.545-1.135a.77.77,0,0,0-.058-.072l.058.059v0s.008.01.025.028c.2.192.718.637.934.378.244-.293-1.277-2.916-1.995-3.712-.119-.1-.2-.191-.2-.191a1.317,1.317,0,0,1,.2.191c.224.194.579.447.774.3.289-.224-1.332-3.462-2.037-4.4a6.871,6.871,0,0,1-.463-.586.471.471,0,0,1-.222.556c-.341.16-1.176-.75-1.176-.75s.186.647-.172.767-.7-.686-.7-.686-.11.578-.595.633-.534-.633-.534-.633-.146.612-.553.7-.523-.7-.523-.7a1.009,1.009,0,0,1-.514.5c-.324.093-.632-.533-.632-.533a1.1,1.1,0,0,1-.633.68c-.487.171-.7-.68-.7-.68a2.172,2.172,0,0,1-.874.453c-.358.027-.114-.493-.114-.493a5.525,5.525,0,0,1-.727.453,11.062,11.062,0,0,0-1.761,3.042c-.055.812.868-.2.868-.2s-2.155,3.376-2.155,4.352.881,0,.881,0l-.017.033.013-.019S855.654,6585.081,856.231,6585.24Z" fill="#51ae3b"/>
        <path id="Trazado_1934" data-name="Trazado 1934" d="M860.575,6569.851l.007-.011Z" fill="#73b634"/>
        <path id="Trazado_1935" data-name="Trazado 1935" d="M870.638,6594.294a1.3,1.3,0,0,1-.489.977c-.488.353-1-1.111-1-1.111a1.653,1.653,0,0,1-.65,1.165c-.569.327-1.926-1.246-1.926-1.246a.767.767,0,0,1-.46.868c-.6.242-1.275-.9-1.275-.9s.325,1.057-.489,1.165-1.3-1.22-1.3-1.22-.026.976-.7,1.165-1.057-1.165-1.057-1.165.053.76-.487.95-1.059-1.086-1.059-1.086a2.182,2.182,0,0,1-1.056,1.384c-.814.351-1.168-1.384-1.168-1.384s-.866.868-1.463.922-.189-1-.189-1a5.972,5.972,0,0,1-2.331,1.382c-.949.109-.282-1.287-.282-1.287s-1.7,2.86-1.614,3.686,1.165-.6,1.165-.6a10.571,10.571,0,0,0-1.436,2.969c-.163,1.085.352.882.583.734a6.051,6.051,0,0,0,.746-.774s-.908,1.911-.475,2.549,1.938-.664,1.938-.664-1.058,1.355-.665,1.681,2.984-1.274,2.984-1.274-.935.974-.448,1.3,3.023-.734,3.023-.734-.759.625-.3.857,2.644-.937,2.644-.937-.027,1.221.407,1.247,1.1-1.247,1.1-1.247,1.246,1.667,1.679,1.342.151-1.084.151-1.084,1.232,1.342,1.924,1.206.393-1.139.393-1.139,1.775,1.057,2.238.691-.205-1.151-.205-1.151,1.058.867,1.667.785.381-.867.381-.867.5.569,1,.461-.772-1.4-.772-1.4.854.677,1.287.434-.665-2.739-1.355-3.444c0,0,.907.772,1.205.379s-.99-3.781-1.5-4.175l.07.054Z" fill="#1f8a34"/>
        <path id="Trazado_1936" data-name="Trazado 1936" d="M853.531,6595.162a5.972,5.972,0,0,0,2.331-1.382s-.408,1.058.189,1,1.463-.922,1.463-.922.354,1.735,1.168,1.384a2.182,2.182,0,0,0,1.056-1.384s.516,1.276,1.059,1.086.487-.95.487-.95.38,1.354,1.057,1.165.7-1.165.7-1.165.49,1.328,1.3,1.22.489-1.165.489-1.165.679,1.137,1.275.9a.767.767,0,0,0,.46-.868s1.357,1.573,1.926,1.246a1.653,1.653,0,0,0,.65-1.165s.515,1.464,1,1.111a1.3,1.3,0,0,0,.489-.977l.425.475c.185.133.7.481,1.006.43.378-.062.243-1.346-.227-2.54s-1.934-3.963-1.934-3.963.733.894,1.005.611-1.067-3.845-1.692-4.66c.005.114.005.878-.545,1.135-.749.352-1.455-1.315-1.455-1.315a2.119,2.119,0,0,1-.93.936c-.6.243-1.062-.922-1.062-.922s.114,1.084-.7,1.193-1.3-1.221-1.3-1.221-.026.976-.7,1.167-1.058-1.167-1.058-1.167.056.76-.487.95-1.057-1.086-1.057-1.086a3.013,3.013,0,0,1-1.238,1.587c-.814.352-.985-1.587-.985-1.587s-.874,1.086-1.466.923-.614-1.138-.614-1.138l-.013.019c-.217.434-2.481,4.977-2.533,6.2-.053,1.287,1.208.149,1.208.149s-1.8,2.59-1.925,3.525.9-.122.9-.122S852.582,6595.271,853.531,6595.162Z" fill="#1da63f"/>
        <path id="Trazado_1937" data-name="Trazado 1937" d="M858.629,6576.938a2.172,2.172,0,0,0,.874-.453s.211.851.7.68a1.1,1.1,0,0,0,.633-.68s.308.626.632.533a1.009,1.009,0,0,0,.514-.5s.118.8.523.7.553-.7.553-.7.047.685.534.633.595-.633.595-.633.348.806.7.686.172-.767.172-.767.835.91,1.176.75a.471.471,0,0,0,.222-.556,6.871,6.871,0,0,0,.463.586l-.067-.085s.609.5.855.108-1.136-3.076-1.814-3.93c0,0,.623.636.894.406s-1.356-3.145-1.992-3.742c0,0,.718.57.935.3s-2.67-3.795-2.67-3.795-.244-.313-.366-.3a19.4,19.4,0,0,0-2.495,2.684c-.555.814-.543,1.357-.162,1.276a.983.983,0,0,0,.535-.288l.007-.011-.007.011c-.134.16-1.958,2.39-1.917,2.822.04.448.718-.121.718-.121s-2.237,2.711-2.115,4.013c0,0-.013.311.285.216a1.911,1.911,0,0,0,.569-.325s-.131.171-.327.442a5.525,5.525,0,0,0,.727-.453S858.271,6576.965,858.629,6576.938Z" fill="#73b634"/>
      </g>
      <path id="Trazado_1938" data-name="Trazado 1938" d="M871.292,6598.511s.907.772,1.205.379-.99-3.781-1.5-4.175l.07.054c.185.133.7.481,1.006.43.378-.062.243-1.346-.227-2.54s-1.934-3.963-1.934-3.963.733.894,1.005.611-1.067-3.845-1.692-4.66v-.013c.007.008.016.015.025.024.2.192.718.637.934.378.244-.293-1.277-2.916-1.995-3.712.224.194.579.447.774.3.289-.224-1.332-3.462-2.037-4.4l-.067-.085s.609.5.855.108-1.136-3.076-1.814-3.93c0,0,.623.636.894.406s-1.356-3.145-1.992-3.742c0,0,.718.57.935.3s-2.67-3.795-2.67-3.795a1.741,1.741,0,0,0-.216-.224v36.513c.034-.058.054-.1.054-.1s1.246,1.667,1.679,1.342.151-1.084.151-1.084,1.232,1.342,1.924,1.206.393-1.139.393-1.139,1.775,1.057,2.238.691-.205-1.151-.205-1.151,1.058.867,1.667.785.381-.867.381-.867.5.569,1,.461-.772-1.4-.772-1.4.854.677,1.287.434S871.982,6599.216,871.292,6598.511Z" fill="#73b634" opacity="0.4"/>
    </g>
  </g>
</svg>
