<svg xmlns="http://www.w3.org/2000/svg" width="134.504" height="134.505" viewBox="0 0 134.504 134.505">
  <g id="Grupo_7813" data-name="Grupo 7813" transform="translate(-284.456 -2871.483)">
    <g id="Grupo_2277" data-name="Grupo 2277" transform="translate(-3324.329 -4.891)">
      <path id="Trazado_1463" data-name="Trazado 1463" d="M3676.037,2876.374q3.3,0,6.592.324t6.528.969q3.242.643,6.4,1.6t6.215,2.224q3.051,1.265,5.966,2.821t5.661,3.393q2.747,1.836,5.3,3.932t4.89,4.432q2.335,2.337,4.432,4.89t3.931,5.3q1.836,2.748,3.393,5.661t2.822,5.966q1.265,3.053,2.223,6.214t1.6,6.4q.645,3.241.969,6.529t.323,6.592q0,3.3-.323,6.591t-.969,6.529q-.645,3.24-1.6,6.4t-2.223,6.214q-1.265,3.052-2.822,5.966t-3.393,5.661q-1.835,2.747-3.931,5.3t-4.432,4.89q-2.337,2.337-4.89,4.432t-5.3,3.931q-2.748,1.836-5.661,3.394t-5.966,2.821q-3.052,1.265-6.215,2.224t-6.4,1.6q-3.24.645-6.528.969t-6.592.324q-3.3,0-6.592-.324t-6.528-.969q-3.24-.643-6.4-1.6t-6.214-2.224q-3.052-1.265-5.966-2.821t-5.661-3.394q-2.747-1.834-5.3-3.931t-4.89-4.432q-2.337-2.335-4.432-4.89t-3.932-5.3q-1.836-2.748-3.393-5.661t-2.822-5.966q-1.265-3.053-2.223-6.214t-1.6-6.4q-.643-3.24-.968-6.529t-.324-6.591q0-3.3.324-6.592t.968-6.529q.645-3.24,1.6-6.4t2.223-6.214q1.265-3.052,2.822-5.966t3.393-5.661q1.836-2.747,3.932-5.3t4.432-4.89q2.336-2.336,4.89-4.432t5.3-3.932q2.746-1.834,5.661-3.393t5.966-2.821q3.052-1.265,6.214-2.224t6.4-1.6q3.24-.645,6.528-.969T3676.037,2876.374Z" fill="#6595bf"/>
    </g>
    <circle id="Elipse_66" data-name="Elipse 66" cx="63.171" cy="63.171" r="63.171" transform="translate(288.537 2875.564)" fill="#fff"/>
    <g id="Grupo_2278" data-name="Grupo 2278" transform="translate(-3324.329 -4.891)">
      <circle id="Elipse_67" data-name="Elipse 67" cx="57.466" cy="57.466" r="57.466" transform="translate(3618.022 2886.161)" fill="#aed3f2"/>
    </g>
    <g id="Grupo_2305" data-name="Grupo 2305" transform="translate(-3324.329 -4.891)">
      <path id="Trazado_1521" data-name="Trazado 1521" d="M3676.365,2938.7a2.5,2.5,0,0,0-1.754,0s-31.329,11.908-31.615,12.373l1.258,3.661,30.357,11.338a2.513,2.513,0,0,0,1.754,0l30.358-11.338,1.258-3.661c-.286-.465-31.616-12.373-31.616-12.373Z" fill="#455da0"/>
      <path id="Trazado_1522" data-name="Trazado 1522" d="M3676.365,2938.7a2.491,2.491,0,0,0-.877-.159v27.689a2.5,2.5,0,0,0,.877-.158l30.358-11.338,1.258-3.661c-.286-.465-31.616-12.373-31.616-12.373Z" fill="#1f4270"/>
      <path id="Trazado_1523" data-name="Trazado 1523" d="M3717.893,2967.2l-9.912-16.122-32.493,11.647L3643,2951.077l-9.913,16.122a2.506,2.506,0,0,0,1.259,3.661l40.27,15.04a2.493,2.493,0,0,0,1.753,0l40.27-15.04a2.506,2.506,0,0,0,1.258-3.661Z" fill="#5f77af"/>
      <path id="Trazado_1524" data-name="Trazado 1524" d="M3717.893,2967.2l-9.912-16.122-32.493,11.647v23.335a2.491,2.491,0,0,0,.877-.159l40.27-15.04a2.506,2.506,0,0,0,1.258-3.661Z" fill="#455da0"/>
      <path id="Trazado_1525" data-name="Trazado 1525" d="M3676.269,2920.455a2.509,2.509,0,0,0-1.561,0s-16.314,5.577-16.618,6.071l1.258,3.661,15.263,5.7a2.5,2.5,0,0,0,1.754,0l15.263-5.7,1.259-3.661C3692.583,2926.032,3676.269,2920.455,3676.269,2920.455Z" fill="#febf01"/>
      <path id="Trazado_1526" data-name="Trazado 1526" d="M3676.269,2920.455a2.512,2.512,0,0,0-.781-.124v15.715a2.5,2.5,0,0,0,.877-.159l15.263-5.7,1.259-3.661C3692.583,2926.032,3676.269,2920.455,3676.269,2920.455Z" fill="#f4ae00"/>
      <path id="Trazado_1527" data-name="Trazado 1527" d="M3702.63,2942.374l-9.743-15.848-17.4,6.009-17.4-6.009-9.743,15.847a2.505,2.505,0,0,0,1.258,3.661l25.007,9.34a2.511,2.511,0,0,0,1.753,0l25.007-9.34a2.506,2.506,0,0,0,1.258-3.66Z" fill="#ffda2d"/>
      <path id="Trazado_1528" data-name="Trazado 1528" d="M3702.63,2942.374l-9.743-15.848-17.4,6.009v23a2.518,2.518,0,0,0,.877-.158l25.007-9.34a2.506,2.506,0,0,0,1.258-3.66Z" fill="#febf01"/>
      <path id="Trazado_1529" data-name="Trazado 1529" d="M3677.624,2901.7a2.507,2.507,0,0,0-4.271,0l-9.912,16.122a2.507,2.507,0,0,0,1.259,3.661l9.912,3.7a2.521,2.521,0,0,0,.877.158c.3,0,1.416-2.465,1.7-2.571Z" fill="#c2e541"/>
      <path id="Trazado_1530" data-name="Trazado 1530" d="M3687.536,2917.822l-9.912-16.122a2.508,2.508,0,0,0-2.135-1.194v24.837a2.512,2.512,0,0,0,.876-.158l9.913-3.7a2.507,2.507,0,0,0,1.258-3.661Z" fill="#a6d12d"/>
    </g>
  </g>
</svg>
