<svg xmlns="http://www.w3.org/2000/svg" width="134.504" height="134.504" viewBox="0 0 134.504 134.504">
  <g id="Grupo_7812" data-name="Grupo 7812" transform="translate(-284.456 -2710.117)">
    <g id="Grupo_2275" data-name="Grupo 2275" transform="translate(-3324.329 -4.891)">
      <path id="Trazado_1462" data-name="Trazado 1462" d="M3676.037,2715.008q3.3,0,6.592.324t6.528.968q3.242.645,6.4,1.6t6.215,2.223q3.051,1.265,5.966,2.822t5.661,3.393q2.747,1.836,5.3,3.931t4.89,4.432q2.335,2.337,4.432,4.891t3.931,5.3q1.836,2.747,3.393,5.661t2.822,5.966q1.265,3.053,2.223,6.214t1.6,6.4q.645,3.24.969,6.528t.323,6.592q0,3.3-.323,6.592t-.969,6.528q-.645,3.24-1.6,6.4T3738.17,2808q-1.265,3.052-2.822,5.966t-3.393,5.661q-1.835,2.747-3.931,5.3t-4.432,4.89q-2.337,2.337-4.89,4.433t-5.3,3.931q-2.748,1.836-5.661,3.393t-5.966,2.822q-3.052,1.265-6.215,2.223t-6.4,1.6q-3.24.645-6.528.968t-6.592.324q-3.3,0-6.592-.324t-6.528-.968q-3.24-.645-6.4-1.6t-6.214-2.223q-3.052-1.265-5.966-2.822t-5.661-3.393q-2.747-1.836-5.3-3.931t-4.89-4.433q-2.337-2.335-4.432-4.89t-3.932-5.3q-1.836-2.747-3.393-5.661T3613.9,2808q-1.265-3.053-2.223-6.214t-1.6-6.4q-.643-3.24-.968-6.528t-.324-6.592q0-3.3.324-6.592t.968-6.528q.645-3.241,1.6-6.4t2.223-6.214q1.265-3.052,2.822-5.966t3.393-5.661q1.836-2.748,3.932-5.3t4.432-4.891q2.336-2.336,4.89-4.432t5.3-3.931q2.746-1.836,5.661-3.393t5.966-2.822q3.052-1.265,6.214-2.223t6.4-1.6q3.24-.645,6.528-.968T3676.037,2715.008Z" fill="#6595bf"/>
    </g>
    <circle id="Elipse_64" data-name="Elipse 64" cx="63.171" cy="63.171" r="63.171" transform="translate(288.537 2714.198)" fill="#fff"/>
    <g id="Grupo_2276" data-name="Grupo 2276" transform="translate(-3324.329 -4.891)">
      <circle id="Elipse_65" data-name="Elipse 65" cx="57.466" cy="57.466" r="57.466" transform="translate(3618.022 2724.794)" fill="#aed3f2"/>
    </g>
    <g id="Grupo_2304" data-name="Grupo 2304" transform="translate(-3324.329 -4.891)">
      <g id="Grupo_2294" data-name="Grupo 2294">
        <g id="Grupo_2293" data-name="Grupo 2293">
          <g id="Grupo_2292" data-name="Grupo 2292">
            <rect id="Rectángulo_846" data-name="Rectángulo 846" width="19.513" height="39.698" transform="matrix(0.388, -0.922, 0.922, 0.388, 3675.875, 2776.461)" fill="#75bd38"/>
            <path id="Trazado_1495" data-name="Trazado 1495" d="M3682.944,2765.03l-2.84,6.756c1.26.693,3.417,1.788,2.365,5.588l24.5,10.3c2.1-3.628,4.592-2.6,5.892-2.143l2.831-6.734c-1.261-.62-3.811-1.736-2.523-5.967l-23.69-9.959C3687.024,2767.35,3683.871,2765.48,3682.944,2765.03Z" fill="#ffffd0"/>
            <path id="Trazado_1496" data-name="Trazado 1496" d="M3690.037,2771.832a2.4,2.4,0,1,1-1.282-3.14A2.4,2.4,0,0,1,3690.037,2771.832Z" fill="#75bd38"/>
            <path id="Trazado_1497" data-name="Trazado 1497" d="M3709.326,2779.941a2.4,2.4,0,1,1-1.277-3.138A2.4,2.4,0,0,1,3709.326,2779.941Z" fill="#75bd38"/>
            <path id="Trazado_1498" data-name="Trazado 1498" d="M3703.54,2777.509a6.017,6.017,0,1,1-3.216-7.878A6.016,6.016,0,0,1,3703.54,2777.509Z" fill="#75bd38"/>
          </g>
          <path id="Trazado_1499" data-name="Trazado 1499" d="M3700.082,2777.674a1.969,1.969,0,0,0-.907-2.366c-.222-.1-.419-.2-.595-.293l.958-2.278a.878.878,0,0,1,.124,1.317l1.376.579s1.462-1.9-.926-3.263l.079-.188a.523.523,0,0,0-.964-.4l-.068.162c-2.268-.8-2.909.633-3.226,1.467-.308.812-.572,1.888,1.283,3.155l-.957,2.277c-.7-.654-.038-1.666-.038-1.666l-1.585-.666c-.372.707-.905,2.108,1.239,3.245l-.161.384a.523.523,0,0,0,.964.405l.155-.37C3698.449,2779.747,3699.392,2779.373,3700.082,2777.674Zm-2.761-4.6a1.173,1.173,0,0,1,1.256-.745l-.863,2.052C3697.016,2773.653,3697.321,2773.07,3697.321,2773.07Zm-.1,5.182.879-2.092A1.149,1.149,0,0,1,3697.219,2778.252Z" fill="#ffffd0"/>
        </g>
        <rect id="Rectángulo_847" data-name="Rectángulo 847" width="19.513" height="39.698" transform="translate(3675.875 2776.46) rotate(-67.199)" fill="#b1c0c0"/>
      </g>
      <g id="Grupo_2297" data-name="Grupo 2297">
        <g id="Grupo_2296" data-name="Grupo 2296">
          <g id="Grupo_2295" data-name="Grupo 2295">
            <rect id="Rectángulo_848" data-name="Rectángulo 848" width="39.698" height="19.513" transform="matrix(1, -0.014, 0.014, 1, 3683.944, 2786.465)" fill="#75bd38"/>
            <path id="Trazado_1500" data-name="Trazado 1500" d="M3686.119,2792.672l.1,7.328c1.432.13,3.847.27,4.405,4.174l26.568-.371c.472-4.165,3.167-4.221,4.541-4.323l-.1-7.3c-1.4-.063-4.187-.064-4.7-4.458l-25.7.359C3690.786,2793.164,3687.148,2792.713,3686.119,2792.672Z" fill="#ffffd0"/>
            <path id="Trazado_1501" data-name="Trazado 1501" d="M3695.341,2796.065a2.4,2.4,0,1,1-2.432-2.364A2.4,2.4,0,0,1,3695.341,2796.065Z" fill="#75bd38"/>
            <path id="Trazado_1502" data-name="Trazado 1502" d="M3716.263,2795.773a2.4,2.4,0,1,1-2.426-2.364A2.4,2.4,0,0,1,3716.263,2795.773Z" fill="#75bd38"/>
            <path id="Trazado_1503" data-name="Trazado 1503" d="M3709.987,2795.861a6.017,6.017,0,1,1-6.1-5.932A6.015,6.015,0,0,1,3709.987,2795.861Z" fill="#75bd38"/>
          </g>
          <path id="Trazado_1504" data-name="Trazado 1504" d="M3706.885,2797.4c-.038-1.6-1.778-1.8-1.778-1.8-.242,0-.462-.011-.663-.03l-.035-2.472a.88.88,0,0,1,.642,1.158l1.492-.021s.579-2.327-2.154-2.619l0-.2a.523.523,0,0,0-1.045.014l0,.176c-2.4.176-2.412,1.745-2.369,2.636.042.868.231,1.96,2.439,2.378l.034,2.47c-.907-.318-.7-1.512-.7-1.512l-1.719.024c-.058.8.014,2.294,2.434,2.478l.006.416a.523.523,0,0,0,1.045-.015l0-.4C3706.219,2799.951,3706.933,2799.23,3706.885,2797.4Zm-4.373-3.113a1.171,1.171,0,0,1,.852-1.185l.031,2.225C3702.465,2794.94,3702.512,2794.283,3702.512,2794.283Zm1.981,4.79-.032-2.27A1.15,1.15,0,0,1,3704.493,2799.073Z" fill="#ffffd0"/>
        </g>
        <rect id="Rectángulo_849" data-name="Rectángulo 849" width="39.698" height="19.513" transform="matrix(1, -0.014, 0.014, 1, 3683.944, 2786.465)" fill="#c5d6d6"/>
      </g>
      <path id="Trazado_1505" data-name="Trazado 1505" d="M3697.069,2764.2l-13.632-5.731-7.562,17.988,21.194,8.91Z" fill="#c5d6d6"/>
      <path id="Trazado_1506" data-name="Trazado 1506" d="M3697.069,2786.282l-13.124.183.272,19.511,12.852-.179Z" fill="#c5d6d6"/>
      <g id="Grupo_2299" data-name="Grupo 2299">
        <g id="Grupo_2298" data-name="Grupo 2298">
          <rect id="Rectángulo_850" data-name="Rectángulo 850" width="39.698" height="19.513" transform="translate(3678.013 2787.823) rotate(-21.704)" fill="#75bd38"/>
          <path id="Trazado_1507" data-name="Trazado 1507" d="M3682.259,2792.846l2.71,6.809c1.384-.39,3.69-1.12,5.6,2.327l24.687-9.826c-1.045-4.06,1.453-5.073,2.7-5.658l-2.7-6.788c-1.334.443-3.935,1.434-5.982-2.487l-23.876,9.5C3686.795,2791.64,3683.235,2792.516,3682.259,2792.846Z" fill="#e8f2de"/>
          <path id="Trazado_1508" data-name="Trazado 1508" d="M3692.085,2792.725a2.4,2.4,0,1,1-3.116-1.341A2.4,2.4,0,0,1,3692.085,2792.725Z" fill="#75bd38"/>
          <path id="Trazado_1509" data-name="Trazado 1509" d="M3711.526,2784.987a2.4,2.4,0,1,1-3.111-1.343A2.4,2.4,0,0,1,3711.526,2784.987Z" fill="#75bd38"/>
          <path id="Trazado_1510" data-name="Trazado 1510" d="M3705.694,2787.308a6.017,6.017,0,1,1-7.815-3.364A6.016,6.016,0,0,1,3705.694,2787.308Z" fill="#75bd38"/>
        </g>
        <path id="Trazado_1511" data-name="Trazado 1511" d="M3703.54,2789.759a1.969,1.969,0,0,0-2.324-1.01c-.224.09-.433.162-.626.219l-.954-2.28a.879.879,0,0,1,1.027.835l1.377-.577s-.331-2.374-2.976-1.625l-.079-.189a.523.523,0,0,0-.965.4l.068.162c-2.159,1.059-1.586,2.52-1.214,3.329.363.79.946,1.732,3.15,1.3l.954,2.278c-.961.044-1.215-1.14-1.215-1.14l-1.586.663c.244.761.869,2.123,3.183,1.39l.161.384a.523.523,0,0,0,.964-.4l-.155-.37C3703.874,2792.378,3704.268,2791.443,3703.54,2789.759Zm-5.219-1.256a1.172,1.172,0,0,1,.348-1.418l.859,2.053C3698.523,2789.13,3698.321,2788.5,3698.321,2788.5Zm3.625,3.7-.876-2.093A1.149,1.149,0,0,1,3701.946,2792.207Z" fill="#e8f2de"/>
      </g>
      <path id="Trazado_1512" data-name="Trazado 1512" d="M3694.189,2781.385l-16.177,6.439,7.216,18.13,8.96-3.567Z" fill="#b1c0c0"/>
      <g id="Grupo_2300" data-name="Grupo 2300">
        <path id="Trazado_1513" data-name="Trazado 1513" d="M3674,2750.275l-23.538-.118v-5.2a3.5,3.5,0,0,1,3.254-3.729l17.029.085a3.547,3.547,0,0,1,3.255,3.761Z" fill="#ccc"/>
        <path id="Trazado_1514" data-name="Trazado 1514" d="M3650.459,2745.469v4.688l23.538.118v-4.557C3669.383,2745.641,3653.381,2745.5,3650.459,2745.469Z" fill="#a5a7ab" opacity="0.5"/>
        <path id="Trazado_1515" data-name="Trazado 1515" d="M3686.714,2817.062l-49.07-.245a2.71,2.71,0,0,1-2.487-2.874l-.01-64.141a2.678,2.678,0,0,1,2.487-2.85l49.069.244a2.711,2.711,0,0,1,2.487,2.875l.01,64.141A2.678,2.678,0,0,1,3686.714,2817.062Z" fill="#474656"/>
        <path id="Trazado_1516" data-name="Trazado 1516" d="M3685.759,2812.609l-47.161-.235-.009-60.969,47.161.235Z" fill="#fff"/>
      </g>
      <rect id="Rectángulo_851" data-name="Rectángulo 851" width="4.464" height="14.369" transform="translate(3642.352 2792.732)" fill="#d7d7d7"/>
      <rect id="Rectángulo_852" data-name="Rectángulo 852" width="4.464" height="18.834" transform="translate(3651.147 2788.268)" fill="#bebebe"/>
      <rect id="Rectángulo_853" data-name="Rectángulo 853" width="4.464" height="27.506" transform="translate(3659.942 2779.596)" fill="#83828d"/>
      <rect id="Rectángulo_854" data-name="Rectángulo 854" width="4.464" height="25.095" transform="translate(3668.737 2782.007)" fill="#8ac757"/>
      <rect id="Rectángulo_855" data-name="Rectángulo 855" width="4.464" height="33.96" transform="translate(3677.531 2773.142)" fill="#1db2cc"/>
      <g id="Grupo_2303" data-name="Grupo 2303">
        <g id="Grupo_2302" data-name="Grupo 2302">
          <g id="Grupo_2301" data-name="Grupo 2301">
            <path id="Trazado_1517" data-name="Trazado 1517" d="M3644.854,2785.3l-.539-.954,8.714-4.931,8.985-10.276,8.757,3.34,8.549-11.863.888.639-9.041,12.548-8.832-3.37-8.686,9.89Z" fill="#f65138"/>
          </g>
        </g>
        <path id="Trazado_1518" data-name="Trazado 1518" d="M3646.231,2784.824a1.647,1.647,0,1,1-1.647-1.647A1.647,1.647,0,0,1,3646.231,2784.824Z" fill="#f65138"/>
        <path id="Trazado_1519" data-name="Trazado 1519" d="M3655.026,2779.847a1.647,1.647,0,1,1-1.647-1.647A1.647,1.647,0,0,1,3655.026,2779.847Z" fill="#f65138"/>
        <circle id="Elipse_84" data-name="Elipse 84" cx="1.647" cy="1.647" r="1.647" transform="translate(3660.3 2768.505)" fill="#f65138"/>
        <circle id="Elipse_85" data-name="Elipse 85" cx="1.647" cy="1.647" r="1.647" transform="translate(3669.321 2771.311)" fill="#f65138"/>
        <circle id="Elipse_86" data-name="Elipse 86" cx="1.647" cy="1.647" r="1.647" transform="translate(3678.116 2759.439)" fill="#f65138"/>
      </g>
      <path id="Trazado_1520" data-name="Trazado 1520" d="M3689.194,2778.636l0-16.314-11.631-4.852Z" fill="#969696" opacity="0.55"/>
    </g>
  </g>
</svg>
