<svg xmlns="http://www.w3.org/2000/svg" xmlns:xlink="http://www.w3.org/1999/xlink" width="134.504" height="134.504" viewBox="0 0 134.504 134.504">
  <defs>
    <clipPath id="clip-path">
      <circle id="Elipse_88" data-name="Elipse 88" cx="57.466" cy="57.466" r="57.466" transform="translate(3618.022 3208.894)" fill="none"/>
    </clipPath>
  </defs>
  <g id="Grupo_7815" data-name="Grupo 7815" transform="translate(-284.456 -3194.217)">
    <g id="Grupo_2281" data-name="Grupo 2281" transform="translate(-3324.329 -4.891)">
      <path id="Trazado_1465" data-name="Trazado 1465" d="M3676.037,3199.108q3.3,0,6.592.323t6.528.969q3.242.644,6.4,1.6t6.215,2.224q3.051,1.265,5.966,2.822t5.661,3.392q2.747,1.836,5.3,3.932t4.89,4.432q2.335,2.337,4.432,4.89t3.931,5.3q1.836,2.748,3.393,5.661t2.822,5.966q1.265,3.052,2.223,6.214t1.6,6.4q.645,3.241.969,6.529t.323,6.592q0,3.3-.323,6.591t-.969,6.529q-.645,3.24-1.6,6.4t-2.223,6.214q-1.265,3.053-2.822,5.966t-3.393,5.661q-1.835,2.747-3.931,5.3t-4.432,4.89q-2.337,2.337-4.89,4.432t-5.3,3.932q-2.748,1.836-5.661,3.393t-5.966,2.821q-3.052,1.265-6.215,2.224t-6.4,1.6q-3.24.645-6.528.969t-6.592.324q-3.3,0-6.592-.324t-6.528-.969q-3.24-.644-6.4-1.6t-6.214-2.224q-3.052-1.265-5.966-2.821t-5.661-3.393q-2.747-1.836-5.3-3.932t-4.89-4.432q-2.337-2.336-4.432-4.89t-3.932-5.3q-1.836-2.748-3.393-5.661t-2.822-5.966q-1.265-3.052-2.223-6.214t-1.6-6.4q-.643-3.24-.968-6.529t-.324-6.591q0-3.3.324-6.592t.968-6.529q.645-3.24,1.6-6.4t2.223-6.214q1.265-3.051,2.822-5.966t3.393-5.661q1.836-2.747,3.932-5.3t4.432-4.89q2.336-2.335,4.89-4.432t5.3-3.932q2.746-1.834,5.661-3.392t5.966-2.822q3.052-1.265,6.214-2.224t6.4-1.6q3.24-.645,6.528-.969T3676.037,3199.108Z" fill="#6595bf"/>
    </g>
    <circle id="Elipse_70" data-name="Elipse 70" cx="63.171" cy="63.171" r="63.171" transform="translate(288.537 3198.297)" fill="#fff"/>
    <g id="Grupo_2282" data-name="Grupo 2282" transform="translate(-3324.329 -4.891)">
      <circle id="Elipse_71" data-name="Elipse 71" cx="57.466" cy="57.466" r="57.466" transform="translate(3618.022 3208.894)" fill="#aed3f2"/>
    </g>
    <g id="Grupo_2327" data-name="Grupo 2327" transform="translate(-3324.329 -4.891)">
      <g id="Grupo_2326" data-name="Grupo 2326" clip-path="url(#clip-path)">
        <g id="Grupo_2325" data-name="Grupo 2325">
          <rect id="Rectángulo_857" data-name="Rectángulo 857" width="67.336" height="13.41" rx="1.847" transform="translate(3621.241 3257.836)" fill="#007495"/>
          <g id="Grupo_2312" data-name="Grupo 2312">
            <path id="Trazado_1540" data-name="Trazado 1540" d="M3710.077,3238.788c-1.9-1.5-4-.652-2.057,1.937,2.457,3.275,3.843,8.194,2.556,8.234s-2.946-8.592-8.271-11.818c-3.942-2.384-6.725.29-3.976,2.175,7.118,4.9,9.1,10.094,8.087,10.625s-5.447-7.406-11.256-8.926c-6.933-1.8-7.065,4.56-2.436,4.191,4.659-.352,11.009,5.872,10.3,6.543s-2.882-1.886-6.692-.236c-3.434,1.487-4.782,10.056-2.557,10.378,3.273.474,2.726-5.22,5.262-5.823,2.323-.55,6.027,2.981,6.677,5.959.386,1.776-.539,5.694-3.406,6.353-3.671.843-3.541-1.873-5.607-1.469-4.6,1.532.641,6,5.119,6.754,9.28,1.562,12.818-2.435,12.818-2.435,4.335,3.131,5.547,4.794,6.313,7.439l8.452-10.043a60.632,60.632,0,0,0-10.594-7.813,22.906,22.906,0,0,0-4.867-10.727C3713.064,3243.557,3710.88,3239.424,3710.077,3238.788Z" fill="#f5dac3"/>
            <rect id="Rectángulo_858" data-name="Rectángulo 858" width="14.482" height="6.68" transform="translate(3715.833 3274.364) rotate(-49.917)" fill="#eff0f0"/>
            <rect id="Rectángulo_859" data-name="Rectángulo 859" width="7.242" height="6.68" transform="matrix(0.644, -0.765, 0.765, 0.644, 3720.495, 3268.824)" fill="#fff"/>
            <path id="Trazado_1541" data-name="Trazado 1541" d="M3732.954,3268.145l-5.273-4.437-11,13.071,16.273,13.695Z" fill="#3b3b3c"/>
            <path id="Trazado_1542" data-name="Trazado 1542" d="M3720.543,3275.89a.667.667,0,1,0,.079.938A.667.667,0,0,0,3720.543,3275.89Z" fill="#fff"/>
            <path id="Trazado_1543" data-name="Trazado 1543" d="M3722.456,3277.5a.667.667,0,1,0,.079.938A.666.666,0,0,0,3722.456,3277.5Z" fill="#fff"/>
            <path id="Trazado_1544" data-name="Trazado 1544" d="M3724.368,3279.109a.667.667,0,1,0,.079.938A.667.667,0,0,0,3724.368,3279.109Z" fill="#fff"/>
            <path id="Trazado_1545" data-name="Trazado 1545" d="M3732.954,3268.145l-5.273-4.437-5.5,6.536,10.773,9.066Z" fill="#404041"/>
          </g>
          <g id="Grupo_2314" data-name="Grupo 2314">
            <path id="Trazado_1546" data-name="Trazado 1546" d="M3629.742,3259.245l1.721,3.487,3.848.559-2.784,2.714.657,3.832-3.441-1.809-3.441,1.809.657-3.832-2.784-2.714,3.848-.559Z" fill="#ffdc6a"/>
            <path id="Trazado_1547" data-name="Trazado 1547" d="M3628.655,3265.92a1.088,1.088,0,1,0,2.175,0Z" fill="#f6911e"/>
            <g id="Grupo_2313" data-name="Grupo 2313">
              <path id="Trazado_1548" data-name="Trazado 1548" d="M3628.287,3263.838a.635.635,0,1,0,.636.636A.635.635,0,0,0,3628.287,3263.838Z" fill="#f6911e"/>
              <path id="Trazado_1549" data-name="Trazado 1549" d="M3631.2,3263.838a.635.635,0,1,0,.635.636A.636.636,0,0,0,3631.2,3263.838Z" fill="#f6911e"/>
            </g>
          </g>
          <g id="Grupo_2316" data-name="Grupo 2316">
            <path id="Trazado_1550" data-name="Trazado 1550" d="M3641.288,3259.245l1.721,3.487,3.848.559-2.784,2.714.657,3.832-3.441-1.809-3.441,1.809.657-3.832-2.784-2.714,3.848-.559Z" fill="#ffdc6a"/>
            <path id="Trazado_1551" data-name="Trazado 1551" d="M3640.2,3265.92a1.088,1.088,0,1,0,2.176,0Z" fill="#f6911e"/>
            <g id="Grupo_2315" data-name="Grupo 2315">
              <path id="Trazado_1552" data-name="Trazado 1552" d="M3639.833,3263.838a.635.635,0,1,0,.636.636A.635.635,0,0,0,3639.833,3263.838Z" fill="#f6911e"/>
              <path id="Trazado_1553" data-name="Trazado 1553" d="M3642.743,3263.838a.635.635,0,1,0,.636.636A.635.635,0,0,0,3642.743,3263.838Z" fill="#f6911e"/>
            </g>
          </g>
          <g id="Grupo_2318" data-name="Grupo 2318">
            <path id="Trazado_1554" data-name="Trazado 1554" d="M3652.834,3259.245l1.721,3.487,3.848.559-2.784,2.714.657,3.832-3.441-1.809-3.442,1.809.657-3.832-2.784-2.714,3.848-.559Z" fill="#ffdc6a"/>
            <path id="Trazado_1555" data-name="Trazado 1555" d="M3651.746,3265.92a1.088,1.088,0,1,0,2.176,0Z" fill="#f6911e"/>
            <g id="Grupo_2317" data-name="Grupo 2317">
              <path id="Trazado_1556" data-name="Trazado 1556" d="M3651.379,3263.838a.635.635,0,1,0,.636.636A.636.636,0,0,0,3651.379,3263.838Z" fill="#f6911e"/>
              <path id="Trazado_1557" data-name="Trazado 1557" d="M3654.289,3263.838a.635.635,0,1,0,.636.636A.635.635,0,0,0,3654.289,3263.838Z" fill="#f6911e"/>
            </g>
          </g>
          <g id="Grupo_2320" data-name="Grupo 2320">
            <path id="Trazado_1558" data-name="Trazado 1558" d="M3664.38,3259.245l1.721,3.487,3.848.559-2.784,2.714.657,3.832-3.442-1.809-3.441,1.809.657-3.832-2.784-2.714,3.848-.559Z" fill="#ffdc6a"/>
            <path id="Trazado_1559" data-name="Trazado 1559" d="M3663.292,3265.92a1.088,1.088,0,1,0,2.176,0Z" fill="#f6911e"/>
            <g id="Grupo_2319" data-name="Grupo 2319">
              <path id="Trazado_1560" data-name="Trazado 1560" d="M3662.925,3263.838a.635.635,0,1,0,.635.636A.636.636,0,0,0,3662.925,3263.838Z" fill="#f6911e"/>
              <path id="Trazado_1561" data-name="Trazado 1561" d="M3665.835,3263.838a.635.635,0,1,0,.636.636A.635.635,0,0,0,3665.835,3263.838Z" fill="#f6911e"/>
            </g>
          </g>
          <g id="Grupo_2321" data-name="Grupo 2321" opacity="0.4">
            <path id="Trazado_1562" data-name="Trazado 1562" d="M3676.6,3259.245l1.721,3.487,3.848.559-2.784,2.714.657,3.832-3.441-1.809-3.441,1.809.657-3.832-2.784-2.714,3.848-.559Z" fill="#fff"/>
          </g>
          <g id="Grupo_2322" data-name="Grupo 2322">
            <path id="Trazado_1563" data-name="Trazado 1563" d="M3683.571,3285.3c-.1-2.007-.233-3.346-.233-3.346s-.133,1.339-.233,3.346c-.034,1-.111,2.175-.127,3.43s-.036,2.593-.055,3.932c.019,1.338.037,2.676.055,3.931s.092,2.426.126,3.43c.1,2.008.234,3.346.234,3.346s.134-1.338.234-3.346c.034-1,.113-2.175.127-3.43s.036-2.593.054-3.931c-.018-1.339-.037-2.677-.055-3.932S3683.6,3286.308,3683.571,3285.3Z" fill="#c1c1c1"/>
            <path id="Trazado_1564" data-name="Trazado 1564" d="M3687.642,3280.679c-.1-1.886-.233-3.144-.233-3.144s-.133,1.258-.233,3.144c-.034.943-.111,2.044-.127,3.223s-.037,2.437-.055,3.694c.018,1.258.037,2.516.054,3.7s.093,2.279.127,3.223c.1,1.886.234,3.144.234,3.144s.134-1.258.234-3.144c.034-.944.113-2.044.126-3.223s.036-2.437.055-3.7c-.019-1.257-.038-2.515-.055-3.694S3687.676,3281.622,3687.642,3280.679Z" fill="#c1c1c1"/>
            <path id="Trazado_1565" data-name="Trazado 1565" d="M3691.723,3286.806c-.016-1.319-.092-2.551-.127-3.606-.1-2.111-.233-3.519-.233-3.519s-.132,1.408-.233,3.519c-.034,1.055-.111,2.287-.127,3.606s-.036,2.727-.055,4.134c.019,1.407.037,2.815.055,4.134s.092,2.551.126,3.606c.1,2.111.234,3.519.234,3.519s.134-1.408.234-3.519c.034-1.055.113-2.287.127-3.606s.036-2.727.054-4.134C3691.76,3289.533,3691.741,3288.125,3691.723,3286.806Z" fill="#c1c1c1"/>
          </g>
          <g id="Grupo_2324" data-name="Grupo 2324">
            <path id="Trazado_1566" data-name="Trazado 1566" d="M3687.409,3253.491l4.02,8.146,8.989,1.306-6.5,6.341,1.536,8.953-8.04-4.227-8.041,4.227,1.536-8.953-6.5-6.341,8.989-1.306Z" fill="#ffdc6a"/>
            <path id="Trazado_1567" data-name="Trazado 1567" d="M3683.6,3268.45a3.812,3.812,0,0,0,7.624,0Z" fill="#f6911e"/>
            <g id="Grupo_2323" data-name="Grupo 2323">
              <path id="Trazado_1568" data-name="Trazado 1568" d="M3684.009,3264.221a1.485,1.485,0,1,0,1.485,1.485A1.485,1.485,0,0,0,3684.009,3264.221Z" fill="#f6911e"/>
              <path id="Trazado_1569" data-name="Trazado 1569" d="M3690.808,3264.221a1.485,1.485,0,1,0,1.485,1.485A1.484,1.484,0,0,0,3690.808,3264.221Z" fill="#f6911e"/>
            </g>
          </g>
        </g>
      </g>
    </g>
  </g>
</svg>
