<svg xmlns="http://www.w3.org/2000/svg" width="152.443" height="152.443" viewBox="0 0 152.443 152.443">
  <g id="Grupo_7814" data-name="Grupo 7814" transform="translate(-274.412 -2813.143)">
    <path id="Trazado_5140" data-name="Trazado 5140" d="M350.634,2813.143q3.744,0,7.47.367t7.4,1.1q3.674.731,7.256,1.817t7.043,2.52q3.461,1.432,6.762,3.2t6.416,3.846q3.112,2.079,6.008,4.456t5.542,5.023q2.648,2.647,5.024,5.542t4.455,6.008q2.08,3.114,3.846,6.416t3.2,6.762q1.432,3.459,2.52,7.043t1.817,7.255q.73,3.674,1.1,7.4t.367,7.472q0,3.744-.367,7.47t-1.1,7.4q-.73,3.672-1.817,7.256t-2.52,7.042q-1.433,3.461-3.2,6.762t-3.846,6.416q-2.08,3.112-4.455,6.008t-5.024,5.542q-2.647,2.649-5.542,5.024t-6.008,4.455q-3.114,2.08-6.416,3.846t-6.762,3.2q-3.459,1.433-7.043,2.52t-7.256,1.817q-3.672.732-7.4,1.1t-7.47.367q-3.746,0-7.472-.367t-7.4-1.1q-3.672-.729-7.255-1.817t-7.043-2.52q-3.461-1.432-6.762-3.2t-6.416-3.846q-3.114-2.079-6.008-4.455t-5.542-5.024q-2.649-2.647-5.024-5.542t-4.455-6.008q-2.08-3.114-3.846-6.416t-3.2-6.762q-1.432-3.459-2.52-7.042t-1.818-7.256q-.73-3.674-1.1-7.4t-.367-7.47q0-3.746.367-7.472t1.1-7.4q.73-3.672,1.818-7.255t2.52-7.043q1.433-3.459,3.2-6.762t3.846-6.416q2.079-3.114,4.455-6.008t5.024-5.542q2.648-2.649,5.542-5.023t6.008-4.456q3.114-2.08,6.416-3.846t6.762-3.2q3.459-1.433,7.043-2.52t7.255-1.817q3.674-.732,7.4-1.1T350.634,2813.143Z" fill="#db9600"/>
    <circle id="Elipse_382" data-name="Elipse 382" cx="71.597" cy="71.597" r="71.597" transform="translate(279.037 2817.768)" fill="#fff"/>
    <circle id="Elipse_383" data-name="Elipse 383" cx="65.13" cy="65.13" r="65.13" transform="translate(285.503 2824.234)" fill="#f2f2f2"/>
    <g id="Grupo_7773" data-name="Grupo 7773">
      <path id="Trazado_5145" data-name="Trazado 5145" d="M350.855,2887.967a29.109,29.109,0,0,0-1.954,8.884,24.053,24.053,0,1,0,48.105,0c0-13.289-24.052-51.112-24.052-51.112S356.583,2871.491,350.855,2887.967Z" fill="#00c2db"/>
      <path id="Trazado_5146" data-name="Trazado 5146" d="M356.417,2856.262a6.013,6.013,0,1,1-6.013-6.013A6.014,6.014,0,0,1,356.417,2856.262Z" fill="#00c2db"/>
      <path id="Trazado_5147" data-name="Trazado 5147" d="M318.835,2869.792a4.509,4.509,0,1,1-4.51-4.51A4.51,4.51,0,0,1,318.835,2869.792Z" fill="#00c2db"/>
      <g id="Grupo_7772" data-name="Grupo 7772">
        <path id="Trazado_5148" data-name="Trazado 5148" d="M350.4,2863.779a7.516,7.516,0,1,0-7.516-7.517A7.518,7.518,0,0,0,350.4,2863.779Zm0-12.026a4.51,4.51,0,1,1-4.51,4.509A4.509,4.509,0,0,1,350.4,2851.753Z" fill="#023b5e"/>
        <path id="Trazado_5149" data-name="Trazado 5149" d="M314.325,2875.8a6.013,6.013,0,1,0-6.013-6.013A6.014,6.014,0,0,0,314.325,2875.8Zm0-9.02a3.007,3.007,0,1,1-3.006,3.007A3.007,3.007,0,0,1,314.325,2866.785Z" fill="#023b5e"/>
        <path id="Trazado_5150" data-name="Trazado 5150" d="M374.223,2844.932a1.563,1.563,0,0,0-2.539,0c-.751,1.194-14.568,23.013-21.015,39.273-6.87-13.6-15.441-27.1-15.532-27.247a1.564,1.564,0,0,0-2.538,0c-.986,1.559-24.287,38.349-24.287,51.919a25.555,25.555,0,0,0,49.623,8.606,25.509,25.509,0,0,0,40.574-20.632C398.509,2883.287,375.208,2846.491,374.223,2844.932Zm-40.355,86.5a22.576,22.576,0,0,1-22.549-22.55c0-10.974,17.617-40.288,22.549-48.272,2.849,4.606,9.922,16.309,15.373,27.485a29.546,29.546,0,0,0-1.843,8.761,25.408,25.408,0,0,0,3.018,12.026H350.4a16.557,16.557,0,0,1-16.536,16.537v3.006a19.575,19.575,0,0,0,19.147-15.624,25.686,25.686,0,0,0,2.421,2.613A22.551,22.551,0,0,1,333.868,2931.427Zm39.086-12.027a22.575,22.575,0,0,1-22.55-22.549c0-10.974,17.615-40.279,22.55-48.271,4.934,7.992,22.549,37.3,22.549,48.271A22.574,22.574,0,0,1,372.954,2919.4Z" fill="#023b5e"/>
        <path id="Trazado_5151" data-name="Trazado 5151" d="M389.49,2896.851a16.556,16.556,0,0,1-16.536,16.536v3.007a19.565,19.565,0,0,0,19.542-19.543Z" fill="#023b5e"/>
      </g>
    </g>
  </g>
</svg>
