<svg xmlns="http://www.w3.org/2000/svg" width="233.435" height="173.177" viewBox="0 0 233.435 173.177">
  <g id="Grupo_47" data-name="Grupo 47" transform="translate(-4147.605 -5038.469)">
    <path id="Trazado_10" data-name="Trazado 10" d="M4153.4,5043.829c.177,0,.341.034.514.05a26.141,26.141,0,0,0,12.349-5.41,5.358,5.358,0,0,1,5.359,5.36,4.778,4.778,0,0,1-.055.563,5.278,5.278,0,0,1,2.354-.563,5.356,5.356,0,0,1,0,10.713H4153.4a5.356,5.356,0,1,1,0-10.713Z" fill="#fff"/>
    <path id="Trazado_11" data-name="Trazado 11" d="M4355.163,5070.977c.177,0,.341.034.514.051a26.127,26.127,0,0,0,12.349-5.411,5.358,5.358,0,0,1,5.359,5.36,5.033,5.033,0,0,1-.054.564,5.257,5.257,0,0,1,2.353-.564,5.356,5.356,0,0,1,0,10.713h-20.521a5.356,5.356,0,1,1,0-10.713Z" fill="#fff"/>
    <g id="Grupo_46" data-name="Grupo 46">
      <path id="Trazado_12" data-name="Trazado 12" d="M4365.736,5203.011a8.633,8.633,0,0,1-8.633,8.635H4156.24a8.635,8.635,0,0,1-8.635-8.635h0a8.635,8.635,0,0,1,8.635-8.634H4357.1a8.633,8.633,0,0,1,8.633,8.634Z" fill="#9b9b9b"/>
      <g id="Grupo_9" data-name="Grupo 9">
        <g id="Grupo_8" data-name="Grupo 8">
          <g id="Grupo_7" data-name="Grupo 7">
            <path id="Trazado_13" data-name="Trazado 13" d="M4256.674,5055.4l-69.244,32.47v98.949a8.115,8.115,0,0,0,8.119,8.12H4317.8a8.12,8.12,0,0,0,8.119-8.12v-98.949Z" fill="#92b7d6"/>
            <path id="Trazado_14" data-name="Trazado 14" d="M4256.674,5055.4l-69.244,32.47v98.949a8.115,8.115,0,0,0,8.119,8.12H4317.8a8.12,8.12,0,0,0,8.119-8.12v-98.949Z" fill="#92b7d6"/>
            <path id="Trazado_15" data-name="Trazado 15" d="M4256.674,5068.18l-69.244,32.471v86.166a8.115,8.115,0,0,0,8.119,8.12H4317.8a8.12,8.12,0,0,0,8.119-8.12v-86.166Z" fill="#1b5e92"/>
            <g id="Grupo_6" data-name="Grupo 6">
              <g id="Grupo_5" data-name="Grupo 5">
                <g id="Grupo_1" data-name="Grupo 1">
                  <path id="Trazado_16" data-name="Trazado 16" d="M4340.522,5098.623a6.14,6.14,0,0,1-2.659-.611l-81.2-39.431-81.19,39.431a6.087,6.087,0,1,1-5.316-10.953l83.849-40.73a6.112,6.112,0,0,1,5.316,0l83.854,40.73a6.085,6.085,0,0,1-2.658,11.564Z" fill="#ea5338"/>
                </g>
                <path id="Trazado_17" data-name="Trazado 17" d="M4256.674,5068.18l-69.244,32.471v86.166a8.115,8.115,0,0,0,8.119,8.12H4317.8a8.12,8.12,0,0,0,8.119-8.12v-86.166Z" fill="#cce6ff"/>
                <g id="Grupo_4" data-name="Grupo 4">
                  <path id="Trazado_18" data-name="Trazado 18" d="M4311.239,5185.338v-19.4h-7.019v-7.367h-9.27v26.763h-23.164v-21.03h-1.809v22.842h26.783v-26.762h5.649v7.364h7.019v19.4H4325.9c0-.111.015-.219.015-.333v-1.479Z" fill="#92b7d6"/>
                  <path id="Trazado_19" data-name="Trazado 19" d="M4325.918,5132.464h-17.806v14.355h-14.861v-36.042h-97.021v21.579h-8.8v1.813h10.612v-21.579h93.4v36.042h18.483v-14.354h15.995Z" fill="#92b7d6"/>
                  <g id="Grupo_2" data-name="Grupo 2">
                    <rect id="Rectángulo_3" data-name="Rectángulo 3" width="1.811" height="12.221" transform="translate(4223.206 5166.847)" fill="#92b7d6"/>
                  </g>
                  <circle id="Elipse_1" data-name="Elipse 1" cx="2.436" cy="2.436" r="2.436" transform="translate(4221.676 5177.546)" fill="#92b7d6"/>
                  <path id="Trazado_20" data-name="Trazado 20" d="M4207.471,5171.588a2.436,2.436,0,1,1-2.435-2.437A2.436,2.436,0,0,1,4207.471,5171.588Z" fill="#92b7d6"/>
                  <path id="Trazado_21" data-name="Trazado 21" d="M4207.471,5181.677a2.436,2.436,0,1,1-2.435-2.434A2.437,2.437,0,0,1,4207.471,5181.677Z" fill="#92b7d6"/>
                  <path id="Trazado_22" data-name="Trazado 22" d="M4320.585,5176.632a2.436,2.436,0,1,1-2.437-2.436A2.437,2.437,0,0,1,4320.585,5176.632Z" fill="#92b7d6"/>
                  <path id="Trazado_23" data-name="Trazado 23" d="M4230.235,5188.577a2.436,2.436,0,1,1-2.435-2.437A2.436,2.436,0,0,1,4230.235,5188.577Z" fill="#92b7d6"/>
                  <path id="Trazado_24" data-name="Trazado 24" d="M4320.585,5141.9a2.436,2.436,0,1,1-2.437-2.436A2.437,2.437,0,0,1,4320.585,5141.9Z" fill="#92b7d6"/>
                  <g id="Grupo_3" data-name="Grupo 3">
                    <rect id="Rectángulo_4" data-name="Rectángulo 4" width="1.81" height="12.221" transform="translate(4231.101 5166.847)" fill="#92b7d6"/>
                  </g>
                  <path id="Trazado_25" data-name="Trazado 25" d="M4234.444,5179.982a2.437,2.437,0,1,1-2.437-2.435A2.438,2.438,0,0,1,4234.444,5179.982Z" fill="#92b7d6"/>
                  <path id="Trazado_26" data-name="Trazado 26" d="M4214.432,5167.746h26.421v-1.81h-28.232v21.755h-15.455v-36.136h-9.735v1.813h7.924v34.323h-7.924v1.81h27Z" fill="#92b7d6"/>
                  <path id="Trazado_27" data-name="Trazado 27" d="M4204.13,5157.7h17.136v-1.81h-15.325v-12.176h76.841v33.833h1.811V5141.9H4204.13Z" fill="#92b7d6"/>
                  <path id="Trazado_28" data-name="Trazado 28" d="M4205.036,5125.73v1.81h79.6V5156h33.155v-1.811H4286.45V5125.73Z" fill="#92b7d6"/>
                </g>
              </g>
            </g>
          </g>
          <path id="Trazado_29" data-name="Trazado 29" d="M4320.585,5154.988a2.436,2.436,0,1,1-2.437-2.437A2.437,2.437,0,0,1,4320.585,5154.988Z" fill="#92b7d6"/>
          <path id="Trazado_30" data-name="Trazado 30" d="M4223.206,5092.064a2.436,2.436,0,1,1-2.435-2.436A2.435,2.435,0,0,1,4223.206,5092.064Z" fill="#92b7d6"/>
          <path id="Trazado_31" data-name="Trazado 31" d="M4295.511,5092.064a2.436,2.436,0,1,1-2.435-2.436A2.436,2.436,0,0,1,4295.511,5092.064Z" fill="#92b7d6"/>
          <circle id="Elipse_2" data-name="Elipse 2" cx="2.435" cy="2.435" r="2.435" transform="translate(4307.854 5164.412)" fill="#92b7d6"/>
          <path id="Trazado_32" data-name="Trazado 32" d="M4286.218,5179.069a2.436,2.436,0,1,1-2.436-2.437A2.435,2.435,0,0,1,4286.218,5179.069Z" fill="#92b7d6"/>
          <circle id="Elipse_3" data-name="Elipse 3" cx="2.435" cy="2.435" r="2.435" transform="translate(4293.076 5182.965)" fill="#92b7d6"/>
          <path id="Trazado_33" data-name="Trazado 33" d="M4215.963,5188.577a2.436,2.436,0,1,1-2.437-2.437A2.438,2.438,0,0,1,4215.963,5188.577Z" fill="#92b7d6"/>
          <path id="Trazado_34" data-name="Trazado 34" d="M4207.471,5149.982a2.436,2.436,0,1,1-2.435-2.436A2.436,2.436,0,0,1,4207.471,5149.982Z" fill="#92b7d6"/>
          <path id="Trazado_35" data-name="Trazado 35" d="M4198.226,5152.551a2.435,2.435,0,1,1-2.435-2.435A2.437,2.437,0,0,1,4198.226,5152.551Z" fill="#92b7d6"/>
          <path id="Trazado_36" data-name="Trazado 36" d="M4202.833,5124.155a2.436,2.436,0,1,0,2.436,2.438A2.437,2.437,0,0,0,4202.833,5124.155Z" fill="#92b7d6"/>
        </g>
      </g>
      <g id="Grupo_13" data-name="Grupo 13">
        <g id="Grupo_10" data-name="Grupo 10">
          <rect id="Rectángulo_5" data-name="Rectángulo 5" width="12.22" height="1.811" transform="translate(4304.383 5113.258)" fill="#92b7d6"/>
        </g>
        <path id="Trazado_37" data-name="Trazado 37" d="M4317.518,5111.728a2.436,2.436,0,1,1-2.437,2.437A2.438,2.438,0,0,1,4317.518,5111.728Z" fill="#92b7d6"/>
        <g id="Grupo_11" data-name="Grupo 11">
          <rect id="Rectángulo_6" data-name="Rectángulo 6" width="12.22" height="1.811" transform="translate(4304.383 5121.186)" fill="#92b7d6"/>
        </g>
        <path id="Trazado_38" data-name="Trazado 38" d="M4317.518,5119.656a2.436,2.436,0,1,1-2.437,2.434A2.436,2.436,0,0,1,4317.518,5119.656Z" fill="#92b7d6"/>
        <g id="Grupo_12" data-name="Grupo 12">
          <rect id="Rectángulo_7" data-name="Rectángulo 7" width="12.22" height="1.811" transform="translate(4304.383 5105.331)" fill="#92b7d6"/>
        </g>
        <path id="Trazado_39" data-name="Trazado 39" d="M4317.518,5103.8a2.436,2.436,0,1,1-2.437,2.436A2.438,2.438,0,0,1,4317.518,5103.8Z" fill="#92b7d6"/>
      </g>
      <g id="Grupo_26" data-name="Grupo 26">
        <g id="Grupo_25" data-name="Grupo 25">
          <g id="Grupo_24" data-name="Grupo 24">
            <g id="Grupo_18" data-name="Grupo 18">
              <path id="Trazado_40" data-name="Trazado 40" d="M4212.813,5105.055c8.438-.351,17.314-2.871,22.856-17.07h42c5.55,14.2,14.425,16.719,22.858,17.07-.67,36.765-15.025,62.812-43.865,79.531C4227.843,5167.867,4213.477,5141.816,4212.813,5105.055Z" fill="#fefefe"/>
              <path id="Trazado_41" data-name="Trazado 41" d="M4278.352,5086.406h-21.678v99.748c29.768-17.268,44.593-44.159,45.282-82.119C4293.25,5103.674,4284.084,5101.071,4278.352,5086.406Z" fill="#bbb"/>
              <g id="Grupo_17" data-name="Grupo 17">
                <g id="Grupo_16" data-name="Grupo 16">
                  <path id="Trazado_42" data-name="Trazado 42" d="M4305.208,5102.728a2.667,2.667,0,0,0-2.665-2.663c-8.541,0-16.012-1.131-20.827-15.055a2.682,2.682,0,0,0-2.512-1.8l-22.544,0h-22.509a2.686,2.686,0,0,0-2.524,1.8c-4.82,13.924-12.28,15.058-20.827,15.055a2.665,2.665,0,0,0-2.663,2.663c0,40.228,15.429,68.434,47.2,86.265,0,.008,0,.008.019.011s.014.013.014.013a3.571,3.571,0,0,0,.347.134,1.216,1.216,0,0,0,.277.118,2.924,2.924,0,0,0,.669.089h.014a2.805,2.805,0,0,0,.678-.089,1.25,1.25,0,0,0,.272-.114c.126-.047.24-.085.355-.138,0,0,.006,0,.006-.016a.032.032,0,0,0,.031-.008C4289.769,5171.162,4305.208,5142.954,4305.208,5102.728Zm-91.682,2.614c8.3-.358,17.032-2.825,22.5-16.787l20.636-.005h20.679c5.445,13.967,14.177,16.434,22.472,16.792-.646,36.157-14.78,61.8-43.151,78.235C4228.312,5167.138,4214.178,5141.5,4213.526,5105.342Z" fill="#f4a800"/>
                  <g id="Grupo_14" data-name="Grupo 14">
                    <path id="Trazado_43" data-name="Trazado 43" d="M4256.66,5166.847a1.7,1.7,0,0,0,.818-.211s.006,0,.013-.011h0c18.873-10.6,28.052-27.359,28.052-51.256a1.652,1.652,0,0,0-1.644-1.65c-5.055,0-9.459-.666-12.306-8.886a1.641,1.641,0,0,0-1.551-1.1h-26.736a1.635,1.635,0,0,0-1.556,1.1c-2.848,8.22-7.249,8.886-12.305,8.886a1.649,1.649,0,0,0-1.645,1.65c0,23.9,9.179,40.661,28.045,51.256h0c.014.011.014.011.02.011A1.672,1.672,0,0,0,4256.66,5166.847Z" fill="#27b7c2"/>
                  </g>
                  <g id="Grupo_15" data-name="Grupo 15">
                    <path id="Trazado_44" data-name="Trazado 44" d="M4283.9,5113.719c-5.055,0-9.459-.666-12.306-8.886a1.641,1.641,0,0,0-1.551-1.1h-13.368v63.107a1.679,1.679,0,0,0,.8-.2s.006,0,.013-.011c18.873-10.6,28.052-27.359,28.052-51.256A1.652,1.652,0,0,0,4283.9,5113.719Z" fill="#0899a0"/>
                  </g>
                </g>
              </g>
            </g>
            <g id="Grupo_23" data-name="Grupo 23">
              <g id="Grupo_22" data-name="Grupo 22">
                <g id="Grupo_21" data-name="Grupo 21">
                  <g id="Grupo_20" data-name="Grupo 20">
                    <g id="Grupo_19" data-name="Grupo 19">
                      <path id="Trazado_45" data-name="Trazado 45" d="M4256.674,5131.133Z" fill="#fff"/>
                    </g>
                  </g>
                </g>
              </g>
            </g>
          </g>
        </g>
      </g>
      <g id="Grupo_45" data-name="Grupo 45">
        <g id="Grupo_35" data-name="Grupo 35">
          <g id="Grupo_34" data-name="Grupo 34">
            <path id="Trazado_46" data-name="Trazado 46" d="M4347.249,5121.9l8,1.409.988-5.561-8-1.412Z" fill="#fd6220"/>
            <g id="Grupo_33" data-name="Grupo 33">
              <g id="Grupo_32" data-name="Grupo 32">
                <path id="Trazado_47" data-name="Trazado 47" d="M4349.34,5123.009a.5.5,0,1,1-.19.989Z" fill="#fd6220"/>
                <g id="Grupo_31" data-name="Grupo 31">
                  <rect id="Rectángulo_8" data-name="Rectángulo 8" height="0.371" transform="translate(4335.361 5116.464)" fill="#14b0bf"/>
                  <g id="Grupo_27" data-name="Grupo 27">
                    <path id="Trazado_48" data-name="Trazado 48" d="M4334.319,5132.442a3.2,3.2,0,0,0,3.193-3.182v-7.17l1.419.251v6.919a4.615,4.615,0,0,1-4.612,4.605h-8.212v-1.423Z" fill="#fd6220"/>
                    <path id="Trazado_49" data-name="Trazado 49" d="M4328.816,5110.184s15.015,2.536,15.149,2.449l6,1.043a1.428,1.428,0,0,1,.749,1.5l-1.528,8.656a1.417,1.417,0,0,1-1.656,1.152l-19.225-3.383a1.428,1.428,0,0,1-1.151-1.653Z" fill="#1b5e92"/>
                    <path id="Trazado_50" data-name="Trazado 50" d="M4346.5,5114.914l-18.965-3.212.343-1.957a1.556,1.556,0,0,1,1.8-1.27l21.06,3.718-4.239,2.721Z" fill="#f26329"/>
                    <path id="Trazado_51" data-name="Trazado 51" d="M4328.437,5112.7l18.064,3.047a.841.841,0,0,0,.447-.132l3.021-1.94a1.428,1.428,0,0,1,.749,1.5l-1.528,8.656a1.417,1.417,0,0,1-1.656,1.152l-19.225-3.383a1.428,1.428,0,0,1-1.151-1.653Z" fill="#f26329"/>
                    <rect id="Rectángulo_9" data-name="Rectángulo 9" width="5.647" height="2.112" transform="matrix(0.171, -0.985, 0.985, 0.171, 4350.222, 5122.429)" fill="#fd6220"/>
                    <path id="Trazado_52" data-name="Trazado 52" d="M4353.15,5123.168l1.336.223,1.058-5.979-1.34-.237Z" fill="#1b5e92"/>
                    <rect id="Rectángulo_10" data-name="Rectángulo 10" width="5.777" height="1.522" transform="translate(4355.057 5123.341) rotate(-79.976)" fill="#fd6220"/>
                  </g>
                  <g id="Grupo_30" data-name="Grupo 30">
                    <g id="Grupo_29" data-name="Grupo 29">
                      <g id="Grupo_28" data-name="Grupo 28">
                        <path id="Trazado_53" data-name="Trazado 53" d="M4327.75,5133.036c0,3.544-.823,6.423-1.844,6.423v-12.824C4326.927,5126.635,4327.75,5129.5,4327.75,5133.036Z" fill="#f26329"/>
                      </g>
                    </g>
                  </g>
                </g>
              </g>
            </g>
            <path id="Trazado_54" data-name="Trazado 54" d="M4338.893,5123.466l-10.584-1.861a1.428,1.428,0,0,1-1.151-1.653l1.279-7.251,18.064,3.047a.841.841,0,0,0,.447-.132l.593-.378Z" fill="#d32911"/>
          </g>
        </g>
        <g id="Grupo_44" data-name="Grupo 44">
          <g id="Grupo_43" data-name="Grupo 43">
            <rect id="Rectángulo_11" data-name="Rectángulo 11" width="8.127" height="5.649" transform="matrix(0.985, -0.173, 0.173, 0.985, 4157.106, 5117.75)" fill="#fd6220"/>
            <g id="Grupo_42" data-name="Grupo 42">
              <g id="Grupo_41" data-name="Grupo 41">
                <path id="Trazado_55" data-name="Trazado 55" d="M4164,5123.009a.5.5,0,1,0,.188.989Z" fill="#fd6220"/>
                <g id="Grupo_40" data-name="Grupo 40">
                  <rect id="Rectángulo_12" data-name="Rectángulo 12" height="0.371" transform="translate(4177.982 5116.464)" fill="#14b0bf"/>
                  <g id="Grupo_36" data-name="Grupo 36">
                    <path id="Trazado_56" data-name="Trazado 56" d="M4179.022,5132.442a3.193,3.193,0,0,1-3.19-3.182v-7.17l-1.42.251v6.919a4.614,4.614,0,0,0,4.61,4.605h8.214v-1.423Z" fill="#fd6220"/>
                    <path id="Trazado_57" data-name="Trazado 57" d="M4184.526,5110.184s-15.015,2.536-15.148,2.449l-6,1.043a1.427,1.427,0,0,0-.75,1.5l1.527,8.656a1.418,1.418,0,0,0,1.657,1.152l19.225-3.383a1.431,1.431,0,0,0,1.152-1.653Z" fill="#1b5e92"/>
                    <path id="Trazado_58" data-name="Trazado 58" d="M4166.845,5114.914l18.964-3.212-.342-1.957a1.559,1.559,0,0,0-1.806-1.27l-21.057,3.718,4.238,2.721Z" fill="#f26329"/>
                    <path id="Trazado_59" data-name="Trazado 59" d="M4184.906,5112.7l-18.064,3.047a.837.837,0,0,1-.447-.132l-3.021-1.94a1.427,1.427,0,0,0-.75,1.5l1.527,8.656a1.418,1.418,0,0,0,1.657,1.152l19.225-3.383a1.431,1.431,0,0,0,1.152-1.653Z" fill="#f26329"/>
                    <rect id="Rectángulo_13" data-name="Rectángulo 13" width="2.111" height="5.647" transform="translate(4160.075 5117.226) rotate(-9.84)" fill="#fd6220"/>
                    <path id="Trazado_60" data-name="Trazado 60" d="M4160.192,5123.168l-1.335.223-1.059-5.979,1.341-.237Z" fill="#1b5e92"/>
                    <rect id="Rectángulo_14" data-name="Rectángulo 14" width="1.522" height="5.777" transform="translate(4155.782 5117.917) rotate(-10.024)" fill="#fd6220"/>
                  </g>
                  <g id="Grupo_39" data-name="Grupo 39">
                    <g id="Grupo_38" data-name="Grupo 38">
                      <g id="Grupo_37" data-name="Grupo 37">
                        <path id="Trazado_61" data-name="Trazado 61" d="M4185.593,5133.036c0,3.544.823,6.423,1.844,6.423v-12.824C4186.416,5126.635,4185.593,5129.5,4185.593,5133.036Z" fill="#f26329"/>
                      </g>
                    </g>
                  </g>
                </g>
              </g>
            </g>
            <path id="Trazado_62" data-name="Trazado 62" d="M4174.45,5123.466l10.583-1.861a1.431,1.431,0,0,0,1.152-1.653l-1.279-7.251-18.064,3.047a.837.837,0,0,1-.447-.132l-.593-.378Z" fill="#d32911"/>
          </g>
        </g>
      </g>
    </g>
  </g>
</svg>
