<svg xmlns="http://www.w3.org/2000/svg" width="152.443" height="152.443" viewBox="0 0 152.443 152.443">
  <g id="Grupo_7816" data-name="Grupo 7816" transform="translate(-1018.654 -2813.143)">
    <path id="Trazado_5144" data-name="Trazado 5144" d="M1094.876,2813.143q3.744,0,7.471.367t7.4,1.1q3.672.731,7.256,1.817t7.042,2.52q3.461,1.432,6.762,3.2t6.416,3.846q3.114,2.079,6.008,4.456t5.542,5.023q2.649,2.647,5.024,5.542t4.456,6.008q2.079,3.114,3.845,6.416t3.2,6.762q1.434,3.459,2.52,7.043t1.818,7.255q.73,3.674,1.1,7.4t.367,7.472q0,3.744-.367,7.47t-1.1,7.4q-.731,3.672-1.818,7.256t-2.52,7.042q-1.433,3.461-3.2,6.762t-3.845,6.416q-2.08,3.112-4.456,6.008t-5.024,5.542q-2.648,2.649-5.542,5.024t-6.008,4.455q-3.113,2.08-6.416,3.846t-6.762,3.2q-3.459,1.433-7.042,2.52t-7.256,1.817q-3.673.732-7.4,1.1t-7.471.367q-3.745,0-7.471-.367t-7.4-1.1q-3.673-.729-7.256-1.817t-7.043-2.52q-3.459-1.432-6.762-3.2t-6.416-3.846q-3.113-2.079-6.008-4.455t-5.542-5.024q-2.648-2.647-5.023-5.542t-4.456-6.008q-2.08-3.114-3.846-6.416t-3.2-6.762q-1.433-3.459-2.52-7.042t-1.817-7.256q-.73-3.674-1.1-7.4t-.367-7.47q0-3.746.367-7.472t1.1-7.4q.73-3.672,1.817-7.255t2.52-7.043q1.432-3.459,3.2-6.762t3.846-6.416q2.08-3.114,4.456-6.008t5.023-5.542q2.648-2.649,5.542-5.023t6.008-4.456q3.114-2.08,6.416-3.846t6.762-3.2q3.459-1.433,7.043-2.52t7.256-1.817q3.672-.732,7.4-1.1T1094.876,2813.143Z" fill="#db9600"/>
    <circle id="Elipse_386" data-name="Elipse 386" cx="71.597" cy="71.597" r="71.597" transform="translate(1023.279 2817.768)" fill="#fff"/>
    <circle id="Elipse_387" data-name="Elipse 387" cx="65.13" cy="65.13" r="65.13" transform="translate(1029.746 2824.234)" fill="#f2f2f2"/>
    <g id="Grupo_7788" data-name="Grupo 7788">
      <g id="Grupo_7787" data-name="Grupo 7787">
        <g id="Grupo_7779" data-name="Grupo 7779">
          <g id="Grupo_7778" data-name="Grupo 7778">
            <g id="Grupo_7777" data-name="Grupo 7777">
              <path id="Trazado_5167" data-name="Trazado 5167" d="M1127.23,2918.338v.027a46.963,46.963,0,0,1-63.069,0v-.027a31.531,31.531,0,0,1,18-28.486c4,3.988,8.681,6.137,13.539,6.137s9.54-2.149,13.541-6.137A31.528,31.528,0,0,1,1127.23,2918.338Z" fill="#00c2db"/>
              <path id="Trazado_5168" data-name="Trazado 5168" d="M1095.7,2850.147a17.442,17.442,0,0,1,17.443,17.441c0,9.635-7.81,22.811-17.443,22.811s-17.443-13.176-17.443-22.811A17.442,17.442,0,0,1,1095.7,2850.147Z" fill="#fcd09f"/>
            </g>
          </g>
        </g>
        <g id="Grupo_7786" data-name="Grupo 7786">
          <g id="Grupo_7782" data-name="Grupo 7782">
            <g id="Grupo_7781" data-name="Grupo 7781">
              <g id="Grupo_7780" data-name="Grupo 7780">
                <path id="Trazado_5169" data-name="Trazado 5169" d="M1081,2884.266q.8,1.143,1.66,2.147l-1.741.828a34.427,34.427,0,0,0-19.4,26.988,40.8,40.8,0,0,1-16.681-9.157v-.022a27.48,27.48,0,0,1,15.682-24.824c3.485,3.477,7.564,5.349,11.8,5.349a15.288,15.288,0,0,0,8-2.335C1080.529,2883.587,1080.76,2883.93,1081,2884.266Z" fill="#dd474d"/>
                <path id="Trazado_5170" data-name="Trazado 5170" d="M1075.364,2867.587a28.45,28.45,0,0,0,2.617,11.351,10.562,10.562,0,0,1-5.671,1.765c-8.394,0-15.2-11.481-15.2-19.877a15.2,15.2,0,0,1,26.81-9.807A20.328,20.328,0,0,0,1075.364,2867.587Z" fill="#efc59c"/>
              </g>
            </g>
          </g>
          <g id="Grupo_7785" data-name="Grupo 7785">
            <g id="Grupo_7784" data-name="Grupo 7784">
              <g id="Grupo_7783" data-name="Grupo 7783">
                <path id="Trazado_5171" data-name="Trazado 5171" d="M1110.346,2884.266q-.8,1.143-1.659,2.147l1.74.828a34.426,34.426,0,0,1,19.4,26.988,40.8,40.8,0,0,0,16.681-9.157v-.022a27.48,27.48,0,0,0-15.682-24.824c-3.484,3.477-7.564,5.349-11.8,5.349a15.288,15.288,0,0,1-8-2.335C1110.813,2883.587,1110.582,2883.93,1110.346,2884.266Z" fill="#dd474d"/>
                <path id="Trazado_5172" data-name="Trazado 5172" d="M1115.978,2867.587a28.448,28.448,0,0,1-2.617,11.351,10.562,10.562,0,0,0,5.671,1.765c8.394,0,15.2-11.481,15.2-19.877a15.2,15.2,0,0,0-26.81-9.807A20.328,20.328,0,0,1,1115.978,2867.587Z" fill="#efc59c"/>
              </g>
            </g>
          </g>
        </g>
      </g>
    </g>
  </g>
</svg>
