<svg xmlns="http://www.w3.org/2000/svg" width="528.272" height="270.806" viewBox="0 0 528.272 270.806">
  <g id="Grupo_7808" data-name="Grupo 7808" transform="translate(-668.036 -4853.011)">
    <g id="Grupo_7807" data-name="Grupo 7807">
      <path id="Trazado_5174" data-name="Trazado 5174" d="M694.424,5123.736s-56.749-120.848,55.1-120.848c59.095,0,34.751-33.157,74.928-71.53s180.684-69.03,210.59,5.069-44,130.358,27.414,120.707c85.821-11.6,119.723,66.6,119.723,66.6Z" fill="#fbecdb"/>
      <path id="Trazado_5175" data-name="Trazado 5175" d="M1154.033,5108.4c-5.3-3.87-16.117-1.257-24.1,1.537a36.41,36.41,0,0,0-4.389-5.093c17.2-11.083,40.967-34.719,28.373-36.72-10.949-1.739-25.724,19.536-33.621,32.487-8.2-5.516-20.765-9.571-39.949-8.165-49.787,3.65-88.681-28.465-117.351-17.754-22.795,8.517-43.686,13.288-63.833,11.658.867-14.718,1.055-43.616-10.5-46.614-11.733-3.043-.224,29.775,6.172,46.161q-2.251-.288-4.492-.687c-4.142-8.167-10.967-18.855-18.462-19.221-7.058-.343,1.653,9.265,10.225,17.406-24.638-5.173-53.864,14.855-54.349,38.535h307.594a28.519,28.519,0,0,0-2.959-8.014C1144.275,5113.685,1159.785,5112.606,1154.033,5108.4Z" fill="#a8d29f"/>
      <g id="Grupo_7792" data-name="Grupo 7792">
        <g id="Grupo_7791" data-name="Grupo 7791">
          <rect id="Rectángulo_2805" data-name="Rectángulo 2805" width="81.07" height="18.306" transform="translate(813.777 5103.63)" fill="#4a75cb"/>
          <rect id="Rectángulo_2806" data-name="Rectángulo 2806" width="81.07" height="18.307" transform="translate(788.78 5103.629)" fill="#699dee"/>
        </g>
      </g>
      <g id="Grupo_7795" data-name="Grupo 7795">
        <g id="Grupo_7794" data-name="Grupo 7794">
          <g id="Grupo_7793" data-name="Grupo 7793">
            <rect id="Rectángulo_2807" data-name="Rectángulo 2807" width="60.366" height="84.376" transform="translate(987.106 5121.932) rotate(180)" fill="#d86713"/>
            <rect id="Rectángulo_2808" data-name="Rectángulo 2808" width="60.366" height="84.376" transform="translate(968.493 5121.932) rotate(180)" fill="#f1a34f"/>
          </g>
        </g>
        <path id="Trazado_5176" data-name="Trazado 5176" d="M968.493,5037.556l18.613,12.669v-12.669Z" fill="#c95c12"/>
      </g>
      <g id="Grupo_7798" data-name="Grupo 7798">
        <path id="Trazado_5177" data-name="Trazado 5177" d="M782.148,5056.246s-11.289,8.4-13.49,7.886,8.25-9.062,8.25-9.062c-3.933-1.891-16.159-.7-16.159-.7s-4.072,13.132-6.08,12.1,4.2-11.445,4.2-11.445c-4.38-.264-9.753,2.989-9.753,2.989-7.355,5.808.483,14.953.483,14.953a22.345,22.345,0,0,1-6.154,8.637,19.408,19.408,0,0,0-7.094,13.672l1.2.108s1.909-8.164,5.377-12.026c.135-.139.331-.34.573-.584.565-.523.961-.917,1.227-1.209,1.726-1.658,4.112-3.771,5.261-3.976a2.194,2.194,0,0,1-.049-.578c.016.185.032.376.049.578.394,4.622,9.36,8.658,14.876,9.488s3.811-1.437,1.911-4.8-7.916-4.867-9.288-6.415,1.465-1.552,4.789-.034,3.778,5.566,9.11,8.119,13.354-6.294,13.354-6.294c-4.249-.216-10.317-4.83-10.1-6.242s10.3,2.436,12.024,2.62,5.644-1.958,6.25-8.9S782.148,5056.246,782.148,5056.246Z" fill="#82b378"/>
        <g id="Grupo_7796" data-name="Grupo 7796">
          <path id="Trazado_5178" data-name="Trazado 5178" d="M722.193,5061.459s12.469-6.983,6.65-16.459c0,0-4.655-5.819-9.643-7.315,0,0,2.66,14.131,0,14.464s-1.829-15.961-1.829-15.961-13.134-6.317-18.288-5.819c0,0,8.147,13.8,5.487,13.467s-11.8-14.3-11.8-14.3-13.467-2.494-15.628,5.487,1.33,11.97,3.325,12.469,14.8.332,14.464,1.995-8.977,4.322-13.8,2.826c0,0,5.32,13.134,12.3,12.469s9.144-4.988,13.466-5.32,7.482.831,5.32,2-9.476.381-12.967,3.349-6.318,4.8.166,6.127,18.122.5,20.449-4.489Z" fill="#a8d29f"/>
          <path id="Trazado_5179" data-name="Trazado 5179" d="M725.518,5073.6a26.512,26.512,0,0,1-3.325-12.136c-3.99-12.636-38.9-23.941-38.9-23.941,44.389,17.956,36.575,28.928,36.575,28.928,1.2.7,2.99,4.025,4.235,6.578.177.435.458,1.036.875,1.852h0c.169.369.3.671.4.882,2.286,5.719,1.075,15.594,1.075,15.594l1.385.372A23.026,23.026,0,0,0,725.518,5073.6Z" fill="#82b378"/>
        </g>
        <g id="Grupo_7797" data-name="Grupo 7797">
          <path id="Trazado_5180" data-name="Trazado 5180" d="M742.03,5051.829s-16.437-9.2-8.766-21.7c0,0,6.136-7.67,12.71-9.643,0,0-3.506,18.628,0,19.066s2.411-21.038,2.411-21.038,17.313-8.328,24.107-7.67c0,0-10.739,18.189-7.232,17.751s15.559-18.847,15.559-18.847,17.752-3.288,20.6,7.232-1.754,15.779-4.383,16.436-19.505.438-19.067,2.63,11.835,5.7,18.19,3.725c0,0-7.013,17.313-16.217,16.437s-12.054-6.575-17.751-7.013-9.862,1.1-7.013,2.63,12.491.5,17.094,4.415,8.327,6.323-.22,8.076-23.887.658-26.955-5.917Z" fill="#a8d29f"/>
          <path id="Trazado_5181" data-name="Trazado 5181" d="M793.311,5020.271s-46.022,14.9-51.281,31.558a34.959,34.959,0,0,1-4.384,16s-7.1,10.777-3.051,23.9l1.826-.491s-1.6-13.017,1.417-20.555c.123-.278.3-.676.524-1.162h0c.55-1.076.92-1.869,1.154-2.442,1.641-3.365,4.005-7.751,5.582-8.671C745.1,5058.4,734.8,5043.939,793.311,5020.271Z" fill="#82b378"/>
        </g>
        <path id="Trazado_5182" data-name="Trazado 5182" d="M741.476,5120.174a32.2,32.2,0,0,0,32.2-32.2H709.28A32.2,32.2,0,0,0,741.476,5120.174Z" fill="#f1a34f"/>
        <path id="Trazado_5183" data-name="Trazado 5183" d="M749.4,5119.928a32.224,32.224,0,0,1-36.2-31.951h8A32.2,32.2,0,0,0,749.4,5119.928Z" fill="#ffb973"/>
        <path id="Trazado_5184" data-name="Trazado 5184" d="M770.145,5117.96H712.807a3.972,3.972,0,0,0-3.972,3.972h65.282A3.973,3.973,0,0,0,770.145,5117.96Z" fill="#f1a34f"/>
        <path id="Trazado_5185" data-name="Trazado 5185" d="M773.91,5087.977H708.715a.494.494,0,1,0,0,.988H773.91a.494.494,0,1,0,0-.988Z" fill="#d86713"/>
      </g>
      <g id="Grupo_7799" data-name="Grupo 7799">
        <path id="Trazado_5186" data-name="Trazado 5186" d="M1022.354,4918.436c-.933-.142-3.745,2.458-3.745,2.458h0c-6.005.694-14.784,2.288-17.944,2.9-2.241.432-8.265-1.622-14.151-3.981-7-2.806-13.8-6.043-13.8-6.043-3.884-.2-8.294,6.889-.418,11.394,1.2.688,5.721,1.861,10.923,2.933h0c7.177,1.478,15.655,2.762,18.541,2.311,3.352-.525,12.841-4,18.486-6.654h0l.014-.007.063-.03a6.924,6.924,0,0,1,2.642-.719c1.058.063,3.413-1.872,3.485-2.389S1023.288,4918.577,1022.354,4918.436Z" fill="#ed975d"/>
        <path id="Trazado_5187" data-name="Trazado 5187" d="M1015.022,5007.705l-3.306.671s-15.13-17-17.464-24.153c-1.25-3.822-9.237-5.474-17.585-7.632-7.265-1.879-14.8-4.142-18.4-8.558-7.738-9.488,4.859-21.147,4.859-21.147s13.4,7.961,24.95,16.185c8.077,5.748,15.255,11.623,16.337,15C1007.037,4986.283,1012.608,5001.893,1015.022,5007.705Z" fill="#2b478b"/>
        <path id="Trazado_5188" data-name="Trazado 5188" d="M1010.6,5013.313h1.86c.623-.1,1.083-.279,1.722-.362a1.725,1.725,0,0,1,1.506.362l.017.018h7.9c.2-.283.008-.941-.179-1.425a1.126,1.126,0,0,0-.74-.676,8.508,8.508,0,0,1-4-1.828c-.851-.769-4.109-2.827-4.109-2.827l-.018,0c-.071,0-.412.106-1.894,1.357-.766.646-2.071-.912-2.071-.912a1.858,1.858,0,0,0-.429.581,1.962,1.962,0,0,0-.169,1.213,7.849,7.849,0,0,1-.567,2.929c-.183.543-.339.927-.339.927S1009,5013.113,1010.6,5013.313Z" fill="#233862"/>
        <path id="Trazado_5189" data-name="Trazado 5189" d="M988.073,4963.071l-11.406,13.52c-7.265-1.879-14.8-4.142-18.4-8.558-7.738-9.488,4.859-21.147,4.859-21.147S976.518,4954.847,988.073,4963.071Z" fill="#1e3d70"/>
        <path id="Trazado_5190" data-name="Trazado 5190" d="M977.709,4956.01s-.92,2.9-2.417,7.262c-1.893,5.515-4.712,13.369-7.77,20.653-.672,1.6-1.356,3.174-2.044,4.688-2.543,5.6-5.147,10.41-7.439,12.851-4.118,4.39-14.131,32.608-14.131,32.608l-2.495-.69s-3.478-24.1,8.844-37.808a.867.867,0,0,0,.249-.511l0-.006c.164-2.029.75-11.118,2.026-20.328.314-2.26.669-4.525,1.068-6.7.025-.139.052-.276.076-.413,1.875-10.037,3.67-14.5,5.987-16.747l17.035,4.85Z" fill="#2b478b"/>
        <path id="Trazado_5191" data-name="Trazado 5191" d="M941.135,5037.538h1.86c.623-.1,1.083-.279,1.722-.362a1.719,1.719,0,0,1,1.505.362l.018.018h7.9c.2-.284.008-.941-.179-1.425a1.126,1.126,0,0,0-.74-.676,8.51,8.51,0,0,1-4-1.828c-.851-.768-4.109-2.827-4.109-2.827l-.017,0c-.072,0-.412.106-1.894,1.357-.766.646-2.072-.912-2.072-.912a1.86,1.86,0,0,0-.428.581,1.971,1.971,0,0,0-.17,1.213,7.848,7.848,0,0,1-.566,2.929c-.184.542-.339.927-.339.927S939.535,5037.338,941.135,5037.538Z" fill="#233862"/>
        <path id="Trazado_5192" data-name="Trazado 5192" d="M944.789,4923.239s-2.85,6.973-6.137,13.761c-2.764,5.706-5.835,11.281-7.783,12.47-2.746,1.678-10.311,6.41-15.218,9.939,0,0-3.83-.029-4.425.7s-1.967,4.028-1.567,4.361,3.446.179,4.185-.579a6.9,6.9,0,0,1,2.439-1.248l.066-.02.015,0h0c5.964-1.834,15.317-5.656,18.149-7.525,2.437-1.61,7.842-8.267,12.153-14.192h0c3.125-4.295,5.676-8.2,6.1-9.523C955.559,4922.748,947.527,4920.478,944.789,4923.239Z" fill="#ffb27d"/>
        <path id="Trazado_5193" data-name="Trazado 5193" d="M959.7,4895.9a14.1,14.1,0,0,0-1.021-1.319,3.221,3.221,0,0,0,1.258-.189c1-.414,1.457-3.59,1.306-4.532s-1.539-3.667-3.253-3.939-3.485,1.632-3.485,1.632c.316-1.374,3.216-2.166,3.216-2.166-5.973,1.1-5.668,5.085-5.627,5.453-5.467-1.948-8.677,8.348-8.677,8.348l14.162,8.346s.037-2.275,1.389-2.128C961.071,4905.63,962.825,4900.455,959.7,4895.9Z" fill="#2c3a64"/>
        <path id="Trazado_5194" data-name="Trazado 5194" d="M960.6,4917.5c-3.249,1.531-7.561-.675-7.538-.7.278-.279.181-1.113-.075-2.2a16.05,16.05,0,0,0-1.973-4.549c-.232-.4-.464-.789-.743-1.207l.372-.139,6.313-2.531s1.021,1.834,2.089,3.5c.9,1.393,1.857,2.646,2.275,2.6C961.341,4912.253,965.519,4915.131,960.6,4917.5Z" fill="#ffb27d"/>
        <path id="Trazado_5195" data-name="Trazado 5195" d="M956.954,4906.8c-.162,2.251-.928,6.313-3.969,7.8a16.05,16.05,0,0,0-1.973-4.549Z" fill="#ed975d"/>
        <path id="Trazado_5196" data-name="Trazado 5196" d="M950.643,4912.61s8.219-3.24,6.123-8.327-2.448-8.932-7.784-7.079-5.55,4.212-5.263,6.081S948.45,4913.322,950.643,4912.61Z" fill="#ffb27d"/>
        <path id="Trazado_5197" data-name="Trazado 5197" d="M953.708,4903.123c3.795-.536,4.9-2.07,4.9-2.07a10.514,10.514,0,0,1-5.549-4.426s-4.266-1.439-7.427.966a2.136,2.136,0,0,0-.4.892c-.725-.238-1.814-.176-2.443,1.872-.944,3.076,2.415,6.435,2.415,6.435.815-.231-.1-2.972-.232-4.435a6.92,6.92,0,0,1,.8-3.109c.4.522,4.406,5.554,9.294,5.754a20.6,20.6,0,0,1-4.933-2.648A6.317,6.317,0,0,0,953.708,4903.123Z" fill="#2c3a64"/>
        <path id="Trazado_5198" data-name="Trazado 5198" d="M976.247,4927.98c-.069-.245-.144-.5-.223-.761A19.256,19.256,0,0,0,978.1,4921a12.472,12.472,0,0,0-.4-6.081s-5.7-3.024-8.218-3.408a.1.1,0,0,0-.032-.01c-.029,0-.063-.007-.1-.009-2.541-.351-8.042.772-8.042.772a3.982,3.982,0,0,1-1.933,4.709c-2.994,1.883-6.192-.482-6.192-.482-.1.064-.2.136-.3.211h0s-7.878,5.2-8.585,6.386-3.737,7.069-3.737,7.069.961,4.938,11.6,5.351a24.611,24.611,0,0,1,1.762,5.917c.846,6.7-.136,11.99.85,15.9s18.741,1.681,21.957.928,2.492-4.186,2.739-7.522C979.782,4946.544,977.294,4931.678,976.247,4927.98Z" fill="#699dee"/>
        <path id="Trazado_5199" data-name="Trazado 5199" d="M978.1,4921a19.29,19.29,0,0,1-2.089,6.244c-.279-1.23-1.416-5.733-3.249-7.776A15.733,15.733,0,0,1,978.1,4921Z" fill="#4a82d3"/>
      </g>
      <g id="Grupo_7803" data-name="Grupo 7803">
        <path id="Trazado_5200" data-name="Trazado 5200" d="M905.8,4964.928a56.031,56.031,0,0,1,4.02-4.482,12.23,12.23,0,0,1,4.016-1.138c.178.168.187.41-.2.752s-1.864,1.2-1.654,1.3,4.669-2.122,5.312-1.376-.364,3.828-2.082,5.306-6.845,2.107-7.168,2.313C905.308,4969.353,905.8,4964.928,905.8,4964.928Z" fill="#ed975d"/>
        <path id="Trazado_5201" data-name="Trazado 5201" d="M847.558,4955.672s4.752,5.638,10.8,3.279a18.354,18.354,0,0,0,1.321-5.47c0-.286.005-.562.01-.826.032-2.614.12-4.08.12-4.08h-.006c-.275-.115-9.252-3.8-9.244-3.5C850.717,4952.149,847.558,4955.672,847.558,4955.672Z" fill="#ffb27d"/>
        <path id="Trazado_5202" data-name="Trazado 5202" d="M851.464,4946.765a14.033,14.033,0,0,0,8.229,5.89c.032-2.614.12-4.08.12-4.08h-.006C859.558,4948.507,851.206,4946.292,851.464,4946.765Z" fill="#ed975d"/>
        <path id="Trazado_5203" data-name="Trazado 5203" d="M861.693,4948.3s-10.095,2.373-11.476-3.936-3.615-10.252,2.772-12.034,8.171.35,9.144,2.344S864.283,4947.523,861.693,4948.3Z" fill="#ffb27d"/>
        <path id="Trazado_5204" data-name="Trazado 5204" d="M850.562,4946.086c-.138.088-2.31.756-6.424-7.439a7.139,7.139,0,0,1,.42-6.528c1.506-2.459,6.843-4.393,11.277-5.234s5.5,1.654,6.544,4.162c1.1,2.632,4.262,4.8,4.262,4.8-3.824,2.137-8.43-.919-10.026-.416s-2.159,3.017-2.279,3.823-.3,1.476-2.31.756-.907,2.843-.586,3.525C851.44,4943.534,851.713,4945.349,850.562,4946.086Z" fill="#a9453d"/>
        <g id="Grupo_7800" data-name="Grupo 7800">
          <path id="Trazado_5205" data-name="Trazado 5205" d="M824.557,5103.63h-6.112c-1.282,0-2.706-1.3-3.062-3.681s-2.99-3.68-3.561-5.629,2.351-4.692,2.351-4.692l.488-.635.508-.663,4.842,1.154s.119,1.168.194,2.657c.052,1.074.08,2.317.02,3.406-.143,2.6.718,5.4,3,5.9S824.557,5103.63,824.557,5103.63Z" fill="#2c3a64"/>
          <path id="Trazado_5206" data-name="Trazado 5206" d="M867.111,5103.689h-16.2a1.391,1.391,0,0,1-.344-.1c-1.082-.557-.743-4.822-.613-6.139.025-.244.042-.387.042-.387s5.7-4.692,6.482-1.1q.038.168.084.33v0c.989,3.361,5.41,4.888,7.964,5.314A2.808,2.808,0,0,1,867.111,5103.689Z" fill="#2c3a64"/>
          <path id="Trazado_5207" data-name="Trazado 5207" d="M863.845,5009.991s-.865,10.795-1.882,23.772c-1.383,17.629-3.045,39.282-3.209,43.384-.285,7.124-1.425,18.518-1.425,18.518s-2.7,2.707-8.119,1.566a186.378,186.378,0,0,1-6.2-33.475q-.031-.423-.064-.851c-1.281-17.519-3.275-54.41-3.275-54.41Z" fill="#ee9849"/>
          <path id="Trazado_5208" data-name="Trazado 5208" d="M863.845,5009.991s-.865,10.795-1.882,23.772l-18.956,29.993q-.031-.423-.064-.851c-1.281-17.519-3.275-54.41-3.275-54.41Z" fill="#e58638"/>
          <path id="Trazado_5209" data-name="Trazado 5209" d="M859.893,5011.273s-15.6,39.1-25.851,57.472-13.46,23.5-13.46,23.5-5.876-2.35-6.41-3.952c0,0,3.922-35.472,10.789-44.119,3.881-4.886,8.44-19.549,8.653-24.677S835,5004.222,835,5004.222Z" fill="#ee9849"/>
        </g>
        <g id="Grupo_7801" data-name="Grupo 7801">
          <path id="Trazado_5210" data-name="Trazado 5210" d="M824.184,5004.761a52.83,52.83,0,0,1-.7,5.633,11.5,11.5,0,0,1-2.5,3.04c-.228-.033-.365-.216-.249-.689s.795-1.935.58-1.9-2.472,4.154-3.371,3.923-1.778-3.159-1.243-5.227,4.165-5.314,4.3-5.647C822.184,5001.072,824.184,5004.761,824.184,5004.761Z" fill="#ed975d"/>
          <path id="Trazado_5211" data-name="Trazado 5211" d="M822.51,5006c1.727.554,2,.429,2,.429s8.4-15.3,9.253-16.7,17.84-17.155,17.84-17.155l-4.366-16.28s-19.322,25.022-21.409,28.612c-3.448,5.933-5.468,19.713-5.468,19.713A5.056,5.056,0,0,0,822.51,5006Z" fill="#1e3d70"/>
        </g>
        <path id="Trazado_5212" data-name="Trazado 5212" d="M867.137,4978.968c-.06,3.344-.254,7.1-.516,10.919-.016.227-.033.453-.048.679-.168,2.365-.35,4.735-.558,7.047-.084.927-.173,1.843-.266,2.742l-.014.122c-.007.337-.048.7-.086,1.035-.851,8.658-1.744,15.5-1.91,15.6a.981.981,0,0,1-.665.169c-2.27-.285-9.044.23-14.59-.977a42.023,42.023,0,0,1-12.979-5.382c-.567-.335-1.859-1.222-1.754-1.885.1-.729.294-1.782.537-3.106a168.254,168.254,0,0,0,2.789-21.8q.144-2.592.418-5.11a77.532,77.532,0,0,1,2.262-12.2c1.9-6.847,4.7-12.09,8.2-14.141.458-.257,2.923,1.311,5.186,2.764a10,10,0,0,0,6.432,1.524l1.884,2.083a21.038,21.038,0,0,1,5.373,11.2q.075.557.128,1.184A73.4,73.4,0,0,1,867.137,4978.968Z" fill="#2a4e96"/>
        <path id="Trazado_5213" data-name="Trazado 5213" d="M867.137,4978.968c-.06,3.344-.254,7.1-.516,10.919-.016.227-.033.453-.048.679-12.969-8.117-14.967-22.971-14.967-22.971a35.465,35.465,0,0,1,15.355,3.844A73.4,73.4,0,0,1,867.137,4978.968Z" fill="#1e3d70"/>
        <g id="Grupo_7802" data-name="Grupo 7802">
          <path id="Trazado_5214" data-name="Trazado 5214" d="M907.768,4965.33c-.669-1.809-1.708-1.691-1.708-1.691s-19.282,4.8-21.013,5.011-20.764-7.432-20.764-7.432-7.491-3.362-11-.292c-3.049,2.668-3.188,6.047-2.474,8.885a8.486,8.486,0,0,0,7.171,6.322c7.765.989,23.258,2.85,26.505,2.4,7.228-1.006,23.6-10.459,23.6-10.459A6.062,6.062,0,0,0,907.768,4965.33Z" fill="#2a4e96"/>
        </g>
      </g>
      <g id="man">
        <g id="Grupo_7804" data-name="Grupo 7804">
          <path id="Trazado_5215" data-name="Trazado 5215" d="M1097.9,5000.672s2.679,2.483,2.156,4.247-2.94,2.94-3.267,5.1-1.634,3.333-2.81,3.333h-5.607s-.865-1.518,1.226-1.975,2.879-2.991,2.748-5.343a42.038,42.038,0,0,1,.2-5.489l4.443-1.045Z" fill="#2c3a64"/>
          <path id="Trazado_5216" data-name="Trazado 5216" d="M1064.513,5013.054a10.379,10.379,0,0,1-2.537.293H1049.3c.042-.377.337-1.721,2.411-2.056,2.342-.38,6.4-1.742,7.3-4.738.03-.1.056-.2.078-.294.718-3.2,5.945.98,5.945.98s.015.128.038.346C1065.195,5008.762,1065.5,5012.559,1064.513,5013.054Z" fill="#2c3a64"/>
          <path id="Trazado_5217" data-name="Trazado 5217" d="M1052.328,4927.421s.794,9.905,1.727,21.811c1.268,16.173,2.793,36.04,2.944,39.8.261,6.535,1.307,16.989,1.307,16.989s2.482,2.483,7.449,1.436a170.976,170.976,0,0,0,5.69-30.711c.02-.259.04-.52.059-.78,1.176-16.074,3.005-49.92,3.005-49.92Z" fill="#35488b"/>
          <path id="Trazado_5218" data-name="Trazado 5218" d="M1052.328,4927.421s.794,9.905,1.727,21.811l17.39,27.517c.02-.259.04-.52.059-.78,1.176-16.074,3.005-49.92,3.005-49.92Z" fill="#2c3a64"/>
          <path id="Trazado_5219" data-name="Trazado 5219" d="M1055.953,4928.6s14.309,35.871,23.718,52.728,12.349,21.562,12.349,21.562,5.391-2.157,5.881-3.627c0,0-3.6-32.544-9.9-40.477-3.561-4.483-7.743-17.935-7.939-22.64s-1.274-14.015-1.274-14.015Z" fill="#35488b"/>
        </g>
        <g id="Grupo_7805" data-name="Grupo 7805">
          <path id="Trazado_5220" data-name="Trazado 5220" d="M1011.818,4909.142a43.142,43.142,0,0,0-4.535-.843,9.36,9.36,0,0,0-2.968,1.187c-.031.184.077.335.472.362s1.7-.141,1.612.017-3.826.893-3.867,1.647,2.01,2.153,3.743,2.247,5.139-1.919,5.432-1.945C1014.184,4911.6,1011.818,4909.142,1011.818,4909.142Z" fill="#ffb27d"/>
          <path id="Trazado_5221" data-name="Trazado 5221" d="M1010.156,4910.128c-.556-1.773-.426-2.055-.426-2.055s15.733-8.508,17.174-9.37,17.7-18.166,17.7-18.166l16.654,4.584s-25.771,19.632-29.465,21.746c-6.1,3.493-20.237,5.471-20.237,5.471A5.18,5.18,0,0,1,1010.156,4910.128Z" fill="#e58638"/>
        </g>
        <path id="Trazado_5222" data-name="Trazado 5222" d="M1049.65,4872.126s-5.839,10.272-11.545,11.613a15.58,15.58,0,0,1,1.627-5.811c-.569-.671-1.069-1.287-1.5-1.839a34.4,34.4,0,0,1-2.12-2.968l1.937-5.207,1.314-3.532a17.034,17.034,0,0,0,2.053,2.959A13.967,13.967,0,0,0,1049.65,4872.126Z" fill="#ffb27d"/>
        <path id="Trazado_5223" data-name="Trazado 5223" d="M1041.415,4867.341a10.835,10.835,0,0,1-3.184,8.748,34.4,34.4,0,0,1-2.12-2.968l1.937-5.207A11.084,11.084,0,0,1,1041.415,4867.341Z" fill="#ed975d"/>
        <path id="Trazado_5224" data-name="Trazado 5224" d="M1034.572,4873.88s8.724-3.4,6.522-8.8-2.558-9.476-8.221-7.533-5.9,4.442-5.6,6.423S1032.247,4874.626,1034.572,4873.88Z" fill="#ffb27d"/>
        <path id="Trazado_5225" data-name="Trazado 5225" d="M1079.635,4924.84c-3.52,5.059-29.829,11.819-29.517,8.317a38.034,38.034,0,0,0,0-6.907q-.1-1.125-.279-2.386a55.042,55.042,0,0,0-5.8-17.367c-.265-.514-.541-1.03-.828-1.554a53.519,53.519,0,0,1-3.648-8.2c-1.824-5.268-2.558-10.308-1.638-13.6a.382.382,0,0,1,.014-.046c5.5-2.544,7.631-12.406,7.631-12.406s18.763,3.368,29.273,28.379C1074.841,4899.071,1082.7,4920.437,1079.635,4924.84Z" fill="#ee9849"/>
        <path id="Trazado_5226" data-name="Trazado 5226" d="M1050.114,4926.25q-.1-1.125-.279-2.386a55.042,55.042,0,0,0-5.8-17.367c.608-3.686,1.447-6.751,2.369-8.13,3.742-5.609,5.922-6.485,5.922-6.485S1057.94,4915.548,1050.114,4926.25Z" fill="#e58638"/>
        <g id="Grupo_7806" data-name="Grupo 7806">
          <path id="Trazado_5227" data-name="Trazado 5227" d="M1020.537,4920.619a56.044,56.044,0,0,0-5.995.563,12.206,12.206,0,0,0-3.3,2.549c.029.244.218.394.724.287s2.077-.782,2.03-.555-4.485,2.489-4.267,3.449,3.292,1.986,5.5,1.485,5.768-4.247,6.126-4.383C1024.386,4922.857,1020.537,4920.619,1020.537,4920.619Z" fill="#ffb27d"/>
          <path id="Trazado_5228" data-name="Trazado 5228" d="M1019.559,4922.588c-1.04-1.68-.291-2.447-.291-2.447s16.035-12.554,17.291-13.822,7.079-21.464,7.079-21.464,2-8.173,6.7-9.074c4.078-.783,6.9,1.234,8.74,3.6a8.694,8.694,0,0,1,.59,9.779c-4.094,6.9-12.353,20.592-14.765,22.932-5.367,5.206-23.326,12.483-23.326,12.483A6.212,6.212,0,0,1,1019.559,4922.588Z" fill="#ee9849"/>
        </g>
        <path id="Trazado_5229" data-name="Trazado 5229" d="M1042.346,4855.049c.062-.12.239-.249.672-.382a1.821,1.821,0,0,0-.878-.033,2.309,2.309,0,0,0-1.957-1.623,1.379,1.379,0,0,1,.877.808c-1.531-.97-4.367-1.252-11.447,1.107-9.332,3.108-4.669,8.525-3.255,8.959s4.018-2.353,6.359-2.733,3.609,2.881,4.5,3.152.385-.472,1.32-1.215,1.471,1.005,1.451,2.233,1.8,2.393,1.8,2.393l1.069-1.961c1.069-1.961.778-9.08-.244-10.362C1042.529,4855.279,1042.439,4855.164,1042.346,4855.049Z" fill="#2b478b"/>
      </g>
      <rect id="Rectángulo_2809" data-name="Rectángulo 2809" width="528.272" height="1.885" rx="0.657" transform="translate(668.036 5121.932)" fill="#2e3552"/>
      <path id="Trazado_5230" data-name="Trazado 5230" d="M894.848,5103.424v10.561l-25-10.561Z" fill="#4271bc"/>
      <rect id="Rectángulo_2810" data-name="Rectángulo 2810" width="82.671" height="108.585" transform="translate(1026.108 5013.347)" fill="#4a75cb"/>
      <rect id="Rectángulo_2811" data-name="Rectángulo 2811" width="82.672" height="108.585" transform="translate(1000.617 5013.348)" fill="#699dee"/>
      <path id="Trazado_5231" data-name="Trazado 5231" d="M1108.779,5013.348v16.237l-25.49-16.237Z" fill="#4271bc"/>
    </g>
  </g>
</svg>
